<svg version="1.1" xmlns="http://www.w3.org/2000/svg" viewBox="0 0 558.2581323090694 901.1001668317634" width="558.2581323090694" height="901.1001668317634">
  <!-- svg-source:excalidraw -->
  
  <defs>
    <style class="style-fonts">
      @font-face {
        font-family: "Virgil";
        src: url("https://unpkg.com/@excalidraw/excalidraw@0.15.3/dist/excalidraw-assets/Virgil.woff2");
      }
      @font-face {
        font-family: "Cascadia";
        src: url("https://unpkg.com/@excalidraw/excalidraw@0.15.3/dist/excalidraw-assets/Cascadia.woff2");
      }
    </style>
  </defs>
  <rect x="0" y="0" width="558.2581323090694" height="901.1001668317634" fill="#ffffff"></rect><g stroke-linecap="round" transform="translate(176.22281615453494 680.1001668317634) rotate(0 136 105.5)"><path d="M32 0 M32 0 C105.81 0, 179.62 0, 240 0 M32 0 C85.01 0, 138.03 0, 240 0 M240 0 C261.33 0, 272 10.67, 272 32 M240 0 C261.33 0, 272 10.67, 272 32 M272 32 C272 74.68, 272 117.35, 272 179 M272 32 C272 72.02, 272 112.04, 272 179 M272 179 C272 200.33, 261.33 211, 240 211 M272 179 C272 200.33, 261.33 211, 240 211 M240 211 C156.99 211, 73.97 211, 32 211 M240 211 C179.63 211, 119.26 211, 32 211 M32 211 C10.67 211, 0 200.33, 0 179 M32 211 C10.67 211, 0 200.33, 0 179 M0 179 C0 129.06, 0 79.13, 0 32 M0 179 C0 140.66, 0 102.32, 0 32 M0 32 C0 10.67, 10.67 0, 32 0 M0 32 C0 10.67, 10.67 0, 32 0" stroke="#2f9e44" stroke-width="1" fill="none"></path></g><g transform="translate(239.22281615453494 685.1001668317634) rotate(0 73 11.5)"><text x="73" y="0" font-family="Helvetica, Segoe UI Emoji" font-size="20px" fill="#2f9e44" text-anchor="middle" style="white-space: pre;" direction="ltr" dominant-baseline="text-before-edge">WASM Executor</text></g><g stroke-linecap="round"><g transform="translate(272.02937244789655 258.0679398645241) rotate(359.4065005901092 41.18246543006762 102.38142215218113)" fill-rule="evenodd"><path d="M3.36 -7.68 C3.36 -7.68, 3.36 -7.68, 3.36 -7.68 M3.36 -7.68 C3.36 -7.68, 3.36 -7.68, 3.36 -7.68 M0.37 0.08 C6.29 -2.95, 8.94 -7.02, 10.9 -12.07 M0.64 0.46 C3.54 -1.21, 6.33 -4.34, 10.84 -11 M2.08 9.03 C9.48 0.24, 15.57 -7.51, 18.55 -16.33 M1.47 8.34 C6.09 1.55, 10.21 -4.06, 19.88 -15.5 M2.48 11.36 C8.29 5.21, 18.71 -5.99, 26.25 -18.09 M1.67 13.5 C9.64 4.4, 17.54 -4.85, 27.35 -17.1 M2.67 20.98 C8.81 10.75, 14.53 3.13, 31.55 -17.4 M1.98 18.8 C13.15 5.09, 25.25 -7.39, 33.09 -15.95 M0.23 26.33 C9.96 14.93, 21.95 1.88, 40.56 -19.55 M1.5 25.07 C11.38 13.12, 22.84 1.5, 40.43 -19.16 M1.82 30.17 C11.64 18.87, 19.59 10.91, 45.82 -20.17 M1.41 31.98 C17.67 11.36, 35.46 -7.7, 45.16 -18.67 M1.75 38.31 C18.61 20.98, 31.67 0.61, 50.16 -19.17 M0.48 37.78 C12.35 24.24, 23.84 11.63, 50.28 -18.15 M2.01 43.86 C23.64 21.1, 41.37 -5.28, 52.76 -17.59 M2.16 42.6 C17.32 26.64, 33.55 6.93, 53.14 -16.88 M0.33 51.53 C16.14 32.29, 31.29 15.27, 59.82 -16.45 M1.56 49.63 C19.12 27.62, 37.74 7.74, 59.08 -15.59 M0.73 54.31 C24.85 30.07, 48.81 0.61, 63.27 -15.43 M1.09 54.91 C18.28 36.47, 34.98 17.38, 63.1 -14.12 M2.31 61.53 C18.81 43.27, 34.69 25.28, 66.69 -14.9 M0.2 62.35 C24.28 33.55, 50.33 5.93, 66.85 -14.5 M1.81 67.55 C24.22 43.29, 42.94 17.52, 71.35 -13.92 M0.94 67.42 C17 49.72, 34.66 28.52, 71.66 -11.9 M1.67 72.06 C26.01 48.38, 49.65 20.13, 73.58 -11.48 M1.04 74.44 C30.03 42.23, 58.36 8.01, 74.84 -10.89 M2.04 80.33 C25.61 48.21, 54.17 20.81, 76.02 -6.02 M0.91 79.85 C23 56.16, 46.7 30.81, 78 -7.96 M3.39 87.9 C29.86 51.98, 57.21 20.37, 81.67 -5.42 M1.22 85.9 C27.12 58.79, 50.91 29.59, 80.1 -4.5 M-0.75 92.67 C25.43 67.83, 46.28 40.08, 81.25 -1.98 M0.71 91.7 C18.79 69.98, 38.35 49.64, 81.75 -0.81 M83.15 -1.92 C83.15 -1.92, 83.15 -1.92, 83.15 -1.92 M83.15 -1.92 C83.15 -1.92, 83.15 -1.92, 83.15 -1.92 M2.53 99.19 C16.93 81.56, 33.2 61.44, 84.33 4.84 M0.84 99.57 C20.22 76.41, 40.47 55.27, 83.33 4.42 M0.47 105.91 C31.4 70.13, 60.65 34.48, 82.72 10.8 M2.23 104.72 C22.89 79.95, 43.57 55.44, 82.81 9.21 M1.16 112.45 C17.94 90.66, 35.4 69.98, 81.34 15.98 M1.48 110.49 C20.21 88.01, 40.12 66.93, 83.47 15.98 M0.54 117.01 C30.09 81.93, 61.74 44.9, 83.32 22.36 M1.56 117.97 C28.29 85.05, 55.72 56.01, 83.2 21.39 M2.22 121.07 C24.19 96.92, 46.68 69.81, 83.49 27.54 M2.1 122.06 C26.49 93.73, 49.46 66.15, 83.55 29.21 M1.56 129.72 C35.55 93.59, 67.32 55.76, 83.02 33.37 M0.41 128.79 C33.45 91.43, 65.95 53.11, 83.36 34.05 M0.2 136.31 C36.57 97.39, 69.39 60.35, 82.12 42.05 M1.09 135.01 C21.99 110.94, 42.62 87.29, 82.53 40.36 M2.87 142.56 C32.85 104.05, 65.83 67.41, 82.66 48.83 M1.76 141.43 C32.8 104.21, 64.05 69.79, 83.54 46.19 M-0.07 147.2 C22.63 122.91, 44.12 99.52, 84.21 54.27 M0.67 148.35 C24.11 120.23, 45.21 94.55, 82.55 52.42 M-0.55 154.3 C29.77 118.75, 57.13 89.25, 84.03 60.5 M1.74 152.89 C28.38 124.37, 54.38 93.99, 82.4 58.04 M-0.8 161.49 C28.36 126.5, 59.2 91.73, 83.73 63.96 M1.56 160.31 C24.96 132.07, 48.52 104.22, 84.24 63.88 M1.28 164.71 C22.96 140.8, 45.27 112.61, 81.96 71.41 M0.99 165.66 C19.5 145.19, 37.71 123.62, 83.2 71.6 M0.84 170.2 C21.59 147.64, 42.93 121.4, 81.03 76.65 M0.95 170.88 C31.44 136.91, 61.27 104.01, 82.08 77.48 M0.7 179.29 C26.36 148.52, 52.1 118.71, 82.94 84.81 M-0.02 178.48 C19.25 155.63, 39.26 133.61, 84.3 83.62 M-0.66 184.6 C30.76 147.26, 62.69 109.35, 81.4 88.59 M1.26 184.81 C29.17 151.49, 54.8 121.04, 83.01 89.22 M-1.01 190.32 C28.58 154.95, 57.31 122.39, 84.44 96.98 M1.66 189.34 C21.89 168.03, 42.47 144.42, 82.6 94.32 M0.18 196.95 C35.45 160.84, 66.71 122.59, 83.16 103.31 M1.34 196.35 C31.59 161.71, 60.39 129.27, 82.51 100.83 M2.49 201.31 C15.92 181.17, 34.26 164.27, 82.3 109.94 M1.5 201.98 C26.4 173.51, 52.07 142.81, 82.81 108.22 M1.15 207.01 C20.69 187.41, 37.13 168.13, 84.3 112.56 M1.91 205.71 C31.04 172.55, 61.44 137.61, 83.21 112.82 M3.16 213.76 C27.77 182.83, 50.67 154.29, 81.31 120.44 M4.11 212.64 C21.58 191.11, 42.03 169.16, 84.13 119.04 M6.41 216.28 C36.88 181.96, 62.18 148.37, 81.8 125.12 M5.49 215.4 C25.28 193.03, 43.47 172.82, 84.25 125.16 M7.94 218.17 C32.62 188.08, 60.86 158.74, 83.3 132.49 M8.58 217.03 C35.84 186.36, 63.5 154.2, 84.3 132.29 M11.08 219.29 C31.64 193.88, 54.71 170.52, 83 139.5 M13.14 219.39 C25.14 204.19, 39.1 187.44, 82.61 138.11 M17.53 220.09 C31.63 205.28, 48.12 184.27, 81.76 142.38 M15.27 222.43 C30.63 205.64, 42.98 190.77, 84.18 144.19 M20 221.05 C38.88 202.74, 54.84 184.7, 84.18 148.96 M21.06 222.69 C34.45 206.73, 47.51 191.19, 83.72 151.16 M24.89 224 C35.23 208.36, 48.97 192.62, 85.17 155.36 M24.28 223.56 C46.6 197.46, 69.47 170.31, 83.17 156.5 M28.99 223.58 C49.13 199.32, 70.96 175.04, 82.69 162.03 M30 223.78 C40.69 209.63, 52.37 195.7, 83.56 161.54 M32.07 226.22 C46.85 211.33, 60.63 195.85, 84.36 170.45 M32.3 225.44 C48.43 208.52, 65.31 189.61, 82.5 169.21 M40.23 226.66 C47.69 213.5, 61.67 201.57, 83.49 175.46 M38.52 225.44 C52.09 211.55, 63.7 197.22, 83.27 175.26 M45.3 225.46 C56.91 211.34, 69.59 196.29, 83.12 181.42 M45.72 224.04 C58.69 209.67, 72.29 193.36, 83.85 181.55 M50.82 222.53 C64.12 209.18, 77.65 194.79, 82.58 187.02 M51.63 223.36 C56.8 216.79, 65.01 207.97, 84.48 185.79 M56.63 224.03 C63.94 215.49, 74.37 205.13, 82.28 193.27 M56.24 223.36 C67.91 211.4, 77.73 200.01, 83.45 192.53 M64.29 221.72 C68.19 215.65, 74.95 205.06, 82.28 200.23 M64.24 222.08 C68.13 217.03, 71.47 212.52, 82.67 198.9 M69.05 220.67 C73.14 219.83, 75.15 215.08, 82.33 203.28 M69.98 222.4 C73.7 217.41, 76.82 212.03, 82.69 205.88" stroke="#40c057" stroke-width="0.5" fill="none"></path><path d="M0.88 -1.1 C0.85 29.66, -0.38 150.72, -0.65 185.16 C-0.92 219.6, -1.68 200.82, -0.76 205.55 C0.17 210.29, 1.53 210.76, 4.9 213.57 C8.26 216.37, 13.02 220.44, 19.44 222.36 C25.86 224.29, 35.56 225.38, 43.43 225.12 C51.29 224.86, 60.3 223.02, 66.65 220.79 C73.01 218.57, 79.08 214.52, 81.54 211.76 C84.01 209.01, 81.35 208.49, 81.45 204.26 C81.54 200.03, 82.09 218.01, 82.13 186.38 C82.18 154.74, 81.88 45.73, 81.73 14.45 C81.58 -16.84, 82.02 2.77, 81.25 -1.33 C80.48 -5.43, 79.66 -7.88, 77.1 -10.15 C74.53 -12.43, 72.16 -13.27, 65.86 -14.98 C59.57 -16.7, 47.25 -19.94, 39.33 -20.42 C31.41 -20.91, 24.24 -20, 18.35 -17.88 C12.47 -15.77, 7.01 -10.68, 4.01 -7.72 C1.01 -4.76, 1.1 -1.55, 0.34 -0.13 C-0.43 1.29, -0.5 0.86, -0.56 0.78 M-0.12 0.94 C0.27 31.33, 1.27 149.83, 1.58 183.59 C1.89 217.34, 1.08 198.33, 1.73 203.46 C2.38 208.59, 2.74 211.11, 5.49 214.37 C8.23 217.64, 11.68 221.35, 18.2 223.05 C24.72 224.75, 36.49 225.14, 44.58 224.58 C52.67 224.01, 60.64 221.82, 66.74 219.67 C72.83 217.52, 78.41 214.42, 81.13 211.69 C83.85 208.95, 82.79 207.56, 83.06 203.24 C83.33 198.91, 82.97 217.14, 82.76 185.75 C82.55 154.37, 81.72 46.21, 81.79 14.91 C81.87 -16.39, 83.91 2.28, 83.22 -2.07 C82.53 -6.42, 80.62 -8.99, 77.65 -11.17 C74.69 -13.36, 71.83 -14.05, 65.44 -15.16 C59.06 -16.27, 47.13 -17.51, 39.35 -17.85 C31.57 -18.19, 24.82 -19.03, 18.76 -17.21 C12.7 -15.38, 6.26 -9.79, 3.01 -6.88 C-0.24 -3.98, -0.48 -1.16, -0.75 0.23 C-1.01 1.62, 1.22 1.32, 1.41 1.44" stroke="#087f5b" stroke-width="1" fill="none"></path></g></g><mask></mask><g stroke-linecap="round"><g transform="translate(275.11354470824426 388.6212032494451) rotate(359.4065005901092 39.96619699713233 9.086508081535925)"><path d="M-0.92 1.05 C-0.84 2.64, -0.79 6.28, 1.34 8.46 C3.46 10.63, 8.11 12.3, 11.84 14.11 C15.57 15.91, 18.74 18.3, 23.72 19.29 C28.7 20.28, 35.13 20.43, 41.72 20.03 C48.3 19.64, 57.12 19, 63.23 16.93 C69.34 14.87, 75.71 10.49, 78.37 7.63 C81.04 4.77, 79 1.24, 79.22 -0.24 M0.8 0.55 C1.18 1.87, 1.87 4.15, 3.64 6.58 C5.41 9.01, 7.99 13.39, 11.41 15.13 C14.84 16.87, 18.83 16.07, 24.2 17.03 C29.57 18, 37 21.07, 43.65 20.92 C50.3 20.76, 58.69 18.51, 64.08 16.12 C69.47 13.72, 73.07 9.27, 75.97 6.55 C78.87 3.82, 80.56 0.73, 81.48 -0.22" stroke="#087f5b" stroke-width="1" fill="none"></path></g></g><mask></mask><g stroke-linecap="round"><g transform="translate(272.72246159421593 322.10823878118913) rotate(359.4065005901092 39.85193655484318 7.283745203692746)"><path d="M-0.77 0.48 C-0.16 1.28, 0.69 3.86, 2.75 5.83 C4.81 7.81, 8.27 10.64, 11.6 12.33 C14.93 14.01, 17.82 15.38, 22.72 15.95 C27.62 16.51, 33.92 16.09, 41.01 15.73 C48.11 15.36, 59.41 15.3, 65.28 13.74 C71.16 12.18, 73.91 8.86, 76.27 6.4 C78.62 3.93, 78.94 0.29, 79.43 -1.06 M1.03 -0.32 C1.62 1.15, 0.47 5.3, 2.14 7.07 C3.82 8.84, 7.64 9.15, 11.07 10.28 C14.5 11.42, 17.45 12.88, 22.71 13.88 C27.97 14.89, 35.82 16.49, 42.64 16.34 C49.47 16.19, 58 14.79, 63.65 12.96 C69.3 11.14, 74.1 7.83, 76.53 5.41 C78.97 2.99, 77.52 -0.67, 78.26 -1.57" stroke="#087f5b" stroke-width="1" fill="none"></path></g></g><mask></mask><g stroke-linecap="round" transform="translate(271.86599359549973 236.7447538847739) rotate(359.4065005901092 40.407999815770836 17.9645272383506)"><path d="M28.32 1.41 C35.99 0.29, 47.14 0.97, 55 2.21 C62.86 3.44, 71.44 5.65, 75.49 8.8 C79.55 11.96, 81.05 17.37, 79.33 21.14 C77.6 24.91, 71.94 28.98, 65.16 31.43 C58.38 33.87, 47.13 35.77, 38.65 35.82 C30.18 35.87, 20.64 34.42, 14.33 31.72 C8.01 29.02, 2.15 23.39, 0.78 19.61 C-0.59 15.84, -0.45 12.26, 6.11 9.08 C12.66 5.89, 32.41 1.7, 40.12 0.51 C47.83 -0.68, 52.26 1.63, 52.36 1.92 M48.91 -0.29 C56.79 0.4, 66.76 2.65, 72.22 6.11 C77.67 9.56, 81.99 16.51, 81.65 20.45 C81.31 24.4, 76.4 27.29, 70.17 29.77 C63.95 32.25, 53.13 34.86, 44.3 35.34 C35.47 35.81, 24.29 34.67, 17.22 32.62 C10.15 30.57, 4.15 26.51, 1.88 23.03 C-0.39 19.56, 0.43 15.41, 3.62 11.77 C6.8 8.13, 13.16 2.88, 21.02 1.19 C28.88 -0.51, 46.1 1.72, 50.78 1.59 C55.45 1.46, 49.62 0.23, 49.08 0.39" stroke="none" stroke-width="0" fill="#fff"></path><path d="M48.67 -0.58 C56.83 0.1, 66.58 4.53, 72.01 7.55 C77.44 10.58, 81.3 13.93, 81.23 17.58 C81.17 21.23, 77.39 26.49, 71.63 29.44 C65.87 32.39, 55.47 34.7, 46.69 35.29 C37.92 35.88, 26.46 34.79, 18.97 32.98 C11.48 31.17, 4.56 27.92, 1.78 24.43 C-1 20.95, -0.86 15.84, 2.29 12.07 C5.43 8.3, 12.49 3.86, 20.64 1.81 C28.79 -0.24, 45.49 -0.29, 51.19 -0.24 C56.88 -0.19, 54.84 1.62, 54.81 2.13 M40.05 -0.76 C48.32 -1.12, 59.04 1.91, 65.74 4.46 C72.44 7.02, 78.51 10.87, 80.24 14.58 C81.96 18.29, 80.59 23.6, 76.09 26.73 C71.6 29.85, 61.68 31.91, 53.28 33.34 C44.89 34.78, 33.57 36.34, 25.72 35.33 C17.86 34.32, 10.16 30.83, 6.14 27.27 C2.11 23.72, 0.4 17.82, 1.55 13.99 C2.71 10.17, 6.79 6.49, 13.09 4.31 C19.39 2.14, 34.89 1.35, 39.38 0.92 C43.86 0.5, 40.09 1.85, 40 1.79" stroke="#087f5b" stroke-width="1" fill="none"></path></g><g transform="translate(280.38950974844965 443.8547222352222) rotate(0 34.5 6.993183607377432)"><text x="0" y="0" font-family="Helvetica, Segoe UI Emoji" font-size="12.162058447612969px" fill="#1e1e1e" text-anchor="start" style="white-space: pre;" direction="ltr" dominant-baseline="text-before-edge">Event queue</text></g><g stroke-linecap="round" transform="translate(78.59853148249249 11.078409571291672) rotate(0 46.5 37.00000000000001)"><path d="M4.92 4.28 C4.92 4.28, 4.92 4.28, 4.92 4.28 M4.92 4.28 C4.92 4.28, 4.92 4.28, 4.92 4.28 M3.75 17.83 C9.94 15.04, 14.9 6.98, 18.83 0.47 M3.75 17.83 C8.22 13.27, 11.84 7.07, 18.83 0.47 M3.88 29.87 C12.66 21.45, 16.23 15.74, 29.46 0.44 M3.88 29.87 C10.79 21.67, 15.55 14.8, 29.46 0.44 M4.01 41.91 C18.23 24.31, 30.75 14.99, 40.09 0.4 M4.01 41.91 C15.81 29.38, 23.43 19.03, 40.09 0.4 M4.14 53.95 C20.3 37.06, 34.44 14.62, 50.72 0.37 M4.14 53.95 C23.85 34.56, 41.05 15.39, 50.72 0.37 M5.59 64.48 C20.28 47.93, 34.93 30.86, 61.36 0.33 M5.59 64.48 C28.16 40.4, 46.92 18.26, 61.36 0.33 M9 72.75 C29.36 53.33, 46.52 33.87, 71.99 0.3 M9 72.75 C25.78 56.07, 40.83 37.45, 71.99 0.3 M18.32 74.23 C37.66 51.79, 55.29 28.8, 79.33 4.04 M18.32 74.23 C41.36 45.63, 66.08 18.46, 79.33 4.04 M28.95 74.19 C48.52 57.8, 62.85 34.65, 88.65 5.51 M28.95 74.19 C50.63 50.91, 69.26 26.59, 88.65 5.51 M39.58 74.16 C55.91 55.23, 66.46 41.46, 92.07 13.78 M39.58 74.16 C52.06 57.24, 65.93 44.21, 92.07 13.78 M50.21 74.12 C61.16 63.01, 73.28 55.99, 96.14 21.29 M50.21 74.12 C63.83 61.01, 74 45.38, 96.14 21.29 M60.84 74.09 C77.6 61.77, 87.15 45.33, 96.27 33.33 M60.84 74.09 C70.1 65.32, 81.07 53.92, 96.27 33.33 M71.47 74.05 C80.64 63.5, 85.48 56.14, 95.75 46.13 M71.47 74.05 C80.11 61.99, 89.71 50.72, 95.75 46.13 M78.82 77.79 C87.64 71.85, 91.06 62.52, 93.91 60.44 M78.82 77.79 C81.32 71.81, 87.03 69.05, 93.91 60.44 M4.62 69.37 C4.62 69.37, 4.62 69.37, 4.62 69.37 M4.62 69.37 C4.62 69.37, 4.62 69.37, 4.62 69.37 M20.44 72.52 C11.26 71.13, 7.91 61.64, 2.32 56.77 M20.44 72.52 C16.01 66.99, 10.41 66.83, 2.32 56.77 M32.48 72.39 C20.7 65.28, 10.3 56.33, 3.04 46.8 M32.48 72.39 C28.32 64.6, 20.94 59.72, 3.04 46.8 M44.52 72.25 C32.93 63.69, 26.72 54.41, 3.01 36.17 M44.52 72.25 C31.8 59.8, 16.65 47.44, 3.01 36.17 M56.56 72.12 C42.75 61.45, 20.03 47.24, 2.97 25.54 M56.56 72.12 C46.92 62.02, 34.28 50.36, 2.97 25.54 M68.6 71.99 C48.3 57.76, 30.32 37.4, 1.43 13.6 M68.6 71.99 C56.06 62.3, 39.69 49.68, 1.43 13.6 M78.38 69.89 C59.56 54.36, 48.06 41.74, 4.41 5.59 M78.38 69.89 C52.38 48, 29.03 24.63, 4.41 5.59 M88.91 68.44 C74.79 50.35, 56.05 39.58, 9.66 -0.45 M88.91 68.44 C61.79 44.99, 37.57 24.73, 9.66 -0.45 M92.65 61.09 C75.17 44.2, 57.71 30.04, 20.19 -1.89 M92.65 61.09 C65.56 36.66, 39.98 16.39, 20.19 -1.89 M97.14 54.4 C78.34 42.22, 60.14 19.93, 32.24 -2.02 M97.14 54.4 C77.06 35.51, 59.92 18.61, 32.24 -2.02 M97.11 43.77 C84.47 30.9, 65.69 15.8, 44.28 -2.16 M97.11 43.77 C80.65 31.17, 66.58 15.61, 44.28 -2.16 M97.83 33.79 C83.46 18.44, 63.74 5.16, 57.07 -1.63 M97.83 33.79 C90.7 24.66, 79.42 17.3, 57.07 -1.63 M97.79 23.16 C87.81 14.23, 83.73 7.34, 69.11 -1.77 M97.79 23.16 C86.46 14.8, 75.58 2.53, 69.11 -1.77" stroke="#a5d8ff" stroke-width="1" fill="none"></path><path d="M18.5 0 M18.5 0 C37.85 2.05, 53.66 -2.14, 74.5 0 M18.5 0 C30.36 0.83, 42.23 0.89, 74.5 0 M74.5 0 C88.3 0.83, 89.11 9.41, 93 18.5 M74.5 0 C90.72 1.85, 93.88 10.34, 93 18.5 M93 18.5 C89.81 25.88, 94.81 40.62, 93 55.5 M93 18.5 C94.37 29.07, 93.44 38.37, 93 55.5 M93 55.5 C92.86 70.07, 84.85 76.91, 74.5 74 M93 55.5 C92.39 72.36, 87.49 74.18, 74.5 74 M74.5 74 C50.84 76.2, 31.35 71.95, 18.5 74 M74.5 74 C56.59 74.25, 35.99 72.92, 18.5 74 M18.5 74 C3.8 72.27, 2.7 65.34, 0 55.5 M18.5 74 C3.11 73.85, 0.91 67.06, 0 55.5 M0 55.5 C0.37 45.24, -3.41 32.79, 0 18.5 M0 55.5 C0.52 42.23, 0.55 26.74, 0 18.5 M0 18.5 C3.43 9.03, 4.83 3.08, 18.5 0 M0 18.5 C1.58 10.29, 8.11 1.68, 18.5 0" stroke="#1971c2" stroke-width="2" fill="none"></path></g><g transform="translate(93.59853148249249 27.098858749159305) rotate(0 31.5 20.979550822132367)"><text x="31.5" y="0" font-family="Helvetica, Segoe UI Emoji" font-size="12.162058447612969px" fill="#1e1e1e" text-anchor="middle" style="white-space: pre;" direction="ltr" dominant-baseline="text-before-edge">Hermes </text><text x="31.5" y="13.986367214754914" font-family="Helvetica, Segoe UI Emoji" font-size="12.162058447612969px" fill="#1e1e1e" text-anchor="middle" style="white-space: pre;" direction="ltr" dominant-baseline="text-before-edge">runtime </text><text x="31.5" y="27.972734429509828" font-family="Helvetica, Segoe UI Emoji" font-size="12.162058447612969px" fill="#1e1e1e" text-anchor="middle" style="white-space: pre;" direction="ltr" dominant-baseline="text-before-edge">extension 1</text></g><g stroke-linecap="round" transform="translate(278.1043021713954 10) rotate(0 46.5 37.00000000000001)"><path d="M4.92 4.28 C4.92 4.28, 4.92 4.28, 4.92 4.28 M4.92 4.28 C4.92 4.28, 4.92 4.28, 4.92 4.28 M3.75 17.83 C9.85 10.33, 13.93 6.72, 18.83 0.47 M3.75 17.83 C6.93 11.49, 11.47 8.07, 18.83 0.47 M3.88 29.87 C14.71 18.8, 18.92 7.14, 29.46 0.44 M3.88 29.87 C7.38 24.98, 14.6 18.69, 29.46 0.44 M4.01 41.91 C12.31 29.34, 22.36 21.48, 40.09 0.4 M4.01 41.91 C11.88 32.29, 22.05 19.45, 40.09 0.4 M4.14 53.95 C14.73 37.3, 33.17 16.87, 50.72 0.37 M4.14 53.95 C16.66 40.76, 30.92 24.5, 50.72 0.37 M5.59 64.48 C20.04 53.89, 30.8 34.66, 61.36 0.33 M5.59 64.48 C26.52 38.82, 47.74 14.54, 61.36 0.33 M9 72.75 C24.99 53.09, 45.69 23.03, 71.99 0.3 M9 72.75 C33.65 45.22, 58.25 15.52, 71.99 0.3 M18.32 74.23 C36.63 52.59, 48.15 41.49, 79.33 4.04 M18.32 74.23 C44.41 47.33, 66.94 19.24, 79.33 4.04 M28.95 74.19 C40.47 60.03, 50.45 46.61, 88.65 5.51 M28.95 74.19 C50.6 49.51, 71.77 26.74, 88.65 5.51 M39.58 74.16 C54.52 57.52, 61.47 47.77, 92.07 13.78 M39.58 74.16 C58.27 54.04, 76.97 32.69, 92.07 13.78 M50.21 74.12 C64.08 57.92, 75.43 51.32, 96.14 21.29 M50.21 74.12 C64.23 55.82, 78.5 40.14, 96.14 21.29 M60.84 74.09 C71.23 62.77, 75.23 56.39, 96.27 33.33 M60.84 74.09 C74.54 63, 82.95 47.51, 96.27 33.33 M71.47 74.05 C81.38 64.26, 87.1 50.97, 95.75 46.13 M71.47 74.05 C77.82 67.94, 81.84 59.58, 95.75 46.13 M78.82 77.79 C81.37 73.03, 87.45 67.64, 93.91 60.44 M78.82 77.79 C84.07 73.4, 86.94 67.4, 93.91 60.44 M4.62 69.37 C4.62 69.37, 4.62 69.37, 4.62 69.37 M4.62 69.37 C4.62 69.37, 4.62 69.37, 4.62 69.37 M20.44 72.52 C16.3 66.13, 12.05 59.47, 2.32 56.77 M20.44 72.52 C15.47 70.87, 14.11 66.25, 2.32 56.77 M32.48 72.39 C20.4 64.04, 13.6 54.62, 3.04 46.8 M32.48 72.39 C22.78 63.31, 16.96 59.1, 3.04 46.8 M44.52 72.25 C36.03 60.23, 21.26 52.5, 3.01 36.17 M44.52 72.25 C29.75 60.95, 17.74 47.4, 3.01 36.17 M56.56 72.12 C40.93 56.93, 23.14 44.63, 2.97 25.54 M56.56 72.12 C34.2 55.35, 16.28 37.24, 2.97 25.54 M68.6 71.99 C47.04 52.06, 16.96 26.22, 1.43 13.6 M68.6 71.99 C47.07 49.37, 23.29 31.27, 1.43 13.6 M78.38 69.89 C56.7 48.91, 32.82 28.94, 4.41 5.59 M78.38 69.89 C50.57 45.66, 23.32 24, 4.41 5.59 M88.91 68.44 C59.45 41.54, 36.42 19.81, 9.66 -0.45 M88.91 68.44 C58.4 41.87, 25.68 12.74, 9.66 -0.45 M92.65 61.09 C63.88 40.45, 41.4 15.89, 20.19 -1.89 M92.65 61.09 C69.89 42.91, 44.22 20.33, 20.19 -1.89 M97.14 54.4 C73.56 40.56, 51.64 15.07, 32.24 -2.02 M97.14 54.4 C77.93 43.09, 64.39 27.66, 32.24 -2.02 M97.11 43.77 C85.82 31.47, 64.72 18.37, 44.28 -2.16 M97.11 43.77 C81.79 33.06, 69.28 18.5, 44.28 -2.16 M97.83 33.79 C84.72 25.28, 75.44 12.06, 57.07 -1.63 M97.83 33.79 C80.57 22.4, 65.3 6.37, 57.07 -1.63 M97.79 23.16 C85.48 11.57, 81.09 10.18, 69.11 -1.77 M97.79 23.16 C88.98 14.52, 78.31 8.64, 69.11 -1.77" stroke="#a5d8ff" stroke-width="1" fill="none"></path><path d="M18.5 0 M18.5 0 C38.73 -1.42, 62.2 -1.71, 74.5 0 M18.5 0 C32.72 -1.33, 49.63 0.84, 74.5 0 M74.5 0 C83.66 -1.04, 89.87 4.54, 93 18.5 M74.5 0 C83.28 1.17, 96.63 3.69, 93 18.5 M93 18.5 C89.24 31.07, 96.12 38.68, 93 55.5 M93 18.5 C91.95 29.78, 94.3 36.5, 93 55.5 M93 55.5 C91.82 71.57, 83.34 74.17, 74.5 74 M93 55.5 C89.65 72.41, 88.75 75.45, 74.5 74 M74.5 74 C57.14 73.39, 40.27 73.53, 18.5 74 M74.5 74 C58.35 75.5, 45.3 74.15, 18.5 74 M18.5 74 C7.41 73.72, -1.3 66.56, 0 55.5 M18.5 74 C3.39 73.58, -2.43 72.04, 0 55.5 M0 55.5 C-2.75 44.64, 3.61 31.6, 0 18.5 M0 55.5 C1.55 44.19, 0.62 33.42, 0 18.5 M0 18.5 C-1.03 8.76, 8.38 3.85, 18.5 0 M0 18.5 C-3.4 10.66, 8.83 -1.03, 18.5 0" stroke="#1971c2" stroke-width="2" fill="none"></path></g><g transform="translate(293.1043021713954 26.020449177867633) rotate(0 31.5 20.979550822132367)"><text x="31.5" y="0" font-family="Helvetica, Segoe UI Emoji" font-size="12.162058447612969px" fill="#1e1e1e" text-anchor="middle" style="white-space: pre;" direction="ltr" dominant-baseline="text-before-edge">Hermes </text><text x="31.5" y="13.986367214754914" font-family="Helvetica, Segoe UI Emoji" font-size="12.162058447612969px" fill="#1e1e1e" text-anchor="middle" style="white-space: pre;" direction="ltr" dominant-baseline="text-before-edge">runtime </text><text x="31.5" y="27.972734429509828" font-family="Helvetica, Segoe UI Emoji" font-size="12.162058447612969px" fill="#1e1e1e" text-anchor="middle" style="white-space: pre;" direction="ltr" dominant-baseline="text-before-edge">extension 2</text></g><g stroke-linecap="round" transform="translate(423.2714451435427 12.953409571291672) rotate(0 46.5 37.00000000000001)"><path d="M4.92 4.28 C4.92 4.28, 4.92 4.28, 4.92 4.28 M4.92 4.28 C4.92 4.28, 4.92 4.28, 4.92 4.28 M3.75 17.83 C10.07 11.11, 16.26 3.94, 18.83 0.47 M3.75 17.83 C5.39 16.5, 10.68 11.57, 18.83 0.47 M3.88 29.87 C9.99 20.57, 21.43 9.87, 29.46 0.44 M3.88 29.87 C9.32 20.61, 18.61 15.34, 29.46 0.44 M4.01 41.91 C19.19 28.58, 28.05 19.2, 40.09 0.4 M4.01 41.91 C15.25 28.32, 29.24 12.95, 40.09 0.4 M4.14 53.95 C17.69 36.5, 29.04 22.16, 50.72 0.37 M4.14 53.95 C19.61 36.2, 39.63 15.43, 50.72 0.37 M5.59 64.48 C28.71 42.35, 43.38 14.41, 61.36 0.33 M5.59 64.48 C25.57 42.32, 43.25 22.28, 61.36 0.33 M9 72.75 C29.96 51.83, 48.84 29.31, 71.99 0.3 M9 72.75 C32.71 44.24, 57 19.51, 71.99 0.3 M18.32 74.23 C36.61 47.51, 61.32 25.34, 79.33 4.04 M18.32 74.23 C43.42 46.2, 66.29 16.56, 79.33 4.04 M28.95 74.19 C48.76 54.08, 74.95 27.43, 88.65 5.51 M28.95 74.19 C50.05 51.62, 68.24 27.15, 88.65 5.51 M39.58 74.16 C54.92 57.38, 71.92 30.57, 92.07 13.78 M39.58 74.16 C49.91 59.79, 65.98 43.36, 92.07 13.78 M50.21 74.12 C66.71 58, 73.41 42.96, 96.14 21.29 M50.21 74.12 C60.61 61.47, 73.83 45.11, 96.14 21.29 M60.84 74.09 C69.49 65.54, 81.93 50.79, 96.27 33.33 M60.84 74.09 C73.76 59.35, 88.56 41.22, 96.27 33.33 M71.47 74.05 C76.32 61.1, 89.12 58.74, 95.75 46.13 M71.47 74.05 C79.98 63.66, 86.63 56.81, 95.75 46.13 M78.82 77.79 C82.93 69.05, 90.09 61.84, 93.91 60.44 M78.82 77.79 C81.93 71.71, 88.04 69.29, 93.91 60.44 M4.62 69.37 C4.62 69.37, 4.62 69.37, 4.62 69.37 M4.62 69.37 C4.62 69.37, 4.62 69.37, 4.62 69.37 M20.44 72.52 C17.29 66.09, 12.53 65.76, 2.32 56.77 M20.44 72.52 C14.27 69.02, 10.04 67, 2.32 56.77 M32.48 72.39 C21.72 62.02, 11.61 54.74, 3.04 46.8 M32.48 72.39 C23.67 66.32, 14.74 58.47, 3.04 46.8 M44.52 72.25 C30.07 58.71, 14.69 45.09, 3.01 36.17 M44.52 72.25 C32.93 61.21, 21.63 50.4, 3.01 36.17 M56.56 72.12 C38.37 56.9, 23.55 45.78, 2.97 25.54 M56.56 72.12 C42.3 60.94, 30.42 49.83, 2.97 25.54 M68.6 71.99 C51.38 61.09, 36.25 49.13, 1.43 13.6 M68.6 71.99 C48.52 56.61, 30.92 38.36, 1.43 13.6 M78.38 69.89 C66.94 58.09, 49.43 44.14, 4.41 5.59 M78.38 69.89 C52.67 46.51, 29.58 27.72, 4.41 5.59 M88.91 68.44 C60.88 42.54, 33.82 24.76, 9.66 -0.45 M88.91 68.44 C68.19 51.19, 46.99 33.2, 9.66 -0.45 M92.65 61.09 C70.84 39.25, 46.04 17.43, 20.19 -1.89 M92.65 61.09 C65.17 35.37, 33.78 11.38, 20.19 -1.89 M97.14 54.4 C74.02 35.02, 48.42 7.76, 32.24 -2.02 M97.14 54.4 C85.6 43.32, 71.8 34.24, 32.24 -2.02 M97.11 43.77 C84.34 27.05, 66.41 21.16, 44.28 -2.16 M97.11 43.77 C78.05 28.5, 61.28 9.43, 44.28 -2.16 M97.83 33.79 C85.83 26.48, 84.96 18.38, 57.07 -1.63 M97.83 33.79 C89.38 24.46, 74.64 16.24, 57.07 -1.63 M97.79 23.16 C88.4 18.92, 83.83 13.84, 69.11 -1.77 M97.79 23.16 C87.98 15.23, 75.92 1.76, 69.11 -1.77" stroke="#a5d8ff" stroke-width="1" fill="none"></path><path d="M18.5 0 M18.5 0 C36.02 -2.45, 64.17 -2.1, 74.5 0 M18.5 0 C37.07 -0.21, 54.68 -1.53, 74.5 0 M74.5 0 C89.52 1.63, 95.69 2.32, 93 18.5 M74.5 0 C86.69 3.52, 95.01 6.25, 93 18.5 M93 18.5 C90.78 29.55, 94.08 40.9, 93 55.5 M93 18.5 C93.93 30.56, 94.2 38.58, 93 55.5 M93 55.5 C93.95 66.16, 83.48 75.92, 74.5 74 M93 55.5 C90.94 63.59, 86.81 76.67, 74.5 74 M74.5 74 C59.82 77.68, 41.34 72.35, 18.5 74 M74.5 74 C59.37 73.25, 44.25 74.35, 18.5 74 M18.5 74 C4.82 72.58, -0.55 65.38, 0 55.5 M18.5 74 C8.91 69.5, 0.8 65.72, 0 55.5 M0 55.5 C-0.62 45.42, -2.47 38.4, 0 18.5 M0 55.5 C0.2 46.95, -1.37 37.17, 0 18.5 M0 18.5 C-1.56 4.5, 7.76 -2.9, 18.5 0 M0 18.5 C3.21 4.55, 4.04 2.18, 18.5 0" stroke="#1971c2" stroke-width="2" fill="none"></path></g><g transform="translate(438.2714451435427 28.973858749159305) rotate(0 31.5 20.979550822132367)"><text x="31.5" y="0" font-family="Helvetica, Segoe UI Emoji" font-size="12.162058447612969px" fill="#1e1e1e" text-anchor="middle" style="white-space: pre;" direction="ltr" dominant-baseline="text-before-edge">Hermes </text><text x="31.5" y="13.986367214754914" font-family="Helvetica, Segoe UI Emoji" font-size="12.162058447612969px" fill="#1e1e1e" text-anchor="middle" style="white-space: pre;" direction="ltr" dominant-baseline="text-before-edge">runtime </text><text x="31.5" y="27.972734429509828" font-family="Helvetica, Segoe UI Emoji" font-size="12.162058447612969px" fill="#1e1e1e" text-anchor="middle" style="white-space: pre;" direction="ltr" dominant-baseline="text-before-edge">extension n</text></g><g stroke-linecap="round"><g transform="translate(134.76759243830065 86.07840957129169) rotate(0 68.64629440939962 79.85275757629944)"><path d="M0.83 -0.38 C23.66 25.8, 112.73 131.98, 135.27 158.76 M-2.16 -3.05 C21.71 23.37, 117.94 134.08, 140.58 161.88" stroke="#e03131" stroke-width="2" fill="none"></path></g><g transform="translate(134.76759243830065 86.07840957129169) rotate(0 68.64629440939962 79.85275757629944)"><path d="M113.99 144.1 C119.58 148.67, 128 156.98, 144.11 160.95 M113.89 146.34 C120.53 151.67, 125.15 155.56, 141.85 161.67" stroke="#e03131" stroke-width="2" fill="none"></path></g><g transform="translate(134.76759243830065 86.07840957129169) rotate(0 68.64629440939962 79.85275757629944)"><path d="M129.66 130.84 C131.67 138.68, 136.34 150.15, 144.11 160.95 M129.55 133.08 C132.71 141.29, 133.87 148.1, 141.85 161.67" stroke="#e03131" stroke-width="2" fill="none"></path></g></g><mask></mask><g stroke-linecap="round"><g transform="translate(325.6226280218457 85.00000000000001) rotate(0 -3.7444282545388887 74.29193269351336)"><path d="M2.48 -1.84 C1.06 23.04, -5.87 126.14, -7.21 150.99 M0.37 3.33 C-1.5 27.31, -8.17 122.89, -9.3 147.28" stroke="#e03131" stroke-width="2" fill="none"></path></g><g transform="translate(325.6226280218457 85.00000000000001) rotate(0 -3.7444282545388887 74.29193269351336)"><path d="M-20.49 118.93 C-11.12 131.01, -13.49 140.4, -9.78 147.2 M-17.21 117.76 C-14.31 126.05, -11.58 133.73, -9.15 148.13" stroke="#e03131" stroke-width="2" fill="none"></path></g><g transform="translate(325.6226280218457 85.00000000000001) rotate(0 -3.7444282545388887 74.29193269351336)"><path d="M-0.01 120.15 C2.28 132.17, -7.15 141.15, -9.78 147.2 M3.27 118.99 C0.85 127.16, -1.73 134.53, -9.15 148.13" stroke="#e03131" stroke-width="2" fill="none"></path></g></g><mask></mask><g stroke-linecap="round"><g transform="translate(312.9581299964075 484.52886370299825) rotate(0 0.16248497175047305 93.95939312602667)"><path d="M-0.74 -1.86 C-0.6 29.24, -0.04 154.53, 0.18 186.11 M4.05 3.3 C3.87 34.76, -1.28 157.55, -2.13 188.76" stroke="#e03131" stroke-width="2" fill="none"></path></g><g transform="translate(312.9581299964075 484.52886370299825) rotate(0 0.16248497175047305 93.95939312602667)"><path d="M-14.06 160.02 C-11.53 168.55, -6.85 176.1, -1.16 187.91 M-13.15 161.31 C-9.44 170.14, -3.45 182.43, -2.47 190.2" stroke="#e03131" stroke-width="2" fill="none"></path></g><g transform="translate(312.9581299964075 484.52886370299825) rotate(0 0.16248497175047305 93.95939312602667)"><path d="M6.45 160.74 C3.33 168.96, 2.36 176.31, -1.16 187.91 M7.36 162.03 C3 170.38, 0.93 182.39, -2.47 190.2" stroke="#e03131" stroke-width="2" fill="none"></path></g></g><mask></mask><g mask="url(#mask-7oXBzwTcLvHuJbQiBhJNw)" stroke-linecap="round"><g transform="translate(191.58453995856553 719.7602719111426) rotate(0 -64.29226997928276 -316.0059170353031)"><path d="M0.6 -0.34 C-20.16 -53.72, -109.36 -213.41, -126.86 -318.69 C-144.36 -423.98, -108.82 -579.47, -104.4 -632.05 M-2.51 -2.99 C-23.28 -56.16, -112.1 -211.47, -128.16 -315.8 C-144.21 -420.13, -103.73 -576.13, -98.85 -628.96" stroke="#e03131" stroke-width="2" fill="none"></path></g><g transform="translate(191.58453995856553 719.7602719111426) rotate(0 -64.29226997928276 -316.0059170353031)"><path d="M-93.71 -597.03 C-96.72 -609.27, -96.07 -609.9, -101.98 -629.59 M-91.94 -599.79 C-95.77 -609.79, -97.44 -620.44, -97.99 -630.63" stroke="#e03131" stroke-width="2" fill="none"></path></g><g transform="translate(191.58453995856553 719.7602719111426) rotate(0 -64.29226997928276 -316.0059170353031)"><path d="M-113.97 -600.31 C-112.53 -611.92, -107.47 -611.84, -101.98 -629.59 M-112.2 -603.07 C-109 -612.01, -103.65 -621.52, -97.99 -630.63" stroke="#e03131" stroke-width="2" fill="none"></path></g></g><mask id="mask-7oXBzwTcLvHuJbQiBhJNw"><rect x="0" y="0" fill="#fff" width="420.16907991713094" height="1451.7721059817488"></rect><rect x="10" y="386.1357786163883" fill="#000" width="106" height="32.562883298232826" opacity="1"></rect></mask><g transform="translate(10 386.13577861638834) rotate(0 115.93548370215285 17.428062396781627)"><text x="53" y="0" font-family="Helvetica, Segoe UI Emoji" font-size="14.15777534705775px" fill="#1e1e1e" text-anchor="middle" style="white-space: pre;" direction="ltr" dominant-baseline="text-before-edge">Hermes runtime </text><text x="53" y="16.281441649116413" font-family="Helvetica, Segoe UI Emoji" font-size="14.15777534705775px" fill="#1e1e1e" text-anchor="middle" style="white-space: pre;" direction="ltr" dominant-baseline="text-before-edge">extension call</text></g><g mask="url(#mask-6OSMtxP0o2yTODCt8r-NH)" stroke-linecap="round"><g transform="translate(423.5587857076039 717.65536864095) rotate(0 35.849673300732775 -311.41347953482915)"><path d="M-2.08 -1.14 C10 -57.74, 64.33 -236.58, 71.28 -340.56 C78.22 -444.53, 45.6 -577.88, 39.57 -624.98 M1.99 -4.22 C13.76 -61.64, 62.67 -242.08, 68.81 -345.22 C74.95 -448.35, 44.57 -577.12, 38.82 -623.04" stroke="#e03131" stroke-width="2" fill="none"></path></g><g transform="translate(423.5587857076039 717.65536864095) rotate(0 35.849673300732775 -311.41347953482915)"><path d="M51.97 -597.54 C50.9 -601.07, 43.11 -614.19, 38.32 -622.44 M51.65 -598.06 C48.05 -602.09, 46.35 -608.66, 38.12 -623.43" stroke="#e03131" stroke-width="2" fill="none"></path></g><g transform="translate(423.5587857076039 717.65536864095) rotate(0 35.849673300732775 -311.41347953482915)"><path d="M31.73 -594.15 C35.88 -598.25, 33.28 -612.24, 38.32 -622.44 M31.41 -594.67 C32.2 -599.48, 34.94 -606.79, 38.12 -623.43" stroke="#e03131" stroke-width="2" fill="none"></path></g></g><mask id="mask-6OSMtxP0o2yTODCt8r-NH"><rect x="0" y="0" fill="#fff" width="595.2581323090694" height="1440.4823277106084"></rect><rect x="442.2581323090694" y="360.1736715912664" fill="#000" width="106" height="32.562883298232826" opacity="1"></rect></mask><g transform="translate(442.2581323090694 360.17367159126644) rotate(0 16.37985677402844 44.42232903282019)"><text x="53" y="0" font-family="Helvetica, Segoe UI Emoji" font-size="14.15777534705775px" fill="#1e1e1e" text-anchor="middle" style="white-space: pre;" direction="ltr" dominant-baseline="text-before-edge">Hermes runtime </text><text x="53" y="16.281441649116413" font-family="Helvetica, Segoe UI Emoji" font-size="14.15777534705775px" fill="#1e1e1e" text-anchor="middle" style="white-space: pre;" direction="ltr" dominant-baseline="text-before-edge">extension call</text></g><g stroke-linecap="round"><g transform="translate(165.62920419097145 107.7312863399235) rotate(320.18289561721184 28.278724364474556 47.6527629203584)" fill-rule="evenodd"><path d="M0.85 -1.53 L55.79 -0.63 L56.99 60.01 L27.58 93.93 L-0.51 60.24 L0.4 -0.07" stroke="none" stroke-width="0" fill="#ced4da" fill-rule="evenodd"></path><path d="M-0.27 1.07 C22.67 0.22, 41.44 0.22, 55.19 -0.67 M-0.56 0.65 C12.37 -0.21, 25.84 -0.41, 57.48 0.44 M55.14 -0.45 C54.98 21.34, 55.76 41.66, 56 59.79 M56.84 0.16 C57.04 23.47, 57.3 48.52, 56.86 60.89 M55.49 61.96 C50.37 70.63, 44.89 76.47, 26.37 96.96 M56.66 62.13 C47.89 72.58, 38.32 83.46, 26.18 94.4 M28.22 93.42 C18.37 83.53, 7.97 71.08, 1.43 62.15 M27.51 95.04 C17.81 84.36, 11.38 74.7, 0.76 61.07 M0.82 60.63 C0.56 43.59, 1.52 29.66, -1.84 1.8 M1.17 60.68 C-0.67 38.27, 0.31 17.49, -0.08 -0.77 M0 0 C0 0, 0 0, 0 0 M0 0 C0 0, 0 0, 0 0" stroke="#000000" stroke-width="1" fill="none"></path></g></g><mask></mask><g transform="translate(158.49056061204374 123.00434582592884) rotate(320.18289561721184 25.5 23)"><text x="25.5" y="0" font-family="Helvetica, Segoe UI Emoji" font-size="20px" fill="#1e1e1e" text-anchor="middle" style="white-space: pre;" direction="ltr" dominant-baseline="text-before-edge">Event</text><text x="25.5" y="23" font-family="Helvetica, Segoe UI Emoji" font-size="20px" fill="#1e1e1e" text-anchor="middle" style="white-space: pre;" direction="ltr" dominant-baseline="text-before-edge">1</text></g><g stroke-linecap="round"><g transform="translate(290.5581885486117 98.13429494627498) rotate(360.0112697775619 28.278724364474556 47.6527629203584)" fill-rule="evenodd"><path d="M-1.08 1.05 L56.04 0.06 L57.72 61.43 L27.98 94.11 L-0.45 59.68 L-1.13 -1.34" stroke="none" stroke-width="0" fill="#ced4da" fill-rule="evenodd"></path><path d="M-0.96 -1.09 C12.39 0.72, 25.98 -0.34, 58.16 -1.17 M-0.65 0.84 C21.6 -0.16, 42.35 0.59, 56.26 0.86 M55.55 1.55 C54.96 18.3, 57.66 33.97, 54.13 61.07 M57.18 -0.96 C56.65 12.49, 56.28 26.06, 56.98 60.96 M54.82 63.02 C49.05 70.31, 44.09 75.87, 26.09 95.7 M56.28 61.75 C48.96 71.33, 41.25 79.18, 27.16 94.55 M25.99 95.87 C18.22 85.11, 8.34 71.77, 1.48 59.89 M28.01 95.9 C17.56 82.56, 9.02 70.75, 1.08 61.47 M2.37 63.14 C0.33 45.76, -0.42 31.15, -0.36 0.85 M0.34 61.76 C0.67 48.17, 0.28 33.76, -0.5 0.77 M0 0 C0 0, 0 0, 0 0 M0 0 C0 0, 0 0, 0 0" stroke="#000000" stroke-width="1" fill="none"></path></g></g><mask></mask><g transform="translate(291.61969394402786 108.95937455626388) rotate(360.0112697775619 25.5 23)"><text x="25.5" y="0" font-family="Helvetica, Segoe UI Emoji" font-size="20px" fill="#1e1e1e" text-anchor="middle" style="white-space: pre;" direction="ltr" dominant-baseline="text-before-edge">Event</text><text x="25.5" y="23" font-family="Helvetica, Segoe UI Emoji" font-size="20px" fill="#1e1e1e" text-anchor="middle" style="white-space: pre;" direction="ltr" dominant-baseline="text-before-edge">n</text></g><g stroke-linecap="round"><g transform="translate(295.7810189527013 573.7030637539594) rotate(0.13189299302330953 18.226204206625198 30.713160070524737)" fill-rule="evenodd"><path d="M1.63 0.87 L36.46 0.87 L38.1 39.35 L17.67 62.44 L-0.15 41.07 L1.41 -0.84" stroke="none" stroke-width="0" fill="#ced4da" fill-rule="evenodd"></path><path d="M0.63 -0.25 C9.75 -1.57, 19.9 1.27, 37.03 -0.6 M0.21 0.84 C8.23 0.45, 18.69 0.22, 36.61 -0.79 M36.29 0.01 C36.13 17.15, 38.22 32.74, 35.61 38.21 M37.17 0.84 C35.79 12.49, 35.35 24.98, 36.09 40.45 M36.27 40.83 C30.85 43.07, 27.78 48.21, 17.34 60.62 M36.93 39.56 C29.44 47.04, 24.02 53.24, 17.34 61.75 M16.29 59.56 C13.6 58.35, 8.92 52.12, 1.62 40.08 M17.56 62.06 C13.01 54.86, 8.26 49.7, 0.9 39.31 M1.16 40.54 C1.07 30.22, 1.03 18.58, 0.7 0 M0.29 39.73 C-0.33 31.65, 0.17 22.8, -0.38 0.8 M0 0 C0 0, 0 0, 0 0 M0 0 C0 0, 0 0, 0 0" stroke="#000000" stroke-width="1" fill="none"></path></g></g><mask></mask><g transform="translate(295.98266296158044 580.7718040547678) rotate(0.13189299302330953 17 14.823960633776323)"><text x="17" y="0" font-family="Helvetica, Segoe UI Emoji" font-size="12.890400551109831px" fill="#1e1e1e" text-anchor="middle" style="white-space: pre;" direction="ltr" dominant-baseline="text-before-edge">Event</text><text x="17" y="14.823960633776304" font-family="Helvetica, Segoe UI Emoji" font-size="12.890400551109831px" fill="#1e1e1e" text-anchor="middle" style="white-space: pre;" direction="ltr" dominant-baseline="text-before-edge">1</text></g><g stroke-linecap="round"><g transform="translate(294.44938397005126 492.95739091720577) rotate(0.011269777561911873 20.324691696921263 34.24934245193515)" fill-rule="evenodd"><path d="M1.9 0.51 L38.69 -1.81 L40.31 44.19 L21.25 70.44 L1.82 42.34 L-0.17 -0.85" stroke="none" stroke-width="0" fill="#ced4da" fill-rule="evenodd"></path><path d="M1.39 1.74 C11.53 1.55, 18.3 -1.79, 40.83 0.12 M0.12 0.08 C16.02 0.57, 31.98 -0.16, 40.03 -0.44 M38.65 1.32 C39.94 10.98, 39.51 22.63, 42.1 44.39 M41.01 -0.16 C40.33 15.6, 39.92 28.78, 41.2 43.5 M39.43 45.97 C36.82 49.74, 28.49 54.69, 17.83 68.7 M39.84 44.08 C32.7 53.2, 24.4 61.55, 20.43 69.53 M17.45 67.34 C13.27 61.74, 7.92 53.5, -0.94 42.11 M20.26 67.57 C13.24 60.42, 5.78 52.44, -0.2 43.99 M-0.35 42.85 C-1.28 31.21, 0.34 20.67, -1.04 -1.41 M-0.21 43.1 C1.01 28.14, 0.53 11.74, 0.58 -0.37 M0 0 C0 0, 0 0, 0 0 M0 0 C0 0, 0 0, 0 0" stroke="#000000" stroke-width="1" fill="none"></path></g></g><mask></mask><g transform="translate(295.53986348425906 500.7376713440008) rotate(0.011269777561911873 18 16.530728296091468)"><text x="18" y="0" font-family="Helvetica, Segoe UI Emoji" font-size="14.37454634442737px" fill="#1e1e1e" text-anchor="middle" style="white-space: pre;" direction="ltr" dominant-baseline="text-before-edge">Event</text><text x="18" y="16.530728296091475" font-family="Helvetica, Segoe UI Emoji" font-size="14.37454634442737px" fill="#1e1e1e" text-anchor="middle" style="white-space: pre;" direction="ltr" dominant-baseline="text-before-edge">n</text></g><g stroke-linecap="round" transform="translate(186.91031615453494 713.2251668317634) rotate(0 123 86)"><path d="M32 0 M32 0 C97.85 0, 163.69 0, 214 0 M32 0 C81.42 0, 130.83 0, 214 0 M214 0 C235.33 0, 246 10.67, 246 32 M214 0 C235.33 0, 246 10.67, 246 32 M246 32 C246 70.48, 246 108.95, 246 140 M246 32 C246 74.29, 246 116.58, 246 140 M246 140 C246 161.33, 235.33 172, 214 172 M246 140 C246 161.33, 235.33 172, 214 172 M214 172 C155.98 172, 97.96 172, 32 172 M214 172 C148.9 172, 83.8 172, 32 172 M32 172 C10.67 172, 0 161.33, 0 140 M32 172 C10.67 172, 0 161.33, 0 140 M0 140 C0 102.39, 0 64.77, 0 32 M0 140 C0 117.86, 0 95.73, 0 32 M0 32 C0 10.67, 10.67 0, 32 0 M0 32 C0 10.67, 10.67 0, 32 0" stroke="#f08c00" stroke-width="2" fill="none"></path></g><g transform="translate(223.91031615453494 718.2251668317634) rotate(0 86 11.5)"><text x="86" y="0" font-family="Helvetica, Segoe UI Emoji" font-size="20px" fill="#f08c00" text-anchor="middle" style="white-space: pre;" direction="ltr" dominant-baseline="text-before-edge">Hermes Application</text></g><g stroke-linecap="round" transform="translate(196.09781615453494 742.9751668317634) rotate(0 33.5 39)"><path d="M16.75 0 M16.75 0 C29.26 0, 41.77 0, 50.25 0 M16.75 0 C29.01 0, 41.27 0, 50.25 0 M50.25 0 C61.42 0, 67 5.58, 67 16.75 M50.25 0 C61.42 0, 67 5.58, 67 16.75 M67 16.75 C67 30.1, 67 43.45, 67 61.25 M67 16.75 C67 30.51, 67 44.26, 67 61.25 M67 61.25 C67 72.42, 61.42 78, 50.25 78 M67 61.25 C67 72.42, 61.42 78, 50.25 78 M50.25 78 C42.72 78, 35.2 78, 16.75 78 M50.25 78 C40.55 78, 30.86 78, 16.75 78 M16.75 78 C5.58 78, 0 72.42, 0 61.25 M16.75 78 C5.58 78, 0 72.42, 0 61.25 M0 61.25 C0 43.78, 0 26.31, 0 16.75 M0 61.25 C0 48.57, 0 35.9, 0 16.75 M0 16.75 C0 5.58, 5.58 0, 16.75 0 M0 16.75 C0 5.58, 5.58 0, 16.75 0" stroke="#1e1e1e" stroke-width="2" fill="none"></path></g><g transform="translate(202.59781615453494 753.1751668317635) rotate(0 27 28.80000000000001)"><text x="27" y="0" font-family="Cascadia, Segoe UI Emoji" font-size="16px" fill="#1e1e1e" text-anchor="middle" style="white-space: pre;" direction="ltr" dominant-baseline="text-before-edge">WASM</text><text x="27" y="19.2" font-family="Cascadia, Segoe UI Emoji" font-size="16px" fill="#1e1e1e" text-anchor="middle" style="white-space: pre;" direction="ltr" dominant-baseline="text-before-edge">Module</text><text x="27" y="38.4" font-family="Cascadia, Segoe UI Emoji" font-size="16px" fill="#1e1e1e" text-anchor="middle" style="white-space: pre;" direction="ltr" dominant-baseline="text-before-edge">1</text></g><g stroke-linecap="round" transform="translate(269.22281615453494 743.6001668317634) rotate(0 33.5 39)"><path d="M16.75 0 M16.75 0 C25.66 0, 34.58 0, 50.25 0 M16.75 0 C24.15 0, 31.54 0, 50.25 0 M50.25 0 C61.42 0, 67 5.58, 67 16.75 M50.25 0 C61.42 0, 67 5.58, 67 16.75 M67 16.75 C67 28.52, 67 40.28, 67 61.25 M67 16.75 C67 27.21, 67 37.68, 67 61.25 M67 61.25 C67 72.42, 61.42 78, 50.25 78 M67 61.25 C67 72.42, 61.42 78, 50.25 78 M50.25 78 C38.29 78, 26.33 78, 16.75 78 M50.25 78 C38.73 78, 27.22 78, 16.75 78 M16.75 78 C5.58 78, 0 72.42, 0 61.25 M16.75 78 C5.58 78, 0 72.42, 0 61.25 M0 61.25 C0 44.28, 0 27.32, 0 16.75 M0 61.25 C0 46.53, 0 31.82, 0 16.75 M0 16.75 C0 5.58, 5.58 0, 16.75 0 M0 16.75 C0 5.58, 5.58 0, 16.75 0" stroke="#1e1e1e" stroke-width="2" fill="none"></path></g><g transform="translate(275.72281615453494 753.8001668317635) rotate(0 27 28.80000000000001)"><text x="27" y="0" font-family="Cascadia, Segoe UI Emoji" font-size="16px" fill="#1e1e1e" text-anchor="middle" style="white-space: pre;" direction="ltr" dominant-baseline="text-before-edge">WASM</text><text x="27" y="19.2" font-family="Cascadia, Segoe UI Emoji" font-size="16px" fill="#1e1e1e" text-anchor="middle" style="white-space: pre;" direction="ltr" dominant-baseline="text-before-edge">Module</text><text x="27" y="38.4" font-family="Cascadia, Segoe UI Emoji" font-size="16px" fill="#1e1e1e" text-anchor="middle" style="white-space: pre;" direction="ltr" dominant-baseline="text-before-edge">2</text></g><g stroke-linecap="round" transform="translate(360.47281615453494 744.2251668317634) rotate(0 33.5 39)"><path d="M16.75 0 M16.75 0 C23.69 0, 30.63 0, 50.25 0 M16.75 0 C29.68 0, 42.61 0, 50.25 0 M50.25 0 C61.42 0, 67 5.58, 67 16.75 M50.25 0 C61.42 0, 67 5.58, 67 16.75 M67 16.75 C67 28.25, 67 39.74, 67 61.25 M67 16.75 C67 28.4, 67 40.06, 67 61.25 M67 61.25 C67 72.42, 61.42 78, 50.25 78 M67 61.25 C67 72.42, 61.42 78, 50.25 78 M50.25 78 C40.77 78, 31.29 78, 16.75 78 M50.25 78 C37.25 78, 24.25 78, 16.75 78 M16.75 78 C5.58 78, 0 72.42, 0 61.25 M16.75 78 C5.58 78, 0 72.42, 0 61.25 M0 61.25 C0 49.46, 0 37.67, 0 16.75 M0 61.25 C0 45.3, 0 29.35, 0 16.75 M0 16.75 C0 5.58, 5.58 0, 16.75 0 M0 16.75 C0 5.58, 5.58 0, 16.75 0" stroke="#1e1e1e" stroke-width="2" fill="none"></path></g><g transform="translate(366.97281615453494 754.4251668317635) rotate(0 27 28.80000000000001)"><text x="27" y="0" font-family="Cascadia, Segoe UI Emoji" font-size="16px" fill="#1e1e1e" text-anchor="middle" style="white-space: pre;" direction="ltr" dominant-baseline="text-before-edge">WASM</text><text x="27" y="19.2" font-family="Cascadia, Segoe UI Emoji" font-size="16px" fill="#1e1e1e" text-anchor="middle" style="white-space: pre;" direction="ltr" dominant-baseline="text-before-edge">Module</text><text x="27" y="38.4" font-family="Cascadia, Segoe UI Emoji" font-size="16px" fill="#1e1e1e" text-anchor="middle" style="white-space: pre;" direction="ltr" dominant-baseline="text-before-edge">n</text></g><g stroke-linecap="round"><g transform="translate(338.34781615453494 781.9751668317634) rotate(0 11.875 0.3125)"><path d="M0 0 C3.96 0.1, 19.79 0.52, 23.75 0.63" stroke="#1e1e1e" stroke-width="2.5" fill="none" stroke-dasharray="1.5 8"></path></g></g><mask></mask><g stroke-linecap="round" transform="translate(197.59781615453494 829.4751668317634) rotate(0 52 24.5)"><path d="M12.25 0 M12.25 0 C38.24 0, 64.23 0, 91.75 0 M12.25 0 C28.85 0, 45.45 0, 91.75 0 M91.75 0 C99.92 0, 104 4.08, 104 12.25 M91.75 0 C99.92 0, 104 4.08, 104 12.25 M104 12.25 C104 20.35, 104 28.44, 104 36.75 M104 12.25 C104 20.19, 104 28.13, 104 36.75 M104 36.75 C104 44.92, 99.92 49, 91.75 49 M104 36.75 C104 44.92, 99.92 49, 91.75 49 M91.75 49 C64.86 49, 37.97 49, 12.25 49 M91.75 49 C67.51 49, 43.26 49, 12.25 49 M12.25 49 C4.08 49, 0 44.92, 0 36.75 M12.25 49 C4.08 49, 0 44.92, 0 36.75 M0 36.75 C0 30.79, 0 24.83, 0 12.25 M0 36.75 C0 28.6, 0 20.44, 0 12.25 M0 12.25 C0 4.08, 4.08 0, 12.25 0 M0 12.25 C0 4.08, 4.08 0, 12.25 0" stroke="#1971c2" stroke-width="2" fill="none"></path></g><g transform="translate(204.59781615453494 834.7751668317634) rotate(0 45 19.19999999999999)"><text x="45" y="0" font-family="Cascadia, Segoe UI Emoji" font-size="16px" fill="#1971c2" text-anchor="middle" style="white-space: pre;" direction="ltr" dominant-baseline="text-before-edge">Public </text><text x="45" y="19.2" font-family="Cascadia, Segoe UI Emoji" font-size="16px" fill="#1971c2" text-anchor="middle" style="white-space: pre;" direction="ltr" dominant-baseline="text-before-edge">Data Files</text></g><g stroke-linecap="round" transform="translate(318.22281615453494 829.3501668317634) rotate(0 52 24.5)"><path d="M12.25 0 M12.25 0 C30.62 0, 49 0, 91.75 0 M12.25 0 C30.04 0, 47.82 0, 91.75 0 M91.75 0 C99.92 0, 104 4.08, 104 12.25 M91.75 0 C99.92 0, 104 4.08, 104 12.25 M104 12.25 C104 19.77, 104 27.29, 104 36.75 M104 12.25 C104 17.97, 104 23.68, 104 36.75 M104 36.75 C104 44.92, 99.92 49, 91.75 49 M104 36.75 C104 44.92, 99.92 49, 91.75 49 M91.75 49 C65.77 49, 39.79 49, 12.25 49 M91.75 49 C74.46 49, 57.17 49, 12.25 49 M12.25 49 C4.08 49, 0 44.92, 0 36.75 M12.25 49 C4.08 49, 0 44.92, 0 36.75 M0 36.75 C0 28.97, 0 21.19, 0 12.25 M0 36.75 C0 30.22, 0 23.69, 0 12.25 M0 12.25 C0 4.08, 4.08 0, 12.25 0 M0 12.25 C0 4.08, 4.08 0, 12.25 0" stroke="#1971c2" stroke-width="2" fill="none"></path></g><g transform="translate(325.22281615453494 834.6501668317634) rotate(0 45 19.19999999999999)"><text x="45" y="0" font-family="Cascadia, Segoe UI Emoji" font-size="16px" fill="#1971c2" text-anchor="middle" style="white-space: pre;" direction="ltr" dominant-baseline="text-before-edge">Private </text><text x="45" y="19.2" font-family="Cascadia, Segoe UI Emoji" font-size="16px" fill="#1971c2" text-anchor="middle" style="white-space: pre;" direction="ltr" dominant-baseline="text-before-edge">Data Files</text></g><g stroke-linecap="round"><g transform="translate(311.47281615453494 674.4751668317634) rotate(0 -39.0625 38.75)"><path d="M0 0 C-13.02 12.92, -65.1 64.58, -78.13 77.5" stroke="#e03131" stroke-width="2.5" fill="none" stroke-dasharray="8 10"></path></g><g transform="translate(311.47281615453494 674.4751668317634) rotate(0 -39.0625 38.75)"><path d="M-65.34 50.36 C-69.33 58.83, -73.32 67.3, -78.13 77.5" stroke="#e03131" stroke-width="2.5" fill="none"></path></g><g transform="translate(311.47281615453494 674.4751668317634) rotate(0 -39.0625 38.75)"><path d="M-50.89 64.93 C-59.39 68.85, -67.89 72.78, -78.13 77.5" stroke="#e03131" stroke-width="2.5" fill="none"></path></g></g><mask></mask><g stroke-linecap="round"><g transform="translate(313.66031615453494 675.7251668317634) rotate(0 -4.6875 36.5625)"><path d="M0 0 C-1.56 12.19, -7.81 60.94, -9.38 73.13" stroke="#e03131" stroke-width="2.5" fill="none" stroke-dasharray="8 10"></path></g><g transform="translate(313.66031615453494 675.7251668317634) rotate(0 -4.6875 36.5625)"><path d="M-15.97 43.86 C-14.22 51.6, -12.48 59.34, -9.38 73.13" stroke="#e03131" stroke-width="2.5" fill="none"></path></g><g transform="translate(313.66031615453494 675.7251668317634) rotate(0 -4.6875 36.5625)"><path d="M4.39 46.47 C0.75 53.52, -2.89 60.57, -9.38 73.13" stroke="#e03131" stroke-width="2.5" fill="none"></path></g></g><mask></mask><g stroke-linecap="round"><g transform="translate(311.78531615453494 675.7251668317634) rotate(0 39.0625 38.125)"><path d="M0 0 C13.02 12.71, 65.1 63.54, 78.13 76.25" stroke="#e03131" stroke-width="2.5" fill="none" stroke-dasharray="8 10"></path></g><g transform="translate(311.78531615453494 675.7251668317634) rotate(0 39.0625 38.125)"><path d="M50.78 63.9 C58.87 67.56, 66.96 71.21, 78.13 76.25" stroke="#e03131" stroke-width="2.5" fill="none"></path></g><g transform="translate(311.78531615453494 675.7251668317634) rotate(0 39.0625 38.125)"><path d="M65.12 49.22 C68.97 57.21, 72.81 65.21, 78.13 76.25" stroke="#e03131" stroke-width="2.5" fill="none"></path></g></g><mask></mask></svg>