<svg version="1.1" xmlns="http://www.w3.org/2000/svg" viewBox="0 0 638.2429446649944 316.85027571141427" width="638.2429446649944" height="316.85027571141427">
  <!-- svg-source:excalidraw -->
  
  <defs>
    <style class="style-fonts">
      @font-face {
        font-family: "Virgil";
        src: url("https://unpkg.com/@excalidraw/excalidraw@0.15.3/dist/excalidraw-assets/Virgil.woff2");
      }
      @font-face {
        font-family: "Cascadia";
        src: url("https://unpkg.com/@excalidraw/excalidraw@0.15.3/dist/excalidraw-assets/Cascadia.woff2");
      }
    </style>
  </defs>
  <rect x="0" y="0" width="638.2429446649944" height="316.85027571141427" fill="#ffffff"></rect><g stroke-linecap="round"><g transform="translate(272.5193551790089 79.84915070013128) rotate(269.42300266773606 41.18246543006762 102.38142215218112)" fill-rule="evenodd"><path d="M3.36 -7.68 C3.36 -7.68, 3.36 -7.68, 3.36 -7.68 M3.36 -7.68 C3.36 -7.68, 3.36 -7.68, 3.36 -7.68 M0.37 0.08 C6.29 -2.95, 8.94 -7.02, 10.9 -12.07 M0.64 0.46 C3.54 -1.21, 6.33 -4.34, 10.84 -11 M2.08 9.03 C9.48 0.24, 15.57 -7.51, 18.55 -16.33 M1.47 8.34 C6.09 1.55, 10.21 -4.06, 19.88 -15.5 M2.48 11.36 C8.29 5.21, 18.71 -5.99, 26.25 -18.09 M1.67 13.5 C9.64 4.4, 17.54 -4.85, 27.35 -17.1 M2.67 20.98 C8.81 10.75, 14.53 3.13, 31.55 -17.4 M1.98 18.8 C13.15 5.09, 25.25 -7.39, 33.09 -15.95 M0.23 26.33 C9.96 14.93, 21.95 1.88, 40.56 -19.55 M1.5 25.07 C11.38 13.12, 22.84 1.5, 40.43 -19.16 M1.82 30.17 C11.64 18.87, 19.59 10.91, 45.82 -20.17 M1.41 31.98 C17.67 11.36, 35.46 -7.7, 45.16 -18.67 M1.75 38.31 C18.61 20.98, 31.67 0.61, 50.16 -19.17 M0.48 37.78 C12.35 24.24, 23.84 11.63, 50.28 -18.15 M2.01 43.86 C23.64 21.1, 41.37 -5.28, 52.76 -17.59 M2.16 42.6 C17.32 26.64, 33.55 6.93, 53.14 -16.88 M0.33 51.53 C16.14 32.29, 31.29 15.27, 59.82 -16.45 M1.56 49.63 C19.12 27.62, 37.74 7.74, 59.08 -15.59 M0.73 54.31 C24.85 30.07, 48.81 0.61, 63.27 -15.43 M1.09 54.91 C18.28 36.47, 34.98 17.38, 63.1 -14.12 M2.31 61.53 C18.81 43.27, 34.69 25.28, 66.69 -14.9 M0.2 62.35 C24.28 33.55, 50.33 5.93, 66.85 -14.5 M1.81 67.55 C24.22 43.29, 42.94 17.52, 71.35 -13.92 M0.94 67.42 C17 49.72, 34.66 28.52, 71.66 -11.9 M1.67 72.06 C26.01 48.38, 49.65 20.13, 73.58 -11.48 M1.04 74.44 C30.03 42.23, 58.36 8.01, 74.84 -10.89 M2.04 80.33 C25.61 48.21, 54.17 20.81, 76.02 -6.02 M0.91 79.85 C23 56.16, 46.7 30.81, 78 -7.96 M3.39 87.9 C29.86 51.98, 57.21 20.37, 81.67 -5.42 M1.22 85.9 C27.12 58.79, 50.91 29.59, 80.1 -4.5 M-0.75 92.67 C25.43 67.83, 46.28 40.08, 81.25 -1.98 M0.71 91.7 C18.79 69.98, 38.35 49.64, 81.75 -0.81 M83.15 -1.92 C83.15 -1.92, 83.15 -1.92, 83.15 -1.92 M83.15 -1.92 C83.15 -1.92, 83.15 -1.92, 83.15 -1.92 M2.53 99.19 C16.93 81.56, 33.2 61.44, 84.33 4.84 M0.84 99.57 C20.22 76.41, 40.47 55.27, 83.33 4.42 M0.47 105.91 C31.4 70.13, 60.65 34.48, 82.72 10.8 M2.23 104.72 C22.89 79.95, 43.57 55.44, 82.81 9.21 M1.16 112.45 C17.94 90.66, 35.4 69.98, 81.34 15.98 M1.48 110.49 C20.21 88.01, 40.12 66.93, 83.47 15.98 M0.54 117.01 C30.09 81.93, 61.74 44.9, 83.32 22.36 M1.56 117.97 C28.29 85.05, 55.72 56.01, 83.2 21.39 M2.22 121.07 C24.19 96.92, 46.68 69.81, 83.49 27.54 M2.1 122.06 C26.49 93.73, 49.46 66.15, 83.55 29.21 M1.56 129.72 C35.55 93.59, 67.32 55.76, 83.02 33.37 M0.41 128.79 C33.45 91.43, 65.95 53.11, 83.36 34.05 M0.2 136.31 C36.57 97.39, 69.39 60.35, 82.12 42.05 M1.09 135.01 C21.99 110.94, 42.62 87.29, 82.53 40.36 M2.87 142.56 C32.85 104.05, 65.83 67.41, 82.66 48.83 M1.76 141.43 C32.8 104.21, 64.05 69.79, 83.54 46.19 M-0.07 147.2 C22.63 122.91, 44.12 99.52, 84.21 54.27 M0.67 148.35 C24.11 120.23, 45.21 94.55, 82.55 52.42 M-0.55 154.3 C29.77 118.75, 57.13 89.25, 84.03 60.5 M1.74 152.89 C28.38 124.37, 54.38 93.99, 82.4 58.04 M-0.8 161.49 C28.36 126.5, 59.2 91.73, 83.73 63.96 M1.56 160.31 C24.96 132.07, 48.52 104.22, 84.24 63.88 M1.28 164.71 C22.96 140.8, 45.27 112.61, 81.96 71.41 M0.99 165.66 C19.5 145.19, 37.71 123.62, 83.2 71.6 M0.84 170.2 C21.59 147.64, 42.93 121.4, 81.03 76.65 M0.95 170.88 C31.44 136.91, 61.27 104.01, 82.08 77.48 M0.7 179.29 C26.36 148.52, 52.1 118.71, 82.94 84.81 M-0.02 178.48 C19.25 155.63, 39.26 133.61, 84.3 83.62 M-0.66 184.6 C30.76 147.26, 62.69 109.35, 81.4 88.59 M1.26 184.81 C29.17 151.49, 54.8 121.04, 83.01 89.22 M-1.01 190.32 C28.58 154.95, 57.31 122.39, 84.44 96.98 M1.66 189.34 C21.89 168.03, 42.47 144.42, 82.6 94.32 M0.18 196.95 C35.45 160.84, 66.71 122.59, 83.16 103.31 M1.34 196.35 C31.59 161.71, 60.39 129.27, 82.51 100.83 M2.49 201.31 C15.92 181.17, 34.26 164.27, 82.3 109.94 M1.5 201.98 C26.4 173.51, 52.07 142.81, 82.81 108.22 M1.15 207.01 C20.69 187.41, 37.13 168.13, 84.3 112.56 M1.91 205.71 C31.04 172.55, 61.44 137.61, 83.21 112.82 M3.16 213.76 C27.77 182.83, 50.67 154.29, 81.31 120.44 M4.11 212.64 C21.58 191.11, 42.03 169.16, 84.13 119.04 M6.41 216.28 C36.88 181.96, 62.18 148.37, 81.8 125.12 M5.49 215.4 C25.28 193.03, 43.47 172.82, 84.25 125.16 M7.94 218.17 C32.62 188.08, 60.86 158.74, 83.3 132.49 M8.58 217.03 C35.84 186.36, 63.5 154.2, 84.3 132.29 M11.08 219.29 C31.64 193.88, 54.71 170.52, 83 139.5 M13.14 219.39 C25.14 204.19, 39.1 187.44, 82.61 138.11 M17.53 220.09 C31.63 205.28, 48.12 184.27, 81.76 142.38 M15.27 222.43 C30.63 205.64, 42.98 190.77, 84.18 144.19 M20 221.05 C38.88 202.74, 54.84 184.7, 84.18 148.96 M21.06 222.69 C34.45 206.73, 47.51 191.19, 83.72 151.16 M24.89 224 C35.23 208.36, 48.97 192.62, 85.17 155.36 M24.28 223.56 C46.6 197.46, 69.47 170.31, 83.17 156.5 M28.99 223.58 C49.13 199.32, 70.96 175.04, 82.69 162.03 M30 223.78 C40.69 209.63, 52.37 195.7, 83.56 161.54 M32.07 226.22 C46.85 211.33, 60.63 195.85, 84.36 170.45 M32.3 225.44 C48.43 208.52, 65.31 189.61, 82.5 169.21 M40.23 226.66 C47.69 213.5, 61.67 201.57, 83.49 175.46 M38.52 225.44 C52.09 211.55, 63.7 197.22, 83.27 175.26 M45.3 225.46 C56.91 211.34, 69.59 196.29, 83.12 181.42 M45.72 224.04 C58.69 209.67, 72.29 193.36, 83.85 181.55 M50.82 222.53 C64.12 209.18, 77.65 194.79, 82.58 187.02 M51.63 223.36 C56.8 216.79, 65.01 207.97, 84.48 185.79 M56.63 224.03 C63.94 215.49, 74.37 205.13, 82.28 193.27 M56.24 223.36 C67.91 211.4, 77.73 200.01, 83.45 192.53 M64.29 221.72 C68.19 215.65, 74.95 205.06, 82.28 200.23 M64.24 222.08 C68.13 217.03, 71.47 212.52, 82.67 198.9 M69.05 220.67 C73.14 219.83, 75.15 215.08, 82.33 203.28 M69.98 222.4 C73.7 217.41, 76.82 212.03, 82.69 205.88" stroke="#40c057" stroke-width="0.5" fill="none"></path><path d="M0.88 -1.1 C0.85 29.66, -0.38 150.72, -0.65 185.16 C-0.92 219.6, -1.68 200.82, -0.76 205.55 C0.17 210.29, 1.53 210.76, 4.9 213.57 C8.26 216.37, 13.02 220.44, 19.44 222.36 C25.86 224.29, 35.56 225.38, 43.43 225.12 C51.29 224.86, 60.3 223.02, 66.65 220.79 C73.01 218.57, 79.08 214.52, 81.54 211.76 C84.01 209.01, 81.35 208.49, 81.45 204.26 C81.54 200.03, 82.09 218.01, 82.13 186.38 C82.18 154.74, 81.88 45.73, 81.73 14.45 C81.58 -16.84, 82.02 2.77, 81.25 -1.33 C80.48 -5.43, 79.66 -7.88, 77.1 -10.15 C74.53 -12.43, 72.16 -13.27, 65.86 -14.98 C59.57 -16.7, 47.25 -19.94, 39.33 -20.42 C31.41 -20.91, 24.24 -20, 18.35 -17.88 C12.47 -15.77, 7.01 -10.68, 4.01 -7.72 C1.01 -4.76, 1.1 -1.55, 0.34 -0.13 C-0.43 1.29, -0.5 0.86, -0.56 0.78 M-0.12 0.94 C0.27 31.33, 1.27 149.83, 1.58 183.59 C1.89 217.34, 1.08 198.33, 1.73 203.46 C2.38 208.59, 2.74 211.11, 5.49 214.37 C8.23 217.64, 11.68 221.35, 18.2 223.05 C24.72 224.75, 36.49 225.14, 44.58 224.58 C52.67 224.01, 60.64 221.82, 66.74 219.67 C72.83 217.52, 78.41 214.42, 81.13 211.69 C83.85 208.95, 82.79 207.56, 83.06 203.24 C83.33 198.91, 82.97 217.14, 82.76 185.75 C82.55 154.37, 81.72 46.21, 81.79 14.91 C81.87 -16.39, 83.91 2.28, 83.22 -2.07 C82.53 -6.42, 80.62 -8.99, 77.65 -11.17 C74.69 -13.36, 71.83 -14.05, 65.44 -15.16 C59.06 -16.27, 47.13 -17.51, 39.35 -17.85 C31.57 -18.19, 24.82 -19.03, 18.76 -17.21 C12.7 -15.38, 6.26 -9.79, 3.01 -6.88 C-0.24 -3.98, -0.48 -1.16, -0.75 0.23 C-1.01 1.62, 1.22 1.32, 1.41 1.44" stroke="#087f5b" stroke-width="1" fill="none"></path></g></g><mask></mask><g stroke-linecap="round"><g transform="translate(311.9141888391814 169.54121915338462) rotate(269.42300266773606 39.96619699713233 9.086508081535925)"><path d="M-0.92 1.05 C-0.84 2.64, -0.79 6.28, 1.34 8.46 C3.46 10.63, 8.11 12.3, 11.84 14.11 C15.57 15.91, 18.74 18.3, 23.72 19.29 C28.7 20.28, 35.13 20.43, 41.72 20.03 C48.3 19.64, 57.12 19, 63.23 16.93 C69.34 14.87, 75.71 10.49, 78.37 7.63 C81.04 4.77, 79 1.24, 79.22 -0.24 M0.8 0.55 C1.18 1.87, 1.87 4.15, 3.64 6.58 C5.41 9.01, 7.99 13.39, 11.41 15.13 C14.84 16.87, 18.83 16.07, 24.2 17.03 C29.57 18, 37 21.07, 43.65 20.92 C50.3 20.76, 58.69 18.51, 64.08 16.12 C69.47 13.72, 73.07 9.27, 75.97 6.55 C78.87 3.82, 80.56 0.73, 81.48 -0.22" stroke="#087f5b" stroke-width="1" fill="none"></path></g></g><mask></mask><g stroke-linecap="round"><g transform="translate(243.39508130309378 175.8165046319621) rotate(269.42300266773606 39.85193655484318 7.283745203692746)"><path d="M-0.77 0.48 C-0.16 1.28, 0.69 3.86, 2.75 5.83 C4.81 7.81, 8.27 10.64, 11.6 12.33 C14.93 14.01, 17.82 15.38, 22.72 15.95 C27.62 16.51, 33.92 16.09, 41.01 15.73 C48.11 15.36, 59.41 15.3, 65.28 13.74 C71.16 12.18, 73.91 8.86, 76.27 6.4 C78.62 3.93, 78.94 0.29, 79.43 -1.06 M1.03 -0.32 C1.62 1.15, 0.47 5.3, 2.14 7.07 C3.82 8.84, 7.64 9.15, 11.07 10.28 C14.5 11.42, 17.45 12.88, 22.71 13.88 C27.97 14.89, 35.82 16.49, 42.64 16.34 C49.47 16.19, 58 14.79, 63.65 12.96 C69.3 11.14, 74.1 7.83, 76.53 5.41 C78.97 2.99, 77.52 -0.67, 78.26 -1.57" stroke="#087f5b" stroke-width="1" fill="none"></path></g></g><mask></mask><g stroke-linecap="round" transform="translate(167.5291576739878 164.99631801380954) rotate(269.42300266773606 40.407999815770836 17.9645272383506)"><path d="M28.32 1.41 C35.99 0.29, 47.14 0.97, 55 2.21 C62.86 3.44, 71.44 5.65, 75.49 8.8 C79.55 11.96, 81.05 17.37, 79.33 21.14 C77.6 24.91, 71.94 28.98, 65.16 31.43 C58.38 33.87, 47.13 35.77, 38.65 35.82 C30.18 35.87, 20.64 34.42, 14.33 31.72 C8.01 29.02, 2.15 23.39, 0.78 19.61 C-0.59 15.84, -0.45 12.26, 6.11 9.08 C12.66 5.89, 32.41 1.7, 40.12 0.51 C47.83 -0.68, 52.26 1.63, 52.36 1.92 M48.91 -0.29 C56.79 0.4, 66.76 2.65, 72.22 6.11 C77.67 9.56, 81.99 16.51, 81.65 20.45 C81.31 24.4, 76.4 27.29, 70.17 29.77 C63.95 32.25, 53.13 34.86, 44.3 35.34 C35.47 35.81, 24.29 34.67, 17.22 32.62 C10.15 30.57, 4.15 26.51, 1.88 23.03 C-0.39 19.56, 0.43 15.41, 3.62 11.77 C6.8 8.13, 13.16 2.88, 21.02 1.19 C28.88 -0.51, 46.1 1.72, 50.78 1.59 C55.45 1.46, 49.62 0.23, 49.08 0.39" stroke="none" stroke-width="0" fill="#fff"></path><path d="M48.67 -0.58 C56.83 0.1, 66.58 4.53, 72.01 7.55 C77.44 10.58, 81.3 13.93, 81.23 17.58 C81.17 21.23, 77.39 26.49, 71.63 29.44 C65.87 32.39, 55.47 34.7, 46.69 35.29 C37.92 35.88, 26.46 34.79, 18.97 32.98 C11.48 31.17, 4.56 27.92, 1.78 24.43 C-1 20.95, -0.86 15.84, 2.29 12.07 C5.43 8.3, 12.49 3.86, 20.64 1.81 C28.79 -0.24, 45.49 -0.29, 51.19 -0.24 C56.88 -0.19, 54.84 1.62, 54.81 2.13 M40.05 -0.76 C48.32 -1.12, 59.04 1.91, 65.74 4.46 C72.44 7.02, 78.51 10.87, 80.24 14.58 C81.96 18.29, 80.59 23.6, 76.09 26.73 C71.6 29.85, 61.68 31.91, 53.28 33.34 C44.89 34.78, 33.57 36.34, 25.72 35.33 C17.86 34.32, 10.16 30.83, 6.14 27.27 C2.11 23.72, 0.4 17.82, 1.55 13.99 C2.71 10.17, 6.79 6.49, 13.09 4.31 C19.39 2.14, 34.89 1.35, 39.38 0.92 C43.86 0.5, 40.09 1.85, 40 1.79" stroke="#087f5b" stroke-width="1" fill="none"></path></g><g transform="translate(264.6148524595751 121.8475592548987) rotate(359.54111041461914 55.774436950683594 6.9931836073774605)"><text x="0" y="0" font-family="Helvetica, Segoe UI Emoji" font-size="12.162058447612969px" fill="#1e1e1e" text-anchor="start" style="white-space: pre;" direction="ltr" dominant-baseline="text-before-edge">MPSC events queue</text></g><g stroke-linecap="round"><g transform="translate(64.71666650803627 171.25705853277705) rotate(270.01650207762685 40.90341473994317 92.55651681296857)"><path d="M0.83 -0.38 C14.41 30.03, 66.49 153.15, 79.79 184.17 M-2.16 -3.05 C12.46 27.6, 71.71 155.25, 85.09 187.28" stroke="#e03131" stroke-width="2" fill="none"></path></g><g transform="translate(64.71666650803627 171.25705853277705) rotate(270.01650207762685 40.90341473994317 92.55651681296857)"><path d="M63.72 162.81 C68.15 169.01, 75.32 178.92, 88.62 186.36 M63.61 165.05 C69.09 171.84, 72.56 177.2, 86.37 187.07" stroke="#e03131" stroke-width="2" fill="none"></path></g><g transform="translate(64.71666650803627 171.25705853277705) rotate(270.01650207762685 40.90341473994317 92.55651681296857)"><path d="M82.47 154.47 C82.52 162.78, 85.22 174.68, 88.62 186.36 M82.37 156.71 C83.69 165.29, 83.02 172.49, 86.37 187.07" stroke="#e03131" stroke-width="2" fill="none"></path></g></g><mask></mask><g stroke-linecap="round"><g transform="translate(116.15150178615067 98.31923658022518) rotate(270.01650207762685 -3.7639031388748663 74.37293284673532)"><path d="M2.48 -1.84 C1.06 23.06, -5.9 126.27, -7.25 151.15 M0.37 3.33 C-1.5 27.34, -8.21 123.03, -9.34 147.44" stroke="#e03131" stroke-width="2" fill="none"></path></g><g transform="translate(116.15150178615067 98.31923658022518) rotate(270.01650207762685 -3.7639031388748663 74.37293284673532)"><path d="M-20.53 119.09 C-11.16 131.17, -13.52 140.57, -9.82 147.36 M-17.24 117.92 C-14.34 126.21, -11.62 133.89, -9.19 148.29" stroke="#e03131" stroke-width="2" fill="none"></path></g><g transform="translate(116.15150178615067 98.31923658022518) rotate(270.01650207762685 -3.7639031388748663 74.37293284673532)"><path d="M-0.04 120.32 C2.25 132.34, -7.18 141.31, -9.82 147.36 M3.24 119.15 C0.82 127.33, -1.77 134.69, -9.19 148.29" stroke="#e03131" stroke-width="2" fill="none"></path></g></g><mask></mask><g stroke-linecap="round"><g transform="translate(204.95393845770877 26.84179944886816) rotate(270.01650207762685 -58.25540072339345 58.31203914842922)"><path d="M2.34 1.95 C-16.75 21.06, -95.65 97.4, -115.31 116.44 M0.16 0.55 C-19.12 19.95, -97.38 100.21, -116.89 119.96" stroke="#e03131" stroke-width="2" fill="none"></path></g><g transform="translate(204.95393845770877 26.84179944886816) rotate(270.01650207762685 -58.25540072339345 58.31203914842922)"><path d="M-101.69 94.37 C-107.78 101.6, -111.51 109.65, -115.8 119.97 M-105.55 90.87 C-107.74 101.41, -111.19 111.69, -115.89 119.05" stroke="#e03131" stroke-width="2" fill="none"></path></g><g transform="translate(204.95393845770877 26.84179944886816) rotate(270.01650207762685 -58.25540072339345 58.31203914842922)"><path d="M-87.03 108.74 C-97.31 112.29, -105.04 116.42, -115.8 119.97 M-90.89 105.24 C-98.11 110.83, -106.52 116.24, -115.89 119.05" stroke="#e03131" stroke-width="2" fill="none"></path></g></g><mask></mask><g stroke-linecap="round" transform="translate(72.51794010180993 191.26384492727524) rotate(355.77557621433283 24.744224152043216 13.897440962106458)"><path d="M34.71 2.68 C39.75 3.58, 45.14 3.6, 47.17 5.93 C49.21 8.27, 48.32 13.41, 46.91 16.69 C45.51 19.97, 42.32 24, 38.74 25.6 C35.16 27.2, 30.6 26.7, 25.44 26.27 C20.28 25.84, 12.2 24.48, 7.79 23.03 C3.39 21.58, -0.24 20.38, -0.97 17.57 C-1.69 14.75, 0.51 9.11, 3.43 6.13 C6.36 3.15, 8.8 -0.65, 16.58 -0.32 C24.36 0.01, 45.15 4.6, 50.1 8.12 C55.04 11.63, 46.7 20.33, 46.24 20.75 M44.04 4.18 C47.25 6.74, 49.84 14.24, 50.06 16.94 C50.28 19.65, 48.92 19.13, 45.36 20.43 C41.8 21.73, 34.72 23.96, 28.72 24.75 C22.73 25.54, 14.05 26.29, 9.37 25.16 C4.68 24.03, 1.96 20.65, 0.61 17.96 C-0.74 15.26, -1.04 11.48, 1.27 9.01 C3.58 6.53, 9.21 4.79, 14.46 3.1 C19.7 1.41, 27.87 -2, 32.76 -1.15 C37.65 -0.3, 42 6.63, 43.81 8.19 C45.62 9.74, 43.43 8.07, 43.64 8.18" stroke="#2f9e44" stroke-width="2" fill="none"></path></g><g stroke-linecap="round"><g transform="translate(74.66180877620081 206.40922129318702) rotate(355.77557621433283 1.0168859240566235 18.98187058238929)"><path d="M0.16 1.58 C0.19 7.12, 0.65 29.93, 1.11 35.99 M-3.19 -0.03 C-3.7 7, -2.42 31.71, -1.62 38.54" stroke="#2f9e44" stroke-width="2" fill="none"></path></g></g><mask></mask><g stroke-linecap="round"><g transform="translate(123.36107898645287 203.6558556383503) rotate(355.77557621433283 -1.0168859240566235 18.303946633018256)"><path d="M-0.11 -0.75 C0.4 5.33, 0.99 31.31, 0.66 37.71 M-3.61 -3.63 C-3.01 1.49, -0.07 27.24, -0.12 33.3" stroke="#2f9e44" stroke-width="2" fill="none"></path></g></g><mask></mask><g stroke-linecap="round" transform="translate(75.47773297778895 226.73318838001543) rotate(355.77557621433283 24.744224152043216 13.897440962106458)"><path d="M43.7 2.73 C47.06 4.87, 48.5 10.24, 48.86 13.8 C49.21 17.35, 49.37 21.79, 45.83 24.06 C42.29 26.32, 33.3 27.36, 27.63 27.39 C21.96 27.43, 15.87 25.37, 11.83 24.28 C7.79 23.19, 5.19 23.13, 3.37 20.86 C1.55 18.59, -0.59 13.64, 0.91 10.65 C2.42 7.66, 7.73 4.92, 12.4 2.93 C17.06 0.95, 22.45 -2.68, 28.92 -1.26 C35.39 0.16, 48.69 7.41, 51.21 11.44 C53.73 15.47, 44.47 22.8, 44.02 22.93 M4.24 7.09 C7.16 4.24, 14.32 -1.82, 19.74 -2.16 C25.16 -2.5, 32.37 2.85, 36.77 5.06 C41.18 7.28, 44.69 8.58, 46.17 11.11 C47.66 13.64, 47.84 17.54, 45.69 20.22 C43.55 22.9, 37.25 25.81, 33.29 27.18 C29.34 28.55, 26.8 29.53, 21.96 28.42 C17.12 27.31, 7.98 22.67, 4.24 20.51 C0.5 18.36, -0.76 17.79, -0.47 15.49 C-0.18 13.19, 4.95 8.54, 5.98 6.69 C7.01 4.85, 5.59 4.65, 5.72 4.42" stroke="#2f9e44" stroke-width="2" fill="none"></path></g><g transform="translate(78.78046668141633 215.26693319749668) rotate(355.77557621433283 20.62145896451966 6.9931836073774605)"><text x="0" y="0" font-family="Helvetica, Segoe UI Emoji" font-size="12.162058447612969px" fill="#1e1e1e" text-anchor="start" style="white-space: pre;" direction="ltr" dominant-baseline="text-before-edge">Event 1</text></g><g stroke-linecap="round" transform="translate(73.05400850807519 84.32833780162625) rotate(355.61541728580255 24.744224152043216 13.897440962106458)"><path d="M12.69 3.77 C16.84 2.11, 25.36 1.17, 30.34 1.41 C35.33 1.65, 39.49 3.36, 42.61 5.23 C45.73 7.09, 48.62 9.77, 49.07 12.6 C49.52 15.42, 48.82 19.59, 45.31 22.16 C41.79 24.74, 33.31 27.4, 27.96 28.04 C22.62 28.69, 17.65 27.55, 13.23 26.03 C8.8 24.51, 3.44 21.86, 1.39 18.92 C-0.65 15.98, -2.01 11.47, 0.96 8.38 C3.93 5.28, 15.69 1.45, 19.19 0.34 C22.69 -0.77, 21.89 1.33, 21.97 1.72 M46.29 9.01 C49.95 12.05, 52.26 15.46, 51.83 17.51 C51.4 19.55, 47.82 19.96, 43.72 21.28 C39.62 22.6, 32.99 24.68, 27.23 25.44 C21.47 26.19, 13.56 27.47, 9.16 25.82 C4.75 24.16, 1.86 18.49, 0.8 15.5 C-0.26 12.51, 0.36 10.71, 2.78 7.88 C5.2 5.04, 10.29 0.03, 15.34 -1.5 C20.38 -3.03, 27.63 -2.17, 33.06 -1.3 C38.49 -0.43, 46.31 2.32, 47.94 3.73 C49.57 5.14, 43.68 6.78, 42.85 7.17" stroke="#2f9e44" stroke-width="2" fill="none"></path></g><g stroke-linecap="round"><g transform="translate(74.9543502607412 100.10251234225959) rotate(355.61541728580255 1.0168859240566235 18.98187058238929)"><path d="M-1.48 2.36 C-0.31 8.98, 3.43 32.32, 4.45 38.59 M2.91 1.18 C4.15 6.99, 3.3 28.19, 3.52 33.92" stroke="#2f9e44" stroke-width="2" fill="none"></path></g></g><mask></mask><g stroke-linecap="round"><g transform="translate(123.48019682068116 96.77990048073977) rotate(355.61541728580255 -1.0168859240566235 18.303946633018256)"><path d="M2.42 0.63 C2.76 6.67, 1.04 32.87, 0.59 38.63 M0.28 -1.5 C0.63 5, 0.02 28.21, -0.23 34.72" stroke="#2f9e44" stroke-width="2" fill="none"></path></g></g><mask></mask><g stroke-linecap="round" transform="translate(76.11293716954151 119.7892691808386) rotate(355.61541728580255 24.744224152043216 13.897440962106458)"><path d="M38.4 1.25 C43.14 2.56, 48.86 6.47, 50.12 9.62 C51.39 12.78, 48.35 17.36, 46.01 20.17 C43.66 22.99, 40.67 25.29, 36.05 26.52 C31.44 27.74, 23.65 28.44, 18.32 27.53 C12.99 26.63, 6.82 23.6, 4.07 21.09 C1.32 18.58, 1.49 15.08, 1.82 12.49 C2.14 9.89, 2.35 7.49, 6.03 5.54 C9.72 3.58, 16.47 -1.03, 23.94 0.78 C31.4 2.59, 50.33 11.84, 50.82 16.39 C51.31 20.94, 27.27 27.75, 26.87 28.07 M42.03 1.28 C45.5 3.59, 47.52 9.62, 48.14 12.66 C48.75 15.69, 48.3 17.08, 45.72 19.5 C43.13 21.91, 37.55 26.39, 32.62 27.15 C27.69 27.91, 20.83 25.47, 16.13 24.04 C11.44 22.61, 6.58 21.13, 4.44 18.55 C2.3 15.98, 2.76 11.06, 3.3 8.61 C3.83 6.15, 3.94 5.41, 7.64 3.84 C11.33 2.28, 19.37 -0.61, 25.48 -0.77 C31.58 -0.94, 42.08 2.27, 44.25 2.88 C46.42 3.48, 39.4 2.68, 38.49 2.87" stroke="#2f9e44" stroke-width="2" fill="none"></path></g><g transform="translate(79.36432303852871 108.32537800070034) rotate(355.61541728580255 20.62145896451966 6.9931836073774605)"><text x="0" y="0" font-family="Helvetica, Segoe UI Emoji" font-size="12.162058447612969px" fill="#1e1e1e" text-anchor="start" style="white-space: pre;" direction="ltr" dominant-baseline="text-before-edge">Event 2</text></g><g stroke-linecap="round" transform="translate(145.45470328088368 10.008615854137588) rotate(358.63011376860624 24.744224152043216 13.897440962106472)"><path d="M17.33 1.41 C21.86 0.47, 29.49 0.13, 34.06 1.32 C38.64 2.5, 42.53 6.17, 44.78 8.51 C47.02 10.86, 48.38 12.59, 47.51 15.37 C46.65 18.15, 43.78 23.41, 39.58 25.18 C35.39 26.95, 27.7 26.17, 22.35 26 C17.01 25.82, 10.94 25.7, 7.53 24.12 C4.12 22.55, 2.47 19.59, 1.91 16.56 C1.35 13.52, 1.24 8.37, 4.19 5.93 C7.14 3.5, 16.36 2.75, 19.59 1.92 C22.83 1.1, 23.51 1.14, 23.6 1 M12.22 -1.83 C16.58 -3.09, 25.71 -1.22, 31.11 0.49 C36.51 2.19, 41.87 5.88, 44.63 8.41 C47.39 10.94, 48.21 13.18, 47.68 15.66 C47.14 18.15, 44.74 20.89, 41.41 23.31 C38.07 25.72, 33.41 30.2, 27.66 30.15 C21.91 30.1, 11.77 24.72, 6.9 22.99 C2.03 21.26, -0.49 22.04, -1.56 19.76 C-2.64 17.49, -2.75 11.94, 0.47 9.32 C3.69 6.7, 15.34 5.12, 17.76 4.04 C20.18 2.96, 15.4 3.42, 14.97 2.85" stroke="#2f9e44" stroke-width="2" fill="none"></path></g><g stroke-linecap="round"><g transform="translate(146.26201180964563 24.72076615211651) rotate(358.63011376860624 1.0168859240566235 18.981870582389305)"><path d="M-0.9 1.51 C-0.45 8.26, 0.89 32.37, 1.54 38.49 M3.81 -0.14 C3.95 5.88, -0.62 26.82, -0.96 33.76" stroke="#2f9e44" stroke-width="2" fill="none"></path></g></g><mask></mask><g stroke-linecap="round"><g transform="translate(195.09796027170705 23.936587637853137) rotate(358.63011376860624 -1.0168859240566235 18.30394663301827)"><path d="M-0.49 0.52 C-0.52 6.42, -0.87 31.27, -1.04 36.88 M-4.2 -1.66 C-4.43 4.61, -2.93 34.38, -2.74 40.65" stroke="#2f9e44" stroke-width="2" fill="none"></path></g></g><mask></mask><g stroke-linecap="round" transform="translate(146.6444335958695 45.58134755434344) rotate(358.63011376860624 24.744224152043216 13.897440962106472)"><path d="M27.41 -1.14 C32.63 -0.98, 39.68 3.09, 43.08 5.28 C46.48 7.47, 47.81 9.12, 47.81 12.01 C47.8 14.9, 45.86 19.9, 43.04 22.6 C40.21 25.3, 35.86 27.75, 30.86 28.21 C25.86 28.66, 18.17 26.59, 13.03 25.31 C7.89 24.03, 2.26 23.07, 0.04 20.51 C-2.19 17.95, -2.14 13.13, -0.32 9.95 C1.49 6.78, 3.86 2.38, 10.91 1.46 C17.96 0.53, 35.66 2.89, 41.98 4.39 C48.29 5.89, 49.3 10.42, 48.81 10.47 M21.97 0.01 C27.13 -0.77, 34.85 -0.16, 39.63 2.04 C44.4 4.24, 49.93 10.5, 50.64 13.22 C51.35 15.93, 46.97 15.59, 43.89 18.31 C40.8 21.03, 36.92 27.76, 32.12 29.53 C27.32 31.31, 19.37 29.83, 15.1 28.96 C10.82 28.1, 9.03 26.92, 6.48 24.37 C3.93 21.82, -0.31 17.38, -0.21 13.65 C-0.12 9.91, 3.4 4.23, 7.03 1.96 C10.66 -0.3, 19.2 0.02, 21.57 0.08 C23.94 0.14, 21.35 2.09, 21.26 2.33" stroke="#2f9e44" stroke-width="2" fill="none"></path></g><g transform="translate(150.49799604366672 34.697772396055626) rotate(358.63011376860624 20.6214599609375 13.986367214754921)"><text x="0" y="0" font-family="Helvetica, Segoe UI Emoji" font-size="12.162058447612969px" fill="#1e1e1e" text-anchor="start" style="white-space: pre;" direction="ltr" dominant-baseline="text-before-edge">Event 3</text><text x="0" y="13.986367214754914" font-family="Helvetica, Segoe UI Emoji" font-size="12.162058447612969px" fill="#1e1e1e" text-anchor="start" style="white-space: pre;" direction="ltr" dominant-baseline="text-before-edge"></text></g><g stroke-linecap="round" transform="translate(448.01984161923383 109.19282738902919) rotate(358.61672512985064 24.744224152043216 13.897440962106458)"><path d="M42.6 2.24 C46.95 3.91, 49.73 9.03, 50.46 11.86 C51.2 14.69, 49.88 16.48, 47.01 19.23 C44.13 21.98, 38.54 26.96, 33.23 28.34 C27.92 29.71, 19.91 29.07, 15.13 27.48 C10.36 25.9, 7.22 21.64, 4.6 18.83 C1.98 16.03, -1.19 13.1, -0.58 10.65 C0.02 8.19, 3.84 5.96, 8.24 4.12 C12.64 2.28, 18.87 -1.27, 25.81 -0.39 C32.75 0.48, 46.33 6.13, 49.9 9.37 C53.46 12.62, 47.8 19, 47.19 19.07 M13.97 1.84 C18.68 0.71, 26.9 0.37, 31.89 1.23 C36.88 2.09, 41.04 4.96, 43.9 6.98 C46.75 9.01, 49.36 10.14, 49.04 13.39 C48.73 16.64, 45.82 23.76, 42 26.48 C38.19 29.21, 31.13 29.57, 26.16 29.72 C21.2 29.88, 16.06 29.85, 12.22 27.41 C8.38 24.98, 4.67 18.25, 3.11 15.11 C1.55 11.96, 0.87 11.15, 2.85 8.55 C4.84 5.96, 13.01 0.65, 15.02 -0.45 C17.04 -1.55, 14.23 1.69, 14.95 1.96" stroke="#2f9e44" stroke-width="2" fill="none"></path></g><g stroke-linecap="round"><g transform="translate(448.96003059519717 123.78149920303801) rotate(358.61672512985064 1.0168859240566235 18.98187058238929)"><path d="M2.02 -1.3 C2.42 5.37, 2.94 33.23, 2.65 40.07 M-0.33 4.17 C-0.26 10.07, -0.34 31.04, 0.75 36.2" stroke="#2f9e44" stroke-width="2" fill="none"></path></g></g><mask></mask><g stroke-linecap="round"><g transform="translate(497.5111999952501 122.33929966569306) rotate(358.61672512985064 -1.0168859240566235 18.303946633018285)"><path d="M0.62 2.11 C-0.34 8.72, -3.31 32.35, -3.74 38.36 M-2.49 0.78 C-2.72 6.71, 1.94 28.85, 1.73 34.31" stroke="#2f9e44" stroke-width="2" fill="none"></path></g></g><mask></mask><g stroke-linecap="round" transform="translate(449.2178843892202 144.7652801068049) rotate(358.61672512985064 24.744224152043216 13.897440962106458)"><path d="M25.94 1.28 C30.69 1.6, 36.38 2.65, 40.52 4.12 C44.66 5.59, 50.07 7.35, 50.79 10.1 C51.5 12.85, 47.99 17.62, 44.79 20.63 C41.59 23.64, 36.34 27.18, 31.57 28.15 C26.8 29.12, 20.69 27.77, 16.18 26.44 C11.68 25.1, 7.33 22.38, 4.53 20.14 C1.74 17.9, -1.41 15.9, -0.58 12.99 C0.26 10.07, 3.02 4.55, 9.53 2.65 C16.05 0.74, 32.13 0.66, 38.49 1.56 C44.84 2.47, 47.67 7.81, 47.65 8.08 M28.64 -2.44 C34.15 -1.84, 40.86 3.97, 44.48 6.99 C48.1 10.01, 49.98 12.62, 50.37 15.69 C50.76 18.75, 49.9 23.67, 46.83 25.4 C43.75 27.13, 37.66 25.73, 31.92 26.06 C26.18 26.38, 17.57 28.79, 12.39 27.35 C7.21 25.9, 2.82 20.28, 0.83 17.39 C-1.17 14.51, -1.93 12.79, 0.4 10.04 C2.73 7.29, 9.78 2.43, 14.83 0.91 C19.88 -0.61, 28.27 1.08, 30.7 0.93 C33.13 0.77, 30.16 0.14, 29.39 -0.04" stroke="#2f9e44" stroke-width="2" fill="none"></path></g><g transform="translate(453.43219881236473 133.28095945089976) rotate(358.61672512985064 20.62145896451966 6.9931836073774605)"><text x="0" y="0" font-family="Helvetica, Segoe UI Emoji" font-size="12.162058447612969px" fill="#1e1e1e" text-anchor="start" style="white-space: pre;" direction="ltr" dominant-baseline="text-before-edge">Event 1</text></g><g stroke-linecap="round" transform="translate(516.3899349361709 107.12804388756055) rotate(361.29538461231493 24.744224152043216 13.897440962106458)"><path d="M5.94 5.66 C8.88 3.1, 15.22 -0.28, 20.57 -0.74 C25.92 -1.2, 33.13 1.23, 38.04 2.88 C42.95 4.54, 48.69 6.32, 50.04 9.19 C51.39 12.07, 48.44 17.61, 46.16 20.14 C43.88 22.67, 40.86 23.22, 36.36 24.37 C31.86 25.53, 24.65 27.26, 19.14 27.07 C13.62 26.89, 6.38 25.47, 3.25 23.24 C0.12 21.02, -1.55 17.53, 0.33 13.74 C2.21 9.94, 10.12 2.5, 14.53 0.47 C18.93 -1.56, 26.46 1.26, 26.77 1.56 M20.47 -0.26 C25.41 -1.14, 31.41 -2.12, 36.52 0.1 C41.64 2.32, 49.13 10.23, 51.16 13.07 C53.19 15.91, 50.95 15.36, 48.7 17.14 C46.45 18.92, 42.44 22.31, 37.66 23.74 C32.88 25.18, 25.27 25.83, 20.03 25.76 C14.8 25.68, 9.74 25.54, 6.27 23.29 C2.8 21.04, -1.19 15.89, -0.78 12.26 C-0.37 8.64, 5.22 3.7, 8.73 1.55 C12.25 -0.6, 18.1 0.04, 20.33 -0.63 C22.56 -1.29, 21.93 -3.09, 22.14 -2.45" stroke="#2f9e44" stroke-width="2" fill="none"></path></g><g stroke-linecap="round"><g transform="translate(516.2752665319122 120.68708362621996) rotate(361.29538461231493 1.0168859240566235 18.98187058238929)"><path d="M-2.34 0.56 C-1.76 6.89, 2.68 31.29, 3.66 37.35 M1.58 -1.61 C1.92 5.21, 2.15 33.81, 2.31 40.65" stroke="#2f9e44" stroke-width="2" fill="none"></path></g></g><mask></mask><g stroke-linecap="round"><g transform="translate(564.9821568190464 122.08686958335298) rotate(361.29538461231493 -1.0168859240566235 18.303946633018285)"><path d="M1.63 -0.61 C1.93 5.22, 0.29 29.31, -0.53 35.55 M-0.93 -3.41 C-0.65 2.75, -1.15 31.36, -1.95 38.6" stroke="#2f9e44" stroke-width="2" fill="none"></path></g></g><mask></mask><g stroke-linecap="round" transform="translate(515.9242114802314 142.71761821066426) rotate(361.29538461231493 24.744224152043216 13.897440962106458)"><path d="M16.02 0.88 C20.17 -0.43, 24.77 0.95, 29.6 1.49 C34.44 2.03, 41.8 1.91, 45.02 4.11 C48.25 6.31, 49.75 11.28, 48.96 14.68 C48.17 18.08, 43.9 22.28, 40.28 24.52 C36.66 26.75, 32.26 28.06, 27.24 28.08 C22.22 28.1, 14.32 26.17, 10.17 24.62 C6.03 23.07, 3.6 21.58, 2.37 18.79 C1.14 16, -0.86 11.25, 2.78 7.87 C6.42 4.5, 18.9 -0.14, 24.2 -1.47 C29.5 -2.8, 34.58 -0.3, 34.58 -0.1 M8.28 1.69 C11.51 -1.41, 19.07 -2.52, 24.37 -2.68 C29.68 -2.84, 35.77 -1.62, 40.1 0.72 C44.42 3.06, 49.21 8.31, 50.3 11.35 C51.38 14.4, 48.77 16.93, 46.61 19.01 C44.45 21.09, 42.29 22.54, 37.31 23.83 C32.33 25.12, 22.22 27.48, 16.73 26.76 C11.23 26.03, 7.33 21.43, 4.32 19.45 C1.31 17.48, -1.27 17.37, -1.33 14.9 C-1.4 12.43, 2.42 6.52, 3.93 4.64 C5.43 2.76, 7.02 3.51, 7.7 3.64" stroke="#2f9e44" stroke-width="2" fill="none"></path></g><g transform="translate(520.9978050072891 131.25766831366494) rotate(361.29538461231493 20.62145896451966 6.9931836073774605)"><text x="0" y="0" font-family="Helvetica, Segoe UI Emoji" font-size="12.162058447612969px" fill="#1e1e1e" text-anchor="start" style="white-space: pre;" direction="ltr" dominant-baseline="text-before-edge">Event 2</text></g><g stroke-linecap="round" transform="translate(578.7421102387998 111.42204075110087) rotate(361.0436315611276 24.744224152043216 13.897440962106458)"><path d="M33.6 1.61 C37.9 2.67, 42.59 3.77, 45.25 6.48 C47.91 9.18, 50.14 15.07, 49.57 17.84 C48.99 20.61, 45.86 21.66, 41.81 23.1 C37.75 24.54, 30.63 26.58, 25.25 26.46 C19.87 26.33, 13.84 24.12, 9.51 22.37 C5.17 20.63, 0.32 18.71, -0.78 16 C-1.87 13.29, 0.21 8.94, 2.92 6.11 C5.63 3.29, 8.34 -1.09, 15.48 -0.94 C22.62 -0.79, 40.14 4.73, 45.77 7.03 C51.39 9.33, 49.56 12.85, 49.23 12.86 M43.58 2.95 C47.8 5.13, 50.52 12.49, 51.1 15.89 C51.69 19.28, 50.43 21.1, 47.08 23.32 C43.72 25.54, 36.51 28.97, 30.98 29.21 C25.45 29.45, 18.56 26.32, 13.91 24.77 C9.26 23.22, 4.77 22.82, 3.07 19.91 C1.37 17.01, 2.51 10.1, 3.71 7.36 C4.91 4.62, 5.91 4.93, 10.26 3.46 C14.62 1.99, 24.53 -1.48, 29.84 -1.46 C35.14 -1.45, 39.78 2.39, 42.09 3.54 C44.4 4.69, 44.04 4.92, 43.7 5.43" stroke="#2f9e44" stroke-width="2" fill="none"></path></g><g stroke-linecap="round"><g transform="translate(578.9848295852153 124.7078988631662) rotate(361.0436315611276 1.0168859240566235 18.98187058238929)"><path d="M1.08 2.15 C1.27 8.15, -0.95 31.69, -0.65 37.34 M-1.78 0.86 C-0.6 7.15, 3.75 34.42, 4.3 40.64" stroke="#2f9e44" stroke-width="2" fill="none"></path></g></g><mask></mask><g stroke-linecap="round"><g transform="translate(626.7926551175642 126.43048513752538) rotate(361.0436315611276 -1.0168859240566235 18.303946633018285)"><path d="M-2.68 -0.62 C-3.07 4.81, -1.11 28.35, -1.21 34.7 M1.05 -3.42 C0.28 2.12, -1.86 31.32, -3 37.3" stroke="#2f9e44" stroke-width="2" fill="none"></path></g></g><mask></mask><g stroke-linecap="round" transform="translate(578.4327685052026 147.01331786402594) rotate(361.0436315611276 24.744224152043216 13.897440962106458)"><path d="M15.72 -0.34 C20.23 -2.14, 27.04 -1.62, 32.1 -0.92 C37.16 -0.22, 43.37 1.21, 46.09 3.87 C48.81 6.53, 49.15 11.82, 48.42 15.03 C47.69 18.24, 45.49 21.29, 41.71 23.13 C37.93 24.98, 30.65 25.48, 25.72 26.1 C20.78 26.72, 16.16 28.21, 12.09 26.85 C8.02 25.49, 2.77 20.95, 1.3 17.96 C-0.16 14.96, 0.01 12.05, 3.29 8.9 C6.57 5.75, 17.22 0.43, 20.99 -0.95 C24.76 -2.32, 26.27 0.01, 25.9 0.63 M44.28 6.45 C47.5 8.06, 49.98 9.32, 50.15 12.13 C50.32 14.95, 48.3 21.14, 45.3 23.32 C42.3 25.5, 37.77 24.53, 32.16 25.21 C26.55 25.89, 16.41 28.72, 11.63 27.41 C6.85 26.11, 5.36 20.53, 3.48 17.37 C1.6 14.21, -1.22 10.9, 0.34 8.45 C1.91 6.01, 8.38 3.92, 12.88 2.73 C17.37 1.54, 22.23 1.26, 27.32 1.31 C32.4 1.36, 41.1 1.94, 43.38 3.03 C45.67 4.12, 41.03 6.93, 41.03 7.84" stroke="#2f9e44" stroke-width="2" fill="none"></path></g><g transform="translate(582.7411472703084 136.12798193942862) rotate(361.0436315611276 20.6214599609375 13.986367214754921)"><text x="0" y="0" font-family="Helvetica, Segoe UI Emoji" font-size="12.162058447612969px" fill="#1e1e1e" text-anchor="start" style="white-space: pre;" direction="ltr" dominant-baseline="text-before-edge">Event 3</text><text x="0" y="13.986367214754914" font-family="Helvetica, Segoe UI Emoji" font-size="12.162058447612969px" fill="#1e1e1e" text-anchor="start" style="white-space: pre;" direction="ltr" dominant-baseline="text-before-edge"></text></g><g stroke-linecap="round"><g transform="translate(438.9502956253541 185.63194660416988) rotate(0 73.74156259577217 -1.2434124634002615)"><path d="M0.36 -0.49 C25.28 -0.91, 124.28 -2.16, 148.67 -2.57 M-0.91 -1.79 C24.04 -2, 123.32 -1.07, 148.34 -1.08" stroke="#e03131" stroke-width="2" fill="none"></path></g><g transform="translate(438.9502956253541 185.63194660416988) rotate(0 73.74156259577217 -1.2434124634002615)"><path d="M119.28 11.02 C126.39 5.36, 132.23 3.44, 149.76 -1.2 M120.98 8.32 C130.18 5.23, 140.02 1.11, 147.89 -0.73" stroke="#e03131" stroke-width="2" fill="none"></path></g><g transform="translate(438.9502956253541 185.63194660416988) rotate(0 73.74156259577217 -1.2434124634002615)"><path d="M119.38 -9.5 C126.46 -10.49, 132.27 -7.75, 149.76 -1.2 M121.08 -12.2 C130.1 -8.43, 139.91 -5.69, 147.89 -0.73" stroke="#e03131" stroke-width="2" fill="none"></path></g></g><mask></mask><g transform="translate(198.61658401984369 238.20494601787513) rotate(0 11.67578125 16.099999999999994)"><text x="0" y="0" font-family="Helvetica, Segoe UI Emoji" font-size="28px" fill="#1e1e1e" text-anchor="start" style="white-space: pre;" direction="ltr" dominant-baseline="text-before-edge">In</text></g><g transform="translate(412.2465498914089 235.70146985531775) rotate(0 22.5654296875 16.099999999999994)"><text x="0" y="0" font-family="Helvetica, Segoe UI Emoji" font-size="28px" fill="#1e1e1e" text-anchor="start" style="white-space: pre;" direction="ltr" dominant-baseline="text-before-edge">Out</text></g></svg>