<svg version="1.1" xmlns="http://www.w3.org/2000/svg" viewBox="0 0 677.0081323090694 793.2472086635269" width="677.0081323090694" height="793.2472086635269">
  <!-- svg-source:excalidraw -->
  
  <defs>
    <style class="style-fonts">
      @font-face {
        font-family: "Virgil";
        src: url("https://excalidraw.com/Virgil.woff2");
      }
      @font-face {
        font-family: "Cascadia";
        src: url("https://excalidraw.com/Cascadia.woff2");
      }
    </style>
    
  </defs>
  <rect x="0" y="0" width="677.0081323090694" height="793.2472086635269" fill="#ffffff"/><g stroke-linecap="round"><g transform="translate(272.02937244789655 258.0679398645241) rotate(359.4065005901092 41.18246543006762 102.38142215218113)" fill-rule="evenodd"><path d="M3.36 -7.68 C3.36 -7.68, 3.36 -7.68, 3.36 -7.68 M3.36 -7.68 C3.36 -7.68, 3.36 -7.68, 3.36 -7.68 M0.37 0.08 C6.29 -2.95, 8.94 -7.02, 10.9 -12.07 M0.64 0.46 C3.54 -1.21, 6.33 -4.34, 10.84 -11 M2.08 9.03 C9.48 0.24, 15.57 -7.51, 18.55 -16.33 M1.47 8.34 C6.09 1.55, 10.21 -4.06, 19.88 -15.5 M2.48 11.36 C8.29 5.21, 18.71 -5.99, 26.25 -18.09 M1.67 13.5 C9.64 4.4, 17.54 -4.85, 27.35 -17.1 M2.67 20.98 C8.81 10.75, 14.53 3.13, 31.55 -17.4 M1.98 18.8 C13.15 5.09, 25.25 -7.39, 33.09 -15.95 M0.23 26.33 C9.96 14.93, 21.95 1.88, 40.56 -19.55 M1.5 25.07 C11.38 13.12, 22.84 1.5, 40.43 -19.16 M1.82 30.17 C11.64 18.87, 19.59 10.91, 45.82 -20.17 M1.41 31.98 C17.67 11.36, 35.46 -7.7, 45.16 -18.67 M1.75 38.31 C18.61 20.98, 31.67 0.61, 50.16 -19.17 M0.48 37.78 C12.35 24.24, 23.84 11.63, 50.28 -18.15 M2.01 43.86 C23.64 21.1, 41.37 -5.28, 52.76 -17.59 M2.16 42.6 C17.32 26.64, 33.55 6.93, 53.14 -16.88 M0.33 51.53 C16.14 32.29, 31.29 15.27, 59.82 -16.45 M1.56 49.63 C19.12 27.62, 37.74 7.74, 59.08 -15.59 M0.73 54.31 C24.85 30.07, 48.81 0.61, 63.27 -15.43 M1.09 54.91 C18.28 36.47, 34.98 17.38, 63.1 -14.12 M2.31 61.53 C18.81 43.27, 34.69 25.28, 66.69 -14.9 M0.2 62.35 C24.28 33.55, 50.33 5.93, 66.85 -14.5 M1.81 67.55 C24.22 43.29, 42.94 17.52, 71.35 -13.92 M0.94 67.42 C17 49.72, 34.66 28.52, 71.66 -11.9 M1.67 72.06 C26.01 48.38, 49.65 20.13, 73.58 -11.48 M1.04 74.44 C30.03 42.23, 58.36 8.01, 74.84 -10.89 M2.04 80.33 C25.61 48.21, 54.17 20.81, 76.02 -6.02 M0.91 79.85 C23 56.16, 46.7 30.81, 78 -7.96 M3.39 87.9 C29.86 51.98, 57.21 20.37, 81.67 -5.42 M1.22 85.9 C27.12 58.79, 50.91 29.59, 80.1 -4.5 M-0.75 92.67 C25.43 67.83, 46.28 40.08, 81.25 -1.98 M0.71 91.7 C18.79 69.98, 38.35 49.64, 81.75 -0.81 M83.15 -1.92 C83.15 -1.92, 83.15 -1.92, 83.15 -1.92 M83.15 -1.92 C83.15 -1.92, 83.15 -1.92, 83.15 -1.92 M2.53 99.19 C16.93 81.56, 33.2 61.44, 84.33 4.84 M0.84 99.57 C20.22 76.41, 40.47 55.27, 83.33 4.42 M0.47 105.91 C31.4 70.13, 60.65 34.48, 82.72 10.8 M2.23 104.72 C22.89 79.95, 43.57 55.44, 82.81 9.21 M1.16 112.45 C17.94 90.66, 35.4 69.98, 81.34 15.98 M1.48 110.49 C20.21 88.01, 40.12 66.93, 83.47 15.98 M0.54 117.01 C30.09 81.93, 61.74 44.9, 83.32 22.36 M1.56 117.97 C28.29 85.05, 55.72 56.01, 83.2 21.39 M2.22 121.07 C24.19 96.92, 46.68 69.81, 83.49 27.54 M2.1 122.06 C26.49 93.73, 49.46 66.15, 83.55 29.21 M1.56 129.72 C35.55 93.59, 67.32 55.76, 83.02 33.37 M0.41 128.79 C33.45 91.43, 65.95 53.11, 83.36 34.05 M0.2 136.31 C36.57 97.39, 69.39 60.35, 82.12 42.05 M1.09 135.01 C21.99 110.94, 42.62 87.29, 82.53 40.36 M2.87 142.56 C32.85 104.05, 65.83 67.41, 82.66 48.83 M1.76 141.43 C32.8 104.21, 64.05 69.79, 83.54 46.19 M-0.07 147.2 C22.63 122.91, 44.12 99.52, 84.21 54.27 M0.67 148.35 C24.11 120.23, 45.21 94.55, 82.55 52.42 M-0.55 154.3 C29.77 118.75, 57.13 89.25, 84.03 60.5 M1.74 152.89 C28.38 124.37, 54.38 93.99, 82.4 58.04 M-0.8 161.49 C28.36 126.5, 59.2 91.73, 83.73 63.96 M1.56 160.31 C24.96 132.07, 48.52 104.22, 84.24 63.88 M1.28 164.71 C22.96 140.8, 45.27 112.61, 81.96 71.41 M0.99 165.66 C19.5 145.19, 37.71 123.62, 83.2 71.6 M0.84 170.2 C21.59 147.64, 42.93 121.4, 81.03 76.65 M0.95 170.88 C31.44 136.91, 61.27 104.01, 82.08 77.48 M0.7 179.29 C26.36 148.52, 52.1 118.71, 82.94 84.81 M-0.02 178.48 C19.25 155.63, 39.26 133.61, 84.3 83.62 M-0.66 184.6 C30.76 147.26, 62.69 109.35, 81.4 88.59 M1.26 184.81 C29.17 151.49, 54.8 121.04, 83.01 89.22 M-1.01 190.32 C28.58 154.95, 57.31 122.39, 84.44 96.98 M1.66 189.34 C21.89 168.03, 42.47 144.42, 82.6 94.32 M0.18 196.95 C35.45 160.84, 66.71 122.59, 83.16 103.31 M1.34 196.35 C31.59 161.71, 60.39 129.27, 82.51 100.83 M2.49 201.31 C15.92 181.17, 34.26 164.27, 82.3 109.94 M1.5 201.98 C26.4 173.51, 52.07 142.81, 82.81 108.22 M1.15 207.01 C20.69 187.41, 37.13 168.13, 84.3 112.56 M1.91 205.71 C31.04 172.55, 61.44 137.61, 83.21 112.82 M3.16 213.76 C27.77 182.83, 50.67 154.29, 81.31 120.44 M4.11 212.64 C21.58 191.11, 42.03 169.16, 84.13 119.04 M6.41 216.28 C36.88 181.96, 62.18 148.37, 81.8 125.12 M5.49 215.4 C25.28 193.03, 43.47 172.82, 84.25 125.16 M7.94 218.17 C32.62 188.08, 60.86 158.74, 83.3 132.49 M8.58 217.03 C35.84 186.36, 63.5 154.2, 84.3 132.29 M11.08 219.29 C31.64 193.88, 54.71 170.52, 83 139.5 M13.14 219.39 C25.14 204.19, 39.1 187.44, 82.61 138.11 M17.53 220.09 C31.63 205.28, 48.12 184.27, 81.76 142.38 M15.27 222.43 C30.63 205.64, 42.98 190.77, 84.18 144.19 M20 221.05 C38.88 202.74, 54.84 184.7, 84.18 148.96 M21.06 222.69 C34.45 206.73, 47.51 191.19, 83.72 151.16 M24.89 224 C35.23 208.36, 48.97 192.62, 85.17 155.36 M24.28 223.56 C46.6 197.46, 69.47 170.31, 83.17 156.5 M28.99 223.58 C49.13 199.32, 70.96 175.04, 82.69 162.03 M30 223.78 C40.69 209.63, 52.37 195.7, 83.56 161.54 M32.07 226.22 C46.85 211.33, 60.63 195.85, 84.36 170.45 M32.3 225.44 C48.43 208.52, 65.31 189.61, 82.5 169.21 M40.23 226.66 C47.69 213.5, 61.67 201.57, 83.49 175.46 M38.52 225.44 C52.09 211.55, 63.7 197.22, 83.27 175.26 M45.3 225.46 C56.91 211.34, 69.59 196.29, 83.12 181.42 M45.72 224.04 C58.69 209.67, 72.29 193.36, 83.85 181.55 M50.82 222.53 C64.12 209.18, 77.65 194.79, 82.58 187.02 M51.63 223.36 C56.8 216.79, 65.01 207.97, 84.48 185.79 M56.63 224.03 C63.94 215.49, 74.37 205.13, 82.28 193.27 M56.24 223.36 C67.91 211.4, 77.73 200.01, 83.45 192.53 M64.29 221.72 C68.19 215.65, 74.95 205.06, 82.28 200.23 M64.24 222.08 C68.13 217.03, 71.47 212.52, 82.67 198.9 M69.05 220.67 C73.14 219.83, 75.15 215.08, 82.33 203.28 M69.98 222.4 C73.7 217.41, 76.82 212.03, 82.69 205.88" stroke="#40c057" stroke-width="0.5" fill="none"/><path d="M0.88 -1.1 C0.85 29.66, -0.38 150.72, -0.65 185.16 C-0.92 219.6, -1.68 200.82, -0.76 205.55 C0.17 210.29, 1.53 210.76, 4.9 213.57 C8.26 216.37, 13.02 220.44, 19.44 222.36 C25.86 224.29, 35.56 225.38, 43.43 225.12 C51.29 224.86, 60.3 223.02, 66.65 220.79 C73.01 218.57, 79.08 214.52, 81.54 211.76 C84.01 209.01, 81.35 208.49, 81.45 204.26 C81.54 200.03, 82.09 218.01, 82.13 186.38 C82.18 154.74, 81.88 45.73, 81.73 14.45 C81.58 -16.84, 82.02 2.77, 81.25 -1.33 C80.48 -5.43, 79.66 -7.88, 77.1 -10.15 C74.53 -12.43, 72.16 -13.27, 65.86 -14.98 C59.57 -16.7, 47.25 -19.94, 39.33 -20.42 C31.41 -20.91, 24.24 -20, 18.35 -17.88 C12.47 -15.77, 7.01 -10.68, 4.01 -7.72 C1.01 -4.76, 1.1 -1.55, 0.34 -0.13 C-0.43 1.29, -0.5 0.86, -0.56 0.78 M-0.12 0.94 C0.27 31.33, 1.27 149.83, 1.58 183.59 C1.89 217.34, 1.08 198.33, 1.73 203.46 C2.38 208.59, 2.74 211.11, 5.49 214.37 C8.23 217.64, 11.68 221.35, 18.2 223.05 C24.72 224.75, 36.49 225.14, 44.58 224.58 C52.67 224.01, 60.64 221.82, 66.74 219.67 C72.83 217.52, 78.41 214.42, 81.13 211.69 C83.85 208.95, 82.79 207.56, 83.06 203.24 C83.33 198.91, 82.97 217.14, 82.76 185.75 C82.55 154.37, 81.72 46.21, 81.79 14.91 C81.87 -16.39, 83.91 2.28, 83.22 -2.07 C82.53 -6.42, 80.62 -8.99, 77.65 -11.17 C74.69 -13.36, 71.83 -14.05, 65.44 -15.16 C59.06 -16.27, 47.13 -17.51, 39.35 -17.85 C31.57 -18.19, 24.82 -19.03, 18.76 -17.21 C12.7 -15.38, 6.26 -9.79, 3.01 -6.88 C-0.24 -3.98, -0.48 -1.16, -0.75 0.23 C-1.01 1.62, 1.22 1.32, 1.41 1.44" stroke="#087f5b" stroke-width="1" fill="none"/></g></g><mask/><g stroke-linecap="round"><g transform="translate(275.11354470824426 388.6212032494451) rotate(359.4065005901092 39.96619699713233 9.086508081535925)"><path d="M-0.92 1.05 C-0.84 2.64, -0.79 6.28, 1.34 8.46 C3.46 10.63, 8.11 12.3, 11.84 14.11 C15.57 15.91, 18.74 18.3, 23.72 19.29 C28.7 20.28, 35.13 20.43, 41.72 20.03 C48.3 19.64, 57.12 19, 63.23 16.93 C69.34 14.87, 75.71 10.49, 78.37 7.63 C81.04 4.77, 79 1.24, 79.22 -0.24 M0.8 0.55 C1.18 1.87, 1.87 4.15, 3.64 6.58 C5.41 9.01, 7.99 13.39, 11.41 15.13 C14.84 16.87, 18.83 16.07, 24.2 17.03 C29.57 18, 37 21.07, 43.65 20.92 C50.3 20.76, 58.69 18.51, 64.08 16.12 C69.47 13.72, 73.07 9.27, 75.97 6.55 C78.87 3.82, 80.56 0.73, 81.48 -0.22" stroke="#087f5b" stroke-width="1" fill="none"/></g></g><mask/><g stroke-linecap="round"><g transform="translate(272.72246159421593 322.10823878118913) rotate(359.4065005901092 39.85193655484318 7.283745203692746)"><path d="M-0.77 0.48 C-0.16 1.28, 0.69 3.86, 2.75 5.83 C4.81 7.81, 8.27 10.64, 11.6 12.33 C14.93 14.01, 17.82 15.38, 22.72 15.95 C27.62 16.51, 33.92 16.09, 41.01 15.73 C48.11 15.36, 59.41 15.3, 65.28 13.74 C71.16 12.18, 73.91 8.86, 76.27 6.4 C78.62 3.93, 78.94 0.29, 79.43 -1.06 M1.03 -0.32 C1.62 1.15, 0.47 5.3, 2.14 7.07 C3.82 8.84, 7.64 9.15, 11.07 10.28 C14.5 11.42, 17.45 12.88, 22.71 13.88 C27.97 14.89, 35.82 16.49, 42.64 16.34 C49.47 16.19, 58 14.79, 63.65 12.96 C69.3 11.14, 74.1 7.83, 76.53 5.41 C78.97 2.99, 77.52 -0.67, 78.26 -1.57" stroke="#087f5b" stroke-width="1" fill="none"/></g></g><mask/><g stroke-linecap="round" transform="translate(271.86599359549973 236.7447538847739) rotate(359.4065005901092 40.407999815770836 17.9645272383506)"><path d="M28.32 1.41 C35.99 0.29, 47.14 0.97, 55 2.21 C62.86 3.44, 71.44 5.65, 75.49 8.8 C79.55 11.96, 81.05 17.37, 79.33 21.14 C77.6 24.91, 71.94 28.98, 65.16 31.43 C58.38 33.87, 47.13 35.77, 38.65 35.82 C30.18 35.87, 20.64 34.42, 14.33 31.72 C8.01 29.02, 2.15 23.39, 0.78 19.61 C-0.59 15.84, -0.45 12.26, 6.11 9.08 C12.66 5.89, 32.41 1.7, 40.12 0.51 C47.83 -0.68, 52.26 1.63, 52.36 1.92 M48.91 -0.29 C56.79 0.4, 66.76 2.65, 72.22 6.11 C77.67 9.56, 81.99 16.51, 81.65 20.45 C81.31 24.4, 76.4 27.29, 70.17 29.77 C63.95 32.25, 53.13 34.86, 44.3 35.34 C35.47 35.81, 24.29 34.67, 17.22 32.62 C10.15 30.57, 4.15 26.51, 1.88 23.03 C-0.39 19.56, 0.43 15.41, 3.62 11.77 C6.8 8.13, 13.16 2.88, 21.02 1.19 C28.88 -0.51, 46.1 1.72, 50.78 1.59 C55.45 1.46, 49.62 0.23, 49.08 0.39" stroke="none" stroke-width="0" fill="#fff"/><path d="M48.67 -0.58 C56.83 0.1, 66.58 4.53, 72.01 7.55 C77.44 10.58, 81.3 13.93, 81.23 17.58 C81.17 21.23, 77.39 26.49, 71.63 29.44 C65.87 32.39, 55.47 34.7, 46.69 35.29 C37.92 35.88, 26.46 34.79, 18.97 32.98 C11.48 31.17, 4.56 27.92, 1.78 24.43 C-1 20.95, -0.86 15.84, 2.29 12.07 C5.43 8.3, 12.49 3.86, 20.64 1.81 C28.79 -0.24, 45.49 -0.29, 51.19 -0.24 C56.88 -0.19, 54.84 1.62, 54.81 2.13 M40.05 -0.76 C48.32 -1.12, 59.04 1.91, 65.74 4.46 C72.44 7.02, 78.51 10.87, 80.24 14.58 C81.96 18.29, 80.59 23.6, 76.09 26.73 C71.6 29.85, 61.68 31.91, 53.28 33.34 C44.89 34.78, 33.57 36.34, 25.72 35.33 C17.86 34.32, 10.16 30.83, 6.14 27.27 C2.11 23.72, 0.4 17.82, 1.55 13.99 C2.71 10.17, 6.79 6.49, 13.09 4.31 C19.39 2.14, 34.89 1.35, 39.38 0.92 C43.86 0.5, 40.09 1.85, 40 1.79" stroke="#087f5b" stroke-width="1" fill="none"/></g><g transform="translate(280.38950974844965 443.8547222352222) rotate(0 34.5 6.993183607377432)"><text x="0" y="0" font-family="Helvetica, Segoe UI Emoji" font-size="12.162058447612969px" fill="#1e1e1e" text-anchor="start" style="white-space: pre;" direction="ltr" dominant-baseline="text-before-edge">Event queue</text></g><g stroke-linecap="round" transform="translate(78.59853148249249 11.078409571291672) rotate(0 46.5 37.00000000000001)"><path d="M4.92 4.28 C4.92 4.28, 4.92 4.28, 4.92 4.28 M4.92 4.28 C4.92 4.28, 4.92 4.28, 4.92 4.28 M3.75 17.83 C9.94 15.04, 14.9 6.98, 18.83 0.47 M3.75 17.83 C8.22 13.27, 11.84 7.07, 18.83 0.47 M3.88 29.87 C12.66 21.45, 16.23 15.74, 29.46 0.44 M3.88 29.87 C10.79 21.67, 15.55 14.8, 29.46 0.44 M4.01 41.91 C18.23 24.31, 30.75 14.99, 40.09 0.4 M4.01 41.91 C15.81 29.38, 23.43 19.03, 40.09 0.4 M4.14 53.95 C20.3 37.06, 34.44 14.62, 50.72 0.37 M4.14 53.95 C23.85 34.56, 41.05 15.39, 50.72 0.37 M5.59 64.48 C20.28 47.93, 34.93 30.86, 61.36 0.33 M5.59 64.48 C28.16 40.4, 46.92 18.26, 61.36 0.33 M9 72.75 C29.36 53.33, 46.52 33.87, 71.99 0.3 M9 72.75 C25.78 56.07, 40.83 37.45, 71.99 0.3 M18.32 74.23 C37.66 51.79, 55.29 28.8, 79.33 4.04 M18.32 74.23 C41.36 45.63, 66.08 18.46, 79.33 4.04 M28.95 74.19 C48.52 57.8, 62.85 34.65, 88.65 5.51 M28.95 74.19 C50.63 50.91, 69.26 26.59, 88.65 5.51 M39.58 74.16 C55.91 55.23, 66.46 41.46, 92.07 13.78 M39.58 74.16 C52.06 57.24, 65.93 44.21, 92.07 13.78 M50.21 74.12 C61.16 63.01, 73.28 55.99, 96.14 21.29 M50.21 74.12 C63.83 61.01, 74 45.38, 96.14 21.29 M60.84 74.09 C77.6 61.77, 87.15 45.33, 96.27 33.33 M60.84 74.09 C70.1 65.32, 81.07 53.92, 96.27 33.33 M71.47 74.05 C80.64 63.5, 85.48 56.14, 95.75 46.13 M71.47 74.05 C80.11 61.99, 89.71 50.72, 95.75 46.13 M78.82 77.79 C87.64 71.85, 91.06 62.52, 93.91 60.44 M78.82 77.79 C81.32 71.81, 87.03 69.05, 93.91 60.44 M4.62 69.37 C4.62 69.37, 4.62 69.37, 4.62 69.37 M4.62 69.37 C4.62 69.37, 4.62 69.37, 4.62 69.37 M20.44 72.52 C11.26 71.13, 7.91 61.64, 2.32 56.77 M20.44 72.52 C16.01 66.99, 10.41 66.83, 2.32 56.77 M32.48 72.39 C20.7 65.28, 10.3 56.33, 3.04 46.8 M32.48 72.39 C28.32 64.6, 20.94 59.72, 3.04 46.8 M44.52 72.25 C32.93 63.69, 26.72 54.41, 3.01 36.17 M44.52 72.25 C31.8 59.8, 16.65 47.44, 3.01 36.17 M56.56 72.12 C42.75 61.45, 20.03 47.24, 2.97 25.54 M56.56 72.12 C46.92 62.02, 34.28 50.36, 2.97 25.54 M68.6 71.99 C48.3 57.76, 30.32 37.4, 1.43 13.6 M68.6 71.99 C56.06 62.3, 39.69 49.68, 1.43 13.6 M78.38 69.89 C59.56 54.36, 48.06 41.74, 4.41 5.59 M78.38 69.89 C52.38 48, 29.03 24.63, 4.41 5.59 M88.91 68.44 C74.79 50.35, 56.05 39.58, 9.66 -0.45 M88.91 68.44 C61.79 44.99, 37.57 24.73, 9.66 -0.45 M92.65 61.09 C75.17 44.2, 57.71 30.04, 20.19 -1.89 M92.65 61.09 C65.56 36.66, 39.98 16.39, 20.19 -1.89 M97.14 54.4 C78.34 42.22, 60.14 19.93, 32.24 -2.02 M97.14 54.4 C77.06 35.51, 59.92 18.61, 32.24 -2.02 M97.11 43.77 C84.47 30.9, 65.69 15.8, 44.28 -2.16 M97.11 43.77 C80.65 31.17, 66.58 15.61, 44.28 -2.16 M97.83 33.79 C83.46 18.44, 63.74 5.16, 57.07 -1.63 M97.83 33.79 C90.7 24.66, 79.42 17.3, 57.07 -1.63 M97.79 23.16 C87.81 14.23, 83.73 7.34, 69.11 -1.77 M97.79 23.16 C86.46 14.8, 75.58 2.53, 69.11 -1.77" stroke="#a5d8ff" stroke-width="1" fill="none"/><path d="M18.5 0 M18.5 0 C37.85 2.05, 53.66 -2.14, 74.5 0 M18.5 0 C30.36 0.83, 42.23 0.89, 74.5 0 M74.5 0 C88.3 0.83, 89.11 9.41, 93 18.5 M74.5 0 C90.72 1.85, 93.88 10.34, 93 18.5 M93 18.5 C89.81 25.88, 94.81 40.62, 93 55.5 M93 18.5 C94.37 29.07, 93.44 38.37, 93 55.5 M93 55.5 C92.86 70.07, 84.85 76.91, 74.5 74 M93 55.5 C92.39 72.36, 87.49 74.18, 74.5 74 M74.5 74 C50.84 76.2, 31.35 71.95, 18.5 74 M74.5 74 C56.59 74.25, 35.99 72.92, 18.5 74 M18.5 74 C3.8 72.27, 2.7 65.34, 0 55.5 M18.5 74 C3.11 73.85, 0.91 67.06, 0 55.5 M0 55.5 C0.37 45.24, -3.41 32.79, 0 18.5 M0 55.5 C0.52 42.23, 0.55 26.74, 0 18.5 M0 18.5 C3.43 9.03, 4.83 3.08, 18.5 0 M0 18.5 C1.58 10.29, 8.11 1.68, 18.5 0" stroke="#1971c2" stroke-width="2" fill="none"/></g><g transform="translate(93.59853148249249 27.098858749159305) rotate(0 31.5 20.979550822132367)"><text x="31.5" y="0" font-family="Helvetica, Segoe UI Emoji" font-size="12.162058447612969px" fill="#1e1e1e" text-anchor="middle" style="white-space: pre;" direction="ltr" dominant-baseline="text-before-edge">Hermes </text><text x="31.5" y="13.986367214754914" font-family="Helvetica, Segoe UI Emoji" font-size="12.162058447612969px" fill="#1e1e1e" text-anchor="middle" style="white-space: pre;" direction="ltr" dominant-baseline="text-before-edge">runtime </text><text x="31.5" y="27.972734429509828" font-family="Helvetica, Segoe UI Emoji" font-size="12.162058447612969px" fill="#1e1e1e" text-anchor="middle" style="white-space: pre;" direction="ltr" dominant-baseline="text-before-edge">extension 1</text></g><g stroke-linecap="round" transform="translate(278.1043021713954 10) rotate(0 46.5 37.00000000000001)"><path d="M4.92 4.28 C4.92 4.28, 4.92 4.28, 4.92 4.28 M4.92 4.28 C4.92 4.28, 4.92 4.28, 4.92 4.28 M3.75 17.83 C9.85 10.33, 13.93 6.72, 18.83 0.47 M3.75 17.83 C6.93 11.49, 11.47 8.07, 18.83 0.47 M3.88 29.87 C14.71 18.8, 18.92 7.14, 29.46 0.44 M3.88 29.87 C7.38 24.98, 14.6 18.69, 29.46 0.44 M4.01 41.91 C12.31 29.34, 22.36 21.48, 40.09 0.4 M4.01 41.91 C11.88 32.29, 22.05 19.45, 40.09 0.4 M4.14 53.95 C14.73 37.3, 33.17 16.87, 50.72 0.37 M4.14 53.95 C16.66 40.76, 30.92 24.5, 50.72 0.37 M5.59 64.48 C20.04 53.89, 30.8 34.66, 61.36 0.33 M5.59 64.48 C26.52 38.82, 47.74 14.54, 61.36 0.33 M9 72.75 C24.99 53.09, 45.69 23.03, 71.99 0.3 M9 72.75 C33.65 45.22, 58.25 15.52, 71.99 0.3 M18.32 74.23 C36.63 52.59, 48.15 41.49, 79.33 4.04 M18.32 74.23 C44.41 47.33, 66.94 19.24, 79.33 4.04 M28.95 74.19 C40.47 60.03, 50.45 46.61, 88.65 5.51 M28.95 74.19 C50.6 49.51, 71.77 26.74, 88.65 5.51 M39.58 74.16 C54.52 57.52, 61.47 47.77, 92.07 13.78 M39.58 74.16 C58.27 54.04, 76.97 32.69, 92.07 13.78 M50.21 74.12 C64.08 57.92, 75.43 51.32, 96.14 21.29 M50.21 74.12 C64.23 55.82, 78.5 40.14, 96.14 21.29 M60.84 74.09 C71.23 62.77, 75.23 56.39, 96.27 33.33 M60.84 74.09 C74.54 63, 82.95 47.51, 96.27 33.33 M71.47 74.05 C81.38 64.26, 87.1 50.97, 95.75 46.13 M71.47 74.05 C77.82 67.94, 81.84 59.58, 95.75 46.13 M78.82 77.79 C81.37 73.03, 87.45 67.64, 93.91 60.44 M78.82 77.79 C84.07 73.4, 86.94 67.4, 93.91 60.44 M4.62 69.37 C4.62 69.37, 4.62 69.37, 4.62 69.37 M4.62 69.37 C4.62 69.37, 4.62 69.37, 4.62 69.37 M20.44 72.52 C16.3 66.13, 12.05 59.47, 2.32 56.77 M20.44 72.52 C15.47 70.87, 14.11 66.25, 2.32 56.77 M32.48 72.39 C20.4 64.04, 13.6 54.62, 3.04 46.8 M32.48 72.39 C22.78 63.31, 16.96 59.1, 3.04 46.8 M44.52 72.25 C36.03 60.23, 21.26 52.5, 3.01 36.17 M44.52 72.25 C29.75 60.95, 17.74 47.4, 3.01 36.17 M56.56 72.12 C40.93 56.93, 23.14 44.63, 2.97 25.54 M56.56 72.12 C34.2 55.35, 16.28 37.24, 2.97 25.54 M68.6 71.99 C47.04 52.06, 16.96 26.22, 1.43 13.6 M68.6 71.99 C47.07 49.37, 23.29 31.27, 1.43 13.6 M78.38 69.89 C56.7 48.91, 32.82 28.94, 4.41 5.59 M78.38 69.89 C50.57 45.66, 23.32 24, 4.41 5.59 M88.91 68.44 C59.45 41.54, 36.42 19.81, 9.66 -0.45 M88.91 68.44 C58.4 41.87, 25.68 12.74, 9.66 -0.45 M92.65 61.09 C63.88 40.45, 41.4 15.89, 20.19 -1.89 M92.65 61.09 C69.89 42.91, 44.22 20.33, 20.19 -1.89 M97.14 54.4 C73.56 40.56, 51.64 15.07, 32.24 -2.02 M97.14 54.4 C77.93 43.09, 64.39 27.66, 32.24 -2.02 M97.11 43.77 C85.82 31.47, 64.72 18.37, 44.28 -2.16 M97.11 43.77 C81.79 33.06, 69.28 18.5, 44.28 -2.16 M97.83 33.79 C84.72 25.28, 75.44 12.06, 57.07 -1.63 M97.83 33.79 C80.57 22.4, 65.3 6.37, 57.07 -1.63 M97.79 23.16 C85.48 11.57, 81.09 10.18, 69.11 -1.77 M97.79 23.16 C88.98 14.52, 78.31 8.64, 69.11 -1.77" stroke="#a5d8ff" stroke-width="1" fill="none"/><path d="M18.5 0 M18.5 0 C38.73 -1.42, 62.2 -1.71, 74.5 0 M18.5 0 C32.72 -1.33, 49.63 0.84, 74.5 0 M74.5 0 C83.66 -1.04, 89.87 4.54, 93 18.5 M74.5 0 C83.28 1.17, 96.63 3.69, 93 18.5 M93 18.5 C89.24 31.07, 96.12 38.68, 93 55.5 M93 18.5 C91.95 29.78, 94.3 36.5, 93 55.5 M93 55.5 C91.82 71.57, 83.34 74.17, 74.5 74 M93 55.5 C89.65 72.41, 88.75 75.45, 74.5 74 M74.5 74 C57.14 73.39, 40.27 73.53, 18.5 74 M74.5 74 C58.35 75.5, 45.3 74.15, 18.5 74 M18.5 74 C7.41 73.72, -1.3 66.56, 0 55.5 M18.5 74 C3.39 73.58, -2.43 72.04, 0 55.5 M0 55.5 C-2.75 44.64, 3.61 31.6, 0 18.5 M0 55.5 C1.55 44.19, 0.62 33.42, 0 18.5 M0 18.5 C-1.03 8.76, 8.38 3.85, 18.5 0 M0 18.5 C-3.4 10.66, 8.83 -1.03, 18.5 0" stroke="#1971c2" stroke-width="2" fill="none"/></g><g transform="translate(293.1043021713954 26.020449177867633) rotate(0 31.5 20.979550822132367)"><text x="31.5" y="0" font-family="Helvetica, Segoe UI Emoji" font-size="12.162058447612969px" fill="#1e1e1e" text-anchor="middle" style="white-space: pre;" direction="ltr" dominant-baseline="text-before-edge">Hermes </text><text x="31.5" y="13.986367214754914" font-family="Helvetica, Segoe UI Emoji" font-size="12.162058447612969px" fill="#1e1e1e" text-anchor="middle" style="white-space: pre;" direction="ltr" dominant-baseline="text-before-edge">runtime </text><text x="31.5" y="27.972734429509828" font-family="Helvetica, Segoe UI Emoji" font-size="12.162058447612969px" fill="#1e1e1e" text-anchor="middle" style="white-space: pre;" direction="ltr" dominant-baseline="text-before-edge">extension 2</text></g><g stroke-linecap="round" transform="translate(497.0214451435427 11.078409571291672) rotate(0 46.5 37.00000000000001)"><path d="M4.92 4.28 C4.92 4.28, 4.92 4.28, 4.92 4.28 M4.92 4.28 C4.92 4.28, 4.92 4.28, 4.92 4.28 M3.75 17.83 C10.07 11.11, 16.26 3.94, 18.83 0.47 M3.75 17.83 C5.39 16.5, 10.68 11.57, 18.83 0.47 M3.88 29.87 C9.99 20.57, 21.43 9.87, 29.46 0.44 M3.88 29.87 C9.32 20.61, 18.61 15.34, 29.46 0.44 M4.01 41.91 C19.19 28.58, 28.05 19.2, 40.09 0.4 M4.01 41.91 C15.25 28.32, 29.24 12.95, 40.09 0.4 M4.14 53.95 C17.69 36.5, 29.04 22.16, 50.72 0.37 M4.14 53.95 C19.61 36.2, 39.63 15.43, 50.72 0.37 M5.59 64.48 C28.71 42.35, 43.38 14.41, 61.36 0.33 M5.59 64.48 C25.57 42.32, 43.25 22.28, 61.36 0.33 M9 72.75 C29.96 51.83, 48.84 29.31, 71.99 0.3 M9 72.75 C32.71 44.24, 57 19.51, 71.99 0.3 M18.32 74.23 C36.61 47.51, 61.32 25.34, 79.33 4.04 M18.32 74.23 C43.42 46.2, 66.29 16.56, 79.33 4.04 M28.95 74.19 C48.76 54.08, 74.95 27.43, 88.65 5.51 M28.95 74.19 C50.05 51.62, 68.24 27.15, 88.65 5.51 M39.58 74.16 C54.92 57.38, 71.92 30.57, 92.07 13.78 M39.58 74.16 C49.91 59.79, 65.98 43.36, 92.07 13.78 M50.21 74.12 C66.71 58, 73.41 42.96, 96.14 21.29 M50.21 74.12 C60.61 61.47, 73.83 45.11, 96.14 21.29 M60.84 74.09 C69.49 65.54, 81.93 50.79, 96.27 33.33 M60.84 74.09 C73.76 59.35, 88.56 41.22, 96.27 33.33 M71.47 74.05 C76.32 61.1, 89.12 58.74, 95.75 46.13 M71.47 74.05 C79.98 63.66, 86.63 56.81, 95.75 46.13 M78.82 77.79 C82.93 69.05, 90.09 61.84, 93.91 60.44 M78.82 77.79 C81.93 71.71, 88.04 69.29, 93.91 60.44 M4.62 69.37 C4.62 69.37, 4.62 69.37, 4.62 69.37 M4.62 69.37 C4.62 69.37, 4.62 69.37, 4.62 69.37 M20.44 72.52 C17.29 66.09, 12.53 65.76, 2.32 56.77 M20.44 72.52 C14.27 69.02, 10.04 67, 2.32 56.77 M32.48 72.39 C21.72 62.02, 11.61 54.74, 3.04 46.8 M32.48 72.39 C23.67 66.32, 14.74 58.47, 3.04 46.8 M44.52 72.25 C30.07 58.71, 14.69 45.09, 3.01 36.17 M44.52 72.25 C32.93 61.21, 21.63 50.4, 3.01 36.17 M56.56 72.12 C38.37 56.9, 23.55 45.78, 2.97 25.54 M56.56 72.12 C42.3 60.94, 30.42 49.83, 2.97 25.54 M68.6 71.99 C51.38 61.09, 36.25 49.13, 1.43 13.6 M68.6 71.99 C48.52 56.61, 30.92 38.36, 1.43 13.6 M78.38 69.89 C66.94 58.09, 49.43 44.14, 4.41 5.59 M78.38 69.89 C52.67 46.51, 29.58 27.72, 4.41 5.59 M88.91 68.44 C60.88 42.54, 33.82 24.76, 9.66 -0.45 M88.91 68.44 C68.19 51.19, 46.99 33.2, 9.66 -0.45 M92.65 61.09 C70.84 39.25, 46.04 17.43, 20.19 -1.89 M92.65 61.09 C65.17 35.37, 33.78 11.38, 20.19 -1.89 M97.14 54.4 C74.02 35.02, 48.42 7.76, 32.24 -2.02 M97.14 54.4 C85.6 43.32, 71.8 34.24, 32.24 -2.02 M97.11 43.77 C84.34 27.05, 66.41 21.16, 44.28 -2.16 M97.11 43.77 C78.05 28.5, 61.28 9.43, 44.28 -2.16 M97.83 33.79 C85.83 26.48, 84.96 18.38, 57.07 -1.63 M97.83 33.79 C89.38 24.46, 74.64 16.24, 57.07 -1.63 M97.79 23.16 C88.4 18.92, 83.83 13.84, 69.11 -1.77 M97.79 23.16 C87.98 15.23, 75.92 1.76, 69.11 -1.77" stroke="#a5d8ff" stroke-width="1" fill="none"/><path d="M18.5 0 M18.5 0 C36.02 -2.45, 64.17 -2.1, 74.5 0 M18.5 0 C37.07 -0.21, 54.68 -1.53, 74.5 0 M74.5 0 C89.52 1.63, 95.69 2.32, 93 18.5 M74.5 0 C86.69 3.52, 95.01 6.25, 93 18.5 M93 18.5 C90.78 29.55, 94.08 40.9, 93 55.5 M93 18.5 C93.93 30.56, 94.2 38.58, 93 55.5 M93 55.5 C93.95 66.16, 83.48 75.92, 74.5 74 M93 55.5 C90.94 63.59, 86.81 76.67, 74.5 74 M74.5 74 C59.82 77.68, 41.34 72.35, 18.5 74 M74.5 74 C59.37 73.25, 44.25 74.35, 18.5 74 M18.5 74 C4.82 72.58, -0.55 65.38, 0 55.5 M18.5 74 C8.91 69.5, 0.8 65.72, 0 55.5 M0 55.5 C-0.62 45.42, -2.47 38.4, 0 18.5 M0 55.5 C0.2 46.95, -1.37 37.17, 0 18.5 M0 18.5 C-1.56 4.5, 7.76 -2.9, 18.5 0 M0 18.5 C3.21 4.55, 4.04 2.18, 18.5 0" stroke="#1971c2" stroke-width="2" fill="none"/></g><g transform="translate(512.0214451435427 27.098858749159305) rotate(0 31.5 20.979550822132367)"><text x="31.5" y="0" font-family="Helvetica, Segoe UI Emoji" font-size="12.162058447612969px" fill="#1e1e1e" text-anchor="middle" style="white-space: pre;" direction="ltr" dominant-baseline="text-before-edge">Hermes </text><text x="31.5" y="13.986367214754914" font-family="Helvetica, Segoe UI Emoji" font-size="12.162058447612969px" fill="#1e1e1e" text-anchor="middle" style="white-space: pre;" direction="ltr" dominant-baseline="text-before-edge">runtime </text><text x="31.5" y="27.972734429509828" font-family="Helvetica, Segoe UI Emoji" font-size="12.162058447612969px" fill="#1e1e1e" text-anchor="middle" style="white-space: pre;" direction="ltr" dominant-baseline="text-before-edge">extension n</text></g><g stroke-linecap="round"><g transform="translate(134.76759243830065 86.07840957129169) rotate(0 68.64629440939962 79.85275757629944)"><path d="M0.83 -0.38 C23.66 25.8, 112.73 131.98, 135.27 158.76 M-2.16 -3.05 C21.71 23.37, 117.94 134.08, 140.58 161.88" stroke="#e03131" stroke-width="2" fill="none"/></g><g transform="translate(134.76759243830065 86.07840957129169) rotate(0 68.64629440939962 79.85275757629944)"><path d="M113.99 144.1 C119.58 148.67, 128 156.98, 144.11 160.95 M113.89 146.34 C120.53 151.67, 125.15 155.56, 141.85 161.67" stroke="#e03131" stroke-width="2" fill="none"/></g><g transform="translate(134.76759243830065 86.07840957129169) rotate(0 68.64629440939962 79.85275757629944)"><path d="M129.66 130.84 C131.67 138.68, 136.34 150.15, 144.11 160.95 M129.55 133.08 C132.71 141.29, 133.87 148.1, 141.85 161.67" stroke="#e03131" stroke-width="2" fill="none"/></g></g><mask/><g stroke-linecap="round"><g transform="translate(325.6226280218457 85.00000000000001) rotate(0 -3.7444282545388887 74.29193269351336)"><path d="M2.48 -1.84 C1.06 23.04, -5.87 126.14, -7.21 150.99 M0.37 3.33 C-1.5 27.31, -8.17 122.89, -9.3 147.28" stroke="#e03131" stroke-width="2" fill="none"/></g><g transform="translate(325.6226280218457 85.00000000000001) rotate(0 -3.7444282545388887 74.29193269351336)"><path d="M-20.49 118.93 C-11.12 131.01, -13.49 140.4, -9.78 147.2 M-17.21 117.76 C-14.31 126.05, -11.58 133.73, -9.15 148.13" stroke="#e03131" stroke-width="2" fill="none"/></g><g transform="translate(325.6226280218457 85.00000000000001) rotate(0 -3.7444282545388887 74.29193269351336)"><path d="M-0.01 120.15 C2.28 132.17, -7.15 141.15, -9.78 147.2 M3.27 118.99 C0.85 127.16, -1.73 134.53, -9.15 148.13" stroke="#e03131" stroke-width="2" fill="none"/></g></g><mask/><g stroke-linecap="round"><g transform="translate(541.9856233426658 86.07840957129169) rotate(0 -96.54998750376922 81.93908036719372)"><path d="M2.34 1.95 C-29.52 28.93, -159.47 136.77, -191.9 163.69 M0.16 0.55 C-31.89 27.82, -161.2 139.59, -193.48 167.22" stroke="#e03131" stroke-width="2" fill="none"/></g><g transform="translate(541.9856233426658 86.07840957129169) rotate(0 -96.54998750376922 81.93908036719372)"><path d="M-176.01 142.77 C-182.74 149.72, -187.08 157.46, -192.39 167.23 M-179.87 139.27 C-182.84 149.41, -187.06 159.3, -192.48 166.31" stroke="#e03131" stroke-width="2" fill="none"/></g><g transform="translate(541.9856233426658 86.07840957129169) rotate(0 -96.54998750376922 81.93908036719372)"><path d="M-162.63 158.33 C-173.21 161.26, -181.21 164.75, -192.39 167.23 M-166.49 154.83 C-174.05 159.62, -182.8 164.24, -192.48 166.31" stroke="#e03131" stroke-width="2" fill="none"/></g></g><mask/><g stroke-linecap="round" transform="translate(249.68945089924227 674.2472086635269) rotate(0 70.5 54.5)"><path d="M3.52 11.01 C3.52 11.01, 3.52 11.01, 3.52 11.01 M3.52 11.01 C3.52 11.01, 3.52 11.01, 3.52 11.01 M3.65 23.05 C7.73 15.52, 15.26 11.56, 16.12 8.71 M3.65 23.05 C5.61 17.73, 9.4 14.27, 16.12 8.71 M3.13 35.84 C13.48 24.33, 20.78 16.02, 31.34 3.39 M3.13 35.84 C12.39 27.88, 22.56 17.78, 31.34 3.39 M3.26 47.88 C11.67 38.27, 15.63 29.75, 41.97 3.36 M3.26 47.88 C18.53 34.03, 31.27 18.45, 41.97 3.36 M3.39 59.93 C14.54 37.39, 35.12 26.31, 52.6 3.32 M3.39 59.93 C14.84 46.01, 29.8 29.97, 52.6 3.32 M3.53 71.97 C15.8 58.79, 30.38 42.06, 63.23 3.29 M3.53 71.97 C16.3 56.14, 28.37 39.81, 63.23 3.29 M3.66 84.01 C24.71 65.42, 37.27 45.15, 73.86 3.25 M3.66 84.01 C28.33 56.04, 56.82 24.48, 73.86 3.25 M6.42 93.03 C26.67 64.37, 52.87 41.55, 84.49 3.22 M6.42 93.03 C32.34 58.99, 58.63 29.33, 84.49 3.22 M7.86 103.56 C41.63 68.13, 73.68 28.46, 95.12 3.18 M7.86 103.56 C37.35 71.58, 63.61 42.08, 95.12 3.18 M15.21 107.3 C51.81 67.3, 82.6 32.06, 105.75 3.15 M15.21 107.3 C42.26 74.02, 71.68 44.62, 105.75 3.15 M21.25 112.55 C44.14 84.25, 68.67 58.84, 117.03 2.36 M21.25 112.55 C38.67 91.16, 59.5 68.94, 117.03 2.36 M31.88 112.51 C51.99 90.48, 71.88 65.42, 127.01 3.08 M31.88 112.51 C52.69 88.68, 75.11 63, 127.01 3.08 M42.51 112.48 C77.22 78.4, 100.46 46.22, 134.36 6.82 M42.51 112.48 C61.81 90.54, 84.29 67.39, 134.36 6.82 M53.14 112.44 C80.1 77.16, 111.16 47.99, 138.43 14.33 M53.14 112.44 C87.41 72.13, 119.65 34.87, 138.43 14.33 M63.11 113.16 C80.93 90.52, 102.03 65.84, 144.47 19.58 M63.11 113.16 C92.38 81.97, 121.91 47.85, 144.47 19.58 M73.74 113.13 C93.96 82.08, 120.22 53.85, 145.25 30.87 M73.74 113.13 C91.93 90.7, 113.87 66.49, 145.25 30.87 M84.37 113.1 C110.19 89.66, 126.55 60.71, 145.39 42.91 M84.37 113.1 C103.86 91.26, 122.02 71.74, 145.39 42.91 M95 113.06 C105.94 97.48, 122.07 79.73, 144.86 55.7 M95 113.06 C107.05 100.11, 118.29 88.71, 144.86 55.7 M105.63 113.03 C116.75 105.26, 121.01 92.89, 145 67.74 M105.63 113.03 C120.85 96.6, 134.14 80.8, 145 67.74 M116.92 112.24 C121.11 102.71, 136.09 89.28, 145.13 79.79 M116.92 112.24 C122.5 103.51, 128.06 99.88, 145.13 79.79 M6.67 102.07 C6.67 102.07, 6.67 102.07, 6.67 102.07 M6.67 102.07 C6.67 102.07, 6.67 102.07, 6.67 102.07 M19.47 102.59 C11.35 98.26, 13.66 94.86, 1.36 86.85 M19.47 102.59 C12.83 98.52, 6.91 94.88, 1.36 86.85 M32.27 103.11 C22.21 88.9, 9.26 79.01, 1.32 76.22 M32.27 103.11 C24.69 93.46, 14.21 87.42, 1.32 76.22 M44.31 102.98 C32.28 91.32, 22.24 83.38, 1.29 65.59 M44.31 102.98 C30.93 90.3, 16.43 79.63, 1.29 65.59 M56.35 102.85 C37.18 89.8, 27.05 76.03, 1.25 54.96 M56.35 102.85 C40.58 88.95, 25.59 74.31, 1.25 54.96 M69.14 103.37 C51.66 90.42, 42.37 76.13, 1.22 44.32 M69.14 103.37 C47.05 84.48, 24.13 65.49, 1.22 44.32 M81.18 103.24 C60.56 83.56, 34.83 60.39, 1.18 33.69 M81.18 103.24 C53.8 80.89, 26.61 59.58, 1.18 33.69 M93.22 103.1 C59.14 71.62, 33.65 50.56, 1.15 23.06 M93.22 103.1 C73.6 85.21, 53.85 71.69, 1.15 23.06 M105.27 102.97 C74.24 78.03, 44.77 50.97, 4.89 15.71 M105.27 102.97 C86.23 83.15, 61.85 62.58, 4.89 15.71 M118.06 103.49 C83.62 67.93, 43.67 37.57, 7.12 7.05 M118.06 103.49 C88.03 80.05, 56.35 55.32, 7.12 7.05 M129.35 102.7 C92.89 64.29, 53.82 36.04, 13.12 1.67 M129.35 102.7 C87.4 67.51, 51.06 34.9, 13.12 1.67 M136.86 98.63 C91.77 56.62, 46.33 21.39, 22.14 -1.09 M136.86 98.63 C99.75 68.48, 60.72 34.65, 22.14 -1.09 M140.6 91.29 C105.61 58.75, 70.53 23.53, 31.17 -3.84 M140.6 91.29 C99.5 57.05, 56.35 20.04, 31.17 -3.84 M144.34 83.94 C106.13 51.64, 71.81 19.23, 43.21 -3.98 M144.34 83.94 C122.24 66.69, 102.93 46.11, 43.21 -3.98 M144.3 73.31 C120.27 54.92, 90.88 33.22, 55.25 -4.11 M144.3 73.31 C120.73 55.48, 96.7 34.02, 55.25 -4.11 M144.27 62.68 C117.72 34.27, 86.62 11.62, 67.29 -4.24 M144.27 62.68 C128.08 48.42, 112.98 35.08, 67.29 -4.24 M144.23 52.05 C118.24 30.2, 95.07 10.23, 79.33 -4.38 M144.23 52.05 C124.08 32.87, 98.94 15.47, 79.33 -4.38 M144.2 41.42 C123.52 22.15, 108.89 11.31, 92.13 -3.85 M144.2 41.42 C131.59 29.93, 115.6 19.56, 92.13 -3.85 M144.92 31.44 C132.15 23.7, 120.44 9.25, 104.17 -3.99 M144.92 31.44 C136.8 24.46, 127.98 14.07, 104.17 -3.99 M145.64 21.47 C140.63 14.28, 125.5 9.52, 116.96 -3.46 M145.64 21.47 C135.66 9.84, 123.87 1.27, 116.96 -3.46" stroke="#ffec99" stroke-width="1" fill="none"/><path d="M27.25 0 M27.25 0 C65.47 -0.44, 98.91 3.98, 113.75 0 M27.25 0 C61.92 1.84, 91.62 0.45, 113.75 0 M113.75 0 C128.68 3.15, 137.25 5.75, 141 27.25 M113.75 0 C131.9 -0.05, 138.23 12.07, 141 27.25 M141 27.25 C144.02 41.6, 139.96 54.57, 141 81.75 M141 27.25 C139.76 42.85, 141.79 56.05, 141 81.75 M141 81.75 C137.26 95.94, 133.89 111.9, 113.75 109 M141 81.75 C145.57 95.99, 130.48 106.44, 113.75 109 M113.75 109 C85.47 110.71, 66.53 105.87, 27.25 109 M113.75 109 C88.76 109.23, 64.22 107.74, 27.25 109 M27.25 109 C9.64 109.05, 3 103.39, 0 81.75 M27.25 109 C10.69 105.66, 3.57 96.19, 0 81.75 M0 81.75 C-3.53 73.7, -1.03 63.65, 0 27.25 M0 81.75 C-1.95 68.81, -0.31 57.6, 0 27.25 M0 27.25 C0.64 5.87, 7.29 2.06, 27.25 0 M0 27.25 C3.47 8.28, 5.97 4.01, 27.25 0" stroke="#f08c00" stroke-width="2" fill="none"/></g><g transform="translate(266.6894508992423 721.6498785510645) rotate(0 53.5 7.09733011246243)"><text x="53.5" y="0" font-family="Helvetica, Segoe UI Emoji" font-size="12.34318280428246px" fill="#1e1e1e" text-anchor="middle" style="white-space: pre;" direction="ltr" dominant-baseline="text-before-edge">Hermes Application</text></g><g stroke-linecap="round"><g transform="translate(312.9581299964075 484.52886370299825) rotate(0 1.1395091002264053 94.27189312602667)"><path d="M-0.74 -1.86 C-0.27 29.34, 1.59 155.05, 2.14 186.73 M4.05 3.3 C4.2 34.86, 0.34 158.07, -0.18 189.38" stroke="#e03131" stroke-width="2" fill="none"/></g><g transform="translate(312.9581299964075 484.52886370299825) rotate(0 1.1395091002264053 94.27189312602667)"><path d="M-12.41 160.75 C-9.79 169.25, -5.03 176.77, 0.79 188.54 M-11.5 162.03 C-7.67 170.83, -1.56 183.08, -0.51 190.83" stroke="#e03131" stroke-width="2" fill="none"/></g><g transform="translate(312.9581299964075 484.52886370299825) rotate(0 1.1395091002264053 94.27189312602667)"><path d="M8.11 161.25 C5.07 169.5, 4.18 176.88, 0.79 188.54 M9.02 162.53 C4.77 170.94, 2.82 182.99, -0.51 190.83" stroke="#e03131" stroke-width="2" fill="none"/></g></g><mask/><g stroke-linecap="round" transform="translate(143.2177745236222 150.02066764384426) rotate(319.14341106980567 24.744224152043216 13.897440962106472)"><path d="M34.71 2.68 C39.75 3.58, 45.14 3.6, 47.17 5.93 C49.21 8.27, 48.32 13.41, 46.91 16.69 C45.51 19.97, 42.32 24, 38.74 25.6 C35.16 27.2, 30.6 26.7, 25.44 26.27 C20.28 25.84, 12.2 24.48, 7.79 23.03 C3.39 21.58, -0.24 20.38, -0.97 17.57 C-1.69 14.75, 0.51 9.11, 3.43 6.13 C6.36 3.15, 8.8 -0.65, 16.58 -0.32 C24.36 0.01, 45.15 4.6, 50.1 8.12 C55.04 11.63, 46.7 20.33, 46.24 20.75 M44.04 4.18 C47.25 6.74, 49.84 14.24, 50.06 16.94 C50.28 19.65, 48.92 19.13, 45.36 20.43 C41.8 21.73, 34.72 23.96, 28.72 24.75 C22.73 25.54, 14.05 26.29, 9.37 25.16 C4.68 24.03, 1.96 20.65, 0.61 17.96 C-0.74 15.26, -1.04 11.48, 1.27 9.01 C3.58 6.53, 9.21 4.79, 14.46 3.1 C19.7 1.41, 27.87 -2, 32.76 -1.15 C37.65 -0.3, 42 6.63, 43.81 8.19 C45.62 9.74, 43.43 8.07, 43.64 8.18" stroke="#2f9e44" stroke-width="2" fill="none"/></g><g stroke-linecap="round"><g transform="translate(161.93668784039028 174.54682113537217) rotate(319.14341106980567 1.0168859240566235 18.98187058238929)"><path d="M0.16 1.58 C0.19 7.12, 0.65 29.93, 1.11 35.99 M-3.19 -0.03 C-3.7 7, -2.42 31.71, -1.62 38.54" stroke="#2f9e44" stroke-width="2" fill="none"/></g></g><mask/><g stroke-linecap="round"><g transform="translate(198.76710289431549 144.09802835899052) rotate(319.14341106980567 -1.0168859240566235 18.30394663301827)"><path d="M-0.11 -0.75 C0.4 5.33, 0.99 31.31, 0.66 37.71 M-3.61 -3.63 C-3.01 1.49, -0.07 27.24, -0.12 33.3" stroke="#2f9e44" stroke-width="2" fill="none"/></g></g><mask/><g stroke-linecap="round" transform="translate(166.75664418651377 176.71816404014658) rotate(319.14341106980567 24.744224152043216 13.897440962106458)"><path d="M43.7 2.73 C47.06 4.87, 48.5 10.24, 48.86 13.8 C49.21 17.35, 49.37 21.79, 45.83 24.06 C42.29 26.32, 33.3 27.36, 27.63 27.39 C21.96 27.43, 15.87 25.37, 11.83 24.28 C7.79 23.19, 5.19 23.13, 3.37 20.86 C1.55 18.59, -0.59 13.64, 0.91 10.65 C2.42 7.66, 7.73 4.92, 12.4 2.93 C17.06 0.95, 22.45 -2.68, 28.92 -1.26 C35.39 0.16, 48.69 7.41, 51.21 11.44 C53.73 15.47, 44.47 22.8, 44.02 22.93 M4.24 7.09 C7.16 4.24, 14.32 -1.82, 19.74 -2.16 C25.16 -2.5, 32.37 2.85, 36.77 5.06 C41.18 7.28, 44.69 8.58, 46.17 11.11 C47.66 13.64, 47.84 17.54, 45.69 20.22 C43.55 22.9, 37.25 25.81, 33.29 27.18 C29.34 28.55, 26.8 29.53, 21.96 28.42 C17.12 27.31, 7.98 22.67, 4.24 20.51 C0.5 18.36, -0.76 17.79, -0.47 15.49 C-0.18 13.19, 4.95 8.54, 5.98 6.69 C7.01 4.85, 5.59 4.65, 5.72 4.42" stroke="#2f9e44" stroke-width="2" fill="none"/></g><g transform="translate(159.26011409349258 169.36969675362752) rotate(319.14341106980567 20.5 6.9931836073774605)"><text x="0" y="0" font-family="Helvetica, Segoe UI Emoji" font-size="12.162058447612969px" fill="#1e1e1e" text-anchor="start" style="white-space: pre;" direction="ltr" dominant-baseline="text-before-edge">Event 1</text></g><g stroke-linecap="round" transform="translate(332.0026171977938 133.91289430645395) rotate(6.611562811822145 24.744224152043216 13.897440962106472)"><path d="M12.69 3.77 C16.84 2.11, 25.36 1.17, 30.34 1.41 C35.33 1.65, 39.49 3.36, 42.61 5.23 C45.73 7.09, 48.62 9.77, 49.07 12.6 C49.52 15.42, 48.82 19.59, 45.31 22.16 C41.79 24.74, 33.31 27.4, 27.96 28.04 C22.62 28.69, 17.65 27.55, 13.23 26.03 C8.8 24.51, 3.44 21.86, 1.39 18.92 C-0.65 15.98, -2.01 11.47, 0.96 8.38 C3.93 5.28, 15.69 1.45, 19.19 0.34 C22.69 -0.77, 21.89 1.33, 21.97 1.72 M46.29 9.01 C49.95 12.05, 52.26 15.46, 51.83 17.51 C51.4 19.55, 47.82 19.96, 43.72 21.28 C39.62 22.6, 32.99 24.68, 27.23 25.44 C21.47 26.19, 13.56 27.47, 9.16 25.82 C4.75 24.16, 1.86 18.49, 0.8 15.5 C-0.26 12.51, 0.36 10.71, 2.78 7.88 C5.2 5.04, 10.29 0.03, 15.34 -1.5 C20.38 -3.03, 27.63 -2.17, 33.06 -1.3 C38.49 -0.43, 46.31 2.32, 47.94 3.73 C49.57 5.14, 43.68 6.78, 42.85 7.17" stroke="#2f9e44" stroke-width="2" fill="none"/></g><g stroke-linecap="round"><g transform="translate(330.2480862611892 145.1718913480113) rotate(6.611562811822145 1.0168859240566235 18.98187058238929)"><path d="M-1.48 2.36 C-0.31 8.98, 3.43 32.32, 4.45 38.59 M2.91 1.18 C4.15 6.99, 3.3 28.19, 3.52 33.92" stroke="#2f9e44" stroke-width="2" fill="none"/></g></g><mask/><g stroke-linecap="round"><g transform="translate(378.72180879500047 150.9291341886667) rotate(6.611562811822145 -1.0168859240566235 18.303946633018256)"><path d="M2.42 0.63 C2.76 6.67, 1.04 32.87, 0.59 38.63 M0.28 -1.5 C0.63 5, 0.02 28.21, -0.23 34.72" stroke="#2f9e44" stroke-width="2" fill="none"/></g></g><mask/><g stroke-linecap="round" transform="translate(328.24146104934107 169.30623270881586) rotate(6.611562811822145 24.744224152043216 13.897440962106458)"><path d="M38.4 1.25 C43.14 2.56, 48.86 6.47, 50.12 9.62 C51.39 12.78, 48.35 17.36, 46.01 20.17 C43.66 22.99, 40.67 25.29, 36.05 26.52 C31.44 27.74, 23.65 28.44, 18.32 27.53 C12.99 26.63, 6.82 23.6, 4.07 21.09 C1.32 18.58, 1.49 15.08, 1.82 12.49 C2.14 9.89, 2.35 7.49, 6.03 5.54 C9.72 3.58, 16.47 -1.03, 23.94 0.78 C31.4 2.59, 50.33 11.84, 50.82 16.39 C51.31 20.94, 27.27 27.75, 26.87 28.07 M42.03 1.28 C45.5 3.59, 47.52 9.62, 48.14 12.66 C48.75 15.69, 48.3 17.08, 45.72 19.5 C43.13 21.91, 37.55 26.39, 32.62 27.15 C27.69 27.91, 20.83 25.47, 16.13 24.04 C11.44 22.61, 6.58 21.13, 4.44 18.55 C2.3 15.98, 2.76 11.06, 3.3 8.61 C3.83 6.15, 3.94 5.41, 7.64 3.84 C11.33 2.28, 19.37 -0.61, 25.48 -0.77 C31.58 -0.94, 42.08 2.27, 44.25 2.88 C46.42 3.48, 39.4 2.68, 38.49 2.87" stroke="#2f9e44" stroke-width="2" fill="none"/></g><g transform="translate(335.01244040599477 158.01337094457028) rotate(6.611562811822145 20.5 6.9931836073774605)"><text x="0" y="0" font-family="Helvetica, Segoe UI Emoji" font-size="12.162058447612969px" fill="#1e1e1e" text-anchor="start" style="white-space: pre;" direction="ltr" dominant-baseline="text-before-edge">Event 2</text></g><g stroke-linecap="round" transform="translate(452.56865296223805 171.37789820738578) rotate(47.184039724866764 24.744224152043216 13.897440962106458)"><path d="M17.33 1.41 C21.86 0.47, 29.49 0.13, 34.06 1.32 C38.64 2.5, 42.53 6.17, 44.78 8.51 C47.02 10.86, 48.38 12.59, 47.51 15.37 C46.65 18.15, 43.78 23.41, 39.58 25.18 C35.39 26.95, 27.7 26.17, 22.35 26 C17.01 25.82, 10.94 25.7, 7.53 24.12 C4.12 22.55, 2.47 19.59, 1.91 16.56 C1.35 13.52, 1.24 8.37, 4.19 5.93 C7.14 3.5, 16.36 2.75, 19.59 1.92 C22.83 1.1, 23.51 1.14, 23.6 1 M12.22 -1.83 C16.58 -3.09, 25.71 -1.22, 31.11 0.49 C36.51 2.19, 41.87 5.88, 44.63 8.41 C47.39 10.94, 48.21 13.18, 47.68 15.66 C47.14 18.15, 44.74 20.89, 41.41 23.31 C38.07 25.72, 33.41 30.2, 27.66 30.15 C21.91 30.1, 11.77 24.72, 6.9 22.99 C2.03 21.26, -0.49 22.04, -1.56 19.76 C-2.64 17.49, -2.75 11.94, 0.47 9.32 C3.69 6.7, 15.34 5.12, 17.76 4.04 C20.18 2.96, 15.4 3.42, 14.97 2.85" stroke="#2f9e44" stroke-width="2" fill="none"/></g><g stroke-linecap="round"><g transform="translate(446.32513862270844 161.96598665500676) rotate(47.184039724866764 1.0168859240566235 18.98187058238929)"><path d="M-0.9 1.51 C-0.45 8.26, 0.89 32.37, 1.54 38.49 M3.81 -0.14 C3.95 5.88, -0.62 26.82, -0.96 33.76" stroke="#2f9e44" stroke-width="2" fill="none"/></g></g><mask/><g stroke-linecap="round"><g transform="translate(480.1023925034201 196.64599483874883) rotate(47.184039724866764 -1.0168859240566235 18.303946633018256)"><path d="M-0.49 0.52 C-0.52 6.42, -0.87 31.27, -1.04 36.88 M-4.2 -1.66 C-4.43 4.61, -2.93 34.38, -2.74 40.65" stroke="#2f9e44" stroke-width="2" fill="none"/></g></g><mask/><g stroke-linecap="round" transform="translate(426.6915791398774 195.81581442848108) rotate(47.184039724866764 24.744224152043216 13.897440962106458)"><path d="M27.41 -1.14 C32.63 -0.98, 39.68 3.09, 43.08 5.28 C46.48 7.47, 47.81 9.12, 47.81 12.01 C47.8 14.9, 45.86 19.9, 43.04 22.6 C40.21 25.3, 35.86 27.75, 30.86 28.21 C25.86 28.66, 18.17 26.59, 13.03 25.31 C7.89 24.03, 2.26 23.07, 0.04 20.51 C-2.19 17.95, -2.14 13.13, -0.32 9.95 C1.49 6.78, 3.86 2.38, 10.91 1.46 C17.96 0.53, 35.66 2.89, 41.98 4.39 C48.29 5.89, 49.3 10.42, 48.81 10.47 M21.97 0.01 C27.13 -0.77, 34.85 -0.16, 39.63 2.04 C44.4 4.24, 49.93 10.5, 50.64 13.22 C51.35 15.93, 46.97 15.59, 43.89 18.31 C40.8 21.03, 36.92 27.76, 32.12 29.53 C27.32 31.31, 19.37 29.83, 15.1 28.96 C10.82 28.1, 9.03 26.92, 6.48 24.37 C3.93 21.82, -0.31 17.38, -0.21 13.65 C-0.12 9.91, 3.4 4.23, 7.03 1.96 C10.66 -0.3, 19.2 0.02, 21.57 0.08 C23.94 0.14, 21.35 2.09, 21.26 2.33" stroke="#2f9e44" stroke-width="2" fill="none"/></g><g transform="translate(438.72759755422294 188.37996106548007) rotate(47.184039724866764 20.5 13.986367214754921)"><text x="0" y="0" font-family="Helvetica, Segoe UI Emoji" font-size="12.162058447612969px" fill="#1e1e1e" text-anchor="start" style="white-space: pre;" direction="ltr" dominant-baseline="text-before-edge">Event n</text><text x="0" y="13.986367214754914" font-family="Helvetica, Segoe UI Emoji" font-size="12.162058447612969px" fill="#1e1e1e" text-anchor="start" style="white-space: pre;" direction="ltr" dominant-baseline="text-before-edge"/></g><g stroke-linecap="round" transform="translate(321.2047260764748 480.92184339296364) rotate(0.09892549562455624 24.744224152043216 13.897440962106486)"><path d="M42.6 2.24 C46.95 3.91, 49.73 9.03, 50.46 11.86 C51.2 14.69, 49.88 16.48, 47.01 19.23 C44.13 21.98, 38.54 26.96, 33.23 28.34 C27.92 29.71, 19.91 29.07, 15.13 27.48 C10.36 25.9, 7.22 21.64, 4.6 18.83 C1.98 16.03, -1.19 13.1, -0.58 10.65 C0.02 8.19, 3.84 5.96, 8.24 4.12 C12.64 2.28, 18.87 -1.27, 25.81 -0.39 C32.75 0.48, 46.33 6.13, 49.9 9.37 C53.46 12.62, 47.8 19, 47.19 19.07 M13.97 1.84 C18.68 0.71, 26.9 0.37, 31.89 1.23 C36.88 2.09, 41.04 4.96, 43.9 6.98 C46.75 9.01, 49.36 10.14, 49.04 13.39 C48.73 16.64, 45.82 23.76, 42 26.48 C38.19 29.21, 31.13 29.57, 26.16 29.72 C21.2 29.88, 16.06 29.85, 12.22 27.41 C8.38 24.98, 4.67 18.25, 3.11 15.11 C1.55 11.96, 0.87 11.15, 2.85 8.55 C4.84 5.96, 13.01 0.65, 15.02 -0.45 C17.04 -1.55, 14.23 1.69, 14.95 1.96" stroke="#2f9e44" stroke-width="2" fill="none"/></g><g stroke-linecap="round"><g transform="translate(321.63917191135124 494.91610063313124) rotate(0.09892549562455624 1.0168859240566235 18.98187058238932)"><path d="M2.02 -1.3 C2.42 5.37, 2.94 33.23, 2.65 40.07 M-0.33 4.17 C-0.26 10.07, -0.34 31.04, 0.75 36.2" stroke="#2f9e44" stroke-width="2" fill="none"/></g></g><mask/><g stroke-linecap="round"><g transform="translate(370.2201666554711 494.67003626753353) rotate(0.09892549562455624 -1.0168859240566235 18.303946633018256)"><path d="M0.62 2.11 C-0.34 8.72, -3.31 32.35, -3.74 38.36 M-2.49 0.78 C-2.72 6.71, 1.94 28.85, 1.73 34.31" stroke="#2f9e44" stroke-width="2" fill="none"/></g></g><mask/><g stroke-linecap="round" transform="translate(321.48223701114784 516.5133829286217) rotate(0.09892549562455624 24.744224152043216 13.897440962106486)"><path d="M25.94 1.28 C30.69 1.6, 36.38 2.65, 40.52 4.12 C44.66 5.59, 50.07 7.35, 50.79 10.1 C51.5 12.85, 47.99 17.62, 44.79 20.63 C41.59 23.64, 36.34 27.18, 31.57 28.15 C26.8 29.12, 20.69 27.77, 16.18 26.44 C11.68 25.1, 7.33 22.38, 4.53 20.14 C1.74 17.9, -1.41 15.9, -0.58 12.99 C0.26 10.07, 3.02 4.55, 9.53 2.65 C16.05 0.74, 32.13 0.66, 38.49 1.56 C44.84 2.47, 47.67 7.81, 47.65 8.08 M28.64 -2.44 C34.15 -1.84, 40.86 3.97, 44.48 6.99 C48.1 10.01, 49.98 12.62, 50.37 15.69 C50.76 18.75, 49.9 23.67, 46.83 25.4 C43.75 27.13, 37.66 25.73, 31.92 26.06 C26.18 26.38, 17.57 28.79, 12.39 27.35 C7.21 25.9, 2.82 20.28, 0.83 17.39 C-1.17 14.51, -1.93 12.79, 0.4 10.04 C2.73 7.29, 9.78 2.43, 14.83 0.91 C19.88 -0.61, 28.27 1.08, 30.7 0.93 C33.13 0.77, 30.16 0.14, 29.39 -0.04" stroke="#2f9e44" stroke-width="2" fill="none"/></g><g transform="translate(326.1721669566987 505.03758297514355) rotate(0.09892549562455624 20.5 6.993183607377432)"><text x="0" y="0" font-family="Helvetica, Segoe UI Emoji" font-size="12.162058447612969px" fill="#1e1e1e" text-anchor="start" style="white-space: pre;" direction="ltr" dominant-baseline="text-before-edge">Event 1</text></g><g stroke-linecap="round" transform="translate(320.9360798895441 545.6556083647409) rotate(359.6052770993649 24.744224152043216 13.897440962106486)"><path d="M5.94 5.66 C8.88 3.1, 15.22 -0.28, 20.57 -0.74 C25.92 -1.2, 33.13 1.23, 38.04 2.88 C42.95 4.54, 48.69 6.32, 50.04 9.19 C51.39 12.07, 48.44 17.61, 46.16 20.14 C43.88 22.67, 40.86 23.22, 36.36 24.37 C31.86 25.53, 24.65 27.26, 19.14 27.07 C13.62 26.89, 6.38 25.47, 3.25 23.24 C0.12 21.02, -1.55 17.53, 0.33 13.74 C2.21 9.94, 10.12 2.5, 14.53 0.47 C18.93 -1.56, 26.46 1.26, 26.77 1.56 M20.47 -0.26 C25.41 -1.14, 31.41 -2.12, 36.52 0.1 C41.64 2.32, 49.13 10.23, 51.16 13.07 C53.19 15.91, 50.95 15.36, 48.7 17.14 C46.45 18.92, 42.44 22.31, 37.66 23.74 C32.88 25.18, 25.27 25.83, 20.03 25.76 C14.8 25.68, 9.74 25.54, 6.27 23.29 C2.8 21.04, -1.19 15.89, -0.78 12.26 C-0.37 8.64, 5.22 3.7, 8.73 1.55 C12.25 -0.6, 18.1 0.04, 20.33 -0.63 C22.56 -1.29, 21.93 -3.09, 22.14 -2.45" stroke="#2f9e44" stroke-width="2" fill="none"/></g><g stroke-linecap="round"><g transform="translate(321.3884342934234 559.9141328427307) rotate(359.6052770993649 1.0168859240566235 18.98187058238932)"><path d="M-2.34 0.56 C-1.76 6.89, 2.68 31.29, 3.66 37.35 M1.58 -1.61 C1.92 5.21, 2.15 33.81, 2.31 40.65" stroke="#2f9e44" stroke-width="2" fill="none"/></g></g><mask/><g stroke-linecap="round"><g transform="translate(370.08050727656655 559.9219483647526) rotate(359.6052770993649 -1.0168859240566235 18.303946633018256)"><path d="M1.63 -0.61 C1.93 5.22, 0.29 29.31, -0.53 35.55 M-0.93 -3.41 C-0.65 2.75, -1.15 31.36, -1.95 38.6" stroke="#2f9e44" stroke-width="2" fill="none"/></g></g><mask/><g stroke-linecap="round" transform="translate(321.5202259558678 581.2434359496101) rotate(359.6052770993649 24.744224152043216 13.897440962106486)"><path d="M16.02 0.88 C20.17 -0.43, 24.77 0.95, 29.6 1.49 C34.44 2.03, 41.8 1.91, 45.02 4.11 C48.25 6.31, 49.75 11.28, 48.96 14.68 C48.17 18.08, 43.9 22.28, 40.28 24.52 C36.66 26.75, 32.26 28.06, 27.24 28.08 C22.22 28.1, 14.32 26.17, 10.17 24.62 C6.03 23.07, 3.6 21.58, 2.37 18.79 C1.14 16, -0.86 11.25, 2.78 7.87 C6.42 4.5, 18.9 -0.14, 24.2 -1.47 C29.5 -2.8, 34.58 -0.3, 34.58 -0.1 M8.28 1.69 C11.51 -1.41, 19.07 -2.52, 24.37 -2.68 C29.68 -2.84, 35.77 -1.62, 40.1 0.72 C44.42 3.06, 49.21 8.31, 50.3 11.35 C51.38 14.4, 48.77 16.93, 46.61 19.01 C44.45 21.09, 42.29 22.54, 37.31 23.83 C32.33 25.12, 22.22 27.48, 16.73 26.76 C11.23 26.03, 7.33 21.43, 4.32 19.45 C1.31 17.48, -1.27 17.37, -1.33 14.9 C-1.4 12.43, 2.42 6.52, 3.93 4.64 C5.43 2.76, 7.02 3.51, 7.7 3.64" stroke="#2f9e44" stroke-width="2" fill="none"/></g><g transform="translate(326.05177809849374 569.7634316726859) rotate(359.6052770993649 20.5 6.993183607377432)"><text x="0" y="0" font-family="Helvetica, Segoe UI Emoji" font-size="12.162058447612969px" fill="#1e1e1e" text-anchor="start" style="white-space: pre;" direction="ltr" dominant-baseline="text-before-edge">Event 2</text></g><g stroke-linecap="round" transform="translate(322.32304783815425 610.8904743400869) rotate(0.02296023664039091 24.744224152043216 13.897440962106486)"><path d="M33.6 1.61 C37.9 2.67, 42.59 3.77, 45.25 6.48 C47.91 9.18, 50.14 15.07, 49.57 17.84 C48.99 20.61, 45.86 21.66, 41.81 23.1 C37.75 24.54, 30.63 26.58, 25.25 26.46 C19.87 26.33, 13.84 24.12, 9.51 22.37 C5.17 20.63, 0.32 18.71, -0.78 16 C-1.87 13.29, 0.21 8.94, 2.92 6.11 C5.63 3.29, 8.34 -1.09, 15.48 -0.94 C22.62 -0.79, 40.14 4.73, 45.77 7.03 C51.39 9.33, 49.56 12.85, 49.23 12.86 M43.58 2.95 C47.8 5.13, 50.52 12.49, 51.1 15.89 C51.69 19.28, 50.43 21.1, 47.08 23.32 C43.72 25.54, 36.51 28.97, 30.98 29.21 C25.45 29.45, 18.56 26.32, 13.91 24.77 C9.26 23.22, 4.77 22.82, 3.07 19.91 C1.37 17.01, 2.51 10.1, 3.71 7.36 C4.91 4.62, 5.91 4.93, 10.26 3.46 C14.62 1.99, 24.53 -1.48, 29.84 -1.46 C35.14 -1.45, 39.78 2.39, 42.09 3.54 C44.4 4.69, 44.04 4.92, 43.7 5.43" stroke="#2f9e44" stroke-width="2" fill="none"/></g><g stroke-linecap="round"><g transform="translate(322.91002826443037 624.5898175185082) rotate(0.02296023664039091 1.0168859240566235 18.98187058238932)"><path d="M1.08 2.15 C1.27 8.15, -0.95 31.69, -0.65 37.34 M-1.78 0.86 C-0.6 7.15, 3.75 34.42, 4.3 40.64" stroke="#2f9e44" stroke-width="2" fill="none"/></g></g><mask/><g stroke-linecap="round"><g transform="translate(370.7055752468859 625.4985689659447) rotate(0.02296023664039091 -1.0168859240566235 18.303946633018256)"><path d="M-2.68 -0.62 C-3.07 4.81, -1.11 28.35, -1.21 34.7 M1.05 -3.42 C0.28 2.12, -1.86 31.32, -3 37.3" stroke="#2f9e44" stroke-width="2" fill="none"/></g></g><mask/><g stroke-linecap="round" transform="translate(322.647747340191 646.4816146571733) rotate(0.02296023664039091 24.744224152043216 13.897440962106486)"><path d="M15.72 -0.34 C20.23 -2.14, 27.04 -1.62, 32.1 -0.92 C37.16 -0.22, 43.37 1.21, 46.09 3.87 C48.81 6.53, 49.15 11.82, 48.42 15.03 C47.69 18.24, 45.49 21.29, 41.71 23.13 C37.93 24.98, 30.65 25.48, 25.72 26.1 C20.78 26.72, 16.16 28.21, 12.09 26.85 C8.02 25.49, 2.77 20.95, 1.3 17.96 C-0.16 14.96, 0.01 12.05, 3.29 8.9 C6.57 5.75, 17.22 0.43, 20.99 -0.95 C24.76 -2.32, 26.27 0.01, 25.9 0.63 M44.28 6.45 C47.5 8.06, 49.98 9.32, 50.15 12.13 C50.32 14.95, 48.3 21.14, 45.3 23.32 C42.3 25.5, 37.77 24.53, 32.16 25.21 C26.55 25.89, 16.41 28.72, 11.63 27.41 C6.85 26.11, 5.36 20.53, 3.48 17.37 C1.6 14.21, -1.22 10.9, 0.34 8.45 C1.91 6.01, 8.38 3.92, 12.88 2.73 C17.37 1.54, 22.23 1.26, 27.32 1.31 C32.4 1.36, 41.1 1.94, 43.38 3.03 C45.67 4.12, 41.03 6.93, 41.03 7.84" stroke="#2f9e44" stroke-width="2" fill="none"/></g><g transform="translate(326.7637787728904 635.594685382985) rotate(0.02296023664039091 20.5 13.986367214754921)"><text x="0" y="0" font-family="Helvetica, Segoe UI Emoji" font-size="12.162058447612969px" fill="#1e1e1e" text-anchor="start" style="white-space: pre;" direction="ltr" dominant-baseline="text-before-edge">Event n</text><text x="0" y="13.986367214754914" font-family="Helvetica, Segoe UI Emoji" font-size="12.162058447612969px" fill="#1e1e1e" text-anchor="start" style="white-space: pre;" direction="ltr" dominant-baseline="text-before-edge"/></g><g mask="url(#mask-puyW5aCT5z8rFNdO8oYEy)" stroke-linecap="round"><g transform="translate(245.6819076651932 712.333220681704) rotate(0 -91.3409538325966 -312.29239142058384)"><path d="M0.6 -0.34 C-29.17 -52.49, -154.44 -207.22, -180.95 -311.27 C-207.47 -415.31, -162.91 -572.04, -158.5 -624.63 M-2.51 -2.99 C-32.3 -54.92, -157.18 -205.28, -182.25 -308.37 C-207.33 -411.46, -157.83 -568.71, -152.95 -621.54" stroke="#e03131" stroke-width="2" fill="none"/></g><g transform="translate(245.6819076651932 712.333220681704) rotate(0 -91.3409538325966 -312.29239142058384)"><path d="M-148.48 -589.48 C-151.34 -601.75, -150.55 -602.41, -156.08 -622.16 M-146.7 -592.25 C-150.3 -602.29, -151.74 -612.98, -152.09 -623.21" stroke="#e03131" stroke-width="2" fill="none"/></g><g transform="translate(245.6819076651932 712.333220681704) rotate(0 -91.3409538325966 -312.29239142058384)"><path d="M-168.65 -593.22 C-167.08 -604.76, -161.89 -604.61, -156.08 -622.16 M-166.88 -595.98 C-163.48 -604.8, -157.93 -614.19, -152.09 -623.21" stroke="#e03131" stroke-width="2" fill="none"/></g></g><mask id="mask-puyW5aCT5z8rFNdO8oYEy"><rect x="0" y="0" fill="#fff" width="528.3638153303863" height="1436.9180035228717"/><rect x="10" y="386.1357786163883" fill="#000" width="106" height="32.562883298232826" opacity="1"/></mask><g transform="translate(10 386.13577861638834) rotate(0 141.32058392211684 13.71453678206234)"><text x="53" y="0" font-family="Helvetica, Segoe UI Emoji" font-size="14.15777534705775px" fill="#1e1e1e" text-anchor="middle" style="white-space: pre;" direction="ltr" dominant-baseline="text-before-edge">Hermes runtime </text><text x="53" y="16.281441649116413" font-family="Helvetica, Segoe UI Emoji" font-size="14.15777534705775px" fill="#1e1e1e" text-anchor="middle" style="white-space: pre;" direction="ltr" dominant-baseline="text-before-edge">extension call</text></g><g mask="url(#mask-uWvsSdcWT3gzPnXJZmTbB)" stroke-linecap="round"><g transform="translate(395.8087857076039 688.7717110478235) rotate(0 109.09967330073277 -301.3466507382659)"><path d="M-2.08 -1.14 C34.42 -50.74, 186.96 -197.93, 217.78 -298.55 C248.59 -399.16, 189.36 -554.1, 182.78 -604.85 M1.99 -4.22 C38.18 -54.64, 185.3 -203.43, 215.31 -303.21 C245.31 -402.99, 188.33 -553.34, 182.03 -602.91" stroke="#e03131" stroke-width="2" fill="none"/></g><g transform="translate(395.8087857076039 688.7717110478235) rotate(0 109.09967330073277 -301.3466507382659)"><path d="M196.74 -578.35 C195.27 -581.67, 187.07 -594.54, 181.53 -602.31 M196.42 -578.88 C192.5 -582.7, 190.45 -589.06, 181.33 -603.3" stroke="#e03131" stroke-width="2" fill="none"/></g><g transform="translate(395.8087857076039 688.7717110478235) rotate(0 109.09967330073277 -301.3466507382659)"><path d="M176.75 -573.74 C180.44 -577.94, 177.38 -591.99, 181.53 -602.31 M176.43 -574.26 C176.83 -579.13, 179.16 -586.5, 181.33 -603.3" stroke="#e03131" stroke-width="2" fill="none"/></g></g><mask id="mask-uWvsSdcWT3gzPnXJZmTbB"><rect x="0" y="0" fill="#fff" width="714.0081323090697" height="1391.4650125243552"/><rect x="561.0081323090694" y="373.2986715912665" fill="#000" width="106" height="32.562883298232826" opacity="1"/></mask><g transform="translate(561.0081323090694 373.29867159126644) rotate(0 -52.93887578384829 12.480500236256944)"><text x="53" y="0" font-family="Helvetica, Segoe UI Emoji" font-size="14.15777534705775px" fill="#1e1e1e" text-anchor="middle" style="white-space: pre;" direction="ltr" dominant-baseline="text-before-edge">Hermes runtime </text><text x="53" y="16.281441649116413" font-family="Helvetica, Segoe UI Emoji" font-size="14.15777534705775px" fill="#1e1e1e" text-anchor="middle" style="white-space: pre;" direction="ltr" dominant-baseline="text-before-edge">extension call</text></g></svg>