<?xml version="1.0" encoding="UTF-8" standalone="no"?>
<!DOCTYPE svg PUBLIC "-//W3C//DTD SVG 1.1//EN"
 "http://www.w3.org/Graphics/SVG/1.1/DTD/svg11.dtd">
<!-- Generated by graphviz version 9.0.0 (20230911.1827)
 -->
<!-- Pages: 1 -->
<svg width="492pt" height="351pt"
 viewBox="0.00 0.00 492.10 350.58" xmlns="http://www.w3.org/2000/svg" xmlns:xlink="http://www.w3.org/1999/xlink">
<g id="graph0" class="graph" transform="scale(1 1) rotate(0) translate(28.8 321.78)">
<polygon fill="white" stroke="none" points="-28.8,28.8 -28.8,-321.78 463.3,-321.78 463.3,28.8 -28.8,28.8"/>
<text text-anchor="middle" x="217.25" y="-254.78" font-family="Helvetica,sans-Serif" font-size="36.00">cardano_chain_follower</text>
<!-- cardano_chain_follower -->
<g id="node1" class="node">
<title>cardano_chain_follower</title>
<polygon fill="#5397c8" stroke="black" points="130.42,-131.71 130.42,-173.21 278.42,-173.21 278.42,-131.71 130.42,-131.71"/>
<text text-anchor="middle" x="204.42" y="-159.71" font-family="monospace" font-size="10.00">crate</text>
<polyline fill="none" stroke="black" points="130.42,-152.46 278.42,-152.46"/>
<text text-anchor="middle" x="204.42" y="-138.96" font-family="monospace" font-size="10.00">cardano_chain_follower</text>
</g>
<!-- cardano_chain_follower::follow -->
<g id="node2" class="node">
<title>cardano_chain_follower::follow</title>
<polygon fill="#f8c04c" stroke="black" points="192.36,-70.11 192.36,-111.61 292.36,-111.61 292.36,-70.11 192.36,-70.11"/>
<text text-anchor="middle" x="242.36" y="-98.11" font-family="monospace" font-size="10.00">pub(crate) mod</text>
<polyline fill="none" stroke="black" points="192.36,-90.86 292.36,-90.86"/>
<text text-anchor="middle" x="242.36" y="-77.36" font-family="monospace" font-size="10.00">follow</text>
</g>
<!-- cardano_chain_follower&#45;&gt;cardano_chain_follower::follow -->
<g id="edge1" class="edge">
<title>cardano_chain_follower&#45;&gt;cardano_chain_follower::follow</title>
<path fill="none" stroke="#000000" d="M217.48,-131.26C219.41,-128.13 221.43,-124.85 223.45,-121.57"/>
<polygon fill="#000000" stroke="#000000" points="226.35,-123.53 228.62,-113.18 220.39,-119.86 226.35,-123.53"/>
<text text-anchor="middle" x="208.46" y="-116.92" font-family="monospace" font-size="10.00">owns</text>
</g>
<!-- cardano_chain_follower::mithril_snapshot -->
<g id="node4" class="node">
<title>cardano_chain_follower::mithril_snapshot</title>
<polygon fill="#f8c04c" stroke="black" points="125.7,-200.23 125.7,-241.73 237.7,-241.73 237.7,-200.23 125.7,-200.23"/>
<text text-anchor="middle" x="181.7" y="-228.23" font-family="monospace" font-size="10.00">pub(crate) mod</text>
<polyline fill="none" stroke="black" points="125.7,-220.98 237.7,-220.98"/>
<text text-anchor="middle" x="181.7" y="-207.48" font-family="monospace" font-size="10.00">mithril_snapshot</text>
</g>
<!-- cardano_chain_follower&#45;&gt;cardano_chain_follower::mithril_snapshot -->
<g id="edge2" class="edge">
<title>cardano_chain_follower&#45;&gt;cardano_chain_follower::mithril_snapshot</title>
<path fill="none" stroke="#000000" d="M197.48,-173.39C195.81,-178.44 193.98,-183.94 192.18,-189.36"/>
<polygon fill="#000000" stroke="#000000" points="188.9,-188.15 189.07,-198.74 195.54,-190.35 188.9,-188.15"/>
<text text-anchor="middle" x="182.83" y="-184.63" font-family="monospace" font-size="10.00">owns</text>
</g>
<!-- cardano_chain_follower::follow::task -->
<g id="node3" class="node">
<title>cardano_chain_follower::follow::task</title>
<polygon fill="#db5367" stroke="black" points="214.8,-0.5 214.8,-42 308.8,-42 308.8,-0.5 214.8,-0.5"/>
<text text-anchor="middle" x="261.8" y="-28.5" font-family="monospace" font-size="10.00">pub(self) mod</text>
<polyline fill="none" stroke="black" points="214.8,-21.25 308.8,-21.25"/>
<text text-anchor="middle" x="261.8" y="-7.75" font-family="monospace" font-size="10.00">follow::task</text>
</g>
<!-- cardano_chain_follower::follow&#45;&gt;cardano_chain_follower::follow::task -->
<g id="edge3" class="edge">
<title>cardano_chain_follower::follow&#45;&gt;cardano_chain_follower::follow::task</title>
<path fill="none" stroke="#000000" d="M248.2,-69.98C249.69,-64.61 251.34,-58.71 252.96,-52.93"/>
<polygon fill="#000000" stroke="#000000" points="256.25,-54.15 255.57,-43.58 249.51,-52.27 256.25,-54.15"/>
<text text-anchor="middle" x="238.58" y="-51.95" font-family="monospace" font-size="10.00">owns</text>
</g>
</g>
</svg>
