<?xml version="1.0" encoding="utf-8"?>
<svg width="800px" height="800px" viewBox="0 0 24 24" fill="none" xmlns="http://www.w3.org/2000/svg">
  <!-- Headphones -->
  <path fill-rule="evenodd" clip-rule="evenodd" d="M6.5 11H4.5C4.22386 11 4 11.2239 4 11.5C4 11.7761 4.22386 12 4.5 12H19.5C19.7761 12 20 11.7761 20 11.5C20 11.2239 19.7761 11 19.5 11H17.5C17.5 7.96243 15.0376 5.5 12 5.5C8.96243 5.5 6.5 7.96243 6.5 11ZM7.5 11C7.5 8.51472 9.51472 6.5 12 6.5C14.4853 6.5 16.5 8.51472 16.5 11H7.5Z" fill="#D97706"/>
  <path fill-rule="evenodd" clip-rule="evenodd" d="M10.437 15C10.215 14.1374 9.43192 13.5 8.5 13.5C7.39543 13.5 6.5 14.3954 6.5 15.5C6.5 16.6046 7.39543 17.5 8.5 17.5C9.43192 17.5 10.215 16.8626 10.437 16H13.563C13.785 16.8626 14.5681 17.5 15.5 17.5C16.6046 17.5 17.5 16.6046 17.5 15.5C17.5 14.3954 16.6046 13.5 15.5 13.5C14.5681 13.5 13.785 14.1374 13.563 15H10.437ZM8.5 14.5C7.94772 14.5 7.5 14.9477 7.5 15.5C7.5 16.0523 7.94772 16.5 8.5 16.5C9.05228 16.5 9.5 16.0523 9.5 15.5C9.5 14.9477 9.05228 14.5 8.5 14.5ZM14.5 15.5C14.5 16.0523 14.9477 16.5 15.5 16.5C16.0523 16.5 16.5 16.0523 16.5 15.5C16.5 14.9477 16.0523 14.5 15.5 14.5C14.9477 14.5 14.5 14.9477 14.5 15.5Z" fill="#D97706"/>

  <!-- Smartphone with privacy shield -->
  <g transform="translate(10, 18)">
    <!-- Phone body -->
    <rect x="0" y="0" width="4" height="6" rx="0.5" ry="0.5" fill="#2D3748" stroke="#D97706" stroke-width="0.2"/>

    <!-- Screen -->
    <rect x="0.3" y="0.5" width="3.4" height="4.5" rx="0.2" ry="0.2" fill="#1A202C"/>

    <!-- Privacy shield overlay -->
    <path d="M2 1 L1.2 1.5 L1.2 3.5 C1.2 4.2 1.8 4.8 2 4.8 C2.2 4.8 2.8 4.2 2.8 3.5 L2.8 1.5 Z" fill="#D97706" opacity="0.8"/>

    <!-- Lock icon on shield -->
    <rect x="1.7" y="2.2" width="0.6" height="0.6" rx="0.1" fill="#1A202C"/>
    <path d="M1.8 2.2 C1.8 1.9 2.0 1.7 2.2 1.7 C2.4 1.7 2.6 1.9 2.6 2.2" stroke="#1A202C" stroke-width="0.1" fill="none"/>

    <!-- Encrypted signal waves -->
    <g opacity="0.6">
      <path d="M4.2 2.5 C4.5 2.3 4.8 2.3 5.1 2.5" stroke="#D97706" stroke-width="0.15" fill="none"/>
      <path d="M4.0 3.0 C4.4 2.7 5.0 2.7 5.4 3.0" stroke="#D97706" stroke-width="0.12" fill="none"/>
      <path d="M3.8 3.5 C4.3 3.1 5.1 3.1 5.6 3.5" stroke="#D97706" stroke-width="0.1" fill="none"/>
    </g>
  </g>
</svg>