<svg version="1.1" xmlns="http://www.w3.org/2000/svg" viewBox="0 0 756.4541854858398 261.0453180759763" width="756.4541854858398" height="261.0453180759763">
  <!-- svg-source:excalidraw -->
  
  <defs>
    <style class="style-fonts">
      @font-face {
        font-family: "Virgil";
        src: url("https://unpkg.com/@excalidraw/excalidraw@0.15.3/dist/excalidraw-assets/Virgil.woff2");
      }
      @font-face {
        font-family: "Cascadia";
        src: url("https://unpkg.com/@excalidraw/excalidraw@0.15.3/dist/excalidraw-assets/Cascadia.woff2");
      }
    </style>
  </defs>
  <rect x="0" y="0" width="756.4541854858398" height="261.0453180759763" fill="#ffffff"></rect><g stroke-opacity="0" fill-opacity="0" stroke-linecap="round" transform="translate(29.408836892285535 23.28799491230501) rotate(0 58.378661581835615 58.378661581835615)"><path d="M41.23 3.03 C49.37 -0.43, 60.15 -1.46, 68.94 0.22 C77.74 1.89, 86.99 7.59, 94 13.08 C101 18.58, 107.21 25.03, 110.98 33.18 C114.74 41.32, 116.97 52.93, 116.59 61.95 C116.2 70.98, 113.17 79.73, 108.66 87.34 C104.15 94.94, 97.35 102.78, 89.51 107.56 C81.68 112.33, 70.93 115.15, 61.64 115.98 C52.34 116.8, 41.77 115.92, 33.73 112.51 C25.7 109.1, 18.9 102.62, 13.43 95.51 C7.96 88.4, 2.83 78.86, 0.91 69.88 C-1.02 60.9, -0.65 50.45, 1.87 41.61 C4.38 32.77, 8.55 23.72, 15.99 16.85 C23.42 9.98, 40.43 3.09, 46.46 0.39 C52.48 -2.3, 51.84 -0.53, 52.14 0.66 M80.82 5.01 C89.24 7.11, 96.87 12.59, 102.45 19.22 C108.03 25.85, 112.2 36.02, 114.29 44.79 C116.38 53.56, 117.28 63.11, 114.98 71.84 C112.68 80.58, 106.36 90.18, 100.49 97.22 C94.62 104.25, 87.83 111.13, 79.74 114.06 C71.65 116.99, 61.23 115.96, 51.97 114.78 C42.71 113.6, 31.88 111.9, 24.17 106.98 C16.45 102.06, 9.46 93.46, 5.68 85.26 C1.9 77.07, 1.22 67.21, 1.5 57.83 C1.79 48.46, 3.45 37, 7.39 29.03 C11.34 21.06, 17.54 14.69, 25.17 10.03 C32.81 5.37, 44.24 1.83, 53.21 1.08 C62.18 0.33, 74.46 5.07, 79 5.54 C83.54 6.02, 80.89 3.34, 80.47 3.93" stroke="#1e1e1e" stroke-width="1" fill="none"></path></g><g transform="translate(19.400001525878906 106.23927799001035) rotate(0 68.38749694824219 12.5)"><text x="68.38749694824219" y="0" font-family="Virgil, Segoe UI Emoji" font-size="20px" fill="#1e1e1e" text-anchor="middle" style="white-space: pre;" direction="ltr" dominant-baseline="text-before-edge">Cardano Node</text></g><g stroke-linecap="round" transform="translate(69.15331847564357 32.09403499827084) rotate(0 18.63417999847718 34.78380266382396)"><path d="M1.07 0.57 C9.61 -1.19, 17.52 1.89, 36.26 -1.9 M-0.97 0.66 C10.27 -0.65, 21.1 -1.04, 38.03 0.8 M35.91 0.58 C35.43 25.98, 38 52.03, 38.25 67.76 M36.71 0.31 C38.26 28.11, 37.51 54.28, 36.63 69.28 M36.61 71.49 C26.87 71.25, 12.38 68.82, 1.38 68.73 M37.48 68.58 C24.37 69.75, 13.14 70.14, -0.57 70.53 M-0.53 70.86 C-0.74 44.76, 2.25 19.77, 0.6 -1.46 M0.96 68.6 C-0.49 54.99, -0.99 38.77, 0.78 -0.05" stroke="#1e1e1e" stroke-width="1" fill="none"></path></g><g stroke-linecap="round"><g transform="translate(73.92506134065752 39.789985664226435) rotate(0 14.286204665499099 1.1368683772161603e-13)"><path d="M0.34 0.43 C5.06 0.3, 22.88 0.02, 27.75 -0.15 M-0.94 -0.39 C4.21 -0.38, 24.98 1.17, 30.04 1.3" stroke="#1e1e1e" stroke-width="1" fill="none"></path></g></g><mask></mask><g stroke-linecap="round"><g transform="translate(73.01315864188564 46.193783441834796) rotate(0 14.286204665499099 1.1368683772161603e-13)"><path d="M-0.82 -0.15 C4.06 -0.33, 24.89 -0.61, 29.6 -0.6 M0.95 -1.28 C5.73 -1.34, 24.4 0.21, 29.2 0.62" stroke="#1e1e1e" stroke-width="1" fill="none"></path></g></g><mask></mask><g stroke-linecap="round"><g transform="translate(73.13939451811802 52.59758121944401) rotate(0 14.286204665499099 1.1368683772161603e-13)"><path d="M1.03 -0.6 C5.74 -0.59, 22.77 -0.23, 27.44 -0.1 M0.11 1.69 C5.25 1.91, 24.82 1.4, 29.55 1.39" stroke="#1e1e1e" stroke-width="1" fill="none"></path></g></g><mask></mask><g stroke-linecap="round"><g transform="translate(73.05385914934777 59.001378997052825) rotate(0 14.286204665499099 1.1368683772161603e-13)"><path d="M-1.14 -0.1 C3.53 0.03, 24.26 0.04, 29.02 0.18 M0.47 -1.2 C4.92 -0.79, 23.44 1.81, 28.31 1.82" stroke="#1e1e1e" stroke-width="1" fill="none"></path></g></g><mask></mask><g stroke-linecap="round" transform="translate(94.59456809553706 65.92960469310333) rotate(0 3.320581637643386 2.414968463740564)"><path d="M1.19 -0.38 C1.49 -0.4, 2.12 0.46, 3.05 0.82 C3.97 1.19, 6.17 1.42, 6.75 1.81 C7.33 2.2, 6.8 2.75, 6.53 3.17 C6.25 3.59, 5.7 4.14, 5.09 4.33 C4.49 4.52, 3.41 4.46, 2.88 4.33 C2.36 4.19, 2.32 3.88, 1.95 3.53 C1.58 3.19, 0.77 2.5, 0.65 2.25 C0.52 1.99, 0.8 2.45, 1.2 2 C1.61 1.55, 2.74 -0.24, 3.08 -0.45 C3.41 -0.67, 3.23 0.6, 3.22 0.71 M2.28 -1.16 C2.89 -1.37, 2.51 -0.88, 3.4 -0.35 C4.29 0.17, 6.85 1.71, 7.62 2 C8.4 2.29, 8.47 0.82, 8.05 1.37 C7.63 1.92, 6 4.63, 5.11 5.29 C4.22 5.95, 3.12 5.44, 2.72 5.32 C2.32 5.2, 3.1 5.22, 2.7 4.57 C2.31 3.91, 0.87 1.9, 0.37 1.37 C-0.13 0.84, -0.77 1.47, -0.3 1.39 C0.17 1.31, 2.93 0.86, 3.2 0.9 C3.47 0.95, 1.31 1.94, 1.33 1.65" stroke="#1e1e1e" stroke-width="1" fill="none"></path></g><g stroke-opacity="0" fill-opacity="0" stroke-linecap="round" transform="translate(30.408836892285535 134.28799491230507) rotate(0 58.378661581835615 58.378661581835615)"><path d="M45.65 1.22 C53.96 -1.45, 65.57 -0.47, 74.24 2.04 C82.91 4.56, 91.27 10.19, 97.66 16.31 C104.05 22.43, 109.62 30.52, 112.57 38.78 C115.53 47.03, 116.62 56.94, 115.39 65.84 C114.17 74.73, 110.27 84.71, 105.21 92.16 C100.14 99.61, 93 106.46, 85.01 110.56 C77.01 114.65, 66.45 117.05, 57.24 116.74 C48.03 116.42, 37.54 113.07, 29.76 108.67 C21.98 104.27, 15.28 97.83, 10.53 90.33 C5.79 82.83, 2.29 72.55, 1.28 63.68 C0.28 54.81, 1.38 45.32, 4.52 37.12 C7.66 28.92, 12.59 20.64, 20.14 14.5 C27.68 8.37, 44 2.39, 49.78 0.32 C55.56 -1.75, 54.57 1.19, 54.81 2.08 M80 4.3 C88.37 6.8, 97.35 13.42, 103.31 20.57 C109.28 27.71, 114.06 38.31, 115.76 47.16 C117.47 56.01, 115.91 65.1, 113.54 73.68 C111.17 82.27, 107.81 92.09, 101.54 98.69 C95.27 105.29, 84.59 110.4, 75.9 113.3 C67.21 116.19, 58.09 117.45, 49.4 116.07 C40.72 114.68, 31.12 110.63, 23.8 104.96 C16.49 99.3, 9.67 90.21, 5.51 82.1 C1.35 73.99, -1.44 65.21, -1.17 56.28 C-0.89 47.36, 2.42 36.45, 7.16 28.54 C11.91 20.63, 19.34 13.37, 27.31 8.81 C35.28 4.25, 46.12 1.66, 54.98 1.19 C63.84 0.71, 76.08 5.31, 80.46 5.98 C84.85 6.65, 81.76 4.37, 81.3 5.18" stroke="#1e1e1e" stroke-width="1" fill="none"></path></g><g transform="translate(10 211.0244821102467) rotate(0 78.7874984741211 12.5)"><text x="78.7874984741211" y="0" font-family="Virgil, Segoe UI Emoji" font-size="20px" fill="#1e1e1e" text-anchor="middle" style="white-space: pre;" direction="ltr" dominant-baseline="text-before-edge">Mithril Snapshot</text></g><g stroke-linecap="round"><g transform="translate(63.87468294726159 167.36398662594274) rotate(0 21.45164646798804 11.061600613996632)"><path d="M-0.32 0.08 C-0.27 4.93, -0.57 23.67, -0.24 29.16 C0.1 34.66, 0.25 31.73, 1.69 33.05 C3.14 34.37, 6.1 35.96, 8.42 37.07 C10.74 38.18, 12.8 39.29, 15.6 39.73 C18.4 40.17, 22.04 40.1, 25.22 39.72 C28.4 39.34, 32.06 38.62, 34.68 37.42 C37.31 36.23, 39.68 34.31, 40.96 32.54 C42.24 30.78, 42.2 30.3, 42.35 26.81 C42.49 23.32, 41.76 16.87, 41.81 11.62 C41.86 6.38, 42.63 -0.83, 42.66 -4.66 C42.68 -8.48, 42.66 -9.39, 41.94 -11.31 C41.22 -13.22, 40.75 -14.94, 38.34 -16.12 C35.92 -17.3, 31.4 -18.2, 27.45 -18.39 C23.49 -18.59, 18.03 -17.85, 14.59 -17.3 C11.15 -16.75, 9.2 -16.16, 6.79 -15.1 C4.38 -14.03, 1.4 -12.25, 0.13 -10.9 C-1.14 -9.54, -0.63 -8.74, -0.83 -6.98 C-1.03 -5.21, -1.16 -1.36, -1.07 -0.32 M1.71 -0.92 C1.63 3.59, -1.18 21.64, -1.31 27.49 C-1.44 33.34, -0.79 32.47, 0.96 34.16 C2.7 35.86, 6.99 36.75, 9.18 37.66 C11.37 38.58, 11.28 38.91, 14.11 39.63 C16.93 40.36, 22.64 42.55, 26.14 42.02 C29.64 41.48, 32.8 38.07, 35.09 36.44 C37.39 34.82, 38.96 33.52, 39.89 32.25 C40.82 30.98, 40.31 32.24, 40.67 28.82 C41.03 25.4, 41.69 17.65, 42.06 11.72 C42.42 5.8, 42.55 -2.83, 42.85 -6.71 C43.15 -10.58, 44.5 -9.8, 43.85 -11.55 C43.2 -13.3, 41.71 -16.07, 38.93 -17.23 C36.14 -18.39, 31.17 -18.5, 27.13 -18.51 C23.09 -18.51, 18.46 -17.5, 14.71 -17.26 C10.96 -17.02, 6.74 -17.73, 4.62 -17.08 C2.51 -16.42, 2.63 -15.01, 2.04 -13.3 C1.44 -11.59, 1.28 -8.97, 1.05 -6.8 C0.82 -4.62, 0.8 -1.49, 0.64 -0.24" stroke="#1e1e1e" stroke-width="1" fill="none"></path></g></g><mask></mask><g stroke-linecap="round"><g transform="translate(64.20302447483289 157.57590023916555) rotate(0 21.396922880059464 4.432610622211797)"><path d="M-0.24 0.86 C0.59 1.64, 1.91 3.63, 4.65 4.75 C7.39 5.87, 12.56 7.04, 16.19 7.57 C19.82 8.1, 23.22 8.31, 26.44 7.93 C29.66 7.55, 32.86 6.31, 35.51 5.29 C38.16 4.27, 41.14 2.48, 42.35 1.79 M-1.82 0.27 C-1.12 1.21, 0.77 4.73, 3.73 6.08 C6.69 7.43, 12.12 7.96, 15.94 8.37 C19.76 8.78, 23.11 9.05, 26.66 8.54 C30.2 8.04, 34.39 6.6, 37.2 5.36 C40.01 4.12, 42.5 2.03, 43.52 1.12" stroke="#1e1e1e" stroke-width="1" fill="none"></path></g></g><mask></mask><g stroke-linecap="round"><g transform="translate(63.85162402592448 166.83918038769775) rotate(0 21.396922880059464 4.432610622211797)"><path d="M0.05 -0.39 C1.02 0.16, 3.06 2.84, 5.57 4.17 C8.09 5.51, 11.84 6.92, 15.16 7.6 C18.49 8.28, 22.07 8.41, 25.55 8.25 C29.02 8.08, 33.14 7.78, 36 6.61 C38.86 5.43, 41.58 2.18, 42.71 1.18 M-1.38 -1.64 C-0.46 -1.05, 2.51 3.52, 5.14 5.2 C7.76 6.88, 11.01 7.79, 14.37 8.43 C17.73 9.06, 21.37 9.2, 25.3 9.03 C29.23 8.85, 34.82 8.84, 37.95 7.36 C41.08 5.89, 43.17 0.97, 44.08 0.19" stroke="#1e1e1e" stroke-width="1" fill="none"></path></g></g><mask></mask><g stroke-linecap="round"><g transform="translate(63.55080388537601 173.55042549528503) rotate(0 21.396922880059464 4.432610622211797)"><path d="M0.98 -0.97 C1.73 -0.2, 2.33 2.73, 4.55 4.21 C6.76 5.69, 10.69 7.03, 14.27 7.92 C17.86 8.81, 22.36 9.88, 26.04 9.56 C29.72 9.24, 33.57 7.49, 36.36 6 C39.16 4.5, 41.88 1.23, 42.78 0.59 M0.03 1.13 C0.61 2.06, 0.8 3.96, 3.57 5.25 C6.35 6.55, 12.93 8.56, 16.67 8.91 C20.42 9.26, 23.02 7.79, 26.05 7.37 C29.08 6.96, 31.83 7.78, 34.85 6.43 C37.87 5.08, 43.01 0.13, 44.19 -0.72" stroke="#1e1e1e" stroke-width="1" fill="none"></path></g></g><mask></mask><g mask="url(#mask-u1itqNAmIP2HQRToOYeoM)" stroke-linecap="round"><g transform="translate(154.51099370295458 185.31962559705113) rotate(0 49.93715925111684 -24.12312187416208)"><path d="M-1.14 -1.16 C15.57 -9.34, 83.71 -40.4, 100.56 -48.29 M0.46 0.85 C17.05 -7.2, 83.5 -38.75, 99.98 -46.78" stroke="#1e1e1e" stroke-width="1" fill="none"></path></g><g transform="translate(154.51099370295458 185.31962559705113) rotate(0 49.93715925111684 -24.12312187416208)"><path d="M77.08 -24.18 C85.55 -31.84, 91.91 -38.14, 100.86 -46.42 M78.71 -25.21 C84.94 -31.03, 91.26 -38.27, 100.29 -47.31" stroke="#1e1e1e" stroke-width="1" fill="none"></path></g><g transform="translate(154.51099370295458 185.31962559705113) rotate(0 49.93715925111684 -24.12312187416208)"><path d="M68.19 -42.68 C79.65 -44.29, 88.88 -44.63, 100.86 -46.42 M69.83 -43.7 C78.43 -44.4, 87.23 -46.47, 100.29 -47.31" stroke="#1e1e1e" stroke-width="1" fill="none"></path></g></g><mask id="mask-u1itqNAmIP2HQRToOYeoM"><rect x="0" y="0" fill="#fff" width="354.38531220518826" height="333.5658693453753"></rect><rect x="172.91065257260175" y="151.19650372288896" fill="#000" width="63.07500076293945" height="20" opacity="1"></rect></mask><g transform="translate(172.91065257260175 151.19650372288902) rotate(0 31.310345283523134 10.39926876102578)"><text x="31.537500381469727" y="0" font-family="Virgil, Segoe UI Emoji" font-size="16px" fill="#1e1e1e" text-anchor="middle" style="white-space: pre;" direction="ltr" dominant-baseline="text-before-edge">Optional</text></g><g stroke-linecap="round"><g transform="translate(165.30776155429646 98.59244841802268) rotate(0 43.57321196577169 10.530657952251516)"><path d="M0.69 -1.01 C15.51 2.53, 73.75 17.95, 88.22 21.7 M-0.41 1.07 C14.41 4.22, 73.28 16.86, 87.83 19.92" stroke="#1e1e1e" stroke-width="1" fill="none"></path></g><g transform="translate(165.30776155429646 98.59244841802268) rotate(0 43.57321196577169 10.530657952251516)"><path d="M56.44 25.87 C66.33 23.46, 73.17 21.34, 86.94 20.69 M58.79 24.07 C67.34 22.83, 78.57 21.17, 88.22 19.35" stroke="#1e1e1e" stroke-width="1" fill="none"></path></g><g transform="translate(165.30776155429646 98.59244841802268) rotate(0 43.57321196577169 10.530657952251516)"><path d="M60.7 5.8 C69.64 8.25, 75.46 10.95, 86.94 20.69 M63.05 3.99 C70.15 9.38, 79.97 14.35, 88.22 19.35" stroke="#1e1e1e" stroke-width="1" fill="none"></path></g></g><mask></mask><g stroke-linecap="round" transform="translate(380.45418548583984 105) rotate(0 66 20.118926174496636)"><path d="M10.06 0 M10.06 0 C46.91 -2.16, 86.28 0.21, 121.94 0 M10.06 0 C34.76 -0.67, 61.29 0.18, 121.94 0 M121.94 0 C128.33 -1.33, 131.17 4.52, 132 10.06 M121.94 0 C129.13 1.07, 133.75 1.7, 132 10.06 M132 10.06 C132.13 13.9, 130.25 23.13, 132 30.18 M132 10.06 C131.38 17.37, 131.98 23.95, 132 30.18 M132 30.18 C133.5 35.27, 127.34 38.67, 121.94 40.24 M132 30.18 C133.31 38.72, 128.32 38.48, 121.94 40.24 M121.94 40.24 C92.59 39.53, 62.36 42.24, 10.06 40.24 M121.94 40.24 C86.33 41.24, 48.59 40.59, 10.06 40.24 M10.06 40.24 C4.22 39.67, 1.98 38.51, 0 30.18 M10.06 40.24 C3.36 40.5, 1.08 35.14, 0 30.18 M0 30.18 C0.24 22.67, 1.77 14.77, 0 10.06 M0 30.18 C-0.68 22.86, -0.44 14.39, 0 10.06 M0 10.06 C1.45 3.24, 3.17 0.25, 10.06 0 M0 10.06 C-1.84 4.8, 1.72 -0.51, 10.06 0" stroke="#1e1e1e" stroke-width="1" fill="none"></path></g><g transform="translate(396.2941854858399 116.33369127516778) rotate(0 52.349998474121094 11.194518128176924)"><text x="0" y="0" font-family="Virgil, Segoe UI Emoji" font-size="17.911229005083094px" fill="#1e1e1e" text-anchor="start" style="white-space: pre;" direction="ltr" dominant-baseline="text-before-edge">Follow Task</text></g><g stroke-linecap="round" transform="translate(605.4541854858398 108) rotate(0 70.5 20)"><path d="M10 0 M10 0 C47.11 0.68, 85.6 -1.27, 131 0 M10 0 C38.96 -0.25, 69.64 -1.55, 131 0 M131 0 C138.76 1.41, 139.19 2.64, 141 10 M131 0 C135.39 -0.31, 143.23 1.37, 141 10 M141 10 C140.97 14.3, 139.7 19.16, 141 30 M141 10 C140.54 16.97, 140.26 24.23, 141 30 M141 30 C139.42 34.94, 138.21 39.5, 131 40 M141 30 C140.13 37.68, 139.9 39.65, 131 40 M131 40 C93.3 39.99, 58.28 40.74, 10 40 M131 40 C93.07 40.04, 53.84 40.1, 10 40 M10 40 C2.19 39.41, 0.08 35.42, 0 30 M10 40 C3.71 42.12, 1.64 37.07, 0 30 M0 30 C0.62 22.72, 0.68 15.96, 0 10 M0 30 C-0.9 24.42, -0.06 19.94, 0 10 M0 10 C-1.41 5.04, 2.28 -0.46, 10 0 M0 10 C-1.37 3.61, 4.2 0.64, 10 0" stroke="#1e1e1e" stroke-width="1" fill="none"></path></g><g transform="translate(637.8791847229004 115.5) rotate(0 38.07500076293945 12.5)"><text x="38.07500076293945" y="0" font-family="Virgil, Segoe UI Emoji" font-size="20px" fill="#1e1e1e" text-anchor="middle" style="white-space: pre;" direction="ltr" dominant-baseline="text-before-edge">Follower</text></g><g stroke-linecap="round" transform="translate(257.45418548583984 10) rotate(0 9 107.5)"><path d="M4.5 0 M4.5 0 C5.93 0.12, 8.51 0.52, 13.5 0 M4.5 0 C7.51 0.34, 10.52 0.24, 13.5 0 M13.5 0 C17.47 -1.74, 18.71 1.84, 18 4.5 M13.5 0 C18.56 0.89, 19 -0.04, 18 4.5 M18 4.5 C17.19 57.63, 14.82 113.7, 18 210.5 M18 4.5 C18.18 53.01, 18.96 101.32, 18 210.5 M18 210.5 C16.19 214.9, 16.74 213.09, 13.5 215 M18 210.5 C15.9 212.87, 14.56 215.97, 13.5 215 M13.5 215 C10.84 215.51, 10.27 215.37, 4.5 215 M13.5 215 C11.41 215.33, 9.59 214.76, 4.5 215 M4.5 215 C0.07 215.19, 1.99 215.4, 0 210.5 M4.5 215 C1.49 215.53, 0.12 214.52, 0 210.5 M0 210.5 C-1.26 128.78, 1.3 45.82, 0 4.5 M0 210.5 C-0.9 133.36, -0.8 55.72, 0 4.5 M0 4.5 C-0.68 0.7, 0.16 1.57, 4.5 0 M0 4.5 C0.67 2.18, 0.83 -1.84, 4.5 0" stroke="#1e1e1e" stroke-width="1" fill="none"></path></g><g stroke-linecap="round"><g transform="translate(287.45418548583984 123.5791003745855) rotate(0 44 0.15806213802315483)"><path d="M0.24 0.44 C15 0.4, 74.59 -0.76, 89.13 -0.6 M-1.1 -0.38 C13.56 -0.26, 74.18 0.45, 88.78 0.46" stroke="#1e1e1e" stroke-width="1" fill="none"></path></g><g transform="translate(287.45418548583984 123.5791003745855) rotate(0 44 0.15806213802315483)"><path d="M61.24 12.41 C68.8 6.17, 81.95 5.11, 88.04 1.4 M61.25 10.66 C67.35 7.9, 72.24 5.81, 88.24 0.72" stroke="#1e1e1e" stroke-width="1" fill="none"></path></g><g transform="translate(287.45418548583984 123.5791003745855) rotate(0 44 0.15806213802315483)"><path d="M61.39 -8.11 C68.84 -7.25, 81.93 -1.21, 88.04 1.4 M61.39 -9.86 C67.51 -8.02, 72.36 -5.5, 88.24 0.72" stroke="#1e1e1e" stroke-width="1" fill="none"></path></g></g><mask></mask><g stroke-linecap="round"><g transform="translate(600.4541854858398 123.78740266901161) rotate(0 -38.5 -0.12253187347047856)"><path d="M0.53 0.09 C-12.08 0.04, -62.86 -0.05, -75.93 0.06 M-0.65 -0.9 C-13.3 -1.36, -63.85 -1.87, -76.31 -1.9" stroke="#1e1e1e" stroke-width="1" fill="none"></path></g><g transform="translate(600.4541854858398 123.78740266901161) rotate(0 -38.5 -0.12253187347047856)"><path d="M-47.89 -10.17 C-55.41 -10.5, -62.16 -5.84, -74.97 -1.34 M-47.83 -12.73 C-54.73 -9.26, -61.81 -6.73, -76.16 -1.03" stroke="#1e1e1e" stroke-width="1" fill="none"></path></g><g transform="translate(600.4541854858398 123.78740266901161) rotate(0 -38.5 -0.12253187347047856)"><path d="M-48.04 10.35 C-55.58 4.29, -62.29 3.2, -74.97 -1.34 M-47.98 7.79 C-54.97 6.04, -62.01 3.34, -76.16 -1.03" stroke="#1e1e1e" stroke-width="1" fill="none"></path></g></g><mask></mask><g stroke-linecap="round"><g transform="translate(525.2544642974747 136.67747262638784) rotate(0 37.12261054997339 0.6131840798273629)"><path d="M0.26 0.66 C12.92 1.03, 62.9 1.91, 75.07 2.15 M-1.06 -0.04 C11.59 0.01, 61.77 0.48, 74.56 0.51" stroke="#1e1e1e" stroke-width="1" fill="none"></path></g><g transform="translate(525.2544642974747 136.67747262638784) rotate(0 37.12261054997339 0.6131840798273629)"><path d="M47.4 11.96 C54.26 6.61, 60.52 7.27, 74.21 1.55 M46.88 10.44 C53.85 8.62, 61.13 4.54, 74.29 0.82" stroke="#1e1e1e" stroke-width="1" fill="none"></path></g><g transform="translate(525.2544642974747 136.67747262638784) rotate(0 37.12261054997339 0.6131840798273629)"><path d="M47.52 -8.56 C54.35 -9.25, 60.58 -3.93, 74.21 1.55 M47.01 -10.08 C53.88 -6.6, 61.12 -5.38, 74.29 0.82" stroke="#1e1e1e" stroke-width="1" fill="none"></path></g></g><mask></mask><g stroke-linecap="round"><g transform="translate(244.45418548583984 102) rotate(0 -37.5 -8.5)"><path d="M0.39 -1.18 C-12.18 -3.9, -62.25 -14.52, -74.64 -17.07 M-0.86 0.81 C-13.63 -1.63, -63.18 -12.34, -75.4 -15.57" stroke="#1e1e1e" stroke-width="1" fill="none"></path></g><g transform="translate(244.45418548583984 102) rotate(0 -37.5 -8.5)"><path d="M-47.57 -18.49 C-56.67 -15.97, -66.66 -17.63, -75.33 -15.97 M-45.14 -19.88 C-53.35 -18.04, -62.13 -17.52, -74.92 -14.59" stroke="#1e1e1e" stroke-width="1" fill="none"></path></g><g transform="translate(244.45418548583984 102) rotate(0 -37.5 -8.5)"><path d="M-52.29 1.49 C-59.53 -3.33, -67.78 -12.31, -75.33 -15.97 M-49.85 0.09 C-56.57 -3.62, -64.04 -8.61, -74.92 -14.59" stroke="#1e1e1e" stroke-width="1" fill="none"></path></g></g><mask></mask></svg>