<svg version="1.1" xmlns="http://www.w3.org/2000/svg" viewBox="0 0 647 428" width="647" height="428">
  <!-- svg-source:excalidraw -->
  
  <defs>
    <style class="style-fonts">
      @font-face {
        font-family: "Virgil";
        src: url("https://unpkg.com/@excalidraw/excalidraw@0.15.3/dist/excalidraw-assets/Virgil.woff2");
      }
      @font-face {
        font-family: "Cascadia";
        src: url("https://unpkg.com/@excalidraw/excalidraw@0.15.3/dist/excalidraw-assets/Cascadia.woff2");
      }
    </style>
  </defs>
  <rect x="0" y="0" width="647" height="428" fill="#ffffff"></rect><g stroke-linecap="round" transform="translate(10 16) rotate(0 70.5 35.5)"><path d="M52.12 0.8 C62.46 -1.26, 76.26 -1.05, 87.63 0.5 C99.01 2.05, 111.79 5.93, 120.36 10.1 C128.93 14.27, 136.03 19.81, 139.04 25.5 C142.05 31.18, 141.45 38.42, 138.4 44.23 C135.35 50.04, 129.11 56.13, 120.73 60.35 C112.36 64.57, 99.69 67.94, 88.16 69.53 C76.64 71.12, 62.84 71.41, 51.58 69.91 C40.32 68.41, 28.67 64.67, 20.63 60.55 C12.59 56.42, 6.43 50.71, 3.35 45.16 C0.27 39.6, -0.75 32.98, 2.13 27.2 C5.02 21.43, 11.21 14.89, 20.68 10.52 C30.15 6.16, 51.37 2.67, 58.97 0.99 C66.57 -0.68, 65.97 -0.03, 66.29 0.5 M79.84 1.22 C91.47 1.13, 105.62 3.29, 114.74 6.67 C123.87 10.05, 130.12 16.01, 134.61 21.49 C139.1 26.98, 142.95 33.52, 141.7 39.57 C140.46 45.63, 134.46 52.94, 127.16 57.83 C119.86 62.72, 109.04 66.58, 97.9 68.91 C86.76 71.25, 72.17 72.63, 60.3 71.82 C48.43 71.01, 35.67 67.99, 26.68 64.04 C17.69 60.08, 10.83 53.53, 6.36 48.1 C1.88 42.66, -1.58 37.17, -0.15 31.44 C1.27 25.72, 7.41 18.33, 14.91 13.76 C22.41 9.2, 33.8 6.05, 44.82 4.04 C55.84 2.04, 75 2.08, 81.03 1.73 C87.05 1.38, 81.16 1.67, 80.97 1.94" stroke="#1971c2" stroke-width="2" fill="none"></path></g><g transform="translate(39.91147268928785 31.397709267877588) rotate(0 40.73749923706055 20)"><text x="40.73749923706055" y="0" font-family="Virgil, Segoe UI Emoji" font-size="16px" fill="#1971c2" text-anchor="middle" style="white-space: pre;" direction="ltr" dominant-baseline="text-before-edge">Block</text><text x="40.73749923706055" y="20" font-family="Virgil, Segoe UI Emoji" font-size="16px" fill="#1971c2" text-anchor="middle" style="white-space: pre;" direction="ltr" dominant-baseline="text-before-edge">Requested</text></g><g stroke-linecap="round"><g transform="translate(156.89658098798145 48.25085268093528) rotate(0 39.102561079012844 -0.6786141183627024)"><path d="M0.37 -0.16 C13.39 -0.41, 65.1 -0.64, 78.25 -0.85 M-0.9 -1.29 C11.96 -1.95, 63.99 -2.9, 77.33 -2.7" stroke="#1e1e1e" stroke-width="2" fill="none"></path></g><g transform="translate(156.89658098798145 48.25085268093528) rotate(0 39.102561079012844 -0.6786141183627024)"><path d="M48.92 7.77 C58.69 6.21, 66.44 -0.36, 76.54 -3.15 M48.45 7.67 C58.17 3.45, 68.54 -0.31, 77.27 -2.77" stroke="#1e1e1e" stroke-width="2" fill="none"></path></g><g transform="translate(156.89658098798145 48.25085268093528) rotate(0 39.102561079012844 -0.6786141183627024)"><path d="M48.82 -12.75 C58.73 -7.96, 66.51 -8.17, 76.54 -3.15 M48.35 -12.86 C58 -10.35, 68.4 -7.38, 77.27 -2.77" stroke="#1e1e1e" stroke-width="2" fill="none"></path></g></g><mask></mask><g stroke-linecap="round" transform="translate(239 20) rotate(0 29.5 25.5)"><path d="M37.5 6.5 M37.5 6.5 C38.95 9.72, 41.62 13.23, 51.5 19.5 M37.5 6.5 C43.08 10.85, 48.15 17.17, 51.5 19.5 M51.5 19.5 C59.05 24.26, 59.83 25.89, 51.5 32.5 M51.5 19.5 C57.18 27.9, 58.8 26.78, 51.5 32.5 M51.5 32.5 C47.1 34.44, 43.68 36.82, 37.5 44.5 M51.5 32.5 C46.81 37.47, 41.82 41.2, 37.5 44.5 M37.5 44.5 C29.47 51.91, 29.19 51.08, 22.5 44.5 M37.5 44.5 C30.62 49.04, 31.69 49.81, 22.5 44.5 M22.5 44.5 C19.51 42.37, 14.81 36.21, 7.5 32.5 M22.5 44.5 C18.75 40.96, 14.07 37.8, 7.5 32.5 M7.5 32.5 C-1.71 25.93, -0.17 25.35, 7.5 19.5 M7.5 32.5 C-1.38 25.39, 0.68 27.74, 7.5 19.5 M7.5 19.5 C13.52 15.24, 17.94 10.94, 22.5 6.5 M7.5 19.5 C12.35 15.85, 17.76 10.06, 22.5 6.5 M22.5 6.5 C28.79 -1.41, 31.35 -0.13, 37.5 6.5 M22.5 6.5 C31.86 0.9, 31.09 -0.18, 37.5 6.5" stroke="#1e1e1e" stroke-width="2" fill="none"></path></g><g mask="url(#mask-CnNNO9M1pW8U5PYn7_Z6z)" stroke-linecap="round"><g transform="translate(305.8848091896191 48.220014992573624) rotate(0 88.05759540519045 -2.110007496286812)"><path d="M0.14 0.59 C29.62 0.2, 147.49 -2.45, 176.91 -3.16 M-1.25 -0.15 C28.14 -0.77, 146.81 -3.8, 176.38 -4.73" stroke="#1e1e1e" stroke-width="2" fill="none"></path></g><g transform="translate(305.8848091896191 48.220014992573624) rotate(0 88.05759540519045 -2.110007496286812)"><path d="M149.47 7.64 C158.76 3.89, 166.38 0.14, 174.84 -2.82 M147.53 6.33 C158.52 1.22, 168.81 -2.39, 176.06 -4.59" stroke="#1e1e1e" stroke-width="2" fill="none"></path></g><g transform="translate(305.8848091896191 48.220014992573624) rotate(0 88.05759540519045 -2.110007496286812)"><path d="M148.89 -12.87 C158.21 -10.42, 166 -7.98, 174.84 -2.82 M146.96 -14.19 C158.14 -11.49, 168.65 -7.31, 176.06 -4.59" stroke="#1e1e1e" stroke-width="2" fill="none"></path></g></g><mask id="mask-CnNNO9M1pW8U5PYn7_Z6z"><rect x="0" y="0" fill="#fff" width="582" height="152.44002998514725"></rect><rect x="344.69240459480966" y="26.110007496286812" fill="#000" width="98.5" height="40" opacity="1"></rect></mask><g transform="translate(344.69240459480943 26.110007496286812) rotate(0 49.023116031740756 20.039873580704437)"><text x="49.25" y="0" font-family="Virgil, Segoe UI Emoji" font-size="16px" fill="#1e1e1e" text-anchor="middle" style="white-space: pre;" direction="ltr" dominant-baseline="text-before-edge">Block found </text><text x="49.25" y="20" font-family="Virgil, Segoe UI Emoji" font-size="16px" fill="#1e1e1e" text-anchor="middle" style="white-space: pre;" direction="ltr" dominant-baseline="text-before-edge">in snapshot</text></g><g mask="url(#mask-LQiHtcciduFNh6X50ASu3)" stroke-linecap="round"><g transform="translate(266.8490937212557 75.46838082928491) rotate(0 0.19882903254114126 61.76580958535757)"><path d="M0.9 0.83 C0.84 21.37, -0.05 103.02, -0.22 123.56 M-0.09 0.23 C0.24 20.94, 2.34 104.82, 2.17 125.11" stroke="#1e1e1e" stroke-width="2" fill="none"></path></g><g transform="translate(266.8490937212557 75.46838082928491) rotate(0 0.19882903254114126 61.76580958535757)"><path d="M-7.01 96 C-5 104.81, -0.92 116.33, 0.71 126.3 M-8.3 97.75 C-3.53 107.91, -0.86 118.52, 1.35 124.45" stroke="#1e1e1e" stroke-width="2" fill="none"></path></g><g transform="translate(266.8490937212557 75.46838082928491) rotate(0 0.19882903254114126 61.76580958535757)"><path d="M13.51 95.78 C9.16 104.81, 6.89 116.4, 0.71 126.3 M12.22 97.52 C9.07 107.81, 3.84 118.51, 1.35 124.45" stroke="#1e1e1e" stroke-width="2" fill="none"></path></g></g><mask id="mask-LQiHtcciduFNh6X50ASu3"><rect x="0" y="0" fill="#fff" width="367.246751786338" height="299.00000000000006"></rect><rect x="205.16042199085746" y="117.23419041464251" fill="#000" width="123.7750015258789" height="40" opacity="1"></rect></mask><g transform="translate(205.16042199085746 117.23419041464251) rotate(0 62.66583300776847 20.90319311141033)"><text x="61.88750076293945" y="0" font-family="Virgil, Segoe UI Emoji" font-size="16px" fill="#1e1e1e" text-anchor="middle" style="white-space: pre;" direction="ltr" dominant-baseline="text-before-edge">Block not found</text><text x="61.88750076293945" y="20" font-family="Virgil, Segoe UI Emoji" font-size="16px" fill="#1e1e1e" text-anchor="middle" style="white-space: pre;" direction="ltr" dominant-baseline="text-before-edge">in snapshot</text></g><g stroke-linecap="round" transform="translate(490 10) rotate(0 73 30.5)"><path d="M15.25 0 M15.25 0 C57.1 0.33, 98.94 -1.5, 130.75 0 M15.25 0 C56.88 -1.17, 96.4 -1.05, 130.75 0 M130.75 0 C141.53 0.41, 147.86 5.5, 146 15.25 M130.75 0 C140.8 1.25, 148.25 7.31, 146 15.25 M146 15.25 C147.16 24.01, 144.65 37.08, 146 45.75 M146 15.25 C146.17 23.05, 145.54 33.45, 146 45.75 M146 45.75 C146.01 53.97, 141.41 59.96, 130.75 61 M146 45.75 C145.28 54.58, 140.56 61.18, 130.75 61 M130.75 61 C93.33 59.7, 59.14 62.38, 15.25 61 M130.75 61 C95.98 60.86, 60.42 61.56, 15.25 61 M15.25 61 C3.69 60.08, 1.28 56.17, 0 45.75 M15.25 61 C4.16 62.96, -1.48 57.47, 0 45.75 M0 45.75 C0.81 34.75, -0.42 26.27, 0 15.25 M0 45.75 C0.82 37.92, -0.31 29.18, 0 15.25 M0 15.25 C1.76 4.35, 7.04 0.41, 15.25 0 M0 15.25 C0.04 4.64, 6.4 -1.43, 15.25 0" stroke="#1e1e1e" stroke-width="2" fill="none"></path></g><g transform="translate(507.76250076293945 20.5) rotate(0 55.23749923706055 20)"><text x="55.23749923706055" y="0" font-family="Virgil, Segoe UI Emoji" font-size="16px" fill="#1e1e1e" text-anchor="middle" style="white-space: pre;" direction="ltr" dominant-baseline="text-before-edge">Read block</text><text x="55.23749923706055" y="20" font-family="Virgil, Segoe UI Emoji" font-size="16px" fill="#1e1e1e" text-anchor="middle" style="white-space: pre;" direction="ltr" dominant-baseline="text-before-edge">from snapshot</text></g><g stroke-linecap="round" transform="translate(547 121) rotate(0 29 22.5)"><path d="M37.5 5.75 M37.5 5.75 C41.41 10.17, 46.51 12.45, 50.5 17.25 M37.5 5.75 C43.43 9.25, 47.49 14.96, 50.5 17.25 M50.5 17.25 C57.13 23.76, 56.54 23.58, 50.5 28.75 M50.5 17.25 C57.82 23.35, 58.84 22.55, 50.5 28.75 M50.5 28.75 C47.24 30.07, 43.4 35.35, 37.5 39.25 M50.5 28.75 C48.26 31.25, 45.05 33.96, 37.5 39.25 M37.5 39.25 C29.52 44.82, 31.85 44.18, 22.5 39.25 M37.5 39.25 C28.96 43.68, 30.5 45.36, 22.5 39.25 M22.5 39.25 C16.88 35.31, 11.77 33.52, 7.5 28.75 M22.5 39.25 C17.47 35.5, 11.04 31.29, 7.5 28.75 M7.5 28.75 C-1.71 24.95, 0.47 23.71, 7.5 17.25 M7.5 28.75 C-1.03 24.68, -0.78 21.82, 7.5 17.25 M7.5 17.25 C13.95 14.87, 17.59 7.05, 22.5 5.75 M7.5 17.25 C10.75 15.03, 14.49 11.18, 22.5 5.75 M22.5 5.75 C29.05 0.78, 28.86 1.22, 37.5 5.75 M22.5 5.75 C28.46 1.28, 30.01 0, 37.5 5.75" stroke="#1e1e1e" stroke-width="2" fill="none"></path></g><g stroke-linecap="round"><g transform="translate(574.8977329749378 78) rotate(0 1.2326950712958933 19.131152666934952)"><path d="M0.9 0.69 C1.29 6.95, 1.7 30.96, 2.03 37.25 M-0.09 0.01 C0.13 6.41, 0.46 31.62, 0.86 38.25" stroke="#1e1e1e" stroke-width="2" fill="none"></path></g><g transform="translate(574.8977329749378 78) rotate(0 1.2326950712958933 19.131152666934952)"><path d="M-5.2 19.78 C-6 25.94, -2.13 28.59, 0.19 36.61 M-6.74 21.17 C-3.74 27.02, 0.19 34.78, 0.01 38.65" stroke="#1e1e1e" stroke-width="2" fill="none"></path></g><g transform="translate(574.8977329749378 78) rotate(0 1.2326950712958933 19.131152666934952)"><path d="M7.9 19.33 C3.5 25.72, 3.77 28.48, 0.19 36.61 M6.37 20.73 C4.16 26.8, 2.88 34.73, 0.01 38.65" stroke="#1e1e1e" stroke-width="2" fill="none"></path></g></g><mask></mask><g mask="url(#mask-f3u41ouEQCC91z1jio4Mx)" stroke-linecap="round"><g transform="translate(578 169) rotate(0 1.5 42)"><path d="M-0.76 -0.93 C-0.55 4.8, 0.97 20.97, 1.53 35.21 C2.08 49.46, 2.21 76.53, 2.58 84.53 M1.04 1.2 C1.11 6.46, 0.77 19.66, 0.86 33.2 C0.95 46.75, 1.01 74.02, 1.59 82.46" stroke="#1e1e1e" stroke-width="2" fill="none"></path></g><g transform="translate(578 169) rotate(0 1.5 42)"><path d="M-9.11 60.6 C-4.08 66.44, -0.59 75.74, 0.27 83.72 M-6.65 60.2 C-3.82 66.79, -1.15 74.47, 0.66 81.63" stroke="#1e1e1e" stroke-width="2" fill="none"></path></g><g transform="translate(578 169) rotate(0 1.5 42)"><path d="M7.65 60.03 C7.25 65.95, 5.31 75.43, 0.27 83.72 M10.11 59.63 C7.28 66.25, 4.27 74.12, 0.66 81.63" stroke="#1e1e1e" stroke-width="2" fill="none"></path></g></g><mask id="mask-f3u41ouEQCC91z1jio4Mx"><rect x="0" y="0" fill="#fff" width="681" height="353"></rect><rect x="525.5125007629395" y="194" fill="#000" width="106.9749984741211" height="20" opacity="1"></rect></mask><g transform="translate(525.5125007629395 194) rotate(0 53.39712821543213 16.80041497647761)"><text x="53.48749923706055" y="0" font-family="Virgil, Segoe UI Emoji" font-size="16px" fill="#1e1e1e" text-anchor="middle" style="white-space: pre;" direction="ltr" dominant-baseline="text-before-edge">Read success</text></g><g stroke-linecap="round" transform="translate(207 212) rotate(0 60 37.5)"><path d="M18.75 0 M18.75 0 C38.97 -1.24, 58.42 -2.48, 101.25 0 M18.75 0 C37.94 0.01, 56.5 -0.06, 101.25 0 M101.25 0 C114.76 0.73, 119.99 5.62, 120 18.75 M101.25 0 C114.58 -0.74, 117.89 7.79, 120 18.75 M120 18.75 C121.25 29.9, 121.6 38.35, 120 56.25 M120 18.75 C120.6 29.99, 119.06 42.65, 120 56.25 M120 56.25 C121.08 70.07, 114.36 74.95, 101.25 75 M120 56.25 C121.56 67.22, 114.03 76.63, 101.25 75 M101.25 75 C76.63 73.21, 53.69 76.63, 18.75 75 M101.25 75 C72.21 74.94, 43.29 74.75, 18.75 75 M18.75 75 C5.55 76.55, 0.47 68.91, 0 56.25 M18.75 75 C4.31 74.25, 0.23 70.92, 0 56.25 M0 56.25 C0.06 46.15, -0.46 30.77, 0 18.75 M0 56.25 C0.42 42.13, 0.46 30.08, 0 18.75 M0 18.75 C1.34 6.04, 6.82 -1.74, 18.75 0 M0 18.75 C1.62 4.06, 4.18 0.39, 18.75 0" stroke="#1e1e1e" stroke-width="2" fill="none"></path></g><g transform="translate(212.7249984741211 229.5) rotate(0 54.275001525878906 20)"><text x="54.275001525878906" y="0" font-family="Virgil, Segoe UI Emoji" font-size="16px" fill="#1e1e1e" text-anchor="middle" style="white-space: pre;" direction="ltr" dominant-baseline="text-before-edge">Request block</text><text x="54.275001525878906" y="20" font-family="Virgil, Segoe UI Emoji" font-size="16px" fill="#1e1e1e" text-anchor="middle" style="white-space: pre;" direction="ltr" dominant-baseline="text-before-edge">from network</text></g><g mask="url(#mask-_VP1HJODJHulRGJSpTb5G)" stroke-linecap="round"><g transform="translate(538 142) rotate(0 -101 49)"><path d="M-0.28 -1.06 C-23.37 1.33, -106.11 -1.46, -139.74 15.19 C-173.37 31.84, -191.72 85.07, -202.05 98.82 M1.77 1 C-20.83 3.01, -103.31 -2.29, -137.41 13.69 C-171.51 29.68, -192.19 82.75, -202.84 96.91" stroke="#1e1e1e" stroke-width="2" fill="none"></path></g><g transform="translate(538 142) rotate(0 -101 49)"><path d="M-199.24 66.16 C-196.37 73.26, -198.07 79.83, -203.35 96.9 M-196.82 66.7 C-199.54 78.74, -201.76 89.04, -202.85 96.1" stroke="#1e1e1e" stroke-width="2" fill="none"></path></g><g transform="translate(538 142) rotate(0 -101 49)"><path d="M-181.52 76.51 C-182.3 81.48, -187.58 85.96, -203.35 96.9 M-179.1 77.05 C-188.33 85.4, -197.05 91.91, -202.85 96.1" stroke="#1e1e1e" stroke-width="2" fill="none"></path></g></g><mask id="mask-_VP1HJODJHulRGJSpTb5G"><rect x="0" y="0" fill="#fff" width="840" height="340"></rect><rect x="341.8125" y="136" fill="#000" width="114.375" height="40" opacity="1"></rect></mask><g transform="translate(341.8125 136) rotate(0 95.65717796684243 54.88144000470638)"><text x="57.1875" y="0" font-family="Virgil, Segoe UI Emoji" font-size="16px" fill="#1e1e1e" text-anchor="middle" style="white-space: pre;" direction="ltr" dominant-baseline="text-before-edge">Failed to read</text><text x="57.1875" y="20" font-family="Virgil, Segoe UI Emoji" font-size="16px" fill="#1e1e1e" text-anchor="middle" style="white-space: pre;" direction="ltr" dominant-baseline="text-before-edge">from snapshot</text></g><g stroke-linecap="round"><g transform="translate(273.1812579789471 300) rotate(0 1.2655597550498214 22.001654405656666)"><path d="M-0.68 0.68 C-0.15 7.85, 1.96 36.33, 2.33 43.54 M1.17 -0.01 C1.6 7.29, 0.82 37.3, 1.27 44.83" stroke="#1e1e1e" stroke-width="2" fill="none"></path></g><g transform="translate(273.1812579789471 300) rotate(0 1.2655597550498214 22.001654405656666)"><path d="M-5.38 23.87 C-5.43 27.28, -3.02 32.75, 1.91 46.34 M-5.66 23.9 C-4.23 30.89, -1.06 35.96, 0.96 44.51" stroke="#1e1e1e" stroke-width="2" fill="none"></path></g><g transform="translate(273.1812579789471 300) rotate(0 1.2655597550498214 22.001654405656666)"><path d="M9.69 23.69 C6.2 27.06, 5.16 32.56, 1.91 46.34 M9.41 23.72 C6.59 30.67, 5.5 35.79, 0.96 44.51" stroke="#1e1e1e" stroke-width="2" fill="none"></path></g></g><mask></mask><g stroke-linecap="round" transform="translate(208 347) rotate(0 65 35.5)"><path d="M62.26 0.11 C72.36 -0.63, 84.28 1.59, 93.75 4.33 C103.23 7.07, 113.21 11.82, 119.12 16.56 C125.03 21.29, 128.61 26.94, 129.2 32.76 C129.79 38.58, 127.35 46.14, 122.66 51.48 C117.96 56.82, 110.06 61.48, 101.01 64.8 C91.97 68.12, 79.2 70.99, 68.38 71.41 C57.55 71.83, 45.7 70.22, 36.08 67.33 C26.46 64.44, 16.72 58.94, 10.65 54.07 C4.58 49.2, 0.4 43.82, -0.34 38.1 C-1.07 32.37, 1.43 25.15, 6.24 19.73 C11.05 14.32, 17.61 9.03, 28.51 5.62 C39.41 2.21, 62.97 0.01, 71.65 -0.71 C80.33 -1.43, 80.86 0.52, 80.57 1.29 M75.34 -0.83 C85.95 -0.3, 98.86 3.17, 107.52 7.18 C116.19 11.19, 123.55 17.63, 127.32 23.24 C131.09 28.84, 132.08 34.89, 130.17 40.83 C128.25 46.76, 122.82 54.27, 115.81 58.84 C108.81 63.42, 98.48 66.12, 88.14 68.28 C77.8 70.43, 64.68 72.53, 53.78 71.78 C42.87 71.04, 31.25 68.09, 22.71 63.8 C14.17 59.51, 6 51.63, 2.53 46.06 C-0.95 40.48, -0.49 35.72, 1.85 30.36 C4.19 25.01, 9.5 18.59, 16.57 13.92 C23.64 9.26, 34.39 4.7, 44.29 2.38 C54.19 0.05, 70.7 0.03, 75.95 -0.01 C81.2 -0.04, 76.13 1.68, 75.8 2.16" stroke="#1e1e1e" stroke-width="2" fill="none"></path></g><g transform="translate(247.08805845993493 362.39770926787753) rotate(0 25.950000762939453 20)"><text x="25.950000762939453" y="0" font-family="Virgil, Segoe UI Emoji" font-size="16px" fill="#1e1e1e" text-anchor="middle" style="white-space: pre;" direction="ltr" dominant-baseline="text-before-edge">Return</text><text x="25.950000762939453" y="20" font-family="Virgil, Segoe UI Emoji" font-size="16px" fill="#1e1e1e" text-anchor="middle" style="white-space: pre;" direction="ltr" dominant-baseline="text-before-edge">result</text></g><g stroke-linecap="round" transform="translate(526 264) rotate(0 55.5 35.5)"><path d="M75.43 2.34 C84.61 4.06, 93.09 9.74, 98.92 14.95 C104.75 20.17, 109.63 27.29, 110.41 33.64 C111.2 39.98, 108.44 47.65, 103.65 53.04 C98.85 58.43, 90.28 62.87, 81.63 65.97 C72.99 69.07, 61.48 72.08, 51.77 71.62 C42.05 71.17, 31.26 67.04, 23.34 63.24 C15.42 59.43, 7.84 54.57, 4.24 48.8 C0.63 43.03, -0.28 35.1, 1.72 28.62 C3.72 22.15, 9.36 14.52, 16.25 9.96 C23.13 5.4, 32.77 2.37, 43.02 1.25 C53.28 0.14, 71.65 2.94, 77.79 3.27 C83.93 3.6, 80.22 2.73, 79.88 3.26 M32.67 2.77 C40.9 -0.5, 52.15 -0.86, 61.71 0.07 C71.26 1, 82.39 4.09, 90 8.35 C97.62 12.61, 104.47 19.73, 107.42 25.64 C110.36 31.54, 110 37.75, 107.69 43.76 C105.39 49.77, 100.66 57.46, 93.59 61.69 C86.51 65.92, 75.19 67.93, 65.24 69.14 C55.3 70.35, 43.04 71.05, 33.91 68.94 C24.79 66.83, 16.18 61.79, 10.48 56.5 C4.77 51.2, 0.24 43.98, -0.32 37.14 C-0.87 30.31, 1.63 21.33, 7.13 15.48 C12.64 9.64, 28.5 4.19, 32.71 2.07 C36.93 -0.04, 32.19 2.18, 32.43 2.81" stroke="#1e1e1e" stroke-width="2" fill="none"></path></g><g transform="translate(551.3180736441466 279.3977092678776) rotate(0 29.9375 20.00000000000003)"><text x="29.9375" y="0" font-family="Virgil, Segoe UI Emoji" font-size="16px" fill="#1e1e1e" text-anchor="middle" style="white-space: pre;" direction="ltr" dominant-baseline="text-before-edge">Return </text><text x="29.9375" y="20" font-family="Virgil, Segoe UI Emoji" font-size="16px" fill="#1e1e1e" text-anchor="middle" style="white-space: pre;" direction="ltr" dominant-baseline="text-before-edge">block</text></g><g stroke-linecap="round" transform="translate(80 342) rotate(0 40 32)"><path d="M16 0 M16 0 C31.94 -0.09, 46.1 -1.38, 64 0 M64 0 C73.15 0.03, 78.12 4.06, 80 16 M80 16 C81.64 25.48, 79.84 38.81, 80 48 M80 48 C78.54 56.83, 72.83 64.23, 64 64 M64 64 C51.01 63.26, 38.98 65.25, 16 64 M16 64 C7.04 65.66, -0.95 57.52, 0 48 M0 48 C-0.64 33.23, -1.88 21.08, 0 16 M0 16 C-0.34 6.34, 5.85 -1.99, 16 0" stroke="#e03131" stroke-width="2.5" fill="none" stroke-dasharray="1.5 8"></path></g><g transform="translate(86.875 354) rotate(0 33.125 20)"><text x="33.125" y="0" font-family="Virgil, Segoe UI Emoji" font-size="16px" fill="#e03131" text-anchor="middle" style="white-space: pre;" direction="ltr" dominant-baseline="text-before-edge">May</text><text x="33.125" y="20" font-family="Virgil, Segoe UI Emoji" font-size="16px" fill="#e03131" text-anchor="middle" style="white-space: pre;" direction="ltr" dominant-baseline="text-before-edge">fail here</text></g><g stroke-linecap="round"><g transform="translate(158 339) rotate(0 29 -21.5)"><path d="M0.95 -1.02 C10.53 -8, 48.55 -35.16, 58.25 -42.1" stroke="#e03131" stroke-width="2.5" fill="none" stroke-dasharray="1.5 8"></path></g><g transform="translate(158 339) rotate(0 29 -21.5)"><path d="M39.58 -16.94 C49.03 -24.63, 54.26 -37.1, 56.38 -42.71" stroke="#e03131" stroke-width="2.5" fill="none" stroke-dasharray="1.5 6"></path></g><g transform="translate(158 339) rotate(0 29 -21.5)"><path d="M27.64 -33.63 C41.41 -35.32, 51.01 -41.7, 56.38 -42.71" stroke="#e03131" stroke-width="2.5" fill="none" stroke-dasharray="1.5 6"></path></g></g><mask></mask></svg>