<svg version="1.1" xmlns="http://www.w3.org/2000/svg" viewBox="0 0 731.1875 564.5947629673777" width="731.1875" height="564.5947629673777">
  <!-- svg-source:excalidraw -->
  
  <defs>
    <style class="style-fonts">
      @font-face {
        font-family: "Virgil";
        src: url("https://unpkg.com/@excalidraw/excalidraw@0.15.3/dist/excalidraw-assets/Virgil.woff2");
      }
      @font-face {
        font-family: "Cascadia";
        src: url("https://unpkg.com/@excalidraw/excalidraw@0.15.3/dist/excalidraw-assets/Cascadia.woff2");
      }
    </style>
  </defs>
  <rect x="0" y="0" width="731.1875" height="564.5947629673777" fill="#ffffff"></rect><g stroke-linecap="round" transform="translate(10 41.59476296737776) rotate(0 72.5 35.5)"><path d="M92.49 1.49 C102.8 2.43, 113.36 6.62, 121.59 10.33 C129.81 14.04, 138.21 18.63, 141.84 23.77 C145.47 28.91, 145.13 35.84, 143.39 41.17 C141.65 46.49, 137.88 51.4, 131.39 55.72 C124.9 60.04, 114.66 64.71, 104.46 67.09 C94.25 69.48, 81.59 70.11, 70.18 70.02 C58.77 69.94, 45.75 69.24, 35.99 66.61 C26.23 63.98, 17.69 58.82, 11.64 54.24 C5.58 49.67, 0.54 44.61, -0.34 39.16 C-1.22 33.71, 2.06 26.66, 6.34 21.53 C10.62 16.4, 16.69 11.9, 25.34 8.39 C33.99 4.89, 45.63 1.41, 58.25 0.51 C70.86 -0.39, 92.55 2.29, 101.02 3 C109.49 3.7, 109.59 4.19, 109.05 4.73 M95.51 2.69 C106.03 3.78, 118.68 8.12, 126.44 11.92 C134.19 15.73, 139.49 20.22, 142.05 25.52 C144.61 30.81, 143.95 38.44, 141.79 43.7 C139.63 48.97, 136.21 52.89, 129.07 57.12 C121.92 61.35, 109.29 66.98, 98.92 69.08 C88.55 71.19, 77.67 70.59, 66.83 69.75 C55.99 68.9, 43.6 66.64, 33.89 64.02 C24.19 61.41, 14.45 58.68, 8.6 54.07 C2.75 49.46, -0.94 42.14, -1.2 36.36 C-1.46 30.59, 1.88 24.6, 7.03 19.44 C12.19 14.27, 20.36 8.4, 29.72 5.38 C39.07 2.37, 52.21 2.04, 63.15 1.36 C74.08 0.67, 89.88 1.31, 95.31 1.28 C100.73 1.26, 95.76 0.72, 95.7 1.22" stroke="#1971c2" stroke-width="2" fill="none"></path></g><g transform="translate(37.70975683809638 56.99247223525532) rotate(0 45.025001525878906 20)"><text x="45.025001525878906" y="0" font-family="Virgil, Segoe UI Emoji" font-size="16px" fill="#1971c2" text-anchor="middle" style="white-space: pre;" direction="ltr" dominant-baseline="text-before-edge">Block range</text><text x="45.025001525878906" y="20" font-family="Virgil, Segoe UI Emoji" font-size="16px" fill="#1971c2" text-anchor="middle" style="white-space: pre;" direction="ltr" dominant-baseline="text-before-edge">requested</text></g><g stroke-linecap="round"><g transform="translate(163.9871037711232 76.16905075374927) rotate(0 38.308680069621744 -1.2379894706016188)"><path d="M0.97 -0.21 C13.83 -0.56, 64.41 -2.1, 77.22 -2.52 M0.02 -1.37 C12.77 -1.48, 63.65 -0.98, 76.59 -1" stroke="#1e1e1e" stroke-width="2" fill="none"></path></g><g transform="translate(163.9871037711232 76.16905075374927) rotate(0 38.308680069621744 -1.2379894706016188)"><path d="M47.99 10.13 C57 7.77, 65.36 3.8, 77.58 -0.66 M48.55 8.94 C58.18 5.18, 67.44 1.29, 75.8 -1.95" stroke="#1e1e1e" stroke-width="2" fill="none"></path></g><g transform="translate(163.9871037711232 76.16905075374927) rotate(0 38.308680069621744 -1.2379894706016188)"><path d="M48.09 -10.39 C57 -6.43, 65.32 -4.09, 77.58 -0.66 M48.64 -11.58 C58.18 -8.35, 67.4 -5.25, 75.8 -1.95" stroke="#1e1e1e" stroke-width="2" fill="none"></path></g></g><mask></mask><g stroke-linecap="round" transform="translate(246 51.59476296737776) rotate(0 26.5 21.5)"><path d="M33.75 5.5 M33.75 5.5 C37.63 9.89, 39.08 12.51, 46.25 16.5 M33.75 5.5 C36.33 7.88, 39.45 10.35, 46.25 16.5 M46.25 16.5 C53.14 23.45, 51.54 20.39, 46.25 27.5 M46.25 16.5 C54.87 21.07, 52.95 23.21, 46.25 27.5 M46.25 27.5 C43.96 30.07, 39.97 33.68, 33.75 37.5 M46.25 27.5 C43.14 30.45, 38.98 32.33, 33.75 37.5 M33.75 37.5 C28.11 42.67, 28.81 42.48, 20.25 37.5 M33.75 37.5 C26.11 40.75, 28.98 44.71, 20.25 37.5 M20.25 37.5 C16.54 35.16, 13.71 32.87, 6.75 27.5 M20.25 37.5 C16.97 34.96, 12.64 31.44, 6.75 27.5 M6.75 27.5 C-1.11 22.01, 1.63 20.27, 6.75 16.5 M6.75 27.5 C-1.85 21, -1.35 19.92, 6.75 16.5 M6.75 16.5 C12.48 14.04, 17.49 10.1, 20.25 5.5 M6.75 16.5 C12.48 12.88, 17.01 7.79, 20.25 5.5 M20.25 5.5 C28.76 -1.68, 27.7 0.91, 33.75 5.5 M20.25 5.5 C25.54 0.51, 25.05 -1.74, 33.75 5.5" stroke="#1e1e1e" stroke-width="2" fill="none"></path></g><g mask="url(#mask-UlZIBnqQKdUByxdvhWCzs)" stroke-linecap="round"><g transform="translate(305 74.59476296737776) rotate(0 80.5 0.7872966609589156)"><path d="M0.15 -0.1 C11.75 0.03, 43.03 0, 69.72 0.12 C96.42 0.24, 144.91 0.4, 160.3 0.62 M-1.23 -1.19 C10.18 -0.89, 41.29 0.75, 68.63 1.19 C95.97 1.63, 147.74 1.23, 162.83 1.44" stroke="#1e1e1e" stroke-width="2" fill="none"></path></g><g transform="translate(305 74.59476296737776) rotate(0 80.5 0.7872966609589156)"><path d="M134.45 11.16 C141.97 7.25, 150.63 7.01, 162.6 0.71 M135.5 10.71 C141.11 8.95, 149.67 6.73, 162.83 1.43" stroke="#1e1e1e" stroke-width="2" fill="none"></path></g><g transform="translate(305 74.59476296737776) rotate(0 80.5 0.7872966609589156)"><path d="M134.51 -9.36 C141.9 -6.88, 150.55 -0.75, 162.6 0.71 M135.56 -9.82 C140.97 -6.19, 149.52 -3.03, 162.83 1.43" stroke="#1e1e1e" stroke-width="2" fill="none"></path></g></g><mask id="mask-UlZIBnqQKdUByxdvhWCzs"><rect x="0" y="0" fill="#fff" width="566" height="176.1693562892956"></rect><rect x="329.73749923706055" y="55.59476296737773" fill="#000" width="90.5250015258789" height="40" opacity="1"></rect></mask><g transform="translate(329.73749923706055 55.59476296737776) rotate(0 56.06372752786615 19.124466437061443)"><text x="45.26250076293945" y="0" font-family="Virgil, Segoe UI Emoji" font-size="16px" fill="#1e1e1e" text-anchor="middle" style="white-space: pre;" direction="ltr" dominant-baseline="text-before-edge">Block found</text><text x="45.26250076293945" y="20" font-family="Virgil, Segoe UI Emoji" font-size="16px" fill="#1e1e1e" text-anchor="middle" style="white-space: pre;" direction="ltr" dominant-baseline="text-before-edge">in snapshot</text></g><g mask="url(#mask-L2pbT4ZlLY-PsgTF8hyn1)" stroke-linecap="round"><g transform="translate(276 99.59476296737776) rotate(0 1 55)"><path d="M0.73 0.95 C1.06 19.34, 2.26 92.71, 2.43 110.79 M-0.34 0.41 C-0.18 18.41, 1.5 90.74, 1.7 109.08" stroke="#1e1e1e" stroke-width="2" fill="none"></path></g><g transform="translate(276 99.59476296737776) rotate(0 1 55)"><path d="M-7.47 81.78 C-3.98 90.09, -2.64 98.53, 2.81 108.16 M-9.76 80.41 C-4.57 91.5, -2.19 101.49, 1.57 109.26" stroke="#1e1e1e" stroke-width="2" fill="none"></path></g><g transform="translate(276 99.59476296737776) rotate(0 1 55)"><path d="M13.05 81.42 C9.57 89.97, 3.95 98.54, 2.81 108.16 M10.76 80.05 C8.8 91.09, 4.04 101.2, 1.57 109.26" stroke="#1e1e1e" stroke-width="2" fill="none"></path></g></g><mask id="mask-L2pbT4ZlLY-PsgTF8hyn1"><rect x="0" y="0" fill="#fff" width="378" height="309.59476296737773"></rect><rect x="215.11249923706055" y="134.59476296737773" fill="#000" width="123.7750015258789" height="40" opacity="1"></rect></mask><g transform="translate(215.11249923706055 134.59476296737773) rotate(0 61.93077388272155 20.596765001635063)"><text x="61.88750076293945" y="0" font-family="Virgil, Segoe UI Emoji" font-size="16px" fill="#1e1e1e" text-anchor="middle" style="white-space: pre;" direction="ltr" dominant-baseline="text-before-edge">Block not found</text><text x="61.88750076293945" y="20" font-family="Virgil, Segoe UI Emoji" font-size="16px" fill="#1e1e1e" text-anchor="middle" style="white-space: pre;" direction="ltr" dominant-baseline="text-before-edge">in snapshot</text></g><g stroke-linecap="round" transform="translate(478 44.59476296737776) rotate(0 60.5 29.5)"><path d="M14.75 0 M14.75 0 C35.57 -0.75, 52.73 0.99, 106.25 0 M14.75 0 C39.24 0.95, 64.12 0.66, 106.25 0 M106.25 0 C114.5 0.88, 121.61 6.1, 121 14.75 M106.25 0 C116.37 -0.86, 118.76 2.62, 121 14.75 M121 14.75 C121.17 22.11, 119.83 27.28, 121 44.25 M121 14.75 C120.92 22.61, 121.12 31.39, 121 44.25 M121 44.25 C122.83 52.68, 117.55 58.36, 106.25 59 M121 44.25 C122.45 55.68, 115.97 57.72, 106.25 59 M106.25 59 C72.88 57.88, 37.48 57.33, 14.75 59 M106.25 59 C74.55 57.79, 42.41 58.48, 14.75 59 M14.75 59 C4.92 57.45, 1.93 54, 0 44.25 M14.75 59 C3.45 58.88, -0.55 53.39, 0 44.25 M0 44.25 C0.9 34.03, -0.61 25.5, 0 14.75 M0 44.25 C-0.5 33.27, -0.7 22.41, 0 14.75 M0 14.75 C-0.11 6.46, 5.19 -0.15, 14.75 0 M0 14.75 C-0.32 2.85, 2.97 -0.12, 14.75 0" stroke="#1e1e1e" stroke-width="2" fill="none"></path></g><g transform="translate(483.26250076293945 54.09476296737776) rotate(0 55.23749923706055 20)"><text x="55.23749923706055" y="0" font-family="Virgil, Segoe UI Emoji" font-size="16px" fill="#1e1e1e" text-anchor="middle" style="white-space: pre;" direction="ltr" dominant-baseline="text-before-edge">Read block </text><text x="55.23749923706055" y="20" font-family="Virgil, Segoe UI Emoji" font-size="16px" fill="#1e1e1e" text-anchor="middle" style="white-space: pre;" direction="ltr" dominant-baseline="text-before-edge">from snapshot</text></g><g stroke-linecap="round" transform="translate(216 212.59476296737776) rotate(0 66 30)"><path d="M15 0 M15 0 C53.5 -1.24, 94.42 -1.21, 117 0 M15 0 C50.45 0.64, 86.31 0.67, 117 0 M117 0 C126.8 0.38, 131.32 3.24, 132 15 M117 0 C125.28 1.64, 130.86 3.75, 132 15 M132 15 C133.89 24.51, 132.53 33.15, 132 45 M132 15 C132.32 23.51, 132.05 29.39, 132 45 M132 45 C130.61 54.36, 128.56 60.29, 117 60 M132 45 C131.1 53.54, 128.35 61.09, 117 60 M117 60 C83.52 59.35, 51.37 61.38, 15 60 M117 60 C85.62 59.19, 53.45 60.2, 15 60 M15 60 C6.27 60.93, 1.94 53.72, 0 45 M15 60 C3.08 62.26, 0.57 56.99, 0 45 M0 45 C1.04 35.18, -0.83 29.78, 0 15 M0 45 C1.17 33.1, 1.02 21.66, 0 15 M0 15 C0.53 6.38, 3.53 -0.25, 15 0 M0 15 C0.85 7.04, 2.92 -1.35, 15 0" stroke="#1e1e1e" stroke-width="2" fill="none"></path></g><g transform="translate(227.7249984741211 222.59476296737776) rotate(0 54.275001525878906 20)"><text x="54.275001525878906" y="0" font-family="Virgil, Segoe UI Emoji" font-size="16px" fill="#1e1e1e" text-anchor="middle" style="white-space: pre;" direction="ltr" dominant-baseline="text-before-edge">Request block</text><text x="54.275001525878906" y="20" font-family="Virgil, Segoe UI Emoji" font-size="16px" fill="#1e1e1e" text-anchor="middle" style="white-space: pre;" direction="ltr" dominant-baseline="text-before-edge">from network</text></g><g stroke-linecap="round" transform="translate(519 149.59476296737776) rotate(0 23 22)"><path d="M30 5.75 M30 5.75 C33.08 8.67, 36.09 14.35, 40 17.25 M30 5.75 C33.77 10.55, 36.9 14.74, 40 17.25 M40 17.25 C46.07 24.69, 46.59 24.9, 40 28.75 M40 17.25 C47.43 22.53, 46.52 21.83, 40 28.75 M40 28.75 C38.17 31.25, 34.71 32.14, 30 38.25 M40 28.75 C36.75 32.06, 32.82 36.18, 30 38.25 M30 38.25 C23.85 42.99, 22.29 42.65, 18 38.25 M30 38.25 C24.18 43.69, 23.79 43.69, 18 38.25 M18 38.25 C15.02 34.72, 11.5 33.21, 6 28.75 M18 38.25 C16.06 36.29, 13.14 34.44, 6 28.75 M6 28.75 C0.64 24.34, -1.95 22.5, 6 17.25 M6 28.75 C0.16 21.57, 2.01 24.66, 6 17.25 M6 17.25 C8.91 14.39, 12.66 12.19, 18 5.75 M6 17.25 C8.33 14.18, 11.62 10.8, 18 5.75 M18 5.75 C25.45 -1.22, 24.17 0.39, 30 5.75 M18 5.75 C24.39 1.23, 25.97 -0.66, 30 5.75" stroke="#1e1e1e" stroke-width="2" fill="none"></path></g><g mask="url(#mask-T6CducCMvW6nMgmYPEnAZ)" stroke-linecap="round"><g transform="translate(513 172.59476296737776) rotate(0 -77.5 31.5)"><path d="M0.09 -0.74 C-14.88 0.78, -64.96 -1.83, -90.95 8.87 C-116.95 19.56, -145.16 54.4, -155.88 63.45 M-1.33 1.48 C-16.26 2.7, -66 -2.78, -91.35 7.2 C-116.7 17.17, -142.81 51.82, -153.45 61.34" stroke="#1e1e1e" stroke-width="2" fill="none"></path></g><g transform="translate(513 172.59476296737776) rotate(0 -77.5 31.5)"><path d="M-142.71 35.58 C-142.52 37.94, -145.64 44.52, -153.17 61 M-140.91 34.6 C-146.93 44.25, -151.33 54.23, -152.73 60.73" stroke="#1e1e1e" stroke-width="2" fill="none"></path></g><g transform="translate(513 172.59476296737776) rotate(0 -77.5 31.5)"><path d="M-127.83 49.72 C-130.62 49.23, -136.75 52.94, -153.17 61 M-126.04 48.74 C-137.66 53.03, -147.65 57.69, -152.73 60.73" stroke="#1e1e1e" stroke-width="2" fill="none"></path></g></g><mask id="mask-T6CducCMvW6nMgmYPEnAZ"><rect x="0" y="0" fill="#fff" width="768" height="335.59476296737773"></rect><rect x="363.8125" y="160.59476296737773" fill="#000" width="114.375" height="40" opacity="1"></rect></mask><g transform="translate(363.8125 160.59476296737773) rotate(0 71.28984204828737 43.35301288068294)"><text x="57.1875" y="0" font-family="Virgil, Segoe UI Emoji" font-size="16px" fill="#1e1e1e" text-anchor="middle" style="white-space: pre;" direction="ltr" dominant-baseline="text-before-edge">Failed to read</text><text x="57.1875" y="20" font-family="Virgil, Segoe UI Emoji" font-size="16px" fill="#1e1e1e" text-anchor="middle" style="white-space: pre;" direction="ltr" dominant-baseline="text-before-edge">from snapshot</text></g><g stroke-linecap="round"><g transform="translate(541 108.59476296737776) rotate(0 0 17.5)"><path d="M0.63 1.14 C0.63 7.13, -0.61 29.26, -0.77 34.92 M-0.5 0.7 C-0.05 6.97, 1.66 30.46, 1.54 36.41" stroke="#1e1e1e" stroke-width="2" fill="none"></path></g><g transform="translate(541 108.59476296737776) rotate(0 0 17.5)"><path d="M-3.32 19.05 C-3.7 23.5, -1.96 26.81, 0.14 37.16 M-4.46 20.01 C-1.77 26.86, -0.71 32.84, 1.49 36.79" stroke="#1e1e1e" stroke-width="2" fill="none"></path></g><g transform="translate(541 108.59476296737776) rotate(0 0 17.5)"><path d="M8.65 18.66 C5.43 23.26, 4.35 26.67, 0.14 37.16 M7.51 19.62 C5.42 26.68, 1.71 32.81, 1.49 36.79" stroke="#1e1e1e" stroke-width="2" fill="none"></path></g></g><mask></mask><g stroke-linecap="round" transform="translate(401 317.59476296737773) rotate(0 27.5 27)"><path d="M35 7 M35 7 C39.92 11.82, 42.05 17.62, 48 21 M35 7 C40.86 13.17, 45.37 18.9, 48 21 M48 21 C53.29 29.64, 56.02 28.29, 48 35 M48 21 C54.51 27.55, 57.14 29.09, 48 35 M48 35 C43.1 39.39, 39.62 43.49, 35 47 M48 35 C43.94 38.11, 42.07 41.34, 35 47 M35 47 C27.56 52.84, 26.09 54.84, 21 47 M35 47 C26.01 55.28, 28.91 52.79, 21 47 M21 47 C15.85 44.33, 9.35 37.33, 7 35 M21 47 C18.67 43.55, 14.9 42.21, 7 35 M7 35 C-0.81 29.95, 1.86 27.77, 7 21 M7 35 C-2 29.67, 1.6 28.84, 7 21 M7 21 C14.35 14.67, 17.41 9.55, 21 7 M7 21 C11.21 17.01, 14.92 12.55, 21 7 M21 7 C26.98 1.77, 27.54 -0.78, 35 7 M21 7 C26.5 -0.48, 29.4 -0.5, 35 7" stroke="#1e1e1e" stroke-width="2" fill="none"></path></g><g mask="url(#mask-4uo6eKUxvbipgS4AS3Rg8)" stroke-linecap="round"><g transform="translate(461.6057190019176 346.8062346658028) rotate(0 4.894280998082422 -165.17567405406228)"><path d="M-0.96 0.43 C23.37 -1.04, 111.32 2.73, 144.87 -9.61 C178.43 -21.95, 193.69 -23.48, 200.37 -73.61 C207.06 -123.74, 239.13 -267.74, 184.97 -310.4 C130.81 -353.06, -61.84 -331.75, -124.58 -329.56 C-187.32 -327.38, -180.44 -302.43, -191.48 -297.27 M0.74 -0.39 C24.97 -1.63, 109.98 3.74, 143.65 -8.28 C177.31 -20.3, 195.84 -22.35, 202.73 -72.5 C209.62 -122.65, 239.26 -266.47, 184.99 -309.18 C130.72 -351.89, -60.41 -330.63, -122.91 -328.76 C-185.4 -326.89, -178.26 -303.32, -190 -297.97" stroke="#1e1e1e" stroke-width="2" fill="none"></path></g><g transform="translate(461.6057190019176 346.8062346658028) rotate(0 4.894280998082422 -165.17567405406228)"><path d="M-177.93 -326.61 C-181.83 -321.79, -184.18 -315.05, -189.66 -299.6 M-177.97 -326.31 C-181.91 -316.18, -186.84 -304.39, -189.04 -297.99" stroke="#1e1e1e" stroke-width="2" fill="none"></path></g><g transform="translate(461.6057190019176 346.8062346658028) rotate(0 4.894280998082422 -165.17567405406228)"><path d="M-162.73 -312.81 C-169.69 -310.97, -175.18 -307.08, -189.66 -299.6 M-162.78 -312.51 C-172.29 -307.35, -182.77 -300.6, -189.04 -297.99" stroke="#1e1e1e" stroke-width="2" fill="none"></path></g></g><mask id="mask-4uo6eKUxvbipgS4AS3Rg8"><rect x="0" y="0" fill="#fff" width="954.6057190019176" height="777.1575827739273"></rect><rect x="588.8125" y="124.89950013349892" fill="#000" width="132.375" height="60" opacity="1"></rect></mask><g transform="translate(611.0197703529193 119.16724346188892) rotate(0 -136.6525190680115 59.45177449034048)"><text x="66.1875" y="0" font-family="Virgil, Segoe UI Emoji" font-size="16px" fill="#1e1e1e" text-anchor="middle" style="white-space: pre;" direction="ltr" dominant-baseline="text-before-edge">Not done reading</text><text x="66.1875" y="20" font-family="Virgil, Segoe UI Emoji" font-size="16px" fill="#1e1e1e" text-anchor="middle" style="white-space: pre;" direction="ltr" dominant-baseline="text-before-edge">all requested </text><text x="66.1875" y="40" font-family="Virgil, Segoe UI Emoji" font-size="16px" fill="#1e1e1e" text-anchor="middle" style="white-space: pre;" direction="ltr" dominant-baseline="text-before-edge">blocks</text></g><g mask="url(#mask-_2UxnHH2ooUrhyzK5sJTm)" stroke-linecap="round"><g transform="translate(530.571793306174 189.48952178197888) rotate(0 -48.62186953931541 65.6409381225842)"><path d="M1.18 -0.33 C-10.01 9.96, -51.29 38.95, -67.72 60.77 C-84.14 82.6, -92.32 118.8, -97.35 130.62 M0.34 -1.55 C-10.45 8.48, -49.19 36.81, -65.61 59 C-82.03 81.19, -92.77 119.25, -98.18 131.58" stroke="#1e1e1e" stroke-width="2" fill="none"></path></g><g transform="translate(530.571793306174 189.48952178197888) rotate(0 -48.62186953931541 65.6409381225842)"><path d="M-98.48 99.68 C-97.13 109.02, -99.41 115.68, -97.48 130.4 M-98.9 101.94 C-97.89 108.07, -98.9 114.18, -98.83 130.68" stroke="#1e1e1e" stroke-width="2" fill="none"></path></g><g transform="translate(530.571793306174 189.48952178197888) rotate(0 -48.62186953931541 65.6409381225842)"><path d="M-79.26 106.85 C-82.72 114.56, -89.89 119.4, -97.48 130.4 M-79.68 109.11 C-82.8 113.6, -87.96 118.15, -98.83 130.68" stroke="#1e1e1e" stroke-width="2" fill="none"></path></g></g><mask id="mask-_2UxnHH2ooUrhyzK5sJTm"><rect x="0" y="0" fill="#fff" width="727.8155323848048" height="420.77139802714726"></rect><rect x="434.13750076293945" y="229.59476296737773" fill="#000" width="59.724998474121094" height="40" opacity="1"></rect></mask><g transform="translate(434.13750076293945 229.59476296737773) rotate(0 47.93573029116976 24.91229088711978)"><text x="29.862499237060547" y="0" font-family="Virgil, Segoe UI Emoji" font-size="16px" fill="#1e1e1e" text-anchor="middle" style="white-space: pre;" direction="ltr" dominant-baseline="text-before-edge">Read</text><text x="29.862499237060547" y="20" font-family="Virgil, Segoe UI Emoji" font-size="16px" fill="#1e1e1e" text-anchor="middle" style="white-space: pre;" direction="ltr" dominant-baseline="text-before-edge">success</text></g><g mask="url(#mask-T9FjHz9e0W5D4E8Gr646h)" stroke-linecap="round"><g transform="translate(307.11710396633157 279.59476296737773) rotate(0 45.37586809285051 30.091660289002135)"><path d="M-0.51 -0.06 C3.37 7.65, 7.65 35.74, 22.72 45.94 C37.79 56.14, 78.73 58.92, 89.92 61.15 M1.43 -1.13 C5.27 6.28, 7.06 34.23, 22.22 44.31 C37.38 54.38, 81.14 56.7, 92.38 59.31" stroke="#1e1e1e" stroke-width="2" fill="none"></path></g><g transform="translate(307.11710396633157 279.59476296737773) rotate(0 45.37586809285051 30.091660289002135)"><path d="M62.92 66.84 C72.02 62.63, 79.49 60.96, 90.95 58.46 M63.06 65.07 C73.1 64.43, 82.68 61.43, 92.22 58.83" stroke="#1e1e1e" stroke-width="2" fill="none"></path></g><g transform="translate(307.11710396633157 279.59476296737773) rotate(0 45.37586809285051 30.091660289002135)"><path d="M65.85 46.53 C74.15 47.44, 80.88 50.91, 90.95 58.46 M65.99 44.76 C75.08 51.08, 83.65 55.04, 92.22 58.83" stroke="#1e1e1e" stroke-width="2" fill="none"></path></g></g><mask id="mask-T9FjHz9e0W5D4E8Gr646h"><rect x="0" y="0" fill="#fff" width="497.8688401520326" height="439.778083545382"></rect><rect x="299.13750076293945" y="304.59476296737773" fill="#000" width="59.724998474121094" height="40" opacity="1"></rect></mask><g transform="translate(299.13750076293957 304.59476296737773) rotate(0 53.91446504057586 5.008704601653392)"><text x="29.862499237060547" y="0" font-family="Virgil, Segoe UI Emoji" font-size="16px" fill="#1e1e1e" text-anchor="middle" style="white-space: pre;" direction="ltr" dominant-baseline="text-before-edge">Read</text><text x="29.862499237060547" y="20" font-family="Virgil, Segoe UI Emoji" font-size="16px" fill="#1e1e1e" text-anchor="middle" style="white-space: pre;" direction="ltr" dominant-baseline="text-before-edge">success</text></g><g mask="url(#mask-aeppa5oEodqzbjIj_zzgf)" stroke-linecap="round"><g transform="translate(429.91104514512244 376.23606463571) rotate(0 -1.9555225725612218 47.24445586801551)"><path d="M-0.61 -0.27 C-1.24 5.78, -4.15 21.45, -4.29 37.18 C-4.42 52.92, -2.14 84.49, -1.42 94.14 M1.27 -1.46 C0.49 4.18, -4.81 19.37, -5.44 35.49 C-6.06 51.62, -3.53 85.72, -2.49 95.28" stroke="#1e1e1e" stroke-width="2" fill="none"></path></g><g transform="translate(429.91104514512244 376.23606463571) rotate(0 -1.9555225725612218 47.24445586801551)"><path d="M-15.2 68.25 C-10.02 74.77, -8.81 84.04, -1.46 94.96 M-14.42 69.58 C-10.78 76.16, -7.71 83.75, -2.25 94.39" stroke="#1e1e1e" stroke-width="2" fill="none"></path></g><g transform="translate(429.91104514512244 376.23606463571) rotate(0 -1.9555225725612218 47.24445586801551)"><path d="M4.63 66.55 C4.72 73.41, 0.82 83.12, -1.46 94.96 M5.42 67.88 C3.18 74.93, 0.37 83.03, -2.25 94.39" stroke="#1e1e1e" stroke-width="2" fill="none"></path></g></g><mask id="mask-aeppa5oEodqzbjIj_zzgf"><rect x="0" y="0" fill="#fff" width="533.8220902902449" height="570.724976371741"></rect><rect x="346.9749984741211" y="392.59476296737773" fill="#000" width="158.0500030517578" height="40" opacity="1"></rect></mask><g transform="translate(346.9749984741211 392.59476296737773) rotate(0 80.80222431418792 30.553847961025156)"><text x="79.0250015258789" y="0" font-family="Virgil, Segoe UI Emoji" font-size="16px" fill="#1e1e1e" text-anchor="middle" style="white-space: pre;" direction="ltr" dominant-baseline="text-before-edge">Done reading</text><text x="79.0250015258789" y="20" font-family="Virgil, Segoe UI Emoji" font-size="16px" fill="#1e1e1e" text-anchor="middle" style="white-space: pre;" direction="ltr" dominant-baseline="text-before-edge">all requested blocks</text></g><g stroke-linecap="round" transform="translate(346 483.59476296737773) rotate(0 77 35.5)"><path d="M103.03 1.52 C114.12 3.02, 125.88 7.98, 134.03 12.07 C142.19 16.16, 148.87 20.95, 151.96 26.07 C155.05 31.2, 155.23 37.4, 152.56 42.8 C149.89 48.19, 143.56 54.11, 135.94 58.45 C128.31 62.79, 117.8 66.92, 106.79 68.83 C95.79 70.73, 81.9 70.36, 69.89 69.88 C57.87 69.4, 44.72 68.65, 34.69 65.95 C24.67 63.25, 15.68 58.44, 9.74 53.7 C3.8 48.97, -0.5 43.04, -0.94 37.55 C-1.39 32.06, 1.52 25.96, 7.07 20.76 C12.62 15.57, 22.49 9.83, 32.36 6.38 C42.22 2.92, 54.26 0.86, 66.28 0.04 C78.29 -0.79, 97.94 0.75, 104.46 1.43 C110.97 2.11, 106.04 3.39, 105.36 4.12 M103.8 3.05 C115.13 4.48, 126.93 8.07, 135.06 11.88 C143.2 15.69, 149.9 20.47, 152.62 25.91 C155.33 31.36, 154.3 39.02, 151.34 44.56 C148.38 50.1, 142.39 55.04, 134.84 59.16 C127.3 63.27, 117.03 67.15, 106.06 69.26 C95.09 71.36, 81.22 72.51, 69.02 71.78 C56.82 71.06, 42.78 68.28, 32.87 64.91 C22.96 61.54, 15.09 56.31, 9.56 51.58 C4.04 46.84, -0.18 41.78, -0.29 36.51 C-0.41 31.23, 3.53 25, 8.87 19.95 C14.22 14.9, 22.03 9.51, 31.76 6.2 C41.5 2.88, 55.17 0.49, 67.28 0.05 C79.4 -0.38, 98.19 2.89, 104.45 3.58 C110.71 4.27, 105.16 4.03, 104.86 4.19" stroke="#1e1e1e" stroke-width="2" fill="none"></path></g><g transform="translate(374.6652770856964 498.99247223525526) rotate(0 48.38750076293945 20)"><text x="48.38750076293945" y="0" font-family="Virgil, Segoe UI Emoji" font-size="16px" fill="#1e1e1e" text-anchor="middle" style="white-space: pre;" direction="ltr" dominant-baseline="text-before-edge">Return block</text><text x="48.38750076293945" y="20" font-family="Virgil, Segoe UI Emoji" font-size="16px" fill="#1e1e1e" text-anchor="middle" style="white-space: pre;" direction="ltr" dominant-baseline="text-before-edge">range</text></g></svg>