<?xml version="1.0" encoding="UTF-8" standalone="no"?>
<!DOCTYPE svg PUBLIC "-//W3C//DTD SVG 1.1//EN"
 "http://www.w3.org/Graphics/SVG/1.1/DTD/svg11.dtd">
<!-- Generated by graphviz version 9.0.0 (20230911.1827)
 -->
<!-- Pages: 1 -->
<svg width="322pt" height="314pt"
 viewBox="0.00 0.00 322.21 313.99" xmlns="http://www.w3.org/2000/svg" xmlns:xlink="http://www.w3.org/1999/xlink">
<g id="graph0" class="graph" transform="scale(1 1) rotate(0) translate(28.8 285.19)">
<polygon fill="white" stroke="none" points="-28.8,28.8 -28.8,-285.19 293.41,-285.19 293.41,28.8 -28.8,28.8"/>
<text text-anchor="middle" x="132.31" y="-218.19" font-family="Helvetica,sans-Serif" font-size="36.00">hermes</text>
<!-- hermes -->
<g id="node1" class="node">
<title>hermes</title>
<polygon fill="#5397c8" stroke="black" points="0,-25.44 0,-66.94 54,-66.94 54,-25.44 0,-25.44"/>
<text text-anchor="middle" x="27" y="-53.44" font-family="monospace" font-size="10.00">crate</text>
<polyline fill="none" stroke="black" points="0,-46.19 54,-46.19"/>
<text text-anchor="middle" x="27" y="-32.69" font-family="monospace" font-size="10.00">hermes</text>
</g>
<!-- hermes::wasm -->
<g id="node2" class="node">
<title>hermes::wasm</title>
<polygon fill="#f8c04c" stroke="black" points="67.81,-83.98 67.81,-125.48 167.81,-125.48 167.81,-83.98 67.81,-83.98"/>
<text text-anchor="middle" x="117.81" y="-111.98" font-family="monospace" font-size="10.00">pub(crate) mod</text>
<polyline fill="none" stroke="black" points="67.81,-104.73 167.81,-104.73"/>
<text text-anchor="middle" x="117.81" y="-91.23" font-family="monospace" font-size="10.00">wasm</text>
</g>
<!-- hermes&#45;&gt;hermes::wasm -->
<g id="edge1" class="edge">
<title>hermes&#45;&gt;hermes::wasm</title>
<path fill="none" stroke="#000000" d="M54.25,-63.76C61.08,-68.16 68.57,-72.99 75.93,-77.74"/>
<polygon fill="#000000" stroke="#000000" points="73.56,-80.37 83.86,-82.85 77.36,-74.49 73.56,-80.37"/>
<text text-anchor="middle" x="53.09" y="-74" font-family="monospace" font-size="10.00">owns</text>
</g>
<!-- hermes::wasm::context -->
<g id="node3" class="node">
<title>hermes::wasm::context</title>
<polygon fill="#db5367" stroke="black" points="141.02,-0.5 141.02,-42 235.02,-42 235.02,-0.5 141.02,-0.5"/>
<text text-anchor="middle" x="188.02" y="-28.5" font-family="monospace" font-size="10.00">pub(self) mod</text>
<polyline fill="none" stroke="black" points="141.02,-21.25 235.02,-21.25"/>
<text text-anchor="middle" x="188.02" y="-7.75" font-family="monospace" font-size="10.00">wasm::context</text>
</g>
<!-- hermes::wasm&#45;&gt;hermes::wasm::context -->
<g id="edge2" class="edge">
<title>hermes::wasm&#45;&gt;hermes::wasm::context</title>
<path fill="none" stroke="#000000" d="M135.53,-83.67C143.84,-73.78 153.9,-61.82 162.97,-51.03"/>
<polygon fill="#000000" stroke="#000000" points="165.58,-53.37 169.33,-43.47 160.22,-48.87 165.58,-53.37"/>
<text text-anchor="middle" x="137.25" y="-70.6" font-family="monospace" font-size="10.00">owns</text>
</g>
<!-- hermes::wasm::engine -->
<g id="node4" class="node">
<title>hermes::wasm::engine</title>
<polygon fill="#db5367" stroke="black" points="6.67,-163.64 6.67,-205.14 100.67,-205.14 100.67,-163.64 6.67,-163.64"/>
<text text-anchor="middle" x="53.67" y="-191.64" font-family="monospace" font-size="10.00">pub(self) mod</text>
<polyline fill="none" stroke="black" points="6.67,-184.39 100.67,-184.39"/>
<text text-anchor="middle" x="53.67" y="-170.89" font-family="monospace" font-size="10.00">wasm::engine</text>
</g>
<!-- hermes::wasm&#45;&gt;hermes::wasm::engine -->
<g id="edge3" class="edge">
<title>hermes::wasm&#45;&gt;hermes::wasm::engine</title>
<path fill="none" stroke="#000000" d="M100.96,-125.66C93.87,-134.46 85.49,-144.87 77.77,-154.46"/>
<polygon fill="#000000" stroke="#000000" points="75.13,-152.16 71.58,-162.15 80.58,-156.55 75.13,-152.16"/>
<text text-anchor="middle" x="77.37" y="-143.31" font-family="monospace" font-size="10.00">owns</text>
</g>
<!-- hermes::wasm::module -->
<g id="node5" class="node">
<title>hermes::wasm::module</title>
<polygon fill="#db5367" stroke="black" points="170.61,-135.43 170.61,-176.93 264.61,-176.93 264.61,-135.43 170.61,-135.43"/>
<text text-anchor="middle" x="217.61" y="-163.43" font-family="monospace" font-size="10.00">pub(self) mod</text>
<polyline fill="none" stroke="black" points="170.61,-156.18 264.61,-156.18"/>
<text text-anchor="middle" x="217.61" y="-142.68" font-family="monospace" font-size="10.00">wasm::module</text>
</g>
<!-- hermes::wasm&#45;&gt;hermes::wasm::module -->
<g id="edge4" class="edge">
<title>hermes::wasm&#45;&gt;hermes::wasm::module</title>
<path fill="none" stroke="#000000" d="M158.98,-125.96C161.43,-127.22 163.9,-128.49 166.38,-129.77"/>
<polygon fill="#000000" stroke="#000000" points="164.7,-132.84 175.19,-134.31 167.91,-126.62 164.7,-132.84"/>
<text text-anchor="middle" x="150.68" y="-131.11" font-family="monospace" font-size="10.00">owns</text>
</g>
</g>
</svg>
