<?xml version="1.0" encoding="UTF-8" standalone="no"?>
<!DOCTYPE svg PUBLIC "-//W3C//DTD SVG 1.1//EN"
 "http://www.w3.org/Graphics/SVG/1.1/DTD/svg11.dtd">
<!-- Generated by graphviz version 9.0.0 (20230911.1827)
 -->
<!-- Pages: 1 -->
<svg width="1723pt" height="1089pt"
 viewBox="0.00 0.00 1722.56 1089.08" xmlns="http://www.w3.org/2000/svg" xmlns:xlink="http://www.w3.org/1999/xlink">
<g id="graph0" class="graph" transform="scale(1 1) rotate(0) translate(28.8 1060.28)">
<polygon fill="white" stroke="none" points="-28.8,28.8 -28.8,-1060.28 1693.76,-1060.28 1693.76,28.8 -28.8,28.8"/>
<text text-anchor="middle" x="832.48" y="-993.28" font-family="Helvetica,sans-Serif" font-size="36.00">hermes</text>
<!-- hermes -->
<g id="node1" class="node">
<title>hermes</title>
<polygon fill="#5397c8" stroke="black" points="349.44,-626.37 349.44,-667.87 403.44,-667.87 403.44,-626.37 349.44,-626.37"/>
<text text-anchor="middle" x="376.44" y="-654.37" font-family="monospace" font-size="10.00">crate</text>
<polyline fill="none" stroke="black" points="349.44,-647.12 403.44,-647.12"/>
<text text-anchor="middle" x="376.44" y="-633.62" font-family="monospace" font-size="10.00">hermes</text>
</g>
<!-- hermes::runtime -->
<g id="node2" class="node">
<title>hermes::runtime</title>
<polygon fill="#f8c04c" stroke="black" points="493.67,-440.98 493.67,-482.48 593.67,-482.48 593.67,-440.98 493.67,-440.98"/>
<text text-anchor="middle" x="543.67" y="-468.98" font-family="monospace" font-size="10.00">pub(crate) mod</text>
<polyline fill="none" stroke="black" points="493.67,-461.73 593.67,-461.73"/>
<text text-anchor="middle" x="543.67" y="-448.23" font-family="monospace" font-size="10.00">runtime</text>
</g>
<!-- hermes&#45;&gt;hermes::runtime -->
<g id="edge1" class="edge">
<title>hermes&#45;&gt;hermes::runtime</title>
<path fill="none" stroke="#000000" d="M395.3,-626.22C425.03,-593.25 482.92,-529.08 516.93,-491.37"/>
<polygon fill="#000000" stroke="#000000" points="519.51,-493.74 523.61,-483.97 514.31,-489.05 519.51,-493.74"/>
<text text-anchor="middle" x="444.12" y="-562.05" font-family="monospace" font-size="10.00">owns</text>
</g>
<!-- hermes::wasm -->
<g id="node31" class="node">
<title>hermes::wasm</title>
<polygon fill="#f8c04c" stroke="black" points="291.24,-354.27 291.24,-395.77 391.24,-395.77 391.24,-354.27 291.24,-354.27"/>
<text text-anchor="middle" x="341.24" y="-382.27" font-family="monospace" font-size="10.00">pub(crate) mod</text>
<polyline fill="none" stroke="black" points="291.24,-375.02 391.24,-375.02"/>
<text text-anchor="middle" x="341.24" y="-361.52" font-family="monospace" font-size="10.00">wasm</text>
</g>
<!-- hermes&#45;&gt;hermes::wasm -->
<g id="edge2" class="edge">
<title>hermes&#45;&gt;hermes::wasm</title>
<path fill="none" stroke="#000000" d="M373.74,-626.23C367.62,-578.94 352.68,-463.49 345.39,-407.09"/>
<polygon fill="#000000" stroke="#000000" points="348.9,-406.96 344.15,-397.5 341.96,-407.86 348.9,-406.96"/>
<text text-anchor="middle" x="347.56" y="-519.91" font-family="monospace" font-size="10.00">owns</text>
</g>
<!-- hermes::runtime::extensions -->
<g id="node3" class="node">
<title>hermes::runtime::extensions</title>
<polygon fill="#f8c04c" stroke="black" points="306.63,-37.35 306.63,-78.85 436.63,-78.85 436.63,-37.35 306.63,-37.35"/>
<text text-anchor="middle" x="371.63" y="-65.35" font-family="monospace" font-size="10.00">pub(crate) mod</text>
<polyline fill="none" stroke="black" points="306.63,-58.1 436.63,-58.1"/>
<text text-anchor="middle" x="371.63" y="-44.6" font-family="monospace" font-size="10.00">runtime::extensions</text>
</g>
<!-- hermes::runtime&#45;&gt;hermes::runtime::extensions -->
<g id="edge3" class="edge">
<title>hermes::runtime&#45;&gt;hermes::runtime::extensions</title>
<path fill="none" stroke="#000000" d="M534.66,-440.6C506.27,-373.98 418.53,-168.14 384.92,-89.28"/>
<polygon fill="#000000" stroke="#000000" points="388.29,-88.24 381.14,-80.42 381.85,-90.99 388.29,-88.24"/>
<text text-anchor="middle" x="447.79" y="-255.44" font-family="monospace" font-size="10.00">owns</text>
</g>
<!-- hermes::runtime::host -->
<g id="node4" class="node">
<title>hermes::runtime::host</title>
<polygon fill="#f8c04c" stroke="black" points="707.41,-434.81 707.41,-476.31 807.41,-476.31 807.41,-434.81 707.41,-434.81"/>
<text text-anchor="middle" x="757.41" y="-462.81" font-family="monospace" font-size="10.00">pub(crate) mod</text>
<polyline fill="none" stroke="black" points="707.41,-455.56 807.41,-455.56"/>
<text text-anchor="middle" x="757.41" y="-442.06" font-family="monospace" font-size="10.00">runtime::host</text>
</g>
<!-- hermes::runtime&#45;&gt;hermes::runtime::host -->
<g id="edge4" class="edge">
<title>hermes::runtime&#45;&gt;hermes::runtime::host</title>
<path fill="none" stroke="#000000" d="M594.05,-460.27C624.52,-459.39 663.59,-458.27 695.88,-457.33"/>
<polygon fill="#000000" stroke="#000000" points="695.59,-460.84 705.48,-457.06 695.38,-453.85 695.59,-460.84"/>
<text text-anchor="middle" x="632.97" y="-462.05" font-family="monospace" font-size="10.00">owns</text>
</g>
<!-- hermes::runtime::host::hermes -->
<g id="node5" class="node">
<title>hermes::runtime::host::hermes</title>
<polygon fill="#f8c04c" stroke="black" points="841.2,-205.47 841.2,-246.97 983.2,-246.97 983.2,-205.47 841.2,-205.47"/>
<text text-anchor="middle" x="912.2" y="-233.47" font-family="monospace" font-size="10.00">pub(crate) mod</text>
<polyline fill="none" stroke="black" points="841.2,-226.22 983.2,-226.22"/>
<text text-anchor="middle" x="912.2" y="-212.72" font-family="monospace" font-size="10.00">runtime::host::hermes</text>
</g>
<!-- hermes::runtime::host&#45;&gt;hermes::runtime::host::hermes -->
<g id="edge5" class="edge">
<title>hermes::runtime::host&#45;&gt;hermes::runtime::host::hermes</title>
<path fill="none" stroke="#000000" d="M771.69,-434.39C799.22,-393.6 859.72,-303.98 891.6,-256.74"/>
<polygon fill="#000000" stroke="#000000" points="894.41,-258.83 897.11,-248.59 888.61,-254.92 894.41,-258.83"/>
<text text-anchor="middle" x="819.65" y="-348.81" font-family="monospace" font-size="10.00">owns</text>
</g>
<!-- hermes::runtime::host::wasi -->
<g id="node17" class="node">
<title>hermes::runtime::host::wasi</title>
<polygon fill="#f8c04c" stroke="black" points="833.13,-563.71 833.13,-605.21 963.13,-605.21 963.13,-563.71 833.13,-563.71"/>
<text text-anchor="middle" x="898.13" y="-591.71" font-family="monospace" font-size="10.00">pub(crate) mod</text>
<polyline fill="none" stroke="black" points="833.13,-584.46 963.13,-584.46"/>
<text text-anchor="middle" x="898.13" y="-570.96" font-family="monospace" font-size="10.00">runtime::host::wasi</text>
</g>
<!-- hermes::runtime::host&#45;&gt;hermes::runtime::host::wasi -->
<g id="edge6" class="edge">
<title>hermes::runtime::host&#45;&gt;hermes::runtime::host::wasi</title>
<path fill="none" stroke="#000000" d="M780.33,-476.55C803.84,-498.09 840.58,-531.74 866.78,-555.73"/>
<polygon fill="#000000" stroke="#000000" points="864.37,-558.27 874.1,-562.45 869.09,-553.11 864.37,-558.27"/>
<text text-anchor="middle" x="811.55" y="-519.39" font-family="monospace" font-size="10.00">owns</text>
</g>
<!-- hermes::runtime::host::hermes::binary -->
<g id="node6" class="node">
<title>hermes::runtime::host::hermes::binary</title>
<polygon fill="#f8c04c" stroke="black" points="630.67,-251.5 630.67,-293 820.67,-293 820.67,-251.5 630.67,-251.5"/>
<text text-anchor="middle" x="725.67" y="-279.5" font-family="monospace" font-size="10.00">pub(crate) mod</text>
<polyline fill="none" stroke="black" points="630.67,-272.25 820.67,-272.25"/>
<text text-anchor="middle" x="725.67" y="-258.75" font-family="monospace" font-size="10.00">runtime::host::hermes::binary</text>
</g>
<!-- hermes::runtime::host::hermes&#45;&gt;hermes::runtime::host::hermes::binary -->
<g id="edge7" class="edge">
<title>hermes::runtime::host::hermes&#45;&gt;hermes::runtime::host::hermes::binary</title>
<path fill="none" stroke="#000000" d="M840.88,-243.82C834.91,-245.29 828.8,-246.8 822.67,-248.31"/>
<polygon fill="#000000" stroke="#000000" points="821.98,-244.88 813.11,-250.67 823.66,-251.68 821.98,-244.88"/>
<text text-anchor="middle" x="819.78" y="-236.57" font-family="monospace" font-size="10.00">owns</text>
</g>
<!-- hermes::runtime::host::hermes::cardano -->
<g id="node7" class="node">
<title>hermes::runtime::host::hermes::cardano</title>
<polygon fill="#f8c04c" stroke="black" points="501.41,-4.9 501.41,-46.4 697.41,-46.4 697.41,-4.9 501.41,-4.9"/>
<text text-anchor="middle" x="599.41" y="-32.9" font-family="monospace" font-size="10.00">pub(crate) mod</text>
<polyline fill="none" stroke="black" points="501.41,-25.65 697.41,-25.65"/>
<text text-anchor="middle" x="599.41" y="-12.15" font-family="monospace" font-size="10.00">runtime::host::hermes::cardano</text>
</g>
<!-- hermes::runtime::host::hermes&#45;&gt;hermes::runtime::host::hermes::cardano -->
<g id="edge8" class="edge">
<title>hermes::runtime::host::hermes&#45;&gt;hermes::runtime::host::hermes::cardano</title>
<path fill="none" stroke="#000000" d="M879.32,-205.13C822.3,-168.57 705.13,-93.44 641.98,-52.94"/>
<polygon fill="#000000" stroke="#000000" points="643.91,-50.02 633.6,-47.57 640.13,-55.92 643.91,-50.02"/>
<text text-anchor="middle" x="748.65" y="-132.29" font-family="monospace" font-size="10.00">owns</text>
</g>
<!-- hermes::runtime::host::hermes::cbor -->
<g id="node8" class="node">
<title>hermes::runtime::host::hermes::cbor</title>
<polygon fill="#f8c04c" stroke="black" points="1431,-29.63 1431,-71.13 1609,-71.13 1609,-29.63 1431,-29.63"/>
<text text-anchor="middle" x="1520" y="-57.63" font-family="monospace" font-size="10.00">pub(crate) mod</text>
<polyline fill="none" stroke="black" points="1431,-50.38 1609,-50.38"/>
<text text-anchor="middle" x="1520" y="-36.88" font-family="monospace" font-size="10.00">runtime::host::hermes::cbor</text>
</g>
<!-- hermes::runtime::host::hermes&#45;&gt;hermes::runtime::host::hermes::cbor -->
<g id="edge9" class="edge">
<title>hermes::runtime::host::hermes&#45;&gt;hermes::runtime::host::hermes::cbor</title>
<path fill="none" stroke="#000000" d="M983.41,-205.62C1096.19,-172.99 1315.42,-109.57 1435.81,-74.74"/>
<polygon fill="#000000" stroke="#000000" points="1436.71,-78.13 1445.34,-71.98 1434.76,-71.4 1436.71,-78.13"/>
<text text-anchor="middle" x="1197.61" y="-143.43" font-family="monospace" font-size="10.00">owns</text>
</g>
<!-- hermes::runtime::host::hermes::cron -->
<g id="node9" class="node">
<title>hermes::runtime::host::hermes::cron</title>
<polygon fill="#f8c04c" stroke="black" points="718.68,-5.7 718.68,-47.2 896.68,-47.2 896.68,-5.7 718.68,-5.7"/>
<text text-anchor="middle" x="807.68" y="-33.7" font-family="monospace" font-size="10.00">pub(crate) mod</text>
<polyline fill="none" stroke="black" points="718.68,-26.45 896.68,-26.45"/>
<text text-anchor="middle" x="807.68" y="-12.95" font-family="monospace" font-size="10.00">runtime::host::hermes::cron</text>
</g>
<!-- hermes::runtime::host::hermes&#45;&gt;hermes::runtime::host::hermes::cron -->
<g id="edge10" class="edge">
<title>hermes::runtime::host::hermes&#45;&gt;hermes::runtime::host::hermes::cron</title>
<path fill="none" stroke="#000000" d="M901.21,-205.22C882.75,-169.92 845.4,-98.55 823.9,-57.47"/>
<polygon fill="#000000" stroke="#000000" points="827.11,-56.05 819.38,-48.81 820.91,-59.29 827.11,-56.05"/>
<text text-anchor="middle" x="850.56" y="-134.59" font-family="monospace" font-size="10.00">owns</text>
</g>
<!-- hermes::runtime::host::hermes::crypto -->
<g id="node10" class="node">
<title>hermes::runtime::host::hermes::crypto</title>
<polygon fill="#f8c04c" stroke="black" points="1155.61,-46.12 1155.61,-87.62 1345.61,-87.62 1345.61,-46.12 1155.61,-46.12"/>
<text text-anchor="middle" x="1250.61" y="-74.12" font-family="monospace" font-size="10.00">pub(crate) mod</text>
<polyline fill="none" stroke="black" points="1155.61,-66.87 1345.61,-66.87"/>
<text text-anchor="middle" x="1250.61" y="-53.37" font-family="monospace" font-size="10.00">runtime::host::hermes::crypto</text>
</g>
<!-- hermes::runtime::host::hermes&#45;&gt;hermes::runtime::host::hermes::crypto -->
<g id="edge11" class="edge">
<title>hermes::runtime::host::hermes&#45;&gt;hermes::runtime::host::hermes::crypto</title>
<path fill="none" stroke="#000000" d="M957.14,-205.06C1018.58,-176.13 1128.73,-124.26 1195.21,-92.96"/>
<polygon fill="#000000" stroke="#000000" points="1196.56,-96.19 1204.12,-88.76 1193.58,-89.85 1196.56,-96.19"/>
<text text-anchor="middle" x="1064.18" y="-152.26" font-family="monospace" font-size="10.00">owns</text>
</g>
<!-- hermes::runtime::host::hermes::hash -->
<g id="node11" class="node">
<title>hermes::runtime::host::hermes::hash</title>
<polygon fill="#f8c04c" stroke="black" points="940.41,-0.5 940.41,-42 1118.41,-42 1118.41,-0.5 940.41,-0.5"/>
<text text-anchor="middle" x="1029.41" y="-28.5" font-family="monospace" font-size="10.00">pub(crate) mod</text>
<polyline fill="none" stroke="black" points="940.41,-21.25 1118.41,-21.25"/>
<text text-anchor="middle" x="1029.41" y="-7.75" font-family="monospace" font-size="10.00">runtime::host::hermes::hash</text>
</g>
<!-- hermes::runtime::host::hermes&#45;&gt;hermes::runtime::host::hermes::hash -->
<g id="edge12" class="edge">
<title>hermes::runtime::host::hermes&#45;&gt;hermes::runtime::host::hermes::hash</title>
<path fill="none" stroke="#000000" d="M924.31,-205.05C945.07,-168.75 987.55,-94.46 1011.67,-52.28"/>
<polygon fill="#000000" stroke="#000000" points="1014.7,-54.03 1016.63,-43.61 1008.62,-50.56 1014.7,-54.03"/>
<text text-anchor="middle" x="955.99" y="-131.92" font-family="monospace" font-size="10.00">owns</text>
</g>
<!-- hermes::runtime::host::hermes::init -->
<g id="node12" class="node">
<title>hermes::runtime::host::hermes::init</title>
<polygon fill="#f8c04c" stroke="black" points="442.59,-235.55 442.59,-277.05 620.59,-277.05 620.59,-235.55 442.59,-235.55"/>
<text text-anchor="middle" x="531.59" y="-263.55" font-family="monospace" font-size="10.00">pub(crate) mod</text>
<polyline fill="none" stroke="black" points="442.59,-256.3 620.59,-256.3"/>
<text text-anchor="middle" x="531.59" y="-242.8" font-family="monospace" font-size="10.00">runtime::host::hermes::init</text>
</g>
<!-- hermes::runtime::host::hermes&#45;&gt;hermes::runtime::host::hermes::init -->
<g id="edge13" class="edge">
<title>hermes::runtime::host::hermes&#45;&gt;hermes::runtime::host::hermes::init</title>
<path fill="none" stroke="#000000" d="M841.06,-231.84C782.18,-236.5 697.82,-243.16 632.05,-248.36"/>
<polygon fill="#000000" stroke="#000000" points="632.04,-244.85 622.34,-249.13 632.59,-251.83 632.04,-244.85"/>
<text text-anchor="middle" x="724.56" y="-230.6" font-family="monospace" font-size="10.00">owns</text>
</g>
<!-- hermes::runtime::host::hermes::json -->
<g id="node13" class="node">
<title>hermes::runtime::host::hermes::json</title>
<polygon fill="#f8c04c" stroke="black" points="1435.27,-309.7 1435.27,-351.2 1613.27,-351.2 1613.27,-309.7 1435.27,-309.7"/>
<text text-anchor="middle" x="1524.27" y="-337.7" font-family="monospace" font-size="10.00">pub(crate) mod</text>
<polyline fill="none" stroke="black" points="1435.27,-330.45 1613.27,-330.45"/>
<text text-anchor="middle" x="1524.27" y="-316.95" font-family="monospace" font-size="10.00">runtime::host::hermes::json</text>
</g>
<!-- hermes::runtime::host::hermes&#45;&gt;hermes::runtime::host::hermes::json -->
<g id="edge14" class="edge">
<title>hermes::runtime::host::hermes&#45;&gt;hermes::runtime::host::hermes::json</title>
<path fill="none" stroke="#000000" d="M983.61,-238.38C1092.36,-256.9 1299.88,-292.24 1423.79,-313.34"/>
<polygon fill="#000000" stroke="#000000" points="1422.83,-316.73 1433.28,-314.96 1424.01,-309.83 1422.83,-316.73"/>
<text text-anchor="middle" x="1215.7" y="-266.36" font-family="monospace" font-size="10.00">owns</text>
</g>
<!-- hermes::runtime::host::hermes::kv_store -->
<g id="node14" class="node">
<title>hermes::runtime::host::hermes::kv_store</title>
<polygon fill="#f8c04c" stroke="black" points="1179.28,-385.04 1179.28,-426.54 1381.28,-426.54 1381.28,-385.04 1179.28,-385.04"/>
<text text-anchor="middle" x="1280.28" y="-413.04" font-family="monospace" font-size="10.00">pub(crate) mod</text>
<polyline fill="none" stroke="black" points="1179.28,-405.79 1381.28,-405.79"/>
<text text-anchor="middle" x="1280.28" y="-392.29" font-family="monospace" font-size="10.00">runtime::host::hermes::kv_store</text>
</g>
<!-- hermes::runtime::host::hermes&#45;&gt;hermes::runtime::host::hermes::kv_store -->
<g id="edge15" class="edge">
<title>hermes::runtime::host::hermes&#45;&gt;hermes::runtime::host::hermes::kv_store</title>
<path fill="none" stroke="#000000" d="M955.51,-247.34C1023.12,-280.33 1153.57,-343.97 1226.9,-379.75"/>
<polygon fill="#000000" stroke="#000000" points="1224.97,-382.7 1235.49,-383.94 1228.04,-376.41 1224.97,-382.7"/>
<text text-anchor="middle" x="1079.2" y="-316.79" font-family="monospace" font-size="10.00">owns</text>
</g>
<!-- hermes::runtime::host::hermes::localtime -->
<g id="node15" class="node">
<title>hermes::runtime::host::hermes::localtime</title>
<polygon fill="#f8c04c" stroke="black" points="836.46,-381.73 836.46,-423.23 1044.46,-423.23 1044.46,-381.73 836.46,-381.73"/>
<text text-anchor="middle" x="940.46" y="-409.73" font-family="monospace" font-size="10.00">pub(crate) mod</text>
<polyline fill="none" stroke="black" points="836.46,-402.48 1044.46,-402.48"/>
<text text-anchor="middle" x="940.46" y="-388.98" font-family="monospace" font-size="10.00">runtime::host::hermes::localtime</text>
</g>
<!-- hermes::runtime::host::hermes&#45;&gt;hermes::runtime::host::hermes::localtime -->
<g id="edge16" class="edge">
<title>hermes::runtime::host::hermes&#45;&gt;hermes::runtime::host::hermes::localtime</title>
<path fill="none" stroke="#000000" d="M915.56,-247.13C920.43,-277.53 929.51,-334.19 935.26,-370.03"/>
<polygon fill="#000000" stroke="#000000" points="931.79,-370.51 936.83,-379.83 938.7,-369.4 931.79,-370.51"/>
<text text-anchor="middle" x="913.41" y="-311.83" font-family="monospace" font-size="10.00">owns</text>
</g>
<!-- hermes::runtime::host::hermes::logging -->
<g id="node16" class="node">
<title>hermes::runtime::host::hermes::logging</title>
<polygon fill="#f8c04c" stroke="black" points="1015.63,-255.45 1015.63,-296.95 1211.63,-296.95 1211.63,-255.45 1015.63,-255.45"/>
<text text-anchor="middle" x="1113.63" y="-283.45" font-family="monospace" font-size="10.00">pub(crate) mod</text>
<polyline fill="none" stroke="black" points="1015.63,-276.2 1211.63,-276.2"/>
<text text-anchor="middle" x="1113.63" y="-262.7" font-family="monospace" font-size="10.00">runtime::host::hermes::logging</text>
</g>
<!-- hermes::runtime::host::hermes&#45;&gt;hermes::runtime::host::hermes::logging -->
<g id="edge17" class="edge">
<title>hermes::runtime::host::hermes&#45;&gt;hermes::runtime::host::hermes::logging</title>
<path fill="none" stroke="#000000" d="M983.5,-243.91C994.48,-246.64 1005.97,-249.49 1017.38,-252.32"/>
<polygon fill="#000000" stroke="#000000" points="1016.26,-255.65 1026.81,-254.66 1017.95,-248.85 1016.26,-255.65"/>
<text text-anchor="middle" x="988.44" y="-251.36" font-family="monospace" font-size="10.00">owns</text>
</g>
<!-- hermes::runtime::host::wasi::cli -->
<g id="node18" class="node">
<title>hermes::runtime::host::wasi::cli</title>
<polygon fill="#f8c04c" stroke="black" points="730.3,-726.91 730.3,-768.41 890.3,-768.41 890.3,-726.91 730.3,-726.91"/>
<text text-anchor="middle" x="810.3" y="-754.91" font-family="monospace" font-size="10.00">pub(crate) mod</text>
<polyline fill="none" stroke="black" points="730.3,-747.66 890.3,-747.66"/>
<text text-anchor="middle" x="810.3" y="-734.16" font-family="monospace" font-size="10.00">runtime::host::wasi::cli</text>
</g>
<!-- hermes::runtime::host::wasi&#45;&gt;hermes::runtime::host::wasi::cli -->
<g id="edge18" class="edge">
<title>hermes::runtime::host::wasi&#45;&gt;hermes::runtime::host::wasi::cli</title>
<path fill="none" stroke="#000000" d="M886.83,-605.46C871.65,-633.66 844.57,-683.97 827.03,-716.57"/>
<polygon fill="#000000" stroke="#000000" points="824.07,-714.68 822.41,-725.14 830.23,-718 824.07,-714.68"/>
<text text-anchor="middle" x="844.93" y="-664.26" font-family="monospace" font-size="10.00">owns</text>
</g>
<!-- hermes::runtime::host::wasi::clocks -->
<g id="node19" class="node">
<title>hermes::runtime::host::wasi::clocks</title>
<polygon fill="#f8c04c" stroke="black" points="489.3,-738.39 489.3,-779.89 667.3,-779.89 667.3,-738.39 489.3,-738.39"/>
<text text-anchor="middle" x="578.3" y="-766.39" font-family="monospace" font-size="10.00">pub(crate) mod</text>
<polyline fill="none" stroke="black" points="489.3,-759.14 667.3,-759.14"/>
<text text-anchor="middle" x="578.3" y="-745.64" font-family="monospace" font-size="10.00">runtime::host::wasi::clocks</text>
</g>
<!-- hermes::runtime::host::wasi&#45;&gt;hermes::runtime::host::wasi::clocks -->
<g id="edge19" class="edge">
<title>hermes::runtime::host::wasi&#45;&gt;hermes::runtime::host::wasi::clocks</title>
<path fill="none" stroke="#000000" d="M859.24,-605.7C800.77,-637.64 690.32,-697.96 626.72,-732.7"/>
<polygon fill="#000000" stroke="#000000" points="625.35,-729.45 618.25,-737.32 628.71,-735.6 625.35,-729.45"/>
<text text-anchor="middle" x="730.98" y="-672.45" font-family="monospace" font-size="10.00">owns</text>
</g>
<!-- hermes::runtime::host::wasi::filesystem -->
<g id="node22" class="node">
<title>hermes::runtime::host::wasi::filesystem</title>
<polygon fill="#f8c04c" stroke="black" points="557.15,-582.39 557.15,-623.89 759.15,-623.89 759.15,-582.39 557.15,-582.39"/>
<text text-anchor="middle" x="658.15" y="-610.39" font-family="monospace" font-size="10.00">pub(crate) mod</text>
<polyline fill="none" stroke="black" points="557.15,-603.14 759.15,-603.14"/>
<text text-anchor="middle" x="658.15" y="-589.64" font-family="monospace" font-size="10.00">runtime::host::wasi::filesystem</text>
</g>
<!-- hermes::runtime::host::wasi&#45;&gt;hermes::runtime::host::wasi::filesystem -->
<g id="edge20" class="edge">
<title>hermes::runtime::host::wasi&#45;&gt;hermes::runtime::host::wasi::filesystem</title>
<path fill="none" stroke="#000000" d="M832.87,-589.54C813.7,-591.03 792.15,-592.71 770.9,-594.36"/>
<polygon fill="#000000" stroke="#000000" points="770.7,-590.87 761,-595.13 771.24,-597.85 770.7,-590.87"/>
<text text-anchor="middle" x="789.89" y="-595.2" font-family="monospace" font-size="10.00">owns</text>
</g>
<!-- hermes::runtime::host::wasi::http -->
<g id="node23" class="node">
<title>hermes::runtime::host::wasi::http</title>
<polygon fill="#f8c04c" stroke="black" points="1015.17,-498.6 1015.17,-540.1 1181.17,-540.1 1181.17,-498.6 1015.17,-498.6"/>
<text text-anchor="middle" x="1098.17" y="-526.6" font-family="monospace" font-size="10.00">pub(crate) mod</text>
<polyline fill="none" stroke="black" points="1015.17,-519.35 1181.17,-519.35"/>
<text text-anchor="middle" x="1098.17" y="-505.85" font-family="monospace" font-size="10.00">runtime::host::wasi::http</text>
</g>
<!-- hermes::runtime::host::wasi&#45;&gt;hermes::runtime::host::wasi::http -->
<g id="edge21" class="edge">
<title>hermes::runtime::host::wasi&#45;&gt;hermes::runtime::host::wasi::http</title>
<path fill="none" stroke="#000000" d="M963.36,-563.23C982.13,-557.12 1002.76,-550.4 1022.12,-544.1"/>
<polygon fill="#000000" stroke="#000000" points="1023.17,-547.44 1031.6,-541.02 1021.01,-540.78 1023.17,-547.44"/>
<text text-anchor="middle" x="980.74" y="-556.92" font-family="monospace" font-size="10.00">owns</text>
</g>
<!-- hermes::runtime::host::wasi::io -->
<g id="node24" class="node">
<title>hermes::runtime::host::wasi::io</title>
<polygon fill="#f8c04c" stroke="black" points="965.53,-710.68 965.53,-752.18 1119.53,-752.18 1119.53,-710.68 965.53,-710.68"/>
<text text-anchor="middle" x="1042.53" y="-738.68" font-family="monospace" font-size="10.00">pub(crate) mod</text>
<polyline fill="none" stroke="black" points="965.53,-731.43 1119.53,-731.43"/>
<text text-anchor="middle" x="1042.53" y="-717.93" font-family="monospace" font-size="10.00">runtime::host::wasi::io</text>
</g>
<!-- hermes::runtime::host::wasi&#45;&gt;hermes::runtime::host::wasi::io -->
<g id="edge22" class="edge">
<title>hermes::runtime::host::wasi&#45;&gt;hermes::runtime::host::wasi::io</title>
<path fill="none" stroke="#000000" d="M918.82,-605.52C943.81,-630.95 985.96,-673.85 1014.01,-702.41"/>
<polygon fill="#000000" stroke="#000000" points="1011.31,-704.65 1020.82,-709.34 1016.31,-699.75 1011.31,-704.65"/>
<text text-anchor="middle" x="954.42" y="-657.21" font-family="monospace" font-size="10.00">owns</text>
</g>
<!-- hermes::runtime::host::wasi::random -->
<g id="node27" class="node">
<title>hermes::runtime::host::wasi::random</title>
<polygon fill="#f8c04c" stroke="black" points="1178.16,-654.22 1178.16,-695.72 1356.16,-695.72 1356.16,-654.22 1178.16,-654.22"/>
<text text-anchor="middle" x="1267.16" y="-682.22" font-family="monospace" font-size="10.00">pub(crate) mod</text>
<polyline fill="none" stroke="black" points="1178.16,-674.97 1356.16,-674.97"/>
<text text-anchor="middle" x="1267.16" y="-661.47" font-family="monospace" font-size="10.00">runtime::host::wasi::random</text>
</g>
<!-- hermes::runtime::host::wasi&#45;&gt;hermes::runtime::host::wasi::random -->
<g id="edge23" class="edge">
<title>hermes::runtime::host::wasi&#45;&gt;hermes::runtime::host::wasi::random</title>
<path fill="none" stroke="#000000" d="M963.26,-600.43C1020.47,-614.46 1104.52,-635.08 1169.74,-651.07"/>
<polygon fill="#000000" stroke="#000000" points="1168.84,-654.46 1179.39,-653.44 1170.51,-647.66 1168.84,-654.46"/>
<text text-anchor="middle" x="1054.5" y="-629" font-family="monospace" font-size="10.00">owns</text>
</g>
<!-- hermes::runtime::host::wasi::clocks::monotonic -->
<g id="node20" class="node">
<title>hermes::runtime::host::wasi::clocks::monotonic</title>
<polygon fill="#db5367" stroke="black" points="296.02,-917.39 296.02,-958.89 540.02,-958.89 540.02,-917.39 296.02,-917.39"/>
<text text-anchor="middle" x="418.02" y="-945.39" font-family="monospace" font-size="10.00">pub(self) mod</text>
<polyline fill="none" stroke="black" points="296.02,-938.14 540.02,-938.14"/>
<text text-anchor="middle" x="418.02" y="-924.64" font-family="monospace" font-size="10.00">runtime::host::wasi::clocks::monotonic</text>
</g>
<!-- hermes::runtime::host::wasi::clocks&#45;&gt;hermes::runtime::host::wasi::clocks::monotonic -->
<g id="edge24" class="edge">
<title>hermes::runtime::host::wasi::clocks&#45;&gt;hermes::runtime::host::wasi::clocks::monotonic</title>
<path fill="none" stroke="#000000" d="M559.28,-780.38C530.72,-812.27 476.67,-872.64 444.34,-908.74"/>
<polygon fill="#000000" stroke="#000000" points="442.09,-906.02 438.02,-915.8 447.3,-910.69 442.09,-906.02"/>
<text text-anchor="middle" x="489.81" y="-847.81" font-family="monospace" font-size="10.00">owns</text>
</g>
<!-- hermes::runtime::host::wasi::clocks::wall -->
<g id="node21" class="node">
<title>hermes::runtime::host::wasi::clocks::wall</title>
<polygon fill="#db5367" stroke="black" points="0,-891.9 0,-933.4 214,-933.4 214,-891.9 0,-891.9"/>
<text text-anchor="middle" x="107" y="-919.9" font-family="monospace" font-size="10.00">pub(self) mod</text>
<polyline fill="none" stroke="black" points="0,-912.65 214,-912.65"/>
<text text-anchor="middle" x="107" y="-899.15" font-family="monospace" font-size="10.00">runtime::host::wasi::clocks::wall</text>
</g>
<!-- hermes::runtime::host::wasi::clocks&#45;&gt;hermes::runtime::host::wasi::clocks::wall -->
<g id="edge25" class="edge">
<title>hermes::runtime::host::wasi::clocks&#45;&gt;hermes::runtime::host::wasi::clocks::wall</title>
<path fill="none" stroke="#000000" d="M513.26,-780.33C426.87,-808.46 274.56,-858.08 182.98,-887.9"/>
<polygon fill="#000000" stroke="#000000" points="181.99,-884.55 173.56,-890.97 184.16,-891.2 181.99,-884.55"/>
<text text-anchor="middle" x="336.12" y="-837.36" font-family="monospace" font-size="10.00">owns</text>
</g>
<!-- hermes::runtime::host::wasi::io::error -->
<g id="node25" class="node">
<title>hermes::runtime::host::wasi::io::error</title>
<polygon fill="#f8c04c" stroke="black" points="596.93,-938.73 596.93,-980.23 792.93,-980.23 792.93,-938.73 596.93,-938.73"/>
<text text-anchor="middle" x="694.93" y="-966.73" font-family="monospace" font-size="10.00">pub(crate) mod</text>
<polyline fill="none" stroke="black" points="596.93,-959.48 792.93,-959.48"/>
<text text-anchor="middle" x="694.93" y="-945.98" font-family="monospace" font-size="10.00">runtime::host::wasi::io::error</text>
</g>
<!-- hermes::runtime::host::wasi::io&#45;&gt;hermes::runtime::host::wasi::io::error -->
<g id="edge26" class="edge">
<title>hermes::runtime::host::wasi::io&#45;&gt;hermes::runtime::host::wasi::io::error</title>
<path fill="none" stroke="#000000" d="M1010.14,-752.68C946.8,-794.24 806.61,-886.21 736.52,-932.19"/>
<polygon fill="#000000" stroke="#000000" points="734.81,-929.12 728.37,-937.54 738.65,-934.98 734.81,-929.12"/>
<text text-anchor="middle" x="861.33" y="-845.69" font-family="monospace" font-size="10.00">owns</text>
</g>
<!-- hermes::runtime::host::wasi::io::streams -->
<g id="node26" class="node">
<title>hermes::runtime::host::wasi::io::streams</title>
<polygon fill="#f8c04c" stroke="black" points="844.08,-931.1 844.08,-972.6 1052.08,-972.6 1052.08,-931.1 844.08,-931.1"/>
<text text-anchor="middle" x="948.08" y="-959.1" font-family="monospace" font-size="10.00">pub(crate) mod</text>
<polyline fill="none" stroke="black" points="844.08,-951.85 1052.08,-951.85"/>
<text text-anchor="middle" x="948.08" y="-938.35" font-family="monospace" font-size="10.00">runtime::host::wasi::io::streams</text>
</g>
<!-- hermes::runtime::host::wasi::io&#45;&gt;hermes::runtime::host::wasi::io::streams -->
<g id="edge27" class="edge">
<title>hermes::runtime::host::wasi::io&#45;&gt;hermes::runtime::host::wasi::io::streams</title>
<path fill="none" stroke="#000000" d="M1033.47,-752.57C1016.79,-791.49 981.15,-874.68 961.6,-920.31"/>
<polygon fill="#000000" stroke="#000000" points="958.43,-918.82 957.7,-929.39 964.86,-921.58 958.43,-918.82"/>
<text text-anchor="middle" x="985.53" y="-839.69" font-family="monospace" font-size="10.00">owns</text>
</g>
<!-- hermes::runtime::host::wasi::random::insecure -->
<g id="node28" class="node">
<title>hermes::runtime::host::wasi::random::insecure</title>
<polygon fill="#f8c04c" stroke="black" points="1087,-919.75 1087,-961.25 1325,-961.25 1325,-919.75 1087,-919.75"/>
<text text-anchor="middle" x="1206" y="-947.75" font-family="monospace" font-size="10.00">pub(crate) mod</text>
<polyline fill="none" stroke="black" points="1087,-940.5 1325,-940.5"/>
<text text-anchor="middle" x="1206" y="-927" font-family="monospace" font-size="10.00">runtime::host::wasi::random::insecure</text>
</g>
<!-- hermes::runtime::host::wasi::random&#45;&gt;hermes::runtime::host::wasi::random::insecure -->
<g id="edge28" class="edge">
<title>hermes::runtime::host::wasi::random&#45;&gt;hermes::runtime::host::wasi::random::insecure</title>
<path fill="none" stroke="#000000" d="M1262.36,-695.8C1251.74,-741.93 1226.16,-852.97 1213.44,-908.19"/>
<polygon fill="#000000" stroke="#000000" points="1210.03,-907.39 1211.2,-917.92 1216.86,-908.96 1210.03,-907.39"/>
<text text-anchor="middle" x="1225.9" y="-805.25" font-family="monospace" font-size="10.00">owns</text>
</g>
<!-- hermes::runtime::host::wasi::random::insecure_seed -->
<g id="node29" class="node">
<title>hermes::runtime::host::wasi::random::insecure_seed</title>
<polygon fill="#f8c04c" stroke="black" points="1396.96,-580.61 1396.96,-622.11 1664.96,-622.11 1664.96,-580.61 1396.96,-580.61"/>
<text text-anchor="middle" x="1530.96" y="-608.61" font-family="monospace" font-size="10.00">pub(crate) mod</text>
<polyline fill="none" stroke="black" points="1396.96,-601.36 1664.96,-601.36"/>
<text text-anchor="middle" x="1530.96" y="-587.86" font-family="monospace" font-size="10.00">runtime::host::wasi::random::insecure_seed</text>
</g>
<!-- hermes::runtime::host::wasi::random&#45;&gt;hermes::runtime::host::wasi::random::insecure_seed -->
<g id="edge29" class="edge">
<title>hermes::runtime::host::wasi::random&#45;&gt;hermes::runtime::host::wasi::random::insecure_seed</title>
<path fill="none" stroke="#000000" d="M1343.11,-653.77C1374.7,-644.96 1411.54,-634.68 1444.19,-625.57"/>
<polygon fill="#000000" stroke="#000000" points="1444.94,-628.99 1453.63,-622.93 1443.06,-622.25 1444.94,-628.99"/>
<text text-anchor="middle" x="1381.65" y="-642.92" font-family="monospace" font-size="10.00">owns</text>
</g>
<!-- hermes::runtime::host::wasi::random::secure -->
<g id="node30" class="node">
<title>hermes::runtime::host::wasi::random::secure</title>
<polygon fill="#f8c04c" stroke="black" points="1399.37,-889.08 1399.37,-930.58 1625.37,-930.58 1625.37,-889.08 1399.37,-889.08"/>
<text text-anchor="middle" x="1512.37" y="-917.08" font-family="monospace" font-size="10.00">pub(crate) mod</text>
<polyline fill="none" stroke="black" points="1399.37,-909.83 1625.37,-909.83"/>
<text text-anchor="middle" x="1512.37" y="-896.33" font-family="monospace" font-size="10.00">runtime::host::wasi::random::secure</text>
</g>
<!-- hermes::runtime::host::wasi::random&#45;&gt;hermes::runtime::host::wasi::random::secure -->
<g id="edge30" class="edge">
<title>hermes::runtime::host::wasi::random&#45;&gt;hermes::runtime::host::wasi::random::secure</title>
<path fill="none" stroke="#000000" d="M1288.92,-695.81C1332.8,-737.83 1431.96,-832.81 1482.12,-880.85"/>
<polygon fill="#000000" stroke="#000000" points="1479.57,-883.26 1489.21,-887.65 1484.41,-878.2 1479.57,-883.26"/>
<text text-anchor="middle" x="1373.52" y="-791.58" font-family="monospace" font-size="10.00">owns</text>
</g>
<!-- hermes::wasm::context -->
<g id="node32" class="node">
<title>hermes::wasm::context</title>
<polygon fill="#f8c04c" stroke="black" points="42.59,-597.47 42.59,-638.97 142.59,-638.97 142.59,-597.47 42.59,-597.47"/>
<text text-anchor="middle" x="92.59" y="-625.47" font-family="monospace" font-size="10.00">pub(crate) mod</text>
<polyline fill="none" stroke="black" points="42.59,-618.22 142.59,-618.22"/>
<text text-anchor="middle" x="92.59" y="-604.72" font-family="monospace" font-size="10.00">wasm::context</text>
</g>
<!-- hermes::wasm&#45;&gt;hermes::wasm::context -->
<g id="edge31" class="edge">
<title>hermes::wasm&#45;&gt;hermes::wasm::context</title>
<path fill="none" stroke="#000000" d="M319.61,-396.18C274.95,-439.86 172.52,-540.05 121.94,-589.52"/>
<polygon fill="#000000" stroke="#000000" points="119.78,-586.74 115.08,-596.23 124.68,-591.74 119.78,-586.74"/>
<text text-anchor="middle" x="208.78" y="-496.1" font-family="monospace" font-size="10.00">owns</text>
</g>
<!-- hermes::wasm::engine -->
<g id="node33" class="node">
<title>hermes::wasm::engine</title>
<polygon fill="#db5367" stroke="black" points="47.14,-38.46 47.14,-79.96 141.14,-79.96 141.14,-38.46 47.14,-38.46"/>
<text text-anchor="middle" x="94.14" y="-66.46" font-family="monospace" font-size="10.00">pub(self) mod</text>
<polyline fill="none" stroke="black" points="47.14,-59.21 141.14,-59.21"/>
<text text-anchor="middle" x="94.14" y="-45.71" font-family="monospace" font-size="10.00">wasm::engine</text>
</g>
<!-- hermes::wasm&#45;&gt;hermes::wasm::engine -->
<g id="edge32" class="edge">
<title>hermes::wasm&#45;&gt;hermes::wasm::engine</title>
<path fill="none" stroke="#000000" d="M324.64,-353.81C281.74,-298.98 167.05,-152.4 117.49,-89.05"/>
<polygon fill="#000000" stroke="#000000" points="120.52,-87.24 111.6,-81.53 115,-91.56 120.52,-87.24"/>
<text text-anchor="middle" x="209.06" y="-224.68" font-family="monospace" font-size="10.00">owns</text>
</g>
<!-- hermes::wasm::module -->
<g id="node34" class="node">
<title>hermes::wasm::module</title>
<polygon fill="#db5367" stroke="black" points="33.39,-331.37 33.39,-372.87 127.39,-372.87 127.39,-331.37 33.39,-331.37"/>
<text text-anchor="middle" x="80.39" y="-359.37" font-family="monospace" font-size="10.00">pub(self) mod</text>
<polyline fill="none" stroke="black" points="33.39,-352.12 127.39,-352.12"/>
<text text-anchor="middle" x="80.39" y="-338.62" font-family="monospace" font-size="10.00">wasm::module</text>
</g>
<!-- hermes::wasm&#45;&gt;hermes::wasm::module -->
<g id="edge33" class="edge">
<title>hermes::wasm&#45;&gt;hermes::wasm::module</title>
<path fill="none" stroke="#000000" d="M290.94,-370.61C247.41,-366.79 184.42,-361.25 138.69,-357.24"/>
<polygon fill="#000000" stroke="#000000" points="139.23,-353.77 128.96,-356.39 138.62,-360.75 139.23,-353.77"/>
<text text-anchor="middle" x="202.81" y="-367.17" font-family="monospace" font-size="10.00">owns</text>
</g>
</g>
</svg>
