<?xml version="1.0" encoding="UTF-8" standalone="no"?>
<!DOCTYPE svg PUBLIC "-//W3C//DTD SVG 1.1//EN"
 "http://www.w3.org/Graphics/SVG/1.1/DTD/svg11.dtd">
<!-- Generated by graphviz version 9.0.0 (20230911.1827)
 -->
<!-- Pages: 1 -->
<svg width="492pt" height="385pt"
 viewBox="0.00 0.00 492.10 385.24" xmlns="http://www.w3.org/2000/svg" xmlns:xlink="http://www.w3.org/1999/xlink">
<g id="graph0" class="graph" transform="scale(1 1) rotate(0) translate(28.8 356.44)">
<polygon fill="white" stroke="none" points="-28.8,28.8 -28.8,-356.44 463.3,-356.44 463.3,28.8 -28.8,28.8"/>
<text text-anchor="middle" x="217.25" y="-289.44" font-family="Helvetica,sans-Serif" font-size="36.00">cardano_chain_follower</text>
<!-- cardano_chain_follower -->
<g id="node1" class="node">
<title>cardano_chain_follower</title>
<polygon fill="#5397c8" stroke="black" points="133.44,-234.89 133.44,-276.39 281.44,-276.39 281.44,-234.89 133.44,-234.89"/>
<text text-anchor="middle" x="207.44" y="-262.89" font-family="monospace" font-size="10.00">crate</text>
<polyline fill="none" stroke="black" points="133.44,-255.64 281.44,-255.64"/>
<text text-anchor="middle" x="207.44" y="-242.14" font-family="monospace" font-size="10.00">cardano_chain_follower</text>
</g>
<!-- cardano_chain_follower::follow -->
<g id="node2" class="node">
<title>cardano_chain_follower::follow</title>
<polygon fill="#f8c04c" stroke="black" points="276.65,-29.08 276.65,-70.58 376.65,-70.58 376.65,-29.08 276.65,-29.08"/>
<text text-anchor="middle" x="326.65" y="-57.08" font-family="monospace" font-size="10.00">pub(crate) mod</text>
<polyline fill="none" stroke="black" points="276.65,-49.83 376.65,-49.83"/>
<text text-anchor="middle" x="326.65" y="-36.33" font-family="monospace" font-size="10.00">follow</text>
</g>
<!-- cardano_chain_follower&#45;&gt;cardano_chain_follower::follow -->
<g id="edge1" class="edge">
<title>cardano_chain_follower&#45;&gt;cardano_chain_follower::follow</title>
<path fill="none" stroke="#000000" d="M219.52,-234.77C240.58,-198.42 284.08,-123.33 308.68,-80.86"/>
<polygon fill="#000000" stroke="#000000" points="311.61,-82.77 313.59,-72.37 305.55,-79.27 311.61,-82.77"/>
<text text-anchor="middle" x="252.1" y="-161.06" font-family="monospace" font-size="10.00">owns</text>
</g>
<!-- cardano_chain_follower::mithril_snapshot -->
<g id="node4" class="node">
<title>cardano_chain_follower::mithril_snapshot</title>
<polygon fill="#f8c04c" stroke="black" points="34.21,-177.15 34.21,-218.65 146.21,-218.65 146.21,-177.15 34.21,-177.15"/>
<text text-anchor="middle" x="90.21" y="-205.15" font-family="monospace" font-size="10.00">pub(crate) mod</text>
<polyline fill="none" stroke="black" points="34.21,-197.9 146.21,-197.9"/>
<text text-anchor="middle" x="90.21" y="-184.4" font-family="monospace" font-size="10.00">mithril_snapshot</text>
</g>
<!-- cardano_chain_follower&#45;&gt;cardano_chain_follower::mithril_snapshot -->
<g id="edge2" class="edge">
<title>cardano_chain_follower&#45;&gt;cardano_chain_follower::mithril_snapshot</title>
<path fill="none" stroke="#000000" d="M164.45,-234.47C157.6,-231.09 150.45,-227.57 143.39,-224.1"/>
<polygon fill="#000000" stroke="#000000" points="145.06,-221.02 134.55,-219.74 141.97,-227.3 145.06,-221.02"/>
<text text-anchor="middle" x="165.92" y="-219.78" font-family="monospace" font-size="10.00">owns</text>
</g>
<!-- cardano_chain_follower::read -->
<g id="node5" class="node">
<title>cardano_chain_follower::read</title>
<polygon fill="#f8c04c" stroke="black" points="300.29,-217.28 300.29,-258.78 400.29,-258.78 400.29,-217.28 300.29,-217.28"/>
<text text-anchor="middle" x="350.29" y="-245.28" font-family="monospace" font-size="10.00">pub(crate) mod</text>
<polyline fill="none" stroke="black" points="300.29,-238.03 400.29,-238.03"/>
<text text-anchor="middle" x="350.29" y="-224.53" font-family="monospace" font-size="10.00">read</text>
</g>
<!-- cardano_chain_follower&#45;&gt;cardano_chain_follower::read -->
<g id="edge3" class="edge">
<title>cardano_chain_follower&#45;&gt;cardano_chain_follower::read</title>
<path fill="none" stroke="#000000" d="M281.79,-246.47C284.08,-246.19 286.37,-245.91 288.64,-245.63"/>
<polygon fill="#000000" stroke="#000000" points="288.84,-249.13 298.33,-244.43 287.98,-242.18 288.84,-249.13"/>
<text text-anchor="middle" x="291.22" y="-236.55" font-family="monospace" font-size="10.00">owns</text>
</g>
<!-- cardano_chain_follower::follow::follow_task -->
<g id="node3" class="node">
<title>cardano_chain_follower::follow::follow_task</title>
<polygon fill="#db5367" stroke="black" points="75.81,-0.5 75.81,-42 205.81,-42 205.81,-0.5 75.81,-0.5"/>
<text text-anchor="middle" x="140.81" y="-28.5" font-family="monospace" font-size="10.00">pub(self) mod</text>
<polyline fill="none" stroke="black" points="75.81,-21.25 205.81,-21.25"/>
<text text-anchor="middle" x="140.81" y="-7.75" font-family="monospace" font-size="10.00">follow::follow_task</text>
</g>
<!-- cardano_chain_follower::follow&#45;&gt;cardano_chain_follower::follow::follow_task -->
<g id="edge4" class="edge">
<title>cardano_chain_follower::follow&#45;&gt;cardano_chain_follower::follow::follow_task</title>
<path fill="none" stroke="#000000" d="M276.36,-42.09C258.21,-39.3 237.3,-36.09 217.41,-33.03"/>
<polygon fill="#000000" stroke="#000000" points="218.09,-29.59 207.67,-31.53 217.02,-36.51 218.09,-29.59"/>
<text text-anchor="middle" x="234.89" y="-40.81" font-family="monospace" font-size="10.00">owns</text>
</g>
</g>
</svg>
