<svg version="1.1" xmlns="http://www.w3.org/2000/svg" viewBox="0 0 793.855285831017 698" width="793.855285831017" height="698">
  <!-- svg-source:excalidraw -->
  
  <defs>
    <style class="style-fonts">
      @font-face {
        font-family: "Virgil";
        src: url("https://unpkg.com/@excalidraw/excalidraw@0.15.3/dist/excalidraw-assets/Virgil.woff2");
      }
      @font-face {
        font-family: "Cascadia";
        src: url("https://unpkg.com/@excalidraw/excalidraw@0.15.3/dist/excalidraw-assets/Cascadia.woff2");
      }
    </style>
  </defs>
  <rect x="0" y="0" width="793.855285831017" height="698" fill="#ffffff"></rect><g stroke-linecap="round"><g transform="translate(280 206.1294325822135) rotate(0 29.345425395267625 0.5493712765227201)"><path d="M-0.36 0.8 C9.48 1.1, 48.96 1.56, 58.9 1.55 M1.66 0.18 C11.36 0.13, 48.53 -0.63, 58.06 -0.34" stroke="#1e1e1e" stroke-width="2" fill="none"></path></g><g transform="translate(280 206.1294325822135) rotate(0 29.345425395267625 0.5493712765227201)"><path d="M31.81 10.01 C39.24 7.84, 45.94 2.65, 59.24 1.26 M30.34 8.99 C38.13 6.95, 46.06 4.07, 57.98 0.2" stroke="#1e1e1e" stroke-width="2" fill="none"></path></g><g transform="translate(280 206.1294325822135) rotate(0 29.345425395267625 0.5493712765227201)"><path d="M31.84 -10.07 C39.22 -6.42, 45.92 -5.79, 59.24 1.26 M30.37 -11.09 C38.18 -7.1, 46.11 -3.95, 57.98 0.2" stroke="#1e1e1e" stroke-width="2" fill="none"></path></g></g><mask></mask><g stroke-linecap="round" transform="translate(343 175) rotate(0 29.5 30)"><path d="M37.5 7.75 M37.5 7.75 C41.34 10.79, 45.21 15.29, 51.5 23.25 M37.5 7.75 C42.7 14.21, 48.1 19.94, 51.5 23.25 M51.5 23.25 C57.72 32.31, 59.96 32.85, 51.5 38.75 M51.5 23.25 C60.54 30.32, 58.31 29.3, 51.5 38.75 M51.5 38.75 C49.27 43.39, 45.35 46.82, 37.5 52.25 M51.5 38.75 C46.78 43.07, 43.81 46.31, 37.5 52.25 M37.5 52.25 C31.6 60.22, 31.29 60.48, 22.5 52.25 M37.5 52.25 C28.45 61.26, 29.77 60.45, 22.5 52.25 M22.5 52.25 C17.47 47.65, 13.98 41.14, 7.5 38.75 M22.5 52.25 C17.05 46.7, 12.1 42.1, 7.5 38.75 M7.5 38.75 C1.66 29.15, -1.9 29.97, 7.5 23.25 M7.5 38.75 C1.06 29.15, 0.68 29.62, 7.5 23.25 M7.5 23.25 C12.71 20.35, 13.81 13.85, 22.5 7.75 M7.5 23.25 C11.19 19.07, 16.35 13.24, 22.5 7.75 M22.5 7.75 C31.61 0.62, 29.47 -1.21, 37.5 7.75 M22.5 7.75 C31.03 1.75, 28.18 1.68, 37.5 7.75" stroke="#1e1e1e" stroke-width="2" fill="none"></path></g><g mask="url(#mask-pEgJ2HRO1X63Yh-yoT7JI)" stroke-linecap="round"><g transform="translate(372.23733807800454 172.7036374420607) rotate(0 -0.23853959117934664 -49.34889795167468)"><path d="M0.33 0.6 C0.36 -6.28, -0.37 -25.25, -0.35 -41.67 C-0.32 -58.08, 0.16 -88.33, 0.5 -97.88 M-0.96 -0.12 C-0.96 -6.85, -0.92 -24.02, -0.83 -40.64 C-0.73 -57.25, -0.95 -90.23, -0.41 -99.79" stroke="#1e1e1e" stroke-width="2" fill="none"></path></g><g transform="translate(372.23733807800454 172.7036374420607) rotate(0 -0.23853959117934664 -49.34889795167468)"><path d="M9.91 -70.83 C5.01 -79.74, 5.6 -84.8, -0.9 -100.3 M9.05 -72.3 C5.55 -82.55, 1.53 -93.46, 0.08 -100.43" stroke="#1e1e1e" stroke-width="2" fill="none"></path></g><g transform="translate(372.23733807800454 172.7036374420607) rotate(0 -0.23853959117934664 -49.34889795167468)"><path d="M-9.93 -71.27 C-9.77 -80.13, -4.11 -85.07, -0.9 -100.3 M-10.79 -72.75 C-6.44 -82.91, -2.6 -93.65, 0.08 -100.43" stroke="#1e1e1e" stroke-width="2" fill="none"></path></g></g><mask id="mask-pEgJ2HRO1X63Yh-yoT7JI"><rect x="0" y="0" fill="#fff" width="474.23493505165493" height="371.40143334541006"></rect><rect x="295.78333282470703" y="112" fill="#000" width="150.43333435058594" height="40" opacity="1"></rect></mask><g transform="translate(295.78333282470703 111.99999999999999) rotate(0 76.22314006531104 11.108666415984679)"><text x="75.21666717529297" y="0" font-family="Virgil, Segoe UI Emoji" font-size="16px" fill="#1e1e1e" text-anchor="middle" style="white-space: pre;" direction="ltr" dominant-baseline="text-before-edge">Starting point not </text><text x="75.21666717529297" y="20" font-family="Virgil, Segoe UI Emoji" font-size="16px" fill="#1e1e1e" text-anchor="middle" style="white-space: pre;" direction="ltr" dominant-baseline="text-before-edge">found</text></g><g stroke-linecap="round" transform="translate(333 10) rotate(0 41 26)"><path d="M46.43 0.13 C54.16 0.51, 64.47 4.12, 70.24 7.78 C76 11.44, 79.8 17.09, 81.03 22.11 C82.25 27.13, 81.15 33.47, 77.58 37.88 C74.01 42.29, 66.65 46.12, 59.63 48.58 C52.61 51.03, 43.15 53.23, 35.45 52.61 C27.75 51.99, 19.25 48.47, 13.44 44.87 C7.62 41.27, 2.27 36.11, 0.57 31.01 C-1.14 25.91, -0.28 18.89, 3.21 14.28 C6.7 9.67, 12.77 5.47, 21.53 3.34 C30.3 1.2, 48.74 1.26, 55.81 1.46 C62.87 1.66, 63.98 4.22, 63.93 4.55 M23.19 1.07 C29.79 -1.59, 40.17 -1.36, 47.99 -0.33 C55.82 0.69, 64.59 3.62, 70.13 7.22 C75.67 10.82, 80.14 16.12, 81.25 21.28 C82.36 26.44, 80.78 33.5, 76.79 38.17 C72.81 42.84, 64.5 46.88, 57.35 49.3 C50.2 51.72, 41.3 53.77, 33.87 52.66 C26.44 51.55, 18.24 46.66, 12.77 42.63 C7.3 38.59, 2.2 33.49, 1.07 28.44 C-0.06 23.39, 2.14 16.65, 5.98 12.32 C9.82 8, 21.24 4.27, 24.09 2.5 C26.95 0.74, 22.88 1.37, 23.11 1.73" stroke="#e03131" stroke-width="2" fill="none"></path></g><g transform="translate(356.7919547960586 23.615223689149765) rotate(0 17.21666717529297 12.5)"><text x="17.21666717529297" y="0" font-family="Virgil, Segoe UI Emoji" font-size="20px" fill="#e03131" text-anchor="middle" style="white-space: pre;" direction="ltr" dominant-baseline="text-before-edge">Fail</text></g><g mask="url(#mask-Tdv6Bplrl_D3r5oIEaeVd)" stroke-linecap="round"><g transform="translate(412.63585084955264 203.69728567957702) rotate(0 71.18496581128119 4.170586960646389)"><path d="M-0.75 -0.86 C9.8 -0.16, 40.12 3.66, 63.98 5.07 C87.84 6.49, 129.17 7.03, 142.43 7.62 M1.06 1.31 C11.41 1.54, 39.74 1.85, 63.17 3.06 C86.61 4.26, 128.77 7.42, 141.7 8.55" stroke="#1e1e1e" stroke-width="2" fill="none"></path></g><g transform="translate(412.63585084955264 203.69728567957702) rotate(0 71.18496581128119 4.170586960646389)"><path d="M111.35 16.98 C123.4 13.96, 132.2 12.91, 142.14 9.27 M112.4 15.56 C118.7 14.63, 124.69 13.78, 141.47 8.04" stroke="#1e1e1e" stroke-width="2" fill="none"></path></g><g transform="translate(412.63585084955264 203.69728567957702) rotate(0 71.18496581128119 4.170586960646389)"><path d="M112.99 -3.47 C124.6 0.81, 132.82 7.09, 142.14 9.27 M114.04 -4.9 C119.83 -1.68, 125.48 1.63, 141.47 8.04" stroke="#1e1e1e" stroke-width="2" fill="none"></path></g></g><mask id="mask-Tdv6Bplrl_D3r5oIEaeVd"><rect x="0" y="0" fill="#fff" width="655.005782472115" height="312.0384596008698"></rect><rect x="444.19359396589186" y="178.56927437541594" fill="#000" width="64.30000305175781" height="60" opacity="1"></rect></mask><g transform="translate(444.193593965892 178.56927437541594) rotate(0 39.28379515159986 28.975814912014243)"><text x="32.150001525878906" y="0" font-family="Virgil, Segoe UI Emoji" font-size="16px" fill="#1e1e1e" text-anchor="middle" style="white-space: pre;" direction="ltr" dominant-baseline="text-before-edge">Starting</text><text x="32.150001525878906" y="20" font-family="Virgil, Segoe UI Emoji" font-size="16px" fill="#1e1e1e" text-anchor="middle" style="white-space: pre;" direction="ltr" dominant-baseline="text-before-edge">point</text><text x="32.150001525878906" y="40" font-family="Virgil, Segoe UI Emoji" font-size="16px" fill="#1e1e1e" text-anchor="middle" style="white-space: pre;" direction="ltr" dominant-baseline="text-before-edge">found</text></g><g stroke-linecap="round" transform="translate(566 171) rotate(0 65 35)"><path d="M17.5 0 M17.5 0 C46.95 2.27, 73.44 1.52, 112.5 0 M17.5 0 C54.96 0.49, 92.85 0.6, 112.5 0 M112.5 0 C125.27 -1.06, 129.75 4.46, 130 17.5 M112.5 0 C124.91 -1.67, 131.87 3.64, 130 17.5 M130 17.5 C131.24 30.97, 129.5 41, 130 52.5 M130 17.5 C129.6 26.71, 129.29 36.02, 130 52.5 M130 52.5 C131.62 64.67, 122.27 68.15, 112.5 70 M130 52.5 C129.37 64.9, 123.4 69.9, 112.5 70 M112.5 70 C80.27 70.31, 46.57 72.17, 17.5 70 M112.5 70 C90.4 70.23, 67.28 68.99, 17.5 70 M17.5 70 C5.41 68.23, -0.12 64.24, 0 52.5 M17.5 70 C4.24 70.65, -1.13 62.38, 0 52.5 M0 52.5 C0.36 41.37, 1.19 31.87, 0 17.5 M0 52.5 C0.59 39.91, 0.49 25.04, 0 17.5 M0 17.5 C-0.45 6.92, 4.14 -1.88, 17.5 0 M0 17.5 C-0.86 7.61, 6.94 -1.02, 17.5 0" stroke="#1e1e1e" stroke-width="2" fill="none"></path></g><g transform="translate(591.0833320617676 176) rotate(0 39.91666793823242 30)"><text x="39.91666793823242" y="0" font-family="Virgil, Segoe UI Emoji" font-size="16px" fill="#1e1e1e" text-anchor="middle" style="white-space: pre;" direction="ltr" dominant-baseline="text-before-edge">Get the</text><text x="39.91666793823242" y="20" font-family="Virgil, Segoe UI Emoji" font-size="16px" fill="#1e1e1e" text-anchor="middle" style="white-space: pre;" direction="ltr" dominant-baseline="text-before-edge">next chain</text><text x="39.91666793823242" y="40" font-family="Virgil, Segoe UI Emoji" font-size="16px" fill="#1e1e1e" text-anchor="middle" style="white-space: pre;" direction="ltr" dominant-baseline="text-before-edge">update</text></g><g stroke-linecap="round"><g transform="translate(637.8217867371975 252) rotate(0 -0.8043442732468975 27.802246256994465)"><path d="M-0.22 0.57 C-0.43 10.08, -0.53 46.71, -0.83 56.01 M-1.8 -0.18 C-2.13 9.06, -1.17 44.99, -1.37 54.1" stroke="#1e1e1e" stroke-width="2" fill="none"></path></g><g transform="translate(637.8217867371975 252) rotate(0 -0.8043442732468975 27.802246256994465)"><path d="M-10.07 29.32 C-7.33 36.16, -3.45 46.79, -3.17 53.94 M-10.58 27.51 C-9.59 34.48, -7.55 39.47, -0.56 54.44" stroke="#1e1e1e" stroke-width="2" fill="none"></path></g><g transform="translate(637.8217867371975 252) rotate(0 -0.8043442732468975 27.802246256994465)"><path d="M8.96 29.22 C5.31 36.06, 2.81 46.72, -3.17 53.94 M8.45 27.42 C5.42 34.42, 3.45 39.43, -0.56 54.44" stroke="#1e1e1e" stroke-width="2" fill="none"></path></g></g><mask></mask><g stroke-linecap="round" transform="translate(606.5 314) rotate(0 29.5 30)"><path d="M37.5 7.75 M37.5 7.75 C42.58 11.98, 43.26 14.82, 51.5 23.25 M37.5 7.75 C40.9 12.46, 45.55 17.11, 51.5 23.25 M51.5 23.25 C60.29 31.43, 58.63 31.41, 51.5 38.75 M51.5 23.25 C58.62 32.5, 57.15 29.2, 51.5 38.75 M51.5 38.75 C48.57 40.33, 45.4 45.73, 37.5 52.25 M51.5 38.75 C45.8 44.07, 40.37 49.15, 37.5 52.25 M37.5 52.25 C30.37 59.58, 30.61 61.66, 22.5 52.25 M37.5 52.25 C27.75 61.26, 28.21 57.78, 22.5 52.25 M22.5 52.25 C19 47.07, 15.7 43.53, 7.5 38.75 M22.5 52.25 C20.46 48.49, 15.67 46.1, 7.5 38.75 M7.5 38.75 C-1.94 32.38, -0.24 29.82, 7.5 23.25 M7.5 38.75 C-2.23 31.02, 2.06 30.7, 7.5 23.25 M7.5 23.25 C10.72 18.1, 12.95 17.38, 22.5 7.75 M7.5 23.25 C12.89 18.19, 16.3 13.34, 22.5 7.75 M22.5 7.75 C30.81 -0.5, 28.48 -0.79, 37.5 7.75 M22.5 7.75 C30.99 -1.97, 27.76 -0.21, 37.5 7.75" stroke="#1e1e1e" stroke-width="2" fill="none"></path></g><g mask="url(#mask-4cILzm5bJtryTAbY_mu7c)" stroke-linecap="round"><g transform="translate(599 347) rotate(0 -77.5 0.5)"><path d="M-0.04 -0.72 C-25.82 -0.63, -129.97 -0.33, -155.7 0.03 M-1.52 1.52 C-26.83 1.77, -127.8 1.42, -153.36 1.06" stroke="#1e1e1e" stroke-width="2" fill="none"></path></g><g transform="translate(599 347) rotate(0 -77.5 0.5)"><path d="M-126.29 -10.15 C-132.82 -5.85, -136.47 -5.06, -154.55 0.03 M-125.92 -9.59 C-132.75 -6.22, -140.1 -4.77, -154.3 1.54" stroke="#1e1e1e" stroke-width="2" fill="none"></path></g><g transform="translate(599 347) rotate(0 -77.5 0.5)"><path d="M-126.45 10.37 C-132.86 10.25, -136.48 6.63, -154.55 0.03 M-126.07 10.93 C-132.67 8.93, -139.98 5.02, -154.3 1.54" stroke="#1e1e1e" stroke-width="2" fill="none"></path></g></g><mask id="mask-4cILzm5bJtryTAbY_mu7c"><rect x="0" y="0" fill="#fff" width="854" height="448"></rect><rect x="482.7666664123535" y="317.5" fill="#000" width="77.46666717529297" height="60" opacity="1"></rect></mask><g transform="translate(482.7666664123535 317.5) rotate(0 38.360595445334866 29.94099756996914)"><text x="38.733333587646484" y="0" font-family="Virgil, Segoe UI Emoji" font-size="16px" fill="#1e1e1e" text-anchor="middle" style="white-space: pre;" direction="ltr" dominant-baseline="text-before-edge">Mithril</text><text x="38.733333587646484" y="20" font-family="Virgil, Segoe UI Emoji" font-size="16px" fill="#1e1e1e" text-anchor="middle" style="white-space: pre;" direction="ltr" dominant-baseline="text-before-edge">snapshot </text><text x="38.733333587646484" y="40" font-family="Virgil, Segoe UI Emoji" font-size="16px" fill="#1e1e1e" text-anchor="middle" style="white-space: pre;" direction="ltr" dominant-baseline="text-before-edge">configured</text></g><g stroke-linecap="round" transform="translate(370 321) rotate(0 33.5 28.5)"><path d="M42.5 7.25 M42.5 7.25 C46.6 11.36, 51.19 16.56, 58.5 21.75 M42.5 7.25 C45.98 10.77, 49.42 12.71, 58.5 21.75 M58.5 21.75 C68.1 28.66, 66.9 30.44, 58.5 36.25 M58.5 21.75 C66.7 26.82, 65.97 27, 58.5 36.25 M58.5 36.25 C53.87 38.96, 48.79 44.32, 42.5 49.75 M58.5 36.25 C52.67 41.37, 45.41 46.47, 42.5 49.75 M42.5 49.75 C32.7 58.48, 32.51 58.02, 25.5 49.75 M42.5 49.75 C35.37 58.69, 36.1 56.1, 25.5 49.75 M25.5 49.75 C22.83 47, 14.54 42.93, 8.5 36.25 M25.5 49.75 C21.24 45.74, 15.58 43.68, 8.5 36.25 M8.5 36.25 C1.77 27.59, 1.3 29.28, 8.5 21.75 M8.5 36.25 C0.86 31.11, 1.76 30.93, 8.5 21.75 M8.5 21.75 C13.82 18.07, 14.67 16.58, 25.5 7.25 M8.5 21.75 C14.57 16.27, 20.5 11.22, 25.5 7.25 M25.5 7.25 C34.79 1.68, 32.18 -0.11, 42.5 7.25 M25.5 7.25 C32.81 -1.61, 34.75 0.6, 42.5 7.25" stroke="#1e1e1e" stroke-width="2" fill="none"></path></g><g mask="url(#mask-eOKerqOyo7KFFYMJIlMDg)" stroke-linecap="round"><g transform="translate(635 385) rotate(0 1 49)"><path d="M0.1 -0.24 C0.18 6.79, 0.81 24.73, 1.05 41.06 C1.3 57.39, 1.64 88.23, 1.59 97.77 M-1.3 -1.41 C-0.91 5.92, 2.87 25.9, 3.27 42.63 C3.67 59.36, 1.51 89.48, 1.09 98.96" stroke="#1e1e1e" stroke-width="2" fill="none"></path></g><g transform="translate(635 385) rotate(0 1 49)"><path d="M-7.56 70.1 C-4.43 82.09, -2.03 90.16, 1.56 99.31 M-8.05 71.32 C-5.69 79.83, -3.36 87.03, 1.82 98.07" stroke="#1e1e1e" stroke-width="2" fill="none"></path></g><g transform="translate(635 385) rotate(0 1 49)"><path d="M11.91 71.18 C8.23 82.81, 3.82 90.5, 1.56 99.31 M11.42 72.4 C8.3 80.69, 5.15 87.59, 1.82 98.07" stroke="#1e1e1e" stroke-width="2" fill="none"></path></g></g><mask id="mask-eOKerqOyo7KFFYMJIlMDg"><rect x="0" y="0" fill="#fff" width="737" height="583"></rect><rect x="561.1666641235352" y="406" fill="#000" width="151.6666717529297" height="40" opacity="1"></rect></mask><g transform="translate(561.1666641235352 406) rotate(0 74.84172710835651 27.77277155752293)"><text x="75.83333587646484" y="0" font-family="Virgil, Segoe UI Emoji" font-size="16px" fill="#1e1e1e" text-anchor="middle" style="white-space: pre;" direction="ltr" dominant-baseline="text-before-edge">No Mithril snapshot</text><text x="75.83333587646484" y="20" font-family="Virgil, Segoe UI Emoji" font-size="16px" fill="#1e1e1e" text-anchor="middle" style="white-space: pre;" direction="ltr" dominant-baseline="text-before-edge">configured</text></g><g stroke-linecap="round" transform="translate(575 493) rotate(0 59 35)"><path d="M17.5 0 M17.5 0 C38.24 -2.35, 57.74 -0.49, 100.5 0 M17.5 0 C35.44 -0.61, 54.38 -0.84, 100.5 0 M100.5 0 C112.74 -1.79, 118.27 4.16, 118 17.5 M100.5 0 C110.84 -2.23, 118.63 6.28, 118 17.5 M118 17.5 C118.67 27.38, 117.96 37.37, 118 52.5 M118 17.5 C118.8 27.04, 117.73 38.35, 118 52.5 M118 52.5 C119.69 65.19, 112.17 69.65, 100.5 70 M118 52.5 C115.83 64.81, 111.93 70.94, 100.5 70 M100.5 70 C72.51 68.79, 39.11 69.72, 17.5 70 M100.5 70 C70.48 69.9, 42.62 70.19, 17.5 70 M17.5 70 C6.73 68.91, 0.19 62.54, 0 52.5 M17.5 70 C3.94 68.27, 1.12 64.35, 0 52.5 M0 52.5 C0.61 40.25, 0.64 30.72, 0 17.5 M0 52.5 C-0.74 40.53, 0.85 30, 0 17.5 M0 17.5 C-0.8 7.39, 7.38 1.1, 17.5 0 M0 17.5 C0.91 4.24, 4.14 0.65, 17.5 0" stroke="#1e1e1e" stroke-width="2" fill="none"></path></g><g transform="translate(580.9333343505859 498) rotate(0 53.06666564941406 30)"><text x="53.06666564941406" y="0" font-family="Virgil, Segoe UI Emoji" font-size="16px" fill="#1e1e1e" text-anchor="middle" style="white-space: pre;" direction="ltr" dominant-baseline="text-before-edge">Wait next </text><text x="53.06666564941406" y="20" font-family="Virgil, Segoe UI Emoji" font-size="16px" fill="#1e1e1e" text-anchor="middle" style="white-space: pre;" direction="ltr" dominant-baseline="text-before-edge">update from </text><text x="53.06666564941406" y="40" font-family="Virgil, Segoe UI Emoji" font-size="16px" fill="#1e1e1e" text-anchor="middle" style="white-space: pre;" direction="ltr" dominant-baseline="text-before-edge">Cardano node</text></g><g mask="url(#mask-Q7lau4tOwnsYN__cq227u)" stroke-linecap="round"><g transform="translate(405 390) rotate(0 77.5 73)"><path d="M-0.24 0.48 C1.84 22.2, -13.85 106.94, 12.21 131.13 C38.26 155.32, 132.24 143.09, 156.07 145.64 M-1.83 -0.31 C0.14 21.47, -14.92 107.7, 11.37 132.21 C37.65 156.72, 131.83 144.18, 155.86 146.77" stroke="#1e1e1e" stroke-width="2" fill="none"></path></g><g transform="translate(405 390) rotate(0 77.5 73)"><path d="M128.57 157.64 C133.99 156.22, 142.59 151.85, 156.53 147.72 M128.4 156.6 C136.19 154.42, 144.74 151.03, 155.02 146.84" stroke="#1e1e1e" stroke-width="2" fill="none"></path></g><g transform="translate(405 390) rotate(0 77.5 73)"><path d="M128.38 137.12 C133.99 141.36, 142.64 142.65, 156.53 147.72 M128.2 136.08 C136.22 140.01, 144.83 142.72, 155.02 146.84" stroke="#1e1e1e" stroke-width="2" fill="none"></path></g></g><mask id="mask-Q7lau4tOwnsYN__cq227u"><rect x="0" y="0" fill="#fff" width="660" height="636"></rect><rect x="354.3833351135254" y="492" fill="#000" width="125.23332977294922" height="60" opacity="1"></rect></mask><g transform="translate(354.3833351135254 492) rotate(0 126.4699303295647 -28.291280672003154)"><text x="62.61666488647461" y="0" font-family="Virgil, Segoe UI Emoji" font-size="16px" fill="#1e1e1e" text-anchor="middle" style="white-space: pre;" direction="ltr" dominant-baseline="text-before-edge">Read pointer</text><text x="62.61666488647461" y="20" font-family="Virgil, Segoe UI Emoji" font-size="16px" fill="#1e1e1e" text-anchor="middle" style="white-space: pre;" direction="ltr" dominant-baseline="text-before-edge">not contained in</text><text x="62.61666488647461" y="40" font-family="Virgil, Segoe UI Emoji" font-size="16px" fill="#1e1e1e" text-anchor="middle" style="white-space: pre;" direction="ltr" dominant-baseline="text-before-edge">Mithril snapshot</text></g><g mask="url(#mask-a9u3gfze0M0ucU9T1TOKT)" stroke-linecap="round"><g transform="translate(365.28345288113064 351.8233150314355) rotate(0 -90.14172644056532 -0.8180871407517998)"><path d="M0.44 0.8 C-13.03 0.83, -50.19 -0.07, -80.22 -0.46 C-110.26 -0.85, -163.21 -1.35, -179.74 -1.56 M-0.78 0.17 C-14.46 -0.11, -51.24 -2.33, -81.14 -2.39 C-111.05 -2.45, -163.96 -0.5, -180.22 -0.2" stroke="#1e1e1e" stroke-width="2" fill="none"></path></g><g transform="translate(365.28345288113064 351.8233150314355) rotate(0 -90.14172644056532 -0.8180871407517998)"><path d="M-150.99 -11.12 C-161.56 -6.34, -171.82 -1.9, -180.29 0.21 M-152.62 -11.39 C-162.08 -6.37, -172.44 -4.3, -180.73 -1.05" stroke="#1e1e1e" stroke-width="2" fill="none"></path></g><g transform="translate(365.28345288113064 351.8233150314355) rotate(0 -90.14172644056532 -0.8180871407517998)"><path d="M-150.43 9.4 C-161.09 6.98, -171.54 4.22, -180.29 0.21 M-152.07 9.13 C-161.75 7.09, -172.3 2.1, -180.73 -1.05" stroke="#1e1e1e" stroke-width="2" fill="none"></path></g></g><mask id="mask-a9u3gfze0M0ucU9T1TOKT"><rect x="0" y="0" fill="#fff" width="645.5669057622613" height="453.4594893129391"></rect><rect x="222.75" y="321" fill="#000" width="124.5" height="60" opacity="1"></rect></mask><g transform="translate(222.75 321) rotate(0 52.64486553835371 30.025541996544092)"><text x="62.25" y="0" font-family="Virgil, Segoe UI Emoji" font-size="16px" fill="#1e1e1e" text-anchor="middle" style="white-space: pre;" direction="ltr" dominant-baseline="text-before-edge">Read pointer</text><text x="62.25" y="20" font-family="Virgil, Segoe UI Emoji" font-size="16px" fill="#1e1e1e" text-anchor="middle" style="white-space: pre;" direction="ltr" dominant-baseline="text-before-edge">contained in</text><text x="62.25" y="40" font-family="Virgil, Segoe UI Emoji" font-size="16px" fill="#1e1e1e" text-anchor="middle" style="white-space: pre;" direction="ltr" dominant-baseline="text-before-edge">Mithril snapshot</text></g><g stroke-linecap="round" transform="translate(10 324) rotate(0 85.00000000000003 28)"><path d="M14 0 M14 0 C54.49 -2.01, 94.3 -0.51, 156 0 M14 0 C47.02 1.7, 80.42 0.22, 156 0 M156 0 C163.6 1.17, 169.08 5.04, 170 14 M156 0 C164.99 -1.37, 170.43 2.75, 170 14 M170 14 C168.84 19.81, 171.61 27.4, 170 42 M170 14 C170.93 24.05, 170.94 31.33, 170 42 M170 42 C169.66 53.17, 163.39 56.6, 156 56 M170 42 C168.66 50.43, 165.93 54.72, 156 56 M156 56 C125.05 55.05, 94.21 57.72, 14 56 M156 56 C115.07 54.72, 73.01 56.06, 14 56 M14 56 C5.67 55.19, 0.9 49.5, 0 42 M14 56 C2.56 54.94, -0.13 51.56, 0 42 M0 42 C-0.68 31.29, 0.6 23.47, 0 14 M0 42 C-0.54 34.46, -0.03 24.91, 0 14 M0 14 C0.18 5.39, 6.62 0.71, 14 0 M0 14 C1.48 6.29, 4.7 -0.08, 14 0" stroke="#1e1e1e" stroke-width="2" fill="none"></path></g><g transform="translate(31.983333587646484 332) rotate(0 63.016666412353516 20)"><text x="63.016666412353516" y="0" font-family="Virgil, Segoe UI Emoji" font-size="16px" fill="#1e1e1e" text-anchor="middle" style="white-space: pre;" direction="ltr" dominant-baseline="text-before-edge">Read block from</text><text x="63.016666412353516" y="20" font-family="Virgil, Segoe UI Emoji" font-size="16px" fill="#1e1e1e" text-anchor="middle" style="white-space: pre;" direction="ltr" dominant-baseline="text-before-edge">Mithril snapshot</text></g><g stroke-linecap="round" transform="translate(151 164) rotate(0 61.5 42.5)"><path d="M63.65 -0.2 C73.5 -0.72, 86.08 1.92, 94.57 5.68 C103.06 9.44, 109.99 15.87, 114.6 22.36 C119.21 28.85, 122.23 37.41, 122.21 44.6 C122.2 51.78, 119.6 59.56, 114.5 65.49 C109.4 71.42, 100.71 76.84, 91.62 80.16 C82.53 83.48, 70.49 85.61, 59.96 85.39 C49.43 85.17, 37.08 82.47, 28.43 78.82 C19.78 75.16, 12.84 69.7, 8.05 63.45 C3.25 57.21, -0.38 48.49, -0.35 41.33 C-0.33 34.17, 2.79 26.45, 8.2 20.5 C13.61 14.54, 21.8 8.87, 32.13 5.6 C42.45 2.33, 63.01 1.61, 70.17 0.85 C77.32 0.08, 75.23 0.4, 75.06 1 M74.36 1.2 C84.27 2.08, 96.48 6.12, 104.25 11 C112.01 15.88, 118.1 23.67, 120.94 30.49 C123.77 37.31, 123.76 45.24, 121.28 51.91 C118.79 58.59, 112.89 65.36, 106.04 70.55 C99.2 75.75, 89.7 81.04, 80.21 83.09 C70.73 85.13, 59.21 84.11, 49.13 82.82 C39.05 81.53, 27.67 80.08, 19.73 75.34 C11.79 70.61, 4.52 61.3, 1.49 54.43 C-1.54 47.56, -0.65 40.82, 1.54 34.1 C3.74 27.39, 7.53 19.44, 14.66 14.14 C21.8 8.83, 34.45 4.52, 44.33 2.28 C54.22 0.03, 69.11 0.8, 73.99 0.67 C78.86 0.54, 73.58 0.66, 73.58 1.5" stroke="#1971c2" stroke-width="2" fill="none"></path></g><g transform="translate(175.07959860644138 193.94796179957171) rotate(0 37.43333435058594 12.5)"><text x="37.43333435058594" y="0" font-family="Virgil, Segoe UI Emoji" font-size="20px" fill="#1971c2" text-anchor="middle" style="white-space: pre;" direction="ltr" dominant-baseline="text-before-edge">Connect</text></g><g stroke-linecap="round" transform="translate(554 629) rotate(0 84 29.5)"><path d="M14.75 0 M14.75 0 C57.6 -0.41, 98.31 1.15, 153.25 0 M14.75 0 C48.24 -1.4, 80.62 -1.81, 153.25 0 M153.25 0 C162.93 0.62, 167.87 4.33, 168 14.75 M153.25 0 C164 -0.21, 169.64 3.92, 168 14.75 M168 14.75 C169.55 25.02, 166.2 34.73, 168 44.25 M168 14.75 C168.24 26.27, 168.87 35.92, 168 44.25 M168 44.25 C167.02 55.17, 164.83 58.46, 153.25 59 M168 44.25 C168.75 52.98, 164.39 57.73, 153.25 59 M153.25 59 C121.08 56.25, 88.9 57.32, 14.75 59 M153.25 59 C105.35 57.88, 57.06 58.49, 14.75 59 M14.75 59 C4.38 59.86, 1.43 52.48, 0 44.25 M14.75 59 C4.99 58.61, 1.24 53.8, 0 44.25 M0 44.25 C-1.48 32.28, 1.71 22.49, 0 14.75 M0 44.25 C0.35 33.92, 0.44 22.86, 0 14.75 M0 14.75 C1.62 4.62, 5.69 -0.03, 14.75 0 M0 14.75 C1.74 2.79, 4.5 -0.41, 14.75 0" stroke="#1e1e1e" stroke-width="2" fill="none"></path></g><g transform="translate(560.5833358764648 638.5) rotate(0 77.41666412353516 20)"><text x="77.41666412353516" y="0" font-family="Virgil, Segoe UI Emoji" font-size="16px" fill="#1e1e1e" text-anchor="middle" style="white-space: pre;" direction="ltr" dominant-baseline="text-before-edge">Put update in the </text><text x="77.41666412353516" y="20" font-family="Virgil, Segoe UI Emoji" font-size="16px" fill="#1e1e1e" text-anchor="middle" style="white-space: pre;" direction="ltr" dominant-baseline="text-before-edge">shared async queue</text></g><g stroke-linecap="round"><g transform="translate(640.748135386114 576) rotate(0 0.3264820343238739 22.5)"><path d="M-0.33 -1.19 C0.09 6.53, 1.19 38.25, 1.36 45.79 M1.69 0.79 C2.13 8.22, 1.07 36.74, 0.78 44.08" stroke="#1e1e1e" stroke-width="2" fill="none"></path></g><g transform="translate(640.748135386114 576) rotate(0 0.3264820343238739 22.5)"><path d="M-8.13 23.84 C-3.53 27.05, -5.08 30.78, 1.93 45.21 M-6.5 22.59 C-3.77 28.71, -1.94 37.53, -0.21 44.14" stroke="#1e1e1e" stroke-width="2" fill="none"></path></g><g transform="translate(640.748135386114 576) rotate(0 0.3264820343238739 22.5)"><path d="M7.25 24.4 C8.77 27.45, 4.13 31.08, 1.93 45.21 M8.88 23.15 C6.64 28.96, 3.49 37.59, -0.21 44.14" stroke="#1e1e1e" stroke-width="2" fill="none"></path></g></g><mask></mask><g stroke-linecap="round"><g transform="translate(726 622) rotate(0 18.5 -207.5)"><path d="M0.84 0.7 C10.33 -60.65, 61.03 -297.63, 57.7 -367.09 C54.36 -436.55, -6.25 -407.9, -19.17 -416.05 M-0.18 0.02 C9.15 -60.71, 60.34 -296.91, 57.12 -366.13 C53.9 -435.35, -6.74 -407.08, -19.5 -415.29" stroke="#1e1e1e" stroke-width="2" fill="none"></path></g><g transform="translate(726 622) rotate(0 18.5 -207.5)"><path d="M10.37 -422.86 C-2.88 -419.3, -13.14 -417.25, -21.17 -413.53 M9.9 -424.06 C3.27 -422.53, -3.75 -420.41, -19.81 -414.71" stroke="#1e1e1e" stroke-width="2" fill="none"></path></g><g transform="translate(726 622) rotate(0 18.5 -207.5)"><path d="M9.26 -402.37 C-3.76 -406.19, -13.63 -411.51, -21.17 -413.53 M8.8 -403.57 C2.47 -406.84, -4.29 -409.52, -19.81 -414.71" stroke="#1e1e1e" stroke-width="2" fill="none"></path></g></g><mask></mask><g stroke-linecap="round"><g transform="translate(87 392) rotate(0 228.5 131.5)"><path d="M-0.67 -0.23 C17.03 39.73, 29.16 195.08, 105.46 238.88 C181.76 282.67, 398.74 258.5, 457.14 262.54 M1.18 -1.4 C18.82 38.31, 28.87 193.04, 104.75 237.21 C180.63 281.38, 397.99 259.1, 456.44 263.61" stroke="#1e1e1e" stroke-width="2" fill="none"></path></g><g transform="translate(87 392) rotate(0 228.5 131.5)"><path d="M427.95 274.85 C436.62 271.95, 441.15 267.3, 456.66 263.52 M428.3 273.26 C436.3 271.11, 444.68 267.9, 456.72 263.34" stroke="#1e1e1e" stroke-width="2" fill="none"></path></g><g transform="translate(87 392) rotate(0 228.5 131.5)"><path d="M427.79 254.33 C436.35 256.37, 440.92 256.64, 456.66 263.52 M428.15 252.74 C436.17 256.83, 444.6 259.86, 456.72 263.34" stroke="#1e1e1e" stroke-width="2" fill="none"></path></g></g><mask></mask></svg>