<?xml version="1.0" encoding="UTF-8" standalone="no"?>
<!DOCTYPE svg PUBLIC "-//W3C//DTD SVG 1.1//EN"
 "http://www.w3.org/Graphics/SVG/1.1/DTD/svg11.dtd">
<!-- Generated by graphviz version 9.0.0 (20230911.1827)
 -->
<!-- Pages: 1 -->
<svg width="492pt" height="151pt"
 viewBox="0.00 0.00 492.10 150.85" xmlns="http://www.w3.org/2000/svg" xmlns:xlink="http://www.w3.org/1999/xlink">
<g id="graph0" class="graph" transform="scale(1 1) rotate(0) translate(28.8 122.05)">
<polygon fill="white" stroke="none" points="-28.8,28.8 -28.8,-122.05 463.3,-122.05 463.3,28.8 -28.8,28.8"/>
<text text-anchor="middle" x="217.25" y="-55.05" font-family="Helvetica,sans-Serif" font-size="36.00">cardano_chain_follower</text>
<!-- cardano_chain_follower -->
<g id="node1" class="node">
<title>cardano_chain_follower</title>
<polygon fill="#5397c8" stroke="black" points="87.63,-0.5 87.63,-42 235.63,-42 235.63,-0.5 87.63,-0.5"/>
<text text-anchor="middle" x="161.63" y="-28.5" font-family="monospace" font-size="10.00">crate</text>
<polyline fill="none" stroke="black" points="87.63,-21.25 235.63,-21.25"/>
<text text-anchor="middle" x="161.63" y="-7.75" font-family="monospace" font-size="10.00">cardano_chain_follower</text>
</g>
<!-- cardano_chain_follower::follow_task -->
<g id="node2" class="node">
<title>cardano_chain_follower::follow_task</title>
<polygon fill="#f8c04c" stroke="black" points="246.87,-0.5 246.87,-42 346.87,-42 346.87,-0.5 246.87,-0.5"/>
<text text-anchor="middle" x="296.87" y="-28.5" font-family="monospace" font-size="10.00">pub(crate) mod</text>
<polyline fill="none" stroke="black" points="246.87,-21.25 346.87,-21.25"/>
<text text-anchor="middle" x="296.87" y="-7.75" font-family="monospace" font-size="10.00">follow_task</text>
</g>
<!-- cardano_chain_follower&#45;&gt;cardano_chain_follower::follow_task -->
<g id="edge1" class="edge">
<title>cardano_chain_follower&#45;&gt;cardano_chain_follower::follow_task</title>
<path fill="none" stroke="#000000" d="M235.98,-21.25C236.09,-21.25 236.2,-21.25 236.31,-21.25"/>
<polygon fill="#000000" stroke="#000000" points="235.03,-24.75 245.03,-21.25 235.03,-17.75 235.03,-24.75"/>
<text text-anchor="middle" x="248.14" y="-24.5" font-family="monospace" font-size="10.00">owns</text>
</g>
</g>
</svg>
