<svg version="1.1" xmlns="http://www.w3.org/2000/svg" viewBox="0 0 697.3645746161897 597.8662702877912" width="697.3645746161897" height="597.8662702877912">
  <!-- svg-source:excalidraw -->
  
  <defs>
    <style class="style-fonts">
      @font-face {
        font-family: "Virgil";
        src: url("https://excalidraw.com/Virgil.woff2");
      }
      @font-face {
        font-family: "Cascadia";
        src: url("https://excalidraw.com/Cascadia.woff2");
      }
    </style>
    
  </defs>
  <rect x="0" y="0" width="697.3645746161897" height="597.8662702877912" fill="#ffffff"/><g stroke-linecap="round" transform="translate(267.6478750073861 227.0207249145451) rotate(0 90.03823588967771 69.95278326813411)"><path d="M7.86 8.16 C7.86 8.16, 7.86 8.16, 7.86 8.16 M7.86 8.16 C7.86 8.16, 7.86 8.16, 7.86 8.16 M2.75 26.24 C5.9 21.15, 10.22 16.49, 21.12 5.11 M2.75 26.24 C6.86 20.37, 12.18 15.53, 21.12 5.11 M2.88 38.28 C13.07 26.77, 26.28 12.96, 34.37 2.05 M2.88 38.28 C13.39 26.17, 24.76 14.65, 34.37 2.05 M2.36 51.07 C15.01 33.27, 31.68 17.3, 45 2.02 M2.36 51.07 C13.05 38.33, 24.77 24.76, 45 2.02 M2.49 63.11 C19.35 46.69, 31.69 29.92, 55.63 1.98 M2.49 63.11 C16.79 47.58, 29.27 32.55, 55.63 1.98 M2.62 75.16 C27.36 45.36, 49.25 17.59, 66.26 1.95 M2.62 75.16 C20.07 56.63, 36.55 37.05, 66.26 1.95 M2.76 87.2 C23.78 63.91, 46.17 36.91, 76.89 1.91 M2.76 87.2 C24.82 61.41, 45.58 36.02, 76.89 1.91 M2.89 99.24 C33.64 60.14, 68.21 20.67, 87.52 1.88 M2.89 99.24 C30.41 66.16, 60.75 33.86, 87.52 1.88 M2.37 112.03 C31.54 78.04, 61.45 41.79, 98.15 1.85 M2.37 112.03 C27.03 83.08, 51.47 54.51, 98.15 1.85 M5.78 120.3 C47.54 77.02, 84.51 30.85, 108.78 1.81 M5.78 120.3 C38.02 83.46, 68.81 47.34, 108.78 1.81 M7.88 130.08 C42.43 87.61, 82.36 45.77, 119.41 1.78 M7.88 130.08 C33.33 98.16, 59.15 69.11, 119.41 1.78 M13.26 136.08 C58.15 85.59, 98.74 37.21, 130.04 1.74 M13.26 136.08 C41.64 103.16, 69.32 72, 130.04 1.74 M20.61 139.82 C58.09 99.45, 94.02 56.06, 140.67 1.71 M20.61 139.82 C50.07 107.46, 78.01 75.87, 140.67 1.71 M29.93 141.29 C73.47 91.19, 117.31 37.81, 150.65 2.43 M29.93 141.29 C74.15 91.2, 118.05 39.76, 150.65 2.43 M37.28 145.03 C83.4 91.78, 129.34 39.04, 159.96 3.9 M37.28 145.03 C81.79 93.78, 124.77 43.76, 159.96 3.9 M47.91 145 C93.31 95.47, 133.73 43.3, 167.97 6.89 M47.91 145 C95.59 92.27, 141.47 38.27, 167.97 6.89 M58.54 144.96 C90.95 106.24, 126.97 66.06, 175.32 10.63 M58.54 144.96 C85.52 115.04, 112.67 84.16, 175.32 10.63 M69.17 144.93 C107.29 98.78, 146.52 52.49, 178.73 18.89 M69.17 144.93 C106.87 102.43, 141.66 60.85, 178.73 18.89 M79.8 144.9 C104.19 120.18, 126.24 94.76, 180.18 29.42 M79.8 144.9 C117.06 102.22, 153.9 59.02, 180.18 29.42 M90.43 144.86 C121.14 104.65, 153.7 67.49, 184.9 36.18 M90.43 144.86 C120.32 110.68, 148.91 74.43, 184.9 36.18 M101.06 144.83 C123.23 117.48, 148.25 92.74, 185.04 48.22 M101.06 144.83 C118.34 125.12, 134.77 106.91, 185.04 48.22 M111.69 144.79 C131.92 119.47, 154.56 95.64, 184.51 61.02 M111.69 144.79 C137.86 111.81, 165.79 81.71, 184.51 61.02 M122.32 144.76 C147.9 119.16, 169.07 89.74, 184.65 73.06 M122.32 144.76 C138.14 124.84, 155.51 106.51, 184.65 73.06 M132.95 144.72 C145.89 131.75, 154.02 121.31, 184.78 85.1 M132.95 144.72 C146.48 130.26, 160.03 115.27, 184.78 85.1 M143.58 144.69 C154.14 130.27, 164.16 120.37, 184.26 97.9 M143.58 144.69 C151.04 135.6, 160.73 124.67, 184.26 97.9 M154.21 144.65 C159.98 137, 163.76 131.18, 179.8 115.22 M154.21 144.65 C163.69 132.86, 175.03 121.09, 179.8 115.22 M8.32 132.18 C8.32 132.18, 8.32 132.18, 8.32 132.18 M8.32 132.18 C8.32 132.18, 8.32 132.18, 8.32 132.18 M21.87 133.36 C14.5 125.94, 9.66 122.08, 0.74 114.99 M21.87 133.36 C14.47 127.54, 7.45 121.17, 0.74 114.99 M36.18 135.2 C24.82 126.95, 18.64 119.36, 0.7 104.36 M36.18 135.2 C28.29 127.62, 22.37 121.56, 0.7 104.36 M48.22 135.06 C36.81 126.57, 25.17 113.6, 0.67 93.73 M48.22 135.06 C31.02 119.66, 13.88 105.24, 0.67 93.73 M60.26 134.93 C39.39 115.7, 18.02 96.88, 0.64 83.1 M60.26 134.93 C43.09 120.11, 27.13 104.75, 0.64 83.1 M73.05 135.45 C46.86 114.01, 20.91 89.2, 0.6 72.47 M73.05 135.45 C43.8 109.55, 15.53 84.99, 0.6 72.47 M85.09 135.32 C61.81 113.1, 40.08 95.08, 0.57 61.84 M85.09 135.32 C62.94 116.05, 41.87 96.32, 0.57 61.84 M97.13 135.19 C78.6 118.85, 56.42 101.26, 0.53 51.21 M97.13 135.19 C64.03 105.63, 30.53 77.34, 0.53 51.21 M109.18 135.06 C78.93 109.91, 47.93 79.36, 0.5 40.58 M109.18 135.06 C74.57 103.14, 39.92 74.94, 0.5 40.58 M121.22 134.92 C84.66 103.3, 46.16 67.87, 0.46 29.95 M121.22 134.92 C78.01 95.83, 31.69 57.55, 0.46 29.95 M134.01 135.45 C95.86 102.36, 56.32 66.66, 2.69 21.29 M134.01 135.45 C92.77 98.57, 50.75 62.01, 2.69 21.29 M149.83 138.59 C116.75 109.78, 85.85 81.25, 5.68 13.28 M149.83 138.59 C99.51 94.18, 49.37 49.61, 5.68 13.28 M159.6 136.49 C106.07 88.34, 53.96 43.55, 9.42 5.94 M159.6 136.49 C118.23 100.35, 78.82 65.45, 9.42 5.94 M167.12 132.42 C129.46 96.69, 89.39 63.98, 16.93 1.87 M167.12 132.42 C124.24 94.97, 83.43 59.7, 16.93 1.87 M174.63 128.35 C120.6 80.64, 68.17 36.1, 22.93 -3.52 M174.63 128.35 C137.9 96.34, 99.97 64.05, 22.93 -3.52 M178.37 121 C128.29 75.01, 79.08 34.71, 34.97 -3.65 M178.37 121 C142.28 90.24, 107.67 60.73, 34.97 -3.65 M181.35 113 C131.42 68.41, 84.68 28.75, 47.01 -3.78 M181.35 113 C147.81 84.31, 115.04 55.68, 47.01 -3.78 M181.32 102.37 C132.96 60.91, 85.85 18.91, 59.81 -3.26 M181.32 102.37 C151.03 75.93, 118.4 48.46, 59.81 -3.26 M181.28 91.74 C157.84 70.2, 131.21 50.77, 71.85 -3.39 M181.28 91.74 C137.64 53.78, 94.96 17.45, 71.85 -3.39 M182 81.76 C152.27 57.58, 124.93 29.91, 83.89 -3.53 M182 81.76 C162.31 64.48, 140.38 46.18, 83.89 -3.53 M181.97 71.13 C165.78 56.98, 148.56 40.77, 95.93 -3.66 M181.97 71.13 C159.99 50.44, 136.63 31.08, 95.93 -3.66 M181.93 60.5 C153.74 37.07, 127.14 11.41, 107.97 -3.79 M181.93 60.5 C156.51 38.81, 131.21 17.48, 107.97 -3.79 M181.9 49.87 C162.38 32.44, 139.59 13.48, 120.77 -3.27 M181.9 49.87 C169.4 39.39, 157.19 28.06, 120.77 -3.27 M181.86 39.24 C166.85 26.58, 152.57 13.77, 132.81 -3.4 M181.86 39.24 C165.11 23.5, 146.98 9.13, 132.81 -3.4 M182.59 29.27 C173.45 21.59, 161.15 9.7, 148.62 -0.26 M182.59 29.27 C175.08 23.13, 167.16 16.66, 148.62 -0.26 M179.53 16.01 C174.49 8.46, 164.89 6.17, 162.93 1.58 M179.53 16.01 C174.44 11.36, 171.17 9.02, 162.93 1.58" stroke="#b2f2bb" stroke-width="1" fill="none"/><path d="M32 0 M32 0 C64.31 -0.91, 102.19 -0.17, 148.08 0 M32 0 C63.41 0.21, 93.58 -0.54, 148.08 0 M148.08 0 C169.47 -0.23, 178.48 11.57, 180.08 32 M148.08 0 C171.18 1.83, 180.75 8.68, 180.08 32 M180.08 32 C181.64 56.96, 180.42 83.61, 180.08 107.91 M180.08 32 C181.26 51.97, 179.44 70.69, 180.08 107.91 M180.08 107.91 C180.03 127.43, 170.78 140.98, 148.08 139.91 M180.08 107.91 C180.78 128.67, 169.94 142.06, 148.08 139.91 M148.08 139.91 C109.12 140.5, 72.36 141.1, 32 139.91 M148.08 139.91 C114.56 141.61, 80.55 141.8, 32 139.91 M32 139.91 C8.91 141.08, 1.3 131, 0 107.91 M32 139.91 C9.25 137.83, -0.77 129.91, 0 107.91 M0 107.91 C0.88 88.64, 2.28 70.43, 0 32 M0 107.91 C1.23 82.33, 0.41 56.42, 0 32 M0 32 C1.85 9.13, 10.63 0.46, 32 0 M0 32 C1.57 8.59, 9.43 1.39, 32 0" stroke="#2f9e44" stroke-width="2" fill="none"/></g><g transform="translate(274.5738931527453 321.21457169143844) rotate(0 85.5 16.100000000000023)"><text x="0" y="0" font-family="Helvetica, Segoe UI Emoji" font-size="28px" fill="#1e1e1e" text-anchor="start" style="white-space: pre;" direction="ltr" dominant-baseline="text-before-edge">Component 1</text></g><g stroke-linecap="round"><g transform="translate(358.04070606618916 31.986188753358135) rotate(0 1.6752605455703815 92.19408768241877)"><path d="M-0.74 -1.86 C-0.09 28.65, 2.48 151.59, 3.21 182.58 M4.05 3.3 C4.38 34.17, 1.24 154.61, 0.89 185.23" stroke="#e03131" stroke-width="2" fill="none"/></g><g transform="translate(358.04070606618916 31.986188753358135) rotate(0 1.6752605455703815 92.19408768241877)"><path d="M-11.49 156.64 C-8.83 165.13, -4.03 172.64, 1.87 184.38 M-10.58 157.93 C-6.69 166.71, -0.52 178.93, 0.56 186.67" stroke="#e03131" stroke-width="2" fill="none"/></g><g transform="translate(358.04070606618916 31.986188753358135) rotate(0 1.6752605455703815 92.19408768241877)"><path d="M9.03 157.03 C6.04 165.3, 5.19 172.7, 1.87 184.38 M9.94 158.32 C5.76 166.75, 3.86 178.82, 0.56 186.67" stroke="#e03131" stroke-width="2" fill="none"/></g></g><mask/><g stroke-linecap="round" transform="translate(380.1393384369753 64.39446279919457) rotate(0.09892549562455624 24.744224152043216 13.897440962106458)"><path d="M42.6 2.24 C46.95 3.91, 49.73 9.03, 50.46 11.86 C51.2 14.69, 49.88 16.48, 47.01 19.23 C44.13 21.98, 38.54 26.96, 33.23 28.34 C27.92 29.71, 19.91 29.07, 15.13 27.48 C10.36 25.9, 7.22 21.64, 4.6 18.83 C1.98 16.03, -1.19 13.1, -0.58 10.65 C0.02 8.19, 3.84 5.96, 8.24 4.12 C12.64 2.28, 18.87 -1.27, 25.81 -0.39 C32.75 0.48, 46.33 6.13, 49.9 9.37 C53.46 12.62, 47.8 19, 47.19 19.07 M13.97 1.84 C18.68 0.71, 26.9 0.37, 31.89 1.23 C36.88 2.09, 41.04 4.96, 43.9 6.98 C46.75 9.01, 49.36 10.14, 49.04 13.39 C48.73 16.64, 45.82 23.76, 42 26.48 C38.19 29.21, 31.13 29.57, 26.16 29.72 C21.2 29.88, 16.06 29.85, 12.22 27.41 C8.38 24.98, 4.67 18.25, 3.11 15.11 C1.55 11.96, 0.87 11.15, 2.85 8.55 C4.84 5.96, 13.01 0.65, 15.02 -0.45 C17.04 -1.55, 14.23 1.69, 14.95 1.96" stroke="#2f9e44" stroke-width="2" fill="none"/></g><g stroke-linecap="round"><g transform="translate(380.57378427185176 78.38872003936217) rotate(0.09892549562455624 1.0168859240566235 18.98187058238929)"><path d="M2.02 -1.3 C2.42 5.37, 2.94 33.23, 2.65 40.07 M-0.33 4.17 C-0.26 10.07, -0.34 31.04, 0.75 36.2" stroke="#2f9e44" stroke-width="2" fill="none"/></g></g><mask/><g stroke-linecap="round"><g transform="translate(429.1547790159716 78.14265567376447) rotate(0.09892549562455624 -1.0168859240566235 18.303946633018256)"><path d="M0.62 2.11 C-0.34 8.72, -3.31 32.35, -3.74 38.36 M-2.49 0.78 C-2.72 6.71, 1.94 28.85, 1.73 34.31" stroke="#2f9e44" stroke-width="2" fill="none"/></g></g><mask/><g stroke-linecap="round" transform="translate(380.41684937164837 99.98600233485263) rotate(0.09892549562455624 24.744224152043216 13.897440962106458)"><path d="M25.94 1.28 C30.69 1.6, 36.38 2.65, 40.52 4.12 C44.66 5.59, 50.07 7.35, 50.79 10.1 C51.5 12.85, 47.99 17.62, 44.79 20.63 C41.59 23.64, 36.34 27.18, 31.57 28.15 C26.8 29.12, 20.69 27.77, 16.18 26.44 C11.68 25.1, 7.33 22.38, 4.53 20.14 C1.74 17.9, -1.41 15.9, -0.58 12.99 C0.26 10.07, 3.02 4.55, 9.53 2.65 C16.05 0.74, 32.13 0.66, 38.49 1.56 C44.84 2.47, 47.67 7.81, 47.65 8.08 M28.64 -2.44 C34.15 -1.84, 40.86 3.97, 44.48 6.99 C48.1 10.01, 49.98 12.62, 50.37 15.69 C50.76 18.75, 49.9 23.67, 46.83 25.4 C43.75 27.13, 37.66 25.73, 31.92 26.06 C26.18 26.38, 17.57 28.79, 12.39 27.35 C7.21 25.9, 2.82 20.28, 0.83 17.39 C-1.17 14.51, -1.93 12.79, 0.4 10.04 C2.73 7.29, 9.78 2.43, 14.83 0.91 C19.88 -0.61, 28.27 1.08, 30.7 0.93 C33.13 0.77, 30.16 0.14, 29.39 -0.04" stroke="#2f9e44" stroke-width="2" fill="none"/></g><g transform="translate(385.1067793171992 88.51020238137448) rotate(0.09892549562455624 20.5 6.9931836073774605)"><text x="0" y="0" font-family="Helvetica, Segoe UI Emoji" font-size="12.162058447612969px" fill="#1e1e1e" text-anchor="start" style="white-space: pre;" direction="ltr" dominant-baseline="text-before-edge">Event 1</text></g><g stroke-linecap="round" transform="translate(554.4063495131113 10.000715670783109) rotate(359.6052770993649 24.744224152043216 13.897440962106458)"><path d="M5.94 5.66 C8.88 3.1, 15.22 -0.28, 20.57 -0.74 C25.92 -1.2, 33.13 1.23, 38.04 2.88 C42.95 4.54, 48.69 6.32, 50.04 9.19 C51.39 12.07, 48.44 17.61, 46.16 20.14 C43.88 22.67, 40.86 23.22, 36.36 24.37 C31.86 25.53, 24.65 27.26, 19.14 27.07 C13.62 26.89, 6.38 25.47, 3.25 23.24 C0.12 21.02, -1.55 17.53, 0.33 13.74 C2.21 9.94, 10.12 2.5, 14.53 0.47 C18.93 -1.56, 26.46 1.26, 26.77 1.56 M20.47 -0.26 C25.41 -1.14, 31.41 -2.12, 36.52 0.1 C41.64 2.32, 49.13 10.23, 51.16 13.07 C53.19 15.91, 50.95 15.36, 48.7 17.14 C46.45 18.92, 42.44 22.31, 37.66 23.74 C32.88 25.18, 25.27 25.83, 20.03 25.76 C14.8 25.68, 9.74 25.54, 6.27 23.29 C2.8 21.04, -1.19 15.89, -0.78 12.26 C-0.37 8.64, 5.22 3.7, 8.73 1.55 C12.25 -0.6, 18.1 0.04, 20.33 -0.63 C22.56 -1.29, 21.93 -3.09, 22.14 -2.45" stroke="#2f9e44" stroke-width="2" fill="none"/></g><g stroke-linecap="round"><g transform="translate(554.8587039169906 24.259240148772903) rotate(359.6052770993649 1.0168859240566235 18.98187058238929)"><path d="M-2.34 0.56 C-1.76 6.89, 2.68 31.29, 3.66 37.35 M1.58 -1.61 C1.92 5.21, 2.15 33.81, 2.31 40.65" stroke="#2f9e44" stroke-width="2" fill="none"/></g></g><mask/><g stroke-linecap="round"><g transform="translate(603.5507769001338 24.26705567079472) rotate(359.6052770993649 -1.0168859240566235 18.303946633018285)"><path d="M1.63 -0.61 C1.93 5.22, 0.29 29.31, -0.53 35.55 M-0.93 -3.41 C-0.65 2.75, -1.15 31.36, -1.95 38.6" stroke="#2f9e44" stroke-width="2" fill="none"/></g></g><mask/><g stroke-linecap="round" transform="translate(554.990495579435 45.58854325565227) rotate(359.6052770993649 24.744224152043216 13.897440962106458)"><path d="M16.02 0.88 C20.17 -0.43, 24.77 0.95, 29.6 1.49 C34.44 2.03, 41.8 1.91, 45.02 4.11 C48.25 6.31, 49.75 11.28, 48.96 14.68 C48.17 18.08, 43.9 22.28, 40.28 24.52 C36.66 26.75, 32.26 28.06, 27.24 28.08 C22.22 28.1, 14.32 26.17, 10.17 24.62 C6.03 23.07, 3.6 21.58, 2.37 18.79 C1.14 16, -0.86 11.25, 2.78 7.87 C6.42 4.5, 18.9 -0.14, 24.2 -1.47 C29.5 -2.8, 34.58 -0.3, 34.58 -0.1 M8.28 1.69 C11.51 -1.41, 19.07 -2.52, 24.37 -2.68 C29.68 -2.84, 35.77 -1.62, 40.1 0.72 C44.42 3.06, 49.21 8.31, 50.3 11.35 C51.38 14.4, 48.77 16.93, 46.61 19.01 C44.45 21.09, 42.29 22.54, 37.31 23.83 C32.33 25.12, 22.22 27.48, 16.73 26.76 C11.23 26.03, 7.33 21.43, 4.32 19.45 C1.31 17.48, -1.27 17.37, -1.33 14.9 C-1.4 12.43, 2.42 6.52, 3.93 4.64 C5.43 2.76, 7.02 3.51, 7.7 3.64" stroke="#2f9e44" stroke-width="2" fill="none"/></g><g transform="translate(559.522047722061 34.10853897872806) rotate(359.6052770993649 20.5 6.9931836073774605)"><text x="0" y="0" font-family="Helvetica, Segoe UI Emoji" font-size="12.162058447612969px" fill="#1e1e1e" text-anchor="start" style="white-space: pre;" direction="ltr" dominant-baseline="text-before-edge">Event 2</text></g><g stroke-linecap="round" transform="translate(557.1785210907933 86.31721067870484) rotate(0.02296023664039091 24.744224152043216 13.897440962106458)"><path d="M33.6 1.61 C37.9 2.67, 42.59 3.77, 45.25 6.48 C47.91 9.18, 50.14 15.07, 49.57 17.84 C48.99 20.61, 45.86 21.66, 41.81 23.1 C37.75 24.54, 30.63 26.58, 25.25 26.46 C19.87 26.33, 13.84 24.12, 9.51 22.37 C5.17 20.63, 0.32 18.71, -0.78 16 C-1.87 13.29, 0.21 8.94, 2.92 6.11 C5.63 3.29, 8.34 -1.09, 15.48 -0.94 C22.62 -0.79, 40.14 4.73, 45.77 7.03 C51.39 9.33, 49.56 12.85, 49.23 12.86 M43.58 2.95 C47.8 5.13, 50.52 12.49, 51.1 15.89 C51.69 19.28, 50.43 21.1, 47.08 23.32 C43.72 25.54, 36.51 28.97, 30.98 29.21 C25.45 29.45, 18.56 26.32, 13.91 24.77 C9.26 23.22, 4.77 22.82, 3.07 19.91 C1.37 17.01, 2.51 10.1, 3.71 7.36 C4.91 4.62, 5.91 4.93, 10.26 3.46 C14.62 1.99, 24.53 -1.48, 29.84 -1.46 C35.14 -1.45, 39.78 2.39, 42.09 3.54 C44.4 4.69, 44.04 4.92, 43.7 5.43" stroke="#2f9e44" stroke-width="2" fill="none"/></g><g stroke-linecap="round"><g transform="translate(557.7655015170694 100.0165538571261) rotate(0.02296023664039091 1.0168859240566235 18.98187058238929)"><path d="M1.08 2.15 C1.27 8.15, -0.95 31.69, -0.65 37.34 M-1.78 0.86 C-0.6 7.15, 3.75 34.42, 4.3 40.64" stroke="#2f9e44" stroke-width="2" fill="none"/></g></g><mask/><g stroke-linecap="round"><g transform="translate(605.561048499525 100.92530530456264) rotate(0.02296023664039091 -1.0168859240566235 18.303946633018285)"><path d="M-2.68 -0.62 C-3.07 4.81, -1.11 28.35, -1.21 34.7 M1.05 -3.42 C0.28 2.12, -1.86 31.32, -3 37.3" stroke="#2f9e44" stroke-width="2" fill="none"/></g></g><mask/><g stroke-linecap="round" transform="translate(557.5032205928301 121.90835099579118) rotate(0.02296023664039091 24.744224152043216 13.897440962106458)"><path d="M15.72 -0.34 C20.23 -2.14, 27.04 -1.62, 32.1 -0.92 C37.16 -0.22, 43.37 1.21, 46.09 3.87 C48.81 6.53, 49.15 11.82, 48.42 15.03 C47.69 18.24, 45.49 21.29, 41.71 23.13 C37.93 24.98, 30.65 25.48, 25.72 26.1 C20.78 26.72, 16.16 28.21, 12.09 26.85 C8.02 25.49, 2.77 20.95, 1.3 17.96 C-0.16 14.96, 0.01 12.05, 3.29 8.9 C6.57 5.75, 17.22 0.43, 20.99 -0.95 C24.76 -2.32, 26.27 0.01, 25.9 0.63 M44.28 6.45 C47.5 8.06, 49.98 9.32, 50.15 12.13 C50.32 14.95, 48.3 21.14, 45.3 23.32 C42.3 25.5, 37.77 24.53, 32.16 25.21 C26.55 25.89, 16.41 28.72, 11.63 27.41 C6.85 26.11, 5.36 20.53, 3.48 17.37 C1.6 14.21, -1.22 10.9, 0.34 8.45 C1.91 6.01, 8.38 3.92, 12.88 2.73 C17.37 1.54, 22.23 1.26, 27.32 1.31 C32.4 1.36, 41.1 1.94, 43.38 3.03 C45.67 4.12, 41.03 6.93, 41.03 7.84" stroke="#2f9e44" stroke-width="2" fill="none"/></g><g transform="translate(561.6192520255295 111.02142172200212) rotate(0.02296023664039091 20.5 13.986367214754921)"><text x="0" y="0" font-family="Helvetica, Segoe UI Emoji" font-size="12.162058447612969px" fill="#1e1e1e" text-anchor="start" style="white-space: pre;" direction="ltr" dominant-baseline="text-before-edge">Event 3</text><text x="0" y="13.986367214754914" font-family="Helvetica, Segoe UI Emoji" font-size="12.162058447612969px" fill="#1e1e1e" text-anchor="start" style="white-space: pre;" direction="ltr" dominant-baseline="text-before-edge"/></g><g stroke-linecap="round" transform="translate(10 150.141923501051) rotate(0 338.6822873080948 218.86217339337009)"><path d="M32 0 M32 0 C236.07 2.37, 438.23 1.13, 645.36 0 M32 0 C267.87 1.34, 503.85 1.24, 645.36 0 M645.36 0 C667.43 1.3, 677.65 10.56, 677.36 32 M645.36 0 C668.48 0.68, 677.71 11.83, 677.36 32 M677.36 32 C679.23 155.27, 678.25 277.73, 677.36 405.72 M677.36 32 C676.93 130.24, 677.89 227.5, 677.36 405.72 M677.36 405.72 C675.6 425.32, 666.11 438.78, 645.36 437.72 M677.36 405.72 C675.69 426.28, 666.51 439.93, 645.36 437.72 M645.36 437.72 C507.31 439.3, 370.69 439.12, 32 437.72 M645.36 437.72 C499.2 436.09, 353.06 435.84, 32 437.72 M32 437.72 C9.94 437.52, 1.38 427.92, 0 405.72 M32 437.72 C12.38 436.41, -1.74 426.59, 0 405.72 M0 405.72 C-1.14 274.91, -2.5 144.54, 0 32 M0 405.72 C-1.58 291.44, -1.18 176.15, 0 32 M0 32 C0.7 12.03, 11.3 -0.2, 32 0 M0 32 C-0.94 10.6, 10.83 -1.94, 32 0" stroke="#f08c00" stroke-width="2" fill="none"/></g><g stroke-linecap="round"><g transform="translate(538.8700702686419 27.037745189520706) rotate(0 1.1490377285695104 96.47733233578327)"><path d="M-0.05 -0.42 C0.49 32.26, 2.43 163.17, 2.62 195.5 M-3.53 -3.11 C-3.27 28.89, 0.2 158.52, 0.55 191.88" stroke="#e03131" stroke-width="2" fill="none"/></g><g transform="translate(538.8700702686419 27.037745189520706) rotate(0 1.1490377285695104 96.47733233578327)"><path d="M-10.85 164.34 C-3.74 169.85, -3.48 180.92, 0.24 188.93 M-10.6 164.15 C-7.34 170.38, -8.05 177.42, 2.44 191.52" stroke="#e03131" stroke-width="2" fill="none"/></g><g transform="translate(538.8700702686419 27.037745189520706) rotate(0 1.1490377285695104 96.47733233578327)"><path d="M9.67 163.94 C11.11 169.55, 5.69 180.73, 0.24 188.93 M9.92 163.75 C8.85 170.07, 3.81 177.2, 2.44 191.52" stroke="#e03131" stroke-width="2" fill="none"/></g></g><mask/><g transform="translate(224.70656250615366 519.9912924632649) rotate(0 122.5 16.100000000000023)"><text x="0" y="0" font-family="Helvetica, Segoe UI Emoji" font-size="28px" fill="#1e1e1e" text-anchor="start" style="white-space: pre;" direction="ltr" dominant-baseline="text-before-edge">Hermes Application</text></g><g stroke-linecap="round" transform="translate(66.24418855941667 287.69299272388844) rotate(0 35.33929034561561 53.625409397054625)"><path d="M1.38 -0.16 L70.06 1.23 L69.06 108.6 L0.62 107.07" stroke="none" stroke-width="0" fill="#fff"/><path d="M-1.01 -1.5 C16.7 1.15, 31.68 -1.07, 71.79 -1.22 M-0.83 0.22 C24.64 0.93, 50.83 1.31, 69.71 0.72 M72.62 0.66 C69.71 33.75, 69.13 67.59, 70.78 105.53 M70.11 -0.25 C71.4 33.83, 70.91 68.57, 70.17 107.54 M71.22 105.68 C52.59 108.7, 30.66 108.2, 0.89 107.27 M71.49 106.88 C46.45 106.36, 21.91 106.82, -0.7 107.62 M-0.28 107.45 C-2.23 76.99, -1.49 48.38, 1.43 -0.78 M-0.67 107.97 C0.05 81.88, -0.19 54.34, 0.24 -0.86" stroke="#000000" stroke-width="2" fill="none"/></g><g stroke-linecap="round" transform="translate(58.696755523702905 280.6729034381741) rotate(0 35.33929034561561 53.625409397054625)"><path d="M-0.62 1.23 L69.06 1.34 L71.3 107.07 L-1.49 108.55" stroke="none" stroke-width="0" fill="#fff"/><path d="M0.6 1.35 C22.6 -0.34, 47.36 -0.69, 71.89 -0.13 M-0.86 0.22 C13.98 0.46, 27.34 0.57, 70.91 -0.22 M69.95 -0.94 C70.41 35.77, 71.82 73.39, 71.05 108.52 M70.71 -0.33 C69.61 41.18, 69.56 82.14, 70.39 107.07 M71.77 108.52 C46.03 107.46, 25.56 106.72, 0.98 108.52 M71.11 106.74 C53.83 106.94, 35.19 107.36, -0.23 108.01 M-1.42 106.66 C-0.52 77.27, 1.58 45.57, -1.15 -0.16 M-0.04 107.87 C0.44 72.62, 0.96 38.99, 0.69 -0.08" stroke="#000000" stroke-width="2" fill="none"/></g><g stroke-linecap="round" transform="translate(49.30166623798732 272.41899718817433) rotate(0 35.33929034561561 53.625409397054625)"><path d="M-1.62 1.34 L71.3 -0.18 L69.19 108.55 L-1.67 106.91" stroke="none" stroke-width="0" fill="#fff"/><path d="M-0.52 -0.87 C17.02 -1.7, 33.03 -0.61, 68.68 -1.66 M-0.17 0.61 C21.76 0.57, 45.69 -0.38, 71.18 0.97 M69.37 -1.78 C70.39 33.98, 70.66 72.67, 72.31 106.11 M70.22 0.25 C70.21 29.8, 70.43 58.84, 70.93 107.52 M69.04 108.02 C55.92 107.72, 40.36 108.97, -1.08 108.88 M71.22 107.2 C51.42 107.26, 33.33 107.65, -0.16 107.11 M-0.67 107.72 C2.19 73.21, -0.39 40.58, 0.28 -1.33 M-0.27 106.32 C0.28 66.51, 0.73 27.41, -0.31 0.62" stroke="#000000" stroke-width="2" fill="none"/></g><g stroke-linecap="round"><g transform="translate(61.288092824898285 321.166234235527) rotate(0 23.28991792865031 -1.4675838694766412)"><path d="M-0.52 0.67 C5.96 0.87, 31.85 1.71, 39.69 0.89 C47.53 0.06, 45.52 -3.67, 46.5 -4.29 M1.4 -0.03 C8.2 -0.14, 34.64 -0.26, 42.02 -0.85 C49.4 -1.45, 45.14 -3.48, 45.69 -3.6" stroke="#000000" stroke-width="1" fill="none"/></g></g><mask/><g stroke-linecap="round"><g transform="translate(63.14334506291243 289.7009469366885) rotate(0 22.78370784033814 -1.4016489420073412)"><path d="M-0.73 0.73 C2.15 -0.05, 9.2 -3.87, 16.75 -4 C24.3 -4.13, 39.94 -0.72, 44.57 -0.07 M1.08 0.07 C3.84 -0.67, 8.12 -3.31, 15.76 -3.09 C23.4 -2.87, 42.2 0.67, 46.94 1.38" stroke="#000000" stroke-width="1" fill="none"/></g></g><mask/><g stroke-linecap="round"><g transform="translate(63.06674554654319 357.0953212070456) rotate(0 24.168341317192017 0.17504253415347648)"><path d="M-0.08 -1.2 C4.28 -1.32, 19.3 -0.63, 25.42 0 C31.53 0.63, 32.8 2.79, 36.59 2.58 C40.37 2.37, 46.37 -0.62, 48.13 -1.23 M-1.58 0.79 C3.21 0.22, 20.85 -2.52, 27.6 -1.98 C34.36 -1.44, 35.5 4.27, 38.94 4.04 C42.38 3.8, 46.63 -2.69, 48.27 -3.41" stroke="#000000" stroke-width="1" fill="none"/></g></g><mask/><g stroke-linecap="round"><g transform="translate(59.88269836501286 368.33846961532436) rotate(0 27.203474913921127 -0.8422655250909088)"><path d="M-1 0.26 C0.54 0.31, 6.31 -0.84, 9.13 -0.9 C11.95 -0.96, 9.93 -0.51, 15.92 -0.11 C21.92 0.29, 38.63 1.89, 45.09 1.48 C51.56 1.07, 53.04 -2.13, 54.69 -2.57 M0.68 -0.65 C2.59 -0.88, 8.91 -2.65, 11.3 -2.89 C13.7 -3.12, 9.48 -2.45, 15.05 -2.07 C20.62 -1.69, 38.34 -0.58, 44.73 -0.62 C51.12 -0.66, 51.97 -2.16, 53.36 -2.32" stroke="#000000" stroke-width="1" fill="none"/></g></g><mask/><g stroke-linecap="round"><g transform="translate(60.16754126057867 304.76154848994963) rotate(0 23.46432644647234 0.6465876758273907)"><path d="M-1.03 0.26 C2.13 0.24, 10.19 -0.27, 17.99 0.14 C25.79 0.56, 40.89 2.51, 45.76 2.75 M0.63 -0.64 C3.7 -1.03, 9.03 -1.85, 16.93 -1.6 C24.83 -1.35, 42.93 0.17, 48.04 0.87" stroke="#000000" stroke-width="1" fill="none"/></g></g><mask/><g stroke-linecap="round"><g transform="translate(60.275029456729044 339.2448775257892) rotate(0 23.46432644647234 0.6465876758273907)"><path d="M-0.21 0.73 C1.12 1.07, 3.81 2.56, 6.93 2.3 C10.04 2.03, 11.71 -0.99, 18.47 -0.86 C25.24 -0.74, 42.72 2.66, 47.53 3.05 M-1.78 0.07 C-0.01 0.06, 5.76 0.59, 9.03 0.63 C12.3 0.67, 11.35 0.24, 17.86 0.31 C24.37 0.39, 43.39 0.89, 48.09 1.1" stroke="#000000" stroke-width="1" fill="none"/></g></g><mask/><g transform="translate(57.09692338844616 230.4837339872248) rotate(0 33.5 16.100000000000023)"><text x="0" y="0" font-family="Helvetica, Segoe UI Emoji" font-size="28px" fill="#1e1e1e" text-anchor="start" style="white-space: pre;" direction="ltr" dominant-baseline="text-before-edge">State</text></g><g stroke-linecap="round"><g transform="translate(102.80864314782093 405.0193912502921) rotate(0 119.77007934524318 -9.696425403503667)"><path d="M-0.44 -0.01 C34.17 0.82, 168.46 8.74, 208.4 4.41 C248.34 0.08, 233.82 -21.26, 239.2 -25.98" stroke="#1e1e1e" stroke-width="1.5" fill="none" stroke-dasharray="1.5 7"/></g><g transform="translate(102.80864314782093 405.0193912502921) rotate(0 119.77007934524318 -9.696425403503667)"><path d="M242.75 -3.23 C239.69 -12.7, 238.53 -18.03, 240.86 -27.48" stroke="#1e1e1e" stroke-width="1.5" fill="none" stroke-dasharray="1.5 5"/></g><g transform="translate(102.80864314782093 405.0193912502921) rotate(0 119.77007934524318 -9.696425403503667)"><path d="M227.96 -6.02 C230.24 -14.43, 234.43 -18.75, 240.86 -27.48" stroke="#1e1e1e" stroke-width="1.5" fill="none" stroke-dasharray="1.5 5"/></g></g><mask/><g stroke-linecap="round"><g transform="translate(88.95660685710163 405.0193912502921) rotate(0 216.839009453043 9.003823588967862)"><path d="M-0.91 0.62 C62.13 8.79, 306.28 54.48, 378.89 49.12 C451.5 43.76, 425.45 -18.11, 434.77 -31.53" stroke="#1e1e1e" stroke-width="1.5" fill="none" stroke-dasharray="1.5 7"/></g><g transform="translate(88.95660685710163 405.0193912502921) rotate(0 216.839009453043 9.003823588967862)"><path d="M442.92 -3.48 C440.4 -10.94, 435.05 -21.24, 433.23 -31.07" stroke="#1e1e1e" stroke-width="1.5" fill="none" stroke-dasharray="1.5 5"/></g><g transform="translate(88.95660685710163 405.0193912502921) rotate(0 216.839009453043 9.003823588967862)"><path d="M422.52 -5.73 C427.23 -12.24, 429.1 -21.74, 433.23 -31.07" stroke="#1e1e1e" stroke-width="1.5" fill="none" stroke-dasharray="1.5 5"/></g></g><mask/><g stroke-linecap="round" transform="translate(465.73199396467544 227.0207249145452) rotate(0 90.03823588967771 69.95278326813411)"><path d="M7.86 8.16 C7.86 8.16, 7.86 8.16, 7.86 8.16 M7.86 8.16 C7.86 8.16, 7.86 8.16, 7.86 8.16 M2.75 26.24 C5.59 20.42, 10.47 17.66, 21.12 5.11 M2.75 26.24 C8.25 20.23, 11.04 16.18, 21.12 5.11 M2.88 38.28 C14.05 26.46, 24.25 9.92, 34.37 2.05 M2.88 38.28 C12.02 26.86, 23.35 15.4, 34.37 2.05 M2.36 51.07 C15.92 37.66, 25.45 22.73, 45 2.02 M2.36 51.07 C17.15 35.42, 31.01 19.29, 45 2.02 M2.49 63.11 C25.82 38.55, 43.62 15.41, 55.63 1.98 M2.49 63.11 C13.32 50.76, 25.65 36.76, 55.63 1.98 M2.62 75.16 C25.67 48.49, 46.12 24.07, 66.26 1.95 M2.62 75.16 C19.68 56.06, 37.52 36.4, 66.26 1.95 M2.76 87.2 C18.92 69.5, 35.1 52.1, 76.89 1.91 M2.76 87.2 C32.32 53.87, 60.96 22.22, 76.89 1.91 M2.89 99.24 C25.5 74.07, 48.86 46.15, 87.52 1.88 M2.89 99.24 C24.81 73.09, 47 48.18, 87.52 1.88 M2.37 112.03 C37.47 71.02, 71.73 31.81, 98.15 1.85 M2.37 112.03 C38.7 71.58, 72.71 32.15, 98.15 1.85 M5.78 120.3 C28.37 94.29, 48.39 72.61, 108.78 1.81 M5.78 120.3 C29.03 95.2, 52.41 68.3, 108.78 1.81 M7.88 130.08 C31.54 105.86, 52.86 79.5, 119.41 1.78 M7.88 130.08 C47.43 83.99, 87.67 39.82, 119.41 1.78 M13.26 136.08 C57.52 84.33, 100.2 33.62, 130.04 1.74 M13.26 136.08 C57.46 85.32, 99.51 35.96, 130.04 1.74 M20.61 139.82 C54.81 103.26, 82.94 68.6, 140.67 1.71 M20.61 139.82 C53.92 101.59, 88.14 62.7, 140.67 1.71 M29.93 141.29 C76.51 89.24, 120.62 39.46, 150.65 2.43 M29.93 141.29 C56.92 108.82, 84.71 77.73, 150.65 2.43 M37.28 145.03 C70.64 107.65, 107.39 64.57, 159.96 3.9 M37.28 145.03 C83.91 91.18, 129.85 37.83, 159.96 3.9 M47.91 145 C92.43 93.54, 137.07 42.18, 167.97 6.89 M47.91 145 C76.22 111.85, 105.19 80.15, 167.97 6.89 M58.54 144.96 C105.83 90.15, 152.1 36.44, 175.32 10.63 M58.54 144.96 C101.72 94.08, 145.98 45.14, 175.32 10.63 M69.17 144.93 C107.04 103.58, 142.34 60.8, 178.73 18.89 M69.17 144.93 C104.84 105.44, 140.09 64.46, 178.73 18.89 M79.8 144.9 C111.16 106.88, 143.77 72.4, 180.18 29.42 M79.8 144.9 C111.11 108.73, 141.59 73.42, 180.18 29.42 M90.43 144.86 C113.33 117.16, 137.05 92.44, 184.9 36.18 M90.43 144.86 C122.08 107.85, 154.15 70.56, 184.9 36.18 M101.06 144.83 C132.27 108.12, 164.29 71.69, 185.04 48.22 M101.06 144.83 C128.39 112.49, 157.97 80.68, 185.04 48.22 M111.69 144.79 C131.09 121.99, 151.7 98.79, 184.51 61.02 M111.69 144.79 C129.16 125.21, 146.28 105.59, 184.51 61.02 M122.32 144.76 C137.61 126.69, 156.22 108.08, 184.65 73.06 M122.32 144.76 C140.34 123.59, 159.74 102.2, 184.65 73.06 M132.95 144.72 C152.14 123.47, 170.66 100.73, 184.78 85.1 M132.95 144.72 C148.21 127.86, 160.69 112.79, 184.78 85.1 M143.58 144.69 C154.31 132.32, 168.68 116.65, 184.26 97.9 M143.58 144.69 C160.28 125.43, 175.77 108.56, 184.26 97.9 M154.21 144.65 C160.23 135.1, 167.69 126.8, 179.8 115.22 M154.21 144.65 C163.92 133.2, 174.81 121.13, 179.8 115.22 M8.32 132.18 C8.32 132.18, 8.32 132.18, 8.32 132.18 M8.32 132.18 C8.32 132.18, 8.32 132.18, 8.32 132.18 M21.87 133.36 C13.62 128.55, 9.16 119.77, 0.74 114.99 M21.87 133.36 C15.96 127.61, 8.61 122.29, 0.74 114.99 M36.18 135.2 C21.83 122.9, 8.6 111.1, 0.7 104.36 M36.18 135.2 C29.27 127.64, 19.97 120.84, 0.7 104.36 M48.22 135.06 C33.51 123.14, 20.53 110.26, 0.67 93.73 M48.22 135.06 C31.82 121.15, 15.67 107.04, 0.67 93.73 M60.26 134.93 C48.31 126.34, 37.41 114.57, 0.64 83.1 M60.26 134.93 C45.72 122.99, 32.87 110.72, 0.64 83.1 M73.05 135.45 C52.01 116.75, 30.52 95.74, 0.6 72.47 M73.05 135.45 C57.39 122.23, 42.9 107.8, 0.6 72.47 M85.09 135.32 C58.83 111.28, 30.37 88.78, 0.57 61.84 M85.09 135.32 C63.72 116.19, 41.66 96.39, 0.57 61.84 M97.13 135.19 C70.49 113.04, 44.54 91.41, 0.53 51.21 M97.13 135.19 C66.92 108.74, 38.22 84.34, 0.53 51.21 M109.18 135.06 C88.28 113.62, 67.93 94.58, 0.5 40.58 M109.18 135.06 C66.89 100.12, 25.59 64.58, 0.5 40.58 M121.22 134.92 C85.83 102.94, 47.34 69.73, 0.46 29.95 M121.22 134.92 C84.02 101.75, 47.02 69.69, 0.46 29.95 M134.01 135.45 C92.24 98.19, 50.34 63.44, 2.69 21.29 M134.01 135.45 C107.47 113.43, 81.02 90.97, 2.69 21.29 M149.83 138.59 C104.34 97.73, 59.95 59.87, 5.68 13.28 M149.83 138.59 C118.31 111.23, 88.23 83.24, 5.68 13.28 M159.6 136.49 C110.33 94.36, 59.86 50.66, 9.42 5.94 M159.6 136.49 C125.7 107.86, 91.37 78.79, 9.42 5.94 M167.12 132.42 C131.29 100.32, 95.38 69.93, 16.93 1.87 M167.12 132.42 C116.05 85.35, 63.41 40.54, 16.93 1.87 M174.63 128.35 C129.42 91.67, 85.93 52.45, 22.93 -3.52 M174.63 128.35 C137.26 95.82, 97.85 61.8, 22.93 -3.52 M178.37 121 C126.78 74.64, 75.49 31.73, 34.97 -3.65 M178.37 121 C135.22 83.77, 92.34 46.81, 34.97 -3.65 M181.35 113 C148.89 83.71, 113.63 56.79, 47.01 -3.78 M181.35 113 C151.8 87.78, 122.93 62.6, 47.01 -3.78 M181.32 102.37 C135.88 64.91, 91.98 26.05, 59.81 -3.26 M181.32 102.37 C154.21 80.72, 128.89 57.2, 59.81 -3.26 M181.28 91.74 C153.91 67.06, 127.81 45.8, 71.85 -3.39 M181.28 91.74 C144.54 60.16, 108.33 29.06, 71.85 -3.39 M182 81.76 C147.66 51.51, 110.36 20.32, 83.89 -3.53 M182 81.76 C152.45 56.52, 122.84 31.32, 83.89 -3.53 M181.97 71.13 C155.61 48.96, 130.22 25.69, 95.93 -3.66 M181.97 71.13 C155.26 48.17, 127.32 24.71, 95.93 -3.66 M181.93 60.5 C168.22 47.32, 151.21 33.11, 107.97 -3.79 M181.93 60.5 C159.21 41.23, 138.46 22.92, 107.97 -3.79 M181.9 49.87 C167.37 34.92, 148.23 21.9, 120.77 -3.27 M181.9 49.87 C169.28 36.37, 155.03 26.13, 120.77 -3.27 M181.86 39.24 C164.02 20.35, 142.72 6.71, 132.81 -3.4 M181.86 39.24 C170.75 29.38, 158.32 18.93, 132.81 -3.4 M182.59 29.27 C171.62 19.09, 158.63 9.05, 148.62 -0.26 M182.59 29.27 C170.35 18.47, 156.64 5.84, 148.62 -0.26 M179.53 16.01 C173.06 9.02, 167.08 6.48, 162.93 1.58 M179.53 16.01 C175.14 12.74, 169.75 8.01, 162.93 1.58" stroke="#b2f2bb" stroke-width="1" fill="none"/><path d="M32 0 M32 0 C76.67 0.11, 120.13 -1.22, 148.08 0 M32 0 C61.43 -0.34, 90.13 0.04, 148.08 0 M148.08 0 C168.55 1.16, 179.82 10.38, 180.08 32 M148.08 0 C170.21 0.74, 178.93 9.76, 180.08 32 M180.08 32 C182.39 56.94, 179.96 80.22, 180.08 107.91 M180.08 32 C180.41 58.59, 179.22 86.14, 180.08 107.91 M180.08 107.91 C180.58 129.05, 170.67 138.07, 148.08 139.91 M180.08 107.91 C177.81 129.8, 168.25 138.18, 148.08 139.91 M148.08 139.91 C113.95 138.37, 83.91 138.69, 32 139.91 M148.08 139.91 C115.31 138.03, 82.41 138.79, 32 139.91 M32 139.91 C9.47 140.43, -0.17 129.05, 0 107.91 M32 139.91 C9.03 138.18, 0.76 127.51, 0 107.91 M0 107.91 C-1.17 77.15, 1.91 51.11, 0 32 M0 107.91 C0.35 86.68, 1.02 63.51, 0 32 M0 32 C-0.51 11.43, 9.9 -1.58, 32 0 M0 32 C1.41 10.61, 9.23 -0.86, 32 0" stroke="#2f9e44" stroke-width="2" fill="none"/></g><g transform="translate(473.65801211003463 321.21457169143844) rotate(0 85.5 16.100000000000023)"><text x="0" y="0" font-family="Helvetica, Segoe UI Emoji" font-size="28px" fill="#1e1e1e" text-anchor="start" style="white-space: pre;" direction="ltr" dominant-baseline="text-before-edge">Component 2</text></g></svg>